<?xml version="1.0" encoding="UTF-8"?>
<svg id="Layer_2" data-name="Layer 2" xmlns="http://www.w3.org/2000/svg" viewBox="0 0 272 272">
  <defs>
    <style>
      .cls-1 {
        fill: #fff;
      }

      .cls-2 {
        fill: #458dc9;
      }

      .cls-3 {
        fill: #7697ff;
      }

      .cls-4 {
        fill: #2fa5ea;
      }

      .cls-5 {
        fill: #fc7f3a;
      }

      .cls-6 {
        fill: #2b2594;
      }

      .cls-7 {
        stroke: #000;
        stroke-miterlimit: 10;
        stroke-width: 2.61px;
      }
    </style>
  </defs>
  <g id="Layer_1-2" data-name="Layer 1">
    <g id="Group_2315" data-name="Group 2315">
      <rect id="Rectangle_322-2" data-name="Rectangle 322-2" class="cls-1" width="272" height="272"/>
      <g id="communication_transportation_fly_airplane_paper_memo_man_people_transport_delivery" data-name="communication transportation fly airplane paper memo man people transport delivery">
        <g id="Group">
          <path id="Path" class="cls-5" d="M138.4,102.92l1.02-12.96-11.42,3.14-1.18,8.46"/>
          <path id="Path-2" d="M138.94,102.92l.34-4.39,.55-6.96,.13-1.61c0-.3-.25-.54-.55-.54-.05,0-.09,0-.13,.02l-3.84,1.06-6.17,1.7-1.41,.39c-.18,.05-.33,.19-.38,.38l-1.04,7.42-.15,1.04c-.07,.29,.1,.58,.38,.66,.29,.08,.58-.09,.67-.38l1.04-7.42,.14-1.04-.38,.37,3.84-1.06,6.17-1.7,1.41-.39-.68-.52-.34,4.39-.55,6.97-.13,1.61c-.05,.69,1.03,.69,1.08,0h0Z"/>
          <path id="Path-3" class="cls-5" d="M139.27,91.78c1.42-4.52,5.17-6.73,5.87-10.28,.4-2.06-1.89-6.83-1.89-6.83l-21.2-1.32s-10.9,22.7,9.81,21.26"/>
          <path id="Path-4" d="M139.79,91.92c.54-1.55,1.32-2.99,2.32-4.29,.91-1.13,1.77-2.32,2.56-3.54,.7-1.05,1.06-2.29,1.03-3.55-.15-1.29-.48-2.54-.98-3.74-.31-.82-.65-1.63-1.02-2.42-.1-.17-.27-.27-.47-.27l-7.18-.45-11.42-.71-2.6-.16c-.19,0-.37,.1-.47,.27-.37,.78-.69,1.59-.99,2.4-.66,1.76-1.18,3.57-1.54,5.42-.46,2.18-.53,4.43-.19,6.63,.34,2.18,1.49,4.15,3.22,5.51,2.33,1.78,5.45,2.21,8.3,2.17,.49,0,.98-.03,1.48-.06,.69-.05,.7-1.12,0-1.08-1.7,.15-3.42,.07-5.1-.21-1.23-.21-2.41-.65-3.47-1.29-.44-.27-.85-.59-1.22-.95-.18-.18-.36-.37-.52-.57-.04-.05-.08-.1-.12-.14,.07,.09-.04-.05-.05-.07-.08-.11-.16-.22-.23-.34-.14-.21-.26-.42-.38-.65l-.16-.32c-.03-.05-.05-.11-.08-.16l-.04-.08c-.03-.06,.03,.08,0-.02-.19-.47-.34-.94-.46-1.43-.06-.25-.11-.51-.15-.77l-.03-.18s0-.06-.01-.09c0,.02,.01,.11,0,0-.02-.13-.03-.26-.05-.4-.05-.53-.07-1.06-.07-1.58,0-.53,.03-1.05,.08-1.58,.02-.27,.06-.54,.09-.81,.01-.09,0,.05,.01-.09,0-.06,.02-.13,.03-.19,.02-.13,.04-.27,.06-.4,.32-1.87,.81-3.71,1.45-5.49,.22-.62,.46-1.23,.71-1.83,.07-.16-.03,.08,.02-.05l.07-.15c.04-.08,.07-.17,.11-.25,.05-.1,.1-.2,.14-.3,0-.02,.02-.03,.03-.04l-.47,.27,7.18,.45,11.42,.71,2.59,.16-.47-.27c.3,.63,.53,1.18,.78,1.82,.48,1.13,.83,2.32,1.04,3.53,.1,1.13-.18,2.26-.81,3.2-.74,1.18-1.56,2.31-2.44,3.39-1.13,1.43-2.01,3.04-2.6,4.77-.21,.66,.83,.95,1.04,.29h0Z"/>
          <path id="Path-5" d="M137.17,84.4l.02-.04s-.03,.07,0,0l.03-.08c.07-.15,.13-.29,.2-.43,.2-.42,.44-.83,.7-1.21,.13-.19,.28-.37,.44-.54,.14-.15,.3-.28,.48-.37,0,0,.07-.03,.04-.02s.03-.01,.04-.02c.05-.01,.09-.03,.14-.04,.05-.01-.04,0,.01,0h.13c-.06,0,0,0,.02,0,.12,.03,.24,.08,.34,.16,.01,0,.09,.09,.08,.07,.02,.02,.03,.05,.04,.07,.02,.04,0,0,.02,.04,.02,.08,.03,.17,.01,.25-.01,.06-.03,.11-.05,.17,0,.03-.02,.05-.03,.08,.02-.05,0,.02-.02,.03-.04,.08-.08,.16-.13,.23-.02,.02-.03,.05-.05,.07-.04,.05,.02-.03,.02-.02-.1,.11-.1,.27,0,.38,.11,.1,.28,.1,.38,0,.26-.3,.41-.67,.42-1.06-.06-.62-.61-1.08-1.23-1.02h-.01c-.51,.1-.97,.4-1.27,.83-.35,.43-.65,.9-.9,1.39-.15,.3-.3,.6-.42,.91-.04,.14,.04,.29,.19,.33h0c.14,.04,.29-.05,.33-.19h0Z"/>
          <path id="Path-6" class="cls-1" d="M149.75,102.4l.21-4.48c.17-2.12,1.85-3.8,3.97-3.97l29.28-3.14-2.06,6.91,3.18,9.52-29.82-2.94"/>
          <path id="Path-7" d="M150.29,102.4l.19-4c0-.71,.16-1.41,.5-2.04,.62-1,1.65-1.67,2.81-1.85,.42-.07,.85-.1,1.27-.14l3.12-.33,9.66-1.04,10.03-1.08,3.53-.38c.57-.06,1.17-.08,1.73-.19,.03,0,.05,0,.08,0l-.52-.68-.94,3.14c-.37,1.23-.78,2.46-1.1,3.7-.05,.24-.01,.49,.09,.71l.51,1.51,1.53,4.58,1.03,3.09,.52-.68-2.95-.3-7.14-.7-8.61-.85-7.44-.73-2.46-.24c-.39-.04-.78-.1-1.17-.12-.02,0-.03,0-.05,0-.3,0-.54,.24-.54,.54,0,.3,.24,.53,.54,.54l2.96,.29,7.14,.7,8.6,.85,7.44,.73,2.46,.24c.39,.04,.78,.1,1.17,.12,.02,0,.03,0,.05,0,.3,0,.54-.25,.54-.55,0-.05,0-.09-.02-.14l-2.78-8.33-.4-1.19v.29l1.8-6.04,.26-.87c.08-.29-.09-.59-.38-.66-.04-.01-.09-.02-.14-.02l-4.48,.48-9.9,1.06-10.03,1.08c-1.62,.17-3.25,.34-4.87,.52-2.39,.19-4.3,2.08-4.52,4.47-.08,1.35-.13,2.71-.19,4.07l-.02,.46c-.03,.7,1.05,.7,1.08,0Z"/>
          <path id="Path-8" d="M9.21,160.03l193.44-21.38-18.5,28.55-174.94-7.17Z"/>
          <path id="Path-9" d="M9.21,160.57l5.18-.58,14.09-1.55,20.84-2.3,25.42-2.81,27.74-3.07,28.09-3.11,26.2-2.9,22.07-2.43,15.98-1.77,4.93-.55c.86-.05,1.73-.15,2.58-.29,.11-.02,.21-.03,.32-.04l-.47-.81-6.26,9.66-9.93,15.33-2.31,3.56,.47-.27-4.71-.19-12.68-.52-18.89-.77-22.95-.94-25.15-1.03-25.38-1.04-23.67-.97-20-.82-14.39-.59c-2.27-.09-4.56-.25-6.83-.28-.1,0-.19,0-.29-.01-.7-.03-.7,1.05,0,1.08l6.63,.27,17.65,.73,25.3,1.04,29.49,1.21,30.4,1.25,28.06,1.15,22.26,.91,13.08,.54c.68,.09,1.36,.12,2.04,.08,.53-.08,.79-.74,1.06-1.15l2.41-3.73,14.43-22.27,1.08-1.67c.15-.26,.05-.59-.21-.74-.08-.04-.17-.07-.26-.07l-5.18,.57-14.09,1.55-20.84,2.3-25.42,2.81-27.74,3.07-28.1,3.1-26.2,2.9-22.07,2.44-15.97,1.77c-2.5,.28-5.01,.55-7.51,.83l-.32,.04c-.68,.08-.69,1.16,0,1.08Z"/>
          <path id="Path-10" class="cls-3" d="M202.65,138.65l-25.14-23.77L9.2,160.03l193.44-21.38Z"/>
          <path id="Path-11" d="M203.03,138.27l-15.97-15.1-8.25-7.8c-.39-.37-.88-1.06-1.46-1.01-.18,.03-.36,.08-.53,.14l-9.71,2.6-19.49,5.24-25.8,6.92-29.17,7.83-29.02,7.79-25.71,6.9-19.18,5.15-9.28,2.49-.4,.11c-.57,.15-.48,1.13,.14,1.06l5.18-.57,14.09-1.56,20.84-2.3,25.42-2.81,27.74-3.07,28.09-3.1,26.2-2.9,22.07-2.44,15.98-1.77c2.5-.28,5.01-.55,7.51-.83l.32-.04c.68-.08,.69-1.15,0-1.08l-5.18,.57-14.09,1.56-20.84,2.3-25.42,2.81-27.74,3.07-28.09,3.1-26.2,2.89-22.07,2.44-15.98,1.77-4.93,.55c-.85,.09-1.75,.11-2.58,.29-.1,.02-.22,.02-.32,.04l.14,1.06,4.5-1.2,12.24-3.29,18.11-4.87,22.1-5.93,24.21-6.49,24.43-6.56,22.78-6.11,19.25-5.17,13.84-3.72,4.3-1.15c.76-.16,1.51-.36,2.25-.6,.09-.03,.18-.06,.28-.08l-.53-.14,8.5,8.04,13.54,12.81,3.1,2.93c.51,.47,1.27-.29,.77-.77Z"/>
          <path id="Path-12" class="cls-6" d="M123.94,123.63l-31.98,18.45c-8.05,3.31-16.05-1.57-19.57-8.85l-16.34-33.73,13.69-6.79,16.68,34.8,25.34-19.73c2.3-1.79,5.18-2.67,8.09-2.47l6.67,.46"/>
          <path id="Path-13" d="M123.67,123.17l-4.12,2.38-9.46,5.46-10.44,6.02-7.05,4.07c-.6,.37-1.25,.67-1.92,.88-2.84,.89-5.91,.8-8.69-.27-4.15-1.74-7.48-5-9.31-9.11l-3-6.19-5.09-10.5-5.05-10.42-2.89-5.97-.14-.28-.2,.74,4.62-2.29,7.39-3.66,1.69-.84-.74-.19,1.66,3.47,3.99,8.32,4.82,10.07,4.16,8.67,1.37,2.86c.21,.45,.41,.92,.65,1.35,.01,.02,.02,.04,.03,.06,.16,.26,.5,.34,.76,.18,.03-.02,.06-.04,.09-.07l4.16-3.24,8.98-6.99,8.74-6.8,2.7-2.1c.73-.6,1.52-1.14,2.34-1.61,1.52-.81,3.21-1.26,4.93-1.32,.72,0,1.43,.02,2.14,.09l5.31,.37,.4,.03c.7,.05,.69-1.03,0-1.08l-4.54-.31-2.04-.14c-1.38-.1-2.77,.03-4.11,.39-1.74,.5-3.37,1.34-4.78,2.49l-2.2,1.71-8.36,6.51-9.31,7.25-3.38,2.63c-.55,.43-1.15,.84-1.67,1.3-.02,.02-.05,.04-.08,.06l.85,.11-1.66-3.47-3.99-8.32-4.83-10.07-4.15-8.67-1.37-2.86c-.21-.45-.41-.92-.65-1.35-.01-.02-.02-.04-.03-.06-.15-.25-.48-.34-.74-.19l-4.61,2.29-7.39,3.66-1.69,.84c-.25,.15-.34,.48-.19,.74l2.08,4.29,4.78,9.86,5.29,10.92,3.65,7.54c.21,.43,.42,.87,.63,1.3,1.37,2.77,3.39,5.17,5.88,6.99,2.41,1.79,5.3,2.82,8.3,2.98,1.58,.06,3.15-.15,4.65-.62,.53-.14,1.04-.33,1.52-.59l5.42-3.13,10.05-5.8,10.21-5.89,5.87-3.39,.28-.16c.26-.14,.36-.47,.22-.73-.14-.26-.47-.36-.73-.22-.01,0-.02,.01-.03,.02h.01Z"/>
          <path id="Path-14" class="cls-6" d="M119.85,105.33c-2.91-.2-5.79,.68-8.09,2.47l-25.34,19.73-11.57-24.14c-2.41,1.72-5,3.2-7.71,4.4-2.12,.97-10.49,2.24-12.28,2.8l8.19,27.12c3.04,9.38,12.52,15.13,27.44,8.36l33.26-17.85,2.77-22.42-6.67-.47Z"/>
          <path id="Path-15" d="M119.85,104.79c-2.96-.19-5.89,.69-8.27,2.47-.33,.25-.66,.51-.99,.77l-5.42,4.22-7.96,6.19-7.4,5.76-2.52,1.96c-.4,.31-.84,.6-1.21,.94-.02,.01-.03,.03-.05,.04l.85,.11-1.15-2.39-2.77-5.77-3.34-6.96-2.89-6.02c-.47-.97-.88-2-1.41-2.94,0-.01-.01-.03-.02-.04-.15-.26-.48-.34-.74-.19-1.48,1.09-3.05,2.06-4.68,2.91-.99,.53-2,1.03-3.03,1.49-.02,.01-.15,.06-.02,.01-.04,.02-.08,.03-.13,.05-.08,.03-.15,.06-.23,.08-.24,.08-.48,.16-.72,.22-2.58,.74-5.25,1.17-7.89,1.68-1.07,.17-2.12,.41-3.17,.69-.28,.08-.45,.38-.38,.66l.73,2.42,1.78,5.9,2.22,7.35,2.05,6.78,1.26,4.18c.5,1.72,1.25,3.37,2.2,4.89,1.52,2.4,3.67,4.35,6.22,5.62,2.91,1.36,6.13,1.92,9.33,1.62,1.96-.17,3.91-.54,5.79-1.12,1.67-.48,3.29-1.1,4.86-1.85,.72-.36,1.41-.76,2.12-1.14l4.76-2.55,6.34-3.4,6.86-3.68,6.33-3.39,4.73-2.53c.69-.37,1.41-.7,2.07-1.11,.31-.19,.3-.58,.34-.91l.23-1.84,.81-6.52,.93-7.56,.65-5.3,.1-.77c.04-.3-.28-.52-.54-.54l-5.85-.4-.83-.06c-.69-.05-.69,1.03,0,1.08l5.85,.4,.83,.06-.54-.54-.94,7.62-1.49,12.05-.34,2.76,.27-.46-3.99,2.14-9.29,4.98-10.52,5.65-7.77,4.17c-.54,.29-1.07,.59-1.61,.87-.79,.39-1.6,.73-2.43,1.02-1.55,.59-3.14,1.06-4.76,1.4-4.83,1-10.07,.57-14.11-2.49-2.67-2.11-4.6-5.02-5.53-8.29l-2.27-7.51-3.43-11.37-2.26-7.5-.12-.38-.38,.66c.92-.25,1.85-.46,2.78-.62,1.37-.27,2.74-.52,4.1-.8,1.29-.26,2.58-.53,3.85-.87,1.35-.41,2.65-.96,3.89-1.64,1.92-.95,3.76-2.07,5.49-3.33l-.74-.2,1.15,2.39,2.77,5.78,3.34,6.96,2.9,6.02c.47,.97,.88,2,1.41,2.94,0,.01,.01,.03,.02,.04,.16,.26,.5,.34,.76,.18,.03-.02,.06-.04,.09-.07l3.02-2.35,7.04-5.48,7.99-6.22,5.95-4.63,1.27-.99c1.63-1.26,3.57-2.06,5.61-2.31,.72-.08,1.45-.1,2.17-.05,.7,.04,.69-1.03,0-1.08Z"/>
          <path id="Path-16" d="M54.78,110.55c.4,.87,2.94,.64,6.4-.44l-1.97-4.07c-3.03,1.9-4.83,3.64-4.43,4.51Z"/>
          <path id="Path-17" d="M54.31,110.82c.41,.83,1.62,.83,2.4,.79,1.57-.14,3.12-.47,4.61-.98,.29-.09,.45-.39,.37-.68-.01-.04-.03-.08-.05-.11l-1.97-4.07c-.15-.26-.48-.34-.74-.19-1.35,.79-2.6,1.74-3.72,2.84-.61,.63-1.3,1.5-.91,2.41,.15,.26,.48,.34,.74,.19,.25-.15,.34-.48,.19-.74,.06,.13,.02,.05,.02,.02-.02-.07,0,.12,0,.02v-.09c0-.07-.03,.13,0,0,.02-.05,.03-.1,.04-.14-.03,.07,.03-.05,.03-.07,.02-.04,.04-.08,.06-.11,.22-.35,.49-.67,.8-.95,1.01-.93,2.1-1.74,3.28-2.44l-.73-.2,1.97,4.07,.32-.79c-1.33,.45-2.7,.76-4.09,.92-.25,.02-.5,.03-.74,.03-.11,0-.21,0-.32-.02-.06,0-.11,0-.17-.02-.08-.02-.16-.04-.24-.06-.04-.01-.07-.02-.11-.04,.11,.05,.02,0,0,0-.03-.02-.05-.03-.08-.05,.05,.03,.07,.04,.01,0s-.04-.04,0,.02c-.02-.03-.04-.06-.05-.09-.31-.62-1.24-.07-.94,.55Z"/>
          <path id="Path-18" class="cls-5" d="M73.24,100.04l-3.51-7.32-14.28,3.5,1.98,7.55,1.8,7.01c1.8-.56,5.78-2.02,7.9-2.99,2.71-1.2,5.29-2.68,7.71-4.4l-1.6-3.35Z"/>
          <path id="Path-19" d="M73.71,99.77l-3.07-6.4-.44-.92c-.13-.21-.37-.31-.61-.25l-4.84,1.19-7.68,1.88-1.77,.43c-.28,.08-.45,.38-.38,.66l1.67,6.37c.45,1.71,.89,3.42,1.33,5.13l.79,3.06c.08,.29,.38,.45,.67,.38,1.95-.61,3.87-1.33,5.76-2.09,2.3-.91,4.52-1.98,6.67-3.21,1.15-.65,2.25-1.37,3.31-2.15,.25-.16,.33-.48,.19-.74l-1.6-3.35c-.3-.63-1.23-.08-.93,.54l1.6,3.35,.19-.74c-3.85,2.7-8.07,4.83-12.52,6.32-.98,.36-1.96,.71-2.95,1.02l.67,.38-1.63-6.35c-.45-1.77-.92-3.53-1.39-5.3l-.77-2.91-.38,.66,4.84-1.19,7.67-1.88,1.77-.43-.61-.25,3.07,6.4,.44,.92c.3,.63,1.23,.08,.93-.54Z"/>
          <path id="Path-20" class="cls-5" d="M57.8,105.39l-1.69-5.94,1.21-11.63c1.18-2.56,.25-5.6-2.17-7.06,4.43-6.76,11.42-4.89,12.37,1.64,.39,2.66,.83,4.88,1.21,6.58,.5,2.18,1.24,4.29,2.2,6.31l1.43,2.96"/>
          <path id="Path-21" d="M58.32,105.25l-1.01-3.55-.57-2.02c-.03-.13-.06-.26-.11-.38,.16,0-.02,.21,.02,.1,0-.05,.01-.09,.01-.14l.88-8.42,.32-3.04-.07,.27c.85-1.81,.77-3.92-.23-5.66-.55-.86-1.27-1.59-2.13-2.14l.19,.74c1.13-1.96,3.01-3.37,5.21-3.91,1.7-.28,3.42,.33,4.55,1.63,1.65,1.84,1.7,4.42,2.11,6.72,.45,2.9,1.22,5.75,2.28,8.48,.65,1.55,1.41,3.05,2.14,4.56,.3,.62,1.23,.08,.93-.54-.6-1.25-1.23-2.48-1.79-3.75-1.18-2.84-2.02-5.82-2.49-8.87-.15-.82-.29-1.63-.41-2.45-.08-.65-.21-1.29-.38-1.92-.3-1.05-.82-2.02-1.51-2.86-1.27-1.51-3.19-2.3-5.15-2.12-2.77,.29-4.94,2.25-6.42,4.48-.14,.26-.06,.58,.19,.74,1.51,.86,2.43,2.47,2.4,4.21,0,.13,0,.26-.02,.39,0,.06-.01,.12-.02,.17,0,.03-.02,.19-.01,.11-.05,.39-.15,.77-.27,1.14-.04,.11-.08,.21-.12,.32,.09-.25-.06,.17-.06,.18-.02,.12-.03,.25-.04,.38l-.22,2.13-.68,6.54-.23,2.25c-.04,.32,0,.64,.09,.95l1.54,5.4,.04,.15c.11,.28,.42,.42,.7,.31,.24-.09,.39-.34,.34-.6h0Z"/>
          <path id="Path-22" class="cls-5" d="M63.78,84c.23-2.26-1.51-6.98-2.55-10.6s1.45-5.22,3.35-1.88c2.37,4.31,3.17,10.96,3.4,13.54,.07,.78,.2,1.56,.38,2.32l.59,2.47"/>
          <path id="Path-23" d="M64.32,84c.04-1.17-.11-2.34-.43-3.46-.35-1.45-.79-2.88-1.23-4.31-.23-.73-.45-1.46-.67-2.2-.23-.66-.38-1.34-.45-2.04-.04-.49,.05-.98,.28-1.41,.12-.25,.39-.39,.66-.35-.07,0,.15,.03,.19,.05,.08,.03,.15,.06,.22,.1,.23,.14,.43,.31,.61,.52,.43,.52,.79,1.11,1.06,1.73,.59,1.28,1.07,2.62,1.43,3.98,.65,2.41,1.1,4.87,1.36,7.36,.1,1.25,.29,2.49,.55,3.71l.55,2.3c.16,.67,1.2,.39,1.04-.29l-.52-2.18c-.24-1.08-.41-2.18-.51-3.29-.25-2.6-.71-5.17-1.37-7.7-.38-1.46-.89-2.89-1.51-4.26-.54-1.17-1.28-2.6-2.61-3.02-.99-.28-2.03,.29-2.31,1.29,0,0,0,0,0,0,0,.02-.01,.05-.02,.07-.46,1.36,.04,2.81,.43,4.12,.52,1.71,1.07,3.41,1.54,5.14,.45,1.33,.67,2.74,.65,4.15,0,.3,.24,.54,.54,.54,.3,0,.53-.24,.54-.54h0Z"/>
          <path id="Path-24" class="cls-5" d="M65.7,85.14s-1.49-9.06-5.06-14.15c-2.26-3.12-4.55-1.26-3.12,2.23s3.48,9.24,3.5,11.5"/>
          <path id="Path-25" d="M66.22,85c-.21-1.25-.49-2.49-.81-3.72-.62-2.57-1.49-5.08-2.58-7.49-.55-1.29-1.27-2.49-2.14-3.59-.74-.87-2.04-1.78-3.19-1.09-1.1,.66-1.09,2.21-.83,3.31,.19,.68,.44,1.35,.73,1.99,.27,.68,.53,1.36,.78,2.05,.57,1.54,1.1,3.1,1.56,4.67,.4,1.16,.64,2.37,.73,3.6,.01,.3,.27,.53,.56,.52,.28-.01,.51-.24,.52-.52-.06-1.02-.23-2.04-.53-3.02-.35-1.33-.77-2.64-1.22-3.93s-.94-2.61-1.45-3.9c-.4-1.02-1.1-2.41-.59-3.48,.02-.05,.05-.09,.08-.13,0-.01,.08-.11,.04-.06,.03-.04,.18-.17,.13-.14,.11-.09,.26-.13,.4-.12,.5,.09,.94,.36,1.27,.74,.87,1,1.57,2.13,2.09,3.35,1.06,2.28,1.89,4.65,2.49,7.08,.36,1.37,.69,2.76,.92,4.16,.08,.29,.38,.45,.67,.38,.28-.08,.45-.38,.38-.66h0Z"/>
          <path id="Path-26" class="cls-5" d="M63.06,85.86s-1.95-8.97-5.78-13.87c-2.41-3-4.61-1.02-3.01,2.39s3.95,9.05,4.08,11.31"/>
          <path id="Path-27" d="M63.58,85.72c-.27-1.24-.62-2.47-1-3.68-.75-2.53-1.73-4.98-2.93-7.32-.61-1.25-1.39-2.41-2.3-3.46-.77-.83-2.09-1.72-3.23-1.04-1.09,.66-1.05,2.19-.76,3.26,.23,.72,.53,1.42,.88,2.1,.29,.63,.57,1.27,.84,1.91,.65,1.53,1.27,3.07,1.82,4.64,.45,1.14,.76,2.34,.92,3.55,.05,.69,1.13,.69,1.08,0-.1-1.02-.33-2.02-.67-2.99-.42-1.31-.9-2.6-1.42-3.87-.53-1.3-1.08-2.6-1.67-3.87-.45-1-1.24-2.34-.74-3.47,.06-.11,.14-.22,.23-.31,.11-.09,.26-.13,.4-.12,.48,.07,.92,.3,1.26,.65,.92,.95,1.68,2.04,2.25,3.23,1.18,2.22,2.14,4.55,2.87,6.95,.43,1.35,.83,2.73,1.13,4.12,.15,.68,1.19,.39,1.04-.29h0Z"/>
          <path id="Path-28" class="cls-5" d="M60.8,86.59c-.92-2.08-2.02-4.07-3.27-5.96-4.43-7.01-13.63,.9-13.63,.9-2.52,2.4-1.54,5.58,1.88,3.81,3.14-1.63,7.64-6.07,9.17,.7,.95,4.17-3.69,6.05-6.44,.57-.39-.79-1.25-1.23-2.12-1.09h-.05c-.95,.17-1.65,.98-1.67,1.95-.04,2.75,3.97,8.88,10.8,10.38l2.7,8.63"/>
          <path id="Path-29" d="M61.32,86.44c-.3-.73-.65-1.43-1.02-2.13-.41-.79-.84-1.56-1.3-2.32-.48-.87-1.03-1.7-1.63-2.49-.84-1.05-2-1.8-3.3-2.13-1.23-.26-2.51-.23-3.72,.1-2.1,.58-4.06,1.55-5.79,2.87-.36,.25-.71,.52-1.05,.81-1.15,.92-1.71,2.39-1.48,3.84,.41,1.4,1.93,1.61,3.15,1.19,1.19-.51,2.31-1.14,3.36-1.88,.9-.64,1.92-1.09,3-1.34,.38-.06,.77-.01,1.13,.13,.44,.23,.79,.59,1.02,1.04,.38,.71,.65,1.48,.78,2.28,.11,.55,.08,1.11-.08,1.65-.07,.22-.17,.42-.3,.61-.04,.08-.1,.14-.16,.2-.04,.04-.07,.08-.11,.11-.02,.02-.15,.13-.09,.08-.08,.06-.17,.12-.26,.17-.08,.05-.16,.09-.25,.11-.2,.07-.4,.11-.61,.11-.5,0-.99-.16-1.41-.43-.59-.38-1.11-.88-1.5-1.47-.53-.75-.81-1.66-1.6-2.19-.74-.48-1.67-.54-2.47-.18-.81,.37-1.37,1.13-1.47,2.01-.04,.48,0,.96,.13,1.43,.3,1.11,.79,2.16,1.45,3.11,1.74,2.6,4.2,4.63,7.08,5.84,.81,.34,1.65,.61,2.51,.8l-.39-.37,2.37,7.55,.34,1.07c.21,.66,1.25,.38,1.04-.29l-2.37-7.55-.34-1.07c-.05-.18-.19-.33-.38-.38-3.09-.71-5.86-2.39-7.92-4.8-.8-.92-1.47-1.94-1.98-3.05-.18-.42-.33-.85-.43-1.29-.02-.09-.04-.19-.05-.28s0,.09,0,0c0-.02,0-.04,0-.07,0-.05,0-.1-.01-.15-.03-.28,.02-.55,.12-.81,.29-.61,.95-.95,1.62-.83,.91,.16,1.15,1.04,1.59,1.72,.7,1.26,1.85,2.21,3.22,2.66,1.03,.28,2.14,0,2.9-.75,.77-.87,1.11-2.04,.92-3.18-.11-1.47-.73-2.87-1.76-3.93-.83-.67-1.95-.88-2.96-.55-1.1,.35-2.15,.86-3.11,1.52-.98,.74-2.06,1.32-3.22,1.72-.25,.06-.51,.08-.76,.04-.06-.01-.11-.03-.17-.05-.1-.03-.04,0-.1-.04-.08-.03-.15-.09-.21-.15-.06-.06-.04-.03-.05-.05-.04-.05-.07-.1-.1-.16-.04-.08,0,.02-.03-.07-.02-.06-.04-.12-.05-.19-.03-.21-.03-.43,0-.64,.2-.87,.7-1.64,1.4-2.19,.08-.07,.17-.13,.25-.2s-.09,.07-.01,0l.08-.06,.21-.15c.32-.24,.65-.47,.99-.69,.88-.58,1.81-1.09,2.77-1.52,2-.88,4.45-1.37,6.43-.19,1.28,.96,2.3,2.21,2.97,3.66,.72,1.2,1.37,2.43,1.96,3.69,.06,.13,.12,.26,.17,.39,.08,.17-.02-.06,.01,.02,.09,.28,.38,.45,.66,.38,.29-.08,.45-.38,.38-.66h0Z"/>
          <path id="Path-30" class="cls-6" d="M152.26,153.75c-2.84,11.86-46.85,2.33-46.85,2.33l13.11-45.95c.46-2.65,4.21-4.6,6.71-4.43l16.67,1.15c2.71,.19,4.06,1.4,4.95,5.46,0,0,5.1,28.17,5.41,41.44Z"/>
          <path id="Path-31" d="M120.74,105.93l3.33,.23,7.32,.5,7.26,.5c1.12,.08,2.24,.14,3.37,.23,1.18,.01,2.28,.57,2.99,1.51,.69,1.1,1.14,2.32,1.34,3.6,.21,1.1,.39,2.2,.58,3.3,.41,2.42,.81,4.83,1.2,7.25,.51,3.17,.99,6.34,1.44,9.51,.48,3.37,.92,6.75,1.3,10.13,.34,3.05,.64,6.1,.79,9.17,.03,.63,.05,1.26,.07,1.88l.27-.46c-3.09,1.25-6.31,2.12-9.61,2.58-3.69,.57-7.41,.92-11.14,1.04-3.54,.14-7.09,.14-10.64,.03-2.72-.08-5.44-.22-8.16-.42-.84-.06-1.69-.13-2.53-.21-.39-.04-.79-.11-1.18-.11h-.05s.54,.53,.54,.53l.38-8.33,.26-5.56,.08-1.79c0-.15,.02-.31,.02-.46,0-.21,.03,0-.01,.02,.08-.05,.14-.46,.17-.55l.4-1.31,1.35-4.37,3.52-11.4c.73-2.36,1.51-4.72,2.19-7.1,.01-.04,.02-.08,.04-.11,.2-.67-.84-.95-1.04-.29l-1.84,5.95-3.54,11.44-2.25,7.29c-.11,.54-.15,1.1-.13,1.65l-.24,5.11-.44,9.6v.18c0,.3,.24,.53,.53,.54,1.01,.11,2.03,.19,3.05,.27,2.6,.2,5.2,.35,7.8,.44,3.51,.12,7.03,.15,10.55,.04,3.79-.1,7.58-.41,11.34-.93,3.42-.43,6.78-1.24,10.02-2.43,.37-.14,.73-.3,1.1-.45,.17-.09,.27-.27,.27-.46-.07-2.92-.32-5.84-.61-8.75-.35-3.42-.77-6.84-1.24-10.24-.45-3.33-.94-6.65-1.47-9.97-.41-2.65-.85-5.3-1.29-7.95-.25-1.45-.5-2.9-.75-4.34-.37-2.06-1.11-4.59-3.13-5.6-1.33-.5-2.75-.74-4.18-.7l-6.64-.46-7.75-.54-4.75-.33-.23-.02c-.7-.05-.69,1.03,0,1.08h0Z"/>
          <path id="Path-32" class="cls-5" d="M105.93,141.47l-10.19,.59c-6.9,.36-12.89,4.9-15.1,11.45-.76,2.29-.92,4.57,.14,6.4,10.49,2.43,25.1-2.43,25.1-2.43"/>
          <path id="Path-33" d="M105.93,140.93l-8.4,.49c-1.35,.04-2.69,.17-4.02,.38-2.59,.48-5.05,1.53-7.18,3.09-2.13,1.55-3.88,3.57-5.11,5.9-1.38,2.64-2.43,6.05-1.15,8.91,.17,.38,.32,.68,.76,.78,.34,.08,.68,.14,1.02,.2,.68,.12,1.36,.21,2.04,.28,1.37,.14,2.74,.19,4.11,.17,2.72-.06,5.42-.31,8.1-.77,3.31-.53,6.58-1.29,9.77-2.3l.16-.05c.66-.22,.38-1.26-.29-1.04-1.8,.6-3.64,1.06-5.48,1.48-3.97,.95-8.03,1.49-12.11,1.6-2.42,.08-4.85-.14-7.21-.65l.32,.25c-.79-1.65-.9-3.53-.3-5.26,.42-1.51,1.06-2.95,1.9-4.28,1.61-2.49,3.86-4.5,6.52-5.82,2.1-1.02,4.37-1.6,6.7-1.71l5.19-.3,4.66-.27c.69-.04,.7-1.12,0-1.08h.01Z"/>
          <path id="Path-34" class="cls-3" d="M209.69,161.7l-35.56,54.23L9.21,160.03l183.87,1.97,16.61-.3h0Z"/>
          <path id="Path-35" d="M209.22,161.43l-12.01,18.32-19.15,29.2-4.4,6.7,.61-.25-4.42-1.5-12.04-4.07-17.71-6-21.6-7.32-23.75-8.05-23.98-8.12-22.27-7.55-18.9-6.4-13.54-4.59-4.22-1.43c-.72-.3-1.47-.55-2.22-.75-.09-.02-.18-.06-.27-.09l-.14,1.06,5.85,.06,15.61,.17,22.92,.24,27.26,.29,29.3,.31,28.3,.3,25,.27,18.71,.2,10.01,.11c4.73,.05,9.46-.14,14.19-.23l3.34-.06c.3,0,.54-.24,.54-.54s-.24-.54-.54-.54c-5.58,.1-11.17,.31-16.75,.3-2.47,0-4.94-.05-7.41-.08l-16.94-.18-23.59-.25-27.89-.3-29.15-.31-28.14-.3-24.1-.26-17.71-.19c-2.81-.03-5.62-.1-8.43-.1-.12,0-.25,0-.37,0-.3,0-.54,.25-.53,.55,0,.23,.16,.44,.39,.51l4.42,1.5,12.04,4.08,17.71,6,21.6,7.32,23.75,8.05,23.98,8.13,22.27,7.55,18.9,6.4,13.54,4.59c2.14,.73,4.28,1.53,6.44,2.18,.09,.03,.18,.06,.27,.09,.24,.06,.48-.04,.61-.25l12.02-18.32,19.15-29.2,4.4-6.7c.37-.59-.56-1.13-.94-.55Z"/>
          <path id="Path-36" class="cls-7" d="M179.95,207.53h0c-1.06-4.99-4.89-8.94-9.85-10.14L19.26,162.85l180.66,13.77-19.97,30.91Z"/>
          <path id="Path-37" class="cls-3" d="M9.21,160.03c1.82-.77,208.22-9.36,208.22-9.36l46.19,57.04L9.21,160.03Z"/>
          <path id="Path-38" d="M9.35,160.55c.18-.07,.09-.02,.14-.03,.2-.03,.4-.04,.6-.06,.71-.06,1.43-.11,2.14-.15,2.55-.16,5.09-.3,7.64-.43,8.81-.46,17.62-.87,26.43-1.28,12.12-.56,24.23-1.11,36.35-1.64,13.55-.6,27.1-1.19,40.65-1.77,13.09-.56,26.18-1.12,39.26-1.68,10.73-.46,21.47-.91,32.2-1.36l19.45-.82,2.23-.09c.31,.04,.63,.02,.94-.04-.28,.15-.33-.38-.24-.03,.06,.23,.46,.57,.61,.76l2.72,3.36,22.37,27.62,19.33,23.88,1.05,1.3,.52-.9-6.79-1.27-18.49-3.47-27.46-5.15-33.39-6.26-36.57-6.85-36.91-6.92-34.42-6.45-29.18-5.47-20.89-3.92c-3.29-.62-6.58-1.25-9.88-1.85-.14-.02-.28-.05-.42-.08-.68-.12-.97,.91-.29,1.04l6.79,1.27,18.49,3.47,27.46,5.15,33.39,6.26,36.57,6.85,36.91,6.92,34.42,6.45,29.17,5.47,20.89,3.92c3.29,.62,6.58,1.26,9.88,1.85,.14,.03,.28,.05,.42,.08,.29,.07,.59-.11,.66-.4,.04-.18,0-.37-.13-.5l-14.5-17.91-24.29-30-6.81-8.41c-.38-.68-1.17-1.03-1.93-.85-5.11,.22-10.21,.43-15.32,.64-9.9,.41-19.81,.83-29.71,1.25-12.76,.54-25.53,1.08-38.29,1.63-13.65,.59-27.31,1.18-40.96,1.78-12.67,.55-25.33,1.12-38,1.69-9.79,.45-19.59,.91-29.38,1.39-4.94,.25-9.92,.39-14.85,.84-.3,0-.61,.04-.9,.11-.64,.25-.36,1.29,.29,1.04Z"/>
          <path id="Path-39" class="cls-6" d="M140.4,106.75l10.56,.66c3.67,.23,6.72,2.9,7.43,6.51l6.96,27.46c1.3,5.15-1.82,10.37-6.97,11.66-.64,.16-1.3,.26-1.96,.28l-57.11,2.38v-13.76l45.52-6.01-3.18-19.17"/>
          <path id="Path-40" d="M140.4,107.29l5.35,.34c1.8,.11,3.6,.19,5.4,.34,1.79,.17,3.46,.96,4.72,2.25,1.02,1.08,1.72,2.42,2.01,3.87,.23,.99,.5,1.98,.75,2.96l1.61,6.38,1.94,7.63,1.7,6.7,.91,3.6c1.31,4.83-1.56,9.81-6.39,11.11-.67,.18-1.36,.29-2.06,.31l-2,.08-4.29,.18-6.07,.25-7.23,.3-7.86,.32-7.93,.33-7.45,.31-6.43,.27-4.8,.2-2.64,.11-.34,.02,.54,.54v-13.74l-.54,.54,1.22-.16,3.31-.44,4.9-.65,5.98-.79,6.52-.86,6.61-.87,6.17-.81,5.21-.69,3.75-.49,1.78-.23h.08c.3-.02,.54-.27,.54-.58,0-.04,0-.08-.02-.11l-1.08-6.51-1.7-10.29-.39-2.37c-.08-.29-.38-.45-.67-.38-.28,.08-.45,.38-.38,.66l1.08,6.51,1.71,10.29,.39,2.37,.52-.68-1.22,.16-3.31,.44-4.9,.65-5.98,.79-6.52,.86-6.61,.87-6.17,.81-5.22,.69-3.75,.49-1.78,.23h-.08c-.29,.02-.53,.26-.54,.55v13.76c0,.3,.24,.54,.54,.54l1.43-.06,3.89-.16,5.81-.24,7.1-.3,7.88-.33,8.06-.33,7.62-.32,6.65-.28,5.13-.21,3-.12c1.67-.02,3.31-.42,4.81-1.15,3.27-1.71,5.37-5.05,5.49-8.74-.03-1.45-.27-2.89-.7-4.28l-1.41-5.58-1.91-7.54-1.85-7.3-1.21-4.77c-.06-.25-.13-.5-.19-.75-.38-1.78-1.29-3.39-2.61-4.64-1.41-1.29-3.21-2.08-5.11-2.25-.61-.06-1.22-.08-1.82-.12l-7.36-.46-1.61-.1c-.7-.04-.69,1.04,0,1.08h0Z"/>
          <path id="Path-41" d="M84.77,156.48c.17-.73,.4-1.44,.67-2.14,.5-1.4,1.26-2.69,2.23-3.82,.56-.65,1.26-1.16,2.05-1.49,.28-.09,.45-.38,.38-.66-.08-.29-.38-.45-.67-.38-3,1.17-4.61,4.45-5.48,7.35-.08,.28-.16,.56-.23,.84-.15,.68,.89,.96,1.04,.29Z"/>
          <path id="Path-42" d="M89.85,156.15c0-.11,0-.22,0-.33,0-.13,.01-.26,.02-.38,0-.04,0-.07,.01-.11,.01-.12-.02,.09,0,0,.02-.08,.03-.16,.04-.25,.04-.19,.08-.38,.14-.57,.03-.1,.06-.19,.1-.29,.02-.05,.04-.1,.06-.15,0,0,.03-.08,0-.02s.02-.05,.03-.06c.09-.21,.2-.41,.33-.6,.03-.05,.07-.1,.1-.15,.01-.02,.11-.14,.06-.08,.08-.1,.17-.2,.26-.3,.43-.45,.95-.8,1.54-1.03,.28-.09,.45-.37,.38-.66-.08-.29-.38-.45-.67-.38-1.19,.44-2.18,1.29-2.8,2.39-.4,.76-.63,1.61-.67,2.47-.01,.16-.01,.33,0,.49,0,.29,.25,.53,.54,.54,.3,0,.54-.24,.54-.54h-.01Z"/>
          <path id="Path-43" class="cls-1" d="M124.5,105.75l-.52,3.2c-.46,2.81-.23,5.68,.66,8.39l2.03,6.16,6.02-5.53c2.18-2.01,3.83-4.53,4.79-7.34l1.35-3.94-14.34-.94Z"/>
          <path id="Path-44" d="M123.98,105.61l-.45,2.78c-.32,1.79-.38,3.61-.2,5.41,.42,2.51,1.09,4.98,2.01,7.35l.82,2.48c.09,.29,.39,.45,.68,.36,.08-.02,.16-.07,.22-.13l5.17-4.75c1.04-.91,2-1.91,2.87-2.98,1.31-1.7,2.32-3.61,3-5.64l1.25-3.68c.08-.29-.1-.59-.39-.66,0,0,0,0,0,0-.04-.01-.09-.02-.13-.02l-4.83-.32-7.72-.5-1.78-.12c-.69-.05-.69,1.03,0,1.08l4.83,.32,7.72,.5,1.78,.12-.52-.68-1.12,3.28c-.58,1.79-1.41,3.5-2.48,5.05-.89,1.2-1.9,2.3-3.02,3.28l-3.07,2.83-2.33,2.14,.9,.24-1.74-5.27c-.39-1.12-.71-2.27-.93-3.44-.32-1.9-.32-3.84,0-5.73l.48-3.02c.07-.29-.1-.58-.38-.66-.29-.08-.59,.1-.66,.38Z"/>
          <path id="Path-45" class="cls-2" d="M126.48,123.49l-3.45,15.14"/>
          <path id="Path-46" d="M125.96,123.35l-1.16,5.11-1.86,8.15-.43,1.89c-.15,.68,.89,.96,1.04,.29l1.16-5.11,1.86-8.15,.43-1.89c.15-.67-.89-.96-1.04-.29Z"/>
          <path id="Path-47" class="cls-1" d="M124.26,107.28l1.47-7.13,39.52-1.49-.19,6.15c-.1,3.15-2.73,5.62-5.88,5.52,0,0,0,0,0,0-.1,0-.19,0-.29-.02l-28.47-2.32"/>
          <path id="Path-48" d="M164.7,98.65l-.13,4.15-.06,1.91c-.05,2.85-2.4,5.12-5.25,5.08-.16,0-.31-.01-.47-.03l-2-.16-9.28-.75-10.98-.89-4.02-.32c-.67-.05-1.35-.14-2.03-.16-.03,0-.06,0-.09,0-.69-.06-.69,1.02,0,1.08l5.15,.42,10.91,.89,9.79,.8,2.4,.2c1.74,.17,3.47-.38,4.8-1.51,.98-.86,1.67-2,1.97-3.27,.13-.67,.19-1.34,.18-2.02l.15-4.99v-.38c.03-.69-1.05-.69-1.07,0v-.02Z"/>
          <path id="Path-49" d="M124.78,107.42l1.29-6.25,.18-.88-.52,.4,2.88-.11,6.87-.27,8.35-.32,7.19-.28c1.17-.05,2.34-.06,3.51-.14h.05c.69-.03,.7-1.1,0-1.08l-2.88,.11-6.87,.27-8.35,.32-7.19,.28c-1.17,.05-2.34,.06-3.51,.14h-.05c-.24,0-.45,.17-.52,.4l-1.29,6.25-.18,.88c-.14,.68,.9,.97,1.04,.29h0Z"/>
          <path id="Path-50" class="cls-7" d="M173.67,106.12l-8.67-.73,.24-6.74s6.8,6.91,8.42,7.47Z"/>
          <circle id="Oval" class="cls-7" cx="129.29" cy="128.16" r=".94"/>
          <circle id="Oval-2" class="cls-7" cx="127.41" cy="135.45" r=".94"/>
          <path id="Path-51" d="M57.07,116.19c1.49-.05,2.98-.23,4.44-.53,3.39-.62,6.67-1.72,9.74-3.27,2.15-1.09,4.15-2.44,5.98-4.01,.53-.45-.24-1.21-.76-.76-3.01,2.55-6.49,4.5-10.25,5.72-1.48,.5-2.99,.9-4.52,1.2-1.05,.21-2.1,.37-3.16,.48-.48,.05-.97,.09-1.45,.1-.3,.01-.53,.26-.52,.56,.01,.28,.24,.5,.52,.52h0Z"/>
          <path id="Path-52" d="M105.48,141.42l.02,4.81,.04,7.71v1.77c.02,.3,.27,.53,.57,.52,.28-.01,.51-.24,.52-.52l-.02-4.81-.04-7.71v-1.77c-.02-.3-.27-.53-.57-.52-.28,.01-.51,.24-.52,.52h0Z"/>
          <path id="Path-53" d="M188.28,72.66c-.4-1-.64-2.06-.71-3.14-.24-2.17,.5-4.34,2.01-5.92,.51-.49,1.08-.92,1.7-1.26,.35-.2,.71-.37,1.08-.53,.2-.08,.39-.16,.59-.23s.39-.09,.47-.29c.14-.35,.19-.77,.31-1.14,.11-.35,.25-.7,.4-1.03,.29-.65,.66-1.27,1.08-1.84,1.53-2.11,3.89-3.47,6.48-3.74,2.51-.23,4.94,.93,6.33,3.02,.19,.29,.37,.59,.52,.9,.08,.13,.24,.17,.37,.1,2.39-1.47,5.28-1.87,7.98-1.1,2.15,.79,3.95,2.32,5.07,4.31,.61,1.04,1.05,2.16,1.29,3.34,.04,.14,.19,.23,.33,.19,1.88-.42,4.03-.47,5.54,.89,1.17,1.23,1.93,2.79,2.17,4.47,.21,1.01,.36,2.02,.46,3.05l.27-.27c-2.47-.12-4.95-.12-7.43-.14-3.78-.03-7.57-.02-11.35-.02-6.94,.02-13.88,.05-20.82,.11l-4.41,.04c-.15,.01-.26,.14-.25,.29,.01,.13,.11,.23,.25,.25,4.14-.04,8.29-.07,12.43-.1,7.65-.05,15.29-.09,22.94-.05,2.88,.01,5.77,0,8.64,.14,.15,0,.27-.12,.27-.27-.38-3.38-1.03-8.11-5-9.05-1.28-.25-2.6-.21-3.86,.12l.33,.19c-.47-2.29-1.64-4.38-3.34-5.98-1.83-1.74-4.3-2.63-6.82-2.48-1.75,.16-3.44,.7-4.97,1.57l.37,.1c-1.22-2.52-3.74-4.15-6.54-4.22-2.8,.02-5.46,1.27-7.25,3.42-1.15,1.37-1.95,3-2.32,4.75l.19-.19c-2.65,.72-4.78,2.68-5.72,5.25-.5,1.78-.49,3.67,.02,5.45,.1,.39,.22,.77,.37,1.14,.13,.32,.65,.18,.52-.14Z"/>
          <path id="Path-54" d="M102.34,52.2h-29.57c-.4-.03-.8-.03-1.2,0-.02,0-.04,0-.05,0l.26,.2c-.01-.07,0,.05,0,.01,0-.05,0-.1-.02-.14-.02-.17-.02-.35-.02-.52,0-.57,.06-1.14,.19-1.7,.43-1.78,1.57-3.3,3.17-4.19,1.46-.79,3.07-1.26,4.72-1.38,.12,0,.23-.08,.26-.2,.66-2.14,2.33-3.83,4.46-4.51,1.96-.56,4.07-.09,5.61,1.24,.98,.88,1.71,2.01,2.11,3.27,.04,.15,.2,.23,.34,.18,.02,0,.04-.01,.05-.02,1.29-.76,2.9-.66,4.08,.26,.76,.65,1.27,1.54,1.44,2.53,0,.15,.12,.27,.27,.27,1.17-.11,2.29,.51,2.81,1.57,.44,.86,.7,1.8,.77,2.77,.02,.21,.04,.43,.04,.65,0,.15,.12,.27,.27,.27s.27-.12,.27-.27c0-1.74-.52-3.92-2.01-4.98-.63-.42-1.39-.61-2.15-.54l.27,.27c-.18-1.17-.78-2.24-1.7-2.99-1.36-1.01-3.18-1.11-4.64-.26l.4,.16c-.69-2.34-2.49-4.18-4.81-4.91-2.14-.58-4.43-.05-6.11,1.39-1.07,.94-1.86,2.16-2.3,3.51l.26-.2c-2.63,.27-5.41,1.11-7.11,3.27-.96,1.24-1.49,2.76-1.51,4.32-.01,.34,0,.68,.06,1.01,.03,.12,.14,.2,.26,.2h29.57c.4,0,.81,.03,1.2,0h.05c.15,0,.26-.14,.25-.29,0-.14-.12-.24-.25-.25h0Z"/>
          <path id="Path-55" d="M34.97,211.47H10.3c-.34-.03-.68-.03-1.01,0-.01,0-.03,0-.04,0l.27,.27c.03-.89,.22-1.76,.56-2.58,.71-1.8,2.15-3.21,3.96-3.88,1.65-.55,3.41-.74,5.14-.53,.12,0,.23-.08,.26-.2,.55-2.05,2.15-3.64,4.2-4.17,1.89-.4,3.85,.2,5.21,1.57,.89,.92,1.51,2.07,1.79,3.31,.04,.15,.2,.23,.34,.18,.02,0,.04-.01,.06-.02,1.17-.56,2.28,.75,2.8,1.63,.85,1.38,1.16,3.02,.88,4.62-.07,.34,.45,.48,.52,.14,.33-1.82-.05-3.7-1.07-5.25-.72-1.1-2.01-2.27-3.41-1.6l.4,.16c-.5-2.31-2.12-4.21-4.32-5.06-1.97-.7-4.16-.32-5.78,1.01-1.02,.88-1.77,2.05-2.14,3.34l.26-.2c-2.75-.24-5.77,.14-7.85,2.12-1.19,1.17-1.97,2.68-2.24,4.32-.07,.36-.11,.72-.12,1.08,0,.15,.12,.27,.27,.27h24.67c.33,0,.68,.02,1.01,0h.04c.15,0,.26-.14,.25-.29,0-.14-.12-.24-.25-.25h0Z"/>
          <path id="Path-56" d="M33.99,77.88l3.75,2.61,.53,.37c.26,.15,.59,.07,.74-.19s.07-.59-.19-.74h0l-3.75-2.61-.53-.37c-.26-.15-.59-.06-.74,.19-.15,.26-.06,.59,.19,.74h0Z"/>
          <path id="Path-57" d="M39.24,72.43l1.45,3.96,.21,.57c.09,.28,.38,.45,.66,.38,.29-.08,.45-.38,.38-.66l-1.45-3.96-.21-.57c-.09-.28-.38-.45-.67-.38-.28,.08-.45,.38-.38,.66Z"/>
          <path id="Path-58" d="M33.15,86.61l3.74-1.07,.54-.15c.28-.1,.43-.41,.33-.69-.09-.25-.35-.4-.61-.35l-3.74,1.06-.54,.15c-.29,.08-.46,.38-.38,.66s.38,.46,.66,.38h0Z"/>
          <path id="Path-59" d="M99.15,200.49l3.34,1.04,9.01,2.8,13.35,4.15,16.29,5.07,17.84,5.55,18.01,5.6,16.74,5.21,14.24,4.43,10.17,3.16c1.61,.5,3.22,1.04,4.85,1.51,.07,.02,.14,.04,.2,.06,.67,.21,.95-.83,.29-1.04l-3.34-1.04-9.01-2.8-13.35-4.16-16.29-5.06-17.84-5.55-18.01-5.6-16.74-5.21-14.24-4.43-10.17-3.16c-1.62-.5-3.22-1.04-4.85-1.51-.07-.02-.14-.04-.2-.06-.66-.21-.95,.83-.29,1.04Z"/>
          <path id="Path-60" d="M185.65,215.27l3.3,1.03,7.92,2.48,9.57,2.99,8.24,2.58c1.33,.42,2.66,.9,4.01,1.26,.02,0,.04,.01,.06,.02,.67,.21,.95-.83,.29-1.04l-3.3-1.03-7.92-2.47-9.56-3-8.24-2.58c-1.33-.42-2.66-.9-4.01-1.26-.02,0-.04-.01-.06-.02-.66-.21-.95,.83-.29,1.04Z"/>
          <path id="Path-61" d="M136.9,84.37s-.54,12.76-9.55,12.76c-9.37,.54-8.11-11.32-8.11-11.32,0,0,.72,1.8,3.96-.18,3.78-1.26,6.67,2.88,8.11,2.7,1.28-.08,2.19-1.25,2.8-2.46,.64-1.29,.99-2.72,1.02-4.16l.14-5.25"/>
          <path id="Path-62" d="M136.36,84.36c-.02,.4-.06,.8-.11,1.2,0,.05-.01,.09-.02,.14-.02,.14,.02-.1,0,.04-.02,.11-.03,.22-.05,.32-.04,.23-.07,.47-.12,.7-.1,.53-.22,1.06-.35,1.59-.51,2.52-1.79,4.82-3.67,6.58-1.05,.88-2.33,1.43-3.69,1.59-1.5,.23-3.04,.07-4.47-.46-1.1-.49-2.01-1.31-2.63-2.34-.59-.99-1-2.08-1.21-3.22-.06-.28-.11-.56-.15-.85-.03-.2-.05-.37-.08-.67-.05-.48-.07-.95-.08-1.43-.01-.56,.04-1.11,.05-1.67,0-.03,0-.05,0-.08l-1.06,.14c.6,1.46,2.45,1.23,3.64,.73,.33-.14,.65-.3,.96-.48,.27-.14,.56-.22,.86-.24,.54-.06,1.1-.02,1.62,.13,.99,.31,1.92,.79,2.76,1.41,.66,.53,1.38,.97,2.16,1.29,1.15,.19,2.3-.3,2.96-1.26,1.38-1.88,2.09-4.17,2.02-6.5l.12-4.56c-.01-.3-.27-.53-.56-.52-.28,.01-.51,.24-.52,.52l-.1,3.78c-.01,.48-.02,.97-.04,1.46-.03,1.42-.39,2.81-1.04,4.07-.48,.92-1.23,1.99-2.38,2.02-.12,0,.09,.02,.01,0-.03,0-.07-.01-.1-.02-.06-.02-.12-.04-.18-.06-.04-.02-.07-.04-.11-.05-.09-.04-.17-.09-.25-.14-.35-.21-.69-.44-1.02-.67-1.73-1.2-3.64-2.31-5.83-1.9-.72,.24-1.42,.54-2.1,.88-.23,.08-.47,.14-.71,.18-.11,.01-.22,.02-.33,.01-.04,0-.07,0-.11,0-.14-.01,.06,.02-.06-.01-.09-.02-.18-.04-.26-.07,.12,.04-.05-.02-.09-.05s-.05-.03-.08-.05c-.1-.06,.03,.03,0,0s-.08-.07-.12-.11c-.06-.06-.08-.11-.01,0-.02-.03-.04-.07-.07-.1-.04-.05-.1-.21,0,.04-.09-.29-.4-.44-.68-.35-.22,.07-.37,.27-.38,.5-.13,1.44-.07,2.89,.18,4.31,.4,2.5,1.47,5.05,3.68,6.46,1.37,.81,2.95,1.2,4.54,1.1,1.63,.02,3.23-.39,4.65-1.2,2.44-1.5,3.87-4.15,4.7-6.8,.34-1.08,.59-2.18,.76-3.3,.11-.63,.19-1.28,.22-1.92,0-.03,0-.06,0-.09,.03-.69-1.05-.69-1.08,0h0Z"/>
          <path id="Path-63" class="cls-1" d="M124.44,89.02c.67,.14,1.36,.01,1.93-.36,.27-.19,.49-.44,.64-.73,.14-.26,.03-.59-.23-.73-.25-.13-.55-.05-.7,.19-.02,.05-.05,.09-.08,.14-.02,.02-.03,.05-.05,.07-.06,.09,.07-.08,.02-.02-.03,.04-.06,.07-.1,.1s-.11,.08-.12,.11c0,0,.1-.08,.07-.05l-.03,.02-.05,.04s-.08,.05-.13,.07l-.06,.03c-.07,.04,.13-.05,.05-.02-.05,.02-.09,.03-.13,.05-.08,.02-.16,.04-.24,.06h-.07c-.08,.03,.15,0,.07,0-.04,0-.08,0-.11,.01-.12,0-.25,0-.37,0h-.08s-.03,0-.03,0c.04,0,.08,.01,.11,.02h-.05c-.14-.05-.29-.03-.42,.04-.26,.15-.34,.48-.2,.74,.07,.12,.19,.21,.32,.25h0Z"/>
          <path id="Path-64" class="cls-4" d="M145.57,95.44c-2.13,.53-4.32,.73-6.51,.6-.02,0,.8,.07,.79,.05l-.79-.05c-2.68-4.58-3.49-9.65-3.92-14.93l-.39-4.84-15.94-2.44c-.5-.03-.88-.47-.84-.97,.02-.29,.18-.56,.43-.71l1.19-.37c1.2-.71,1.12-2.01,1.62-3.23,3.24-7.91,8.24-9.24,13.98-8.31,0,0,11.08,1.94,12.45,8.72,.82,4.08-.05,12.31-.87,18.21-.17,1.37,.08,2.76,.71,3.99,.75,1.49,.15,3.3-1.34,4.05-.18,.09-.38,.17-.58,.22h0Z"/>
          <path id="Path-65" d="M145.43,94.92c-2.08,.54-4.23,.74-6.36,.59-.7-.05-.69,1.02,0,1.08,.31,.07,.63,.08,.94,.04,.29-.09,.45-.39,.36-.67-.07-.22-.27-.38-.51-.39l-.79-.05,.47,.27c-1.77-3.21-2.92-6.73-3.37-10.37-.34-2.27-.48-4.56-.67-6.85l-.18-2.29c0-.24-.17-.45-.4-.52l-4.15-.64-7.69-1.18c-1.37-.21-2.77-.36-4.14-.63-.26-.05-.45-.25-.41-.45,0-.05,.13-.24,.05-.18,.09-.04,.19-.07,.29-.09,.28-.09,.56-.17,.83-.26,.37-.15,.7-.4,.94-.72,.49-.81,.84-1.7,1.02-2.63,.37-1.01,.84-1.98,1.4-2.9,.82-1.49,1.95-2.78,3.31-3.8,1.17-.82,2.51-1.37,3.92-1.6,1.95-.29,3.93-.18,5.83,.31,2.25,.51,4.41,1.35,6.41,2.5,1.19,.68,2.26,1.56,3.15,2.6,.85,1.04,1.39,2.31,1.57,3.64,.21,1.75,.27,3.51,.17,5.26-.07,2.16-.25,4.31-.47,6.45-.11,1.08-.24,2.16-.37,3.24-.13,1.02-.34,2.07-.39,3.1-.03,1.13,.2,2.26,.67,3.29,.2,.38,.34,.8,.4,1.23,.03,.4-.03,.8-.17,1.17-.29,.72-.91,1.25-1.65,1.45-.29,.08-.46,.38-.38,.67s.38,.46,.67,.38c1.91-.53,3.02-2.51,2.49-4.42,0,0,0,0,0,0v-.02c-.14-.48-.4-.92-.57-1.4-.19-.53-.31-1.08-.36-1.64,0-1.1,.1-2.21,.31-3.29,.65-4.32,.96-8.68,.92-13.05,.03-1.63-.24-3.26-.8-4.79-.6-1.32-1.5-2.49-2.64-3.39-2.16-1.7-4.65-2.94-7.3-3.65-1.75-.55-3.57-.84-5.4-.88-1.53-.04-3.06,.23-4.49,.77-1.52,.62-2.88,1.58-3.97,2.8-1.37,1.58-2.45,3.39-3.2,5.34-.17,.47-.32,.95-.44,1.43-.09,.44-.27,.85-.54,1.2-.16,.21-.4,.36-.66,.4-.27,.08-.54,.15-.8,.25-.71,.3-1.04,1.12-.74,1.83,.05,.12,.12,.23,.2,.33,.26,.32,.64,.53,1.05,.58,.64,.1,1.28,.2,1.92,.29l7.61,1.16,5.98,.91,.32,.05-.4-.52,.38,4.8c.19,3.85,.92,7.66,2.15,11.32,.39,1.06,.85,2.1,1.38,3.1,.14,.26,.27,.53,.43,.77,.11,.2,.33,.32,.56,.32,.24,.02,.49,.03,.73,.05l-.14-1.06c.15-.05,.11-.02-.02-.02-.09,0-.18-.01-.27-.02l-.36-.03v1.08c2.24,.15,4.48-.06,6.65-.63,.28-.09,.44-.39,.35-.68-.09-.27-.37-.43-.64-.36h.02Z"/>
          <path id="Path-66" class="cls-1" d="M128.98,66.64c-1.36-1.94-4.08-1.16-4.08-1.16l-1.36,.39v3.1s3.31-.46,5.06,1.16c1.56,.35,1.29-2.21,.39-3.49Z"/>
          <path id="Path-67" d="M129.45,66.37c-1.18-1.44-3.14-1.99-4.89-1.36l-1.17,.33c-.23,.07-.4,.28-.4,.52v3.1c0,.3,.26,.54,.57,.54,.04,0,.08,0,.12-.02-.27,.04-.12,.02-.05,0,.08,0,.17-.02,.25-.02,.27-.02,.54-.03,.81-.03,.77,0,1.54,.11,2.27,.35,.37,.12,.73,.3,1.04,.54,.17,.17,.39,.3,.63,.35,.2,.03,.4,.03,.59-.02,.7-.28,1.13-1,1.03-1.75-.01-.91-.29-1.79-.8-2.55-.16-.25-.48-.34-.74-.19-.25,.15-.34,.48-.19,.74,.39,.58,.62,1.25,.65,1.95v.25s0,.07,0,.11c0,.07,.02-.07,0,.03-.02,.07-.03,.14-.05,.2s.06-.1,0,.01c-.01,.02-.03,.05-.04,.07-.06,.11,.04-.05,0,0-.02,.03-.04,.05-.07,.07,.09-.08-.07,.04,.02-.01-.03,.01-.05,.02-.08,.02-.06,.01,.1,0-.01,0h-.1c-.15,0,.1,.02-.07-.01l.24,.14c-1.59-1.21-3.63-1.69-5.59-1.3l.68,.52v-3.1l-.4,.52c.6-.2,1.21-.36,1.83-.48,.09-.01-.11,0,.05,0l.17-.02c.13-.01,.26-.02,.39-.02,.27,0,.54,.02,.81,.08,.63,.11,1.19,.46,1.57,.98,.16,.25,.48,.33,.74,.19,.26-.15,.35-.48,.2-.74,0,0,0,0,0,0Z"/>
          <ellipse id="Oval-3" class="cls-4" cx="143.61" cy="81.18" rx="4.45" ry="4.44"/>
          <path id="Path-68" d="M147.52,81.18c0,2.16-1.74,3.92-3.9,3.92-2.16,0-3.92-1.74-3.92-3.9,0-2.16,1.74-3.92,3.9-3.92,.25,0,.5,.02,.74,.07,1.84,.35,3.18,1.96,3.18,3.83,0,.3,.24,.54,.54,.54s.54-.24,.54-.54c0-2.76-2.22-5-4.98-5.01-2.76,0-5,2.22-5.01,4.98,0,2.76,2.22,5,4.98,5.01,.33,0,.67-.03,.99-.1,2.32-.48,3.99-2.51,4.02-4.88,0-.3-.24-.54-.54-.54s-.54,.24-.54,.54Z"/>
          <ellipse id="Oval-4" class="cls-4" cx="144.97" cy="81.63" rx="2.57" ry="2.56"/>
          <path id="Path-69" d="M146.99,81.63c0,1.12-.9,2.03-2.02,2.03-1.12,0-2.03-.9-2.03-2.02,0-1.12,.9-2.03,2.02-2.03h0c.12,0,.24,0,.35,.03,.97,.17,1.68,1.01,1.68,1.99,.01,.3,.27,.53,.56,.52,.28-.01,.51-.24,.52-.52-.01-1.3-.83-2.45-2.04-2.91-1.61-.58-3.38,.25-3.96,1.86s.25,3.38,1.86,3.96c1.61,.58,3.38-.25,3.96-1.86,.12-.34,.18-.69,.18-1.05-.01-.3-.27-.53-.56-.52-.28,.01-.51,.24-.52,.52h0Z"/>
          <path id="Path-70" class="cls-1" d="M133.26,65.92l16.2,4.94c.78,.29,1.24,1.09,1.12,1.91h0c-.06,.89-.84,1.57-1.73,1.51h-.05l-16.9-2.99"/>
          <path id="Path-71" d="M133.12,66.45l6.08,1.85,8.9,2.72c.77,.23,1.76,.34,1.94,1.28,.02,.13,.03,.26,.02,.38-.01,.3,.02-.07-.01,.1-.01,.08-.03,.15-.06,.23-.08,.23-.22,.43-.41,.57-.2,.14-.44,.2-.68,.18,.04,0,.08,.01,.02,0-.24-.04-.49-.09-.73-.13l-8.67-1.54c-2.45-.43-4.89-.88-7.34-1.29l-.12-.02c-.29-.07-.58,.1-.67,.38-.08,.29,.09,.58,.38,.66l6.52,1.16,9.31,1.65c.32,.06,.64,.11,.96,.17,.73,.16,1.5-.09,2-.65,.87-1.01,.77-2.53-.24-3.41,0,0,0,0,0,0-.05-.05-.11-.09-.16-.13-.28-.17-.58-.29-.9-.37l-8.17-2.49-7.52-2.3-.13-.04c-.29-.07-.58,.1-.66,.39-.07,.28,.09,.57,.37,.65h0Z"/>
          <ellipse id="Oval-5" class="cls-2" cx="132.2" cy="68.2" rx="4.18" ry="4.16"/>
          <path id="Path-72" d="M135.83,68.2c0,2.01-1.62,3.64-3.63,3.64-2.01,0-3.64-1.62-3.64-3.63,0-2.01,1.62-3.64,3.63-3.64,.23,0,.46,.02,.68,.06,1.71,.32,2.96,1.82,2.96,3.56,.01,.3,.27,.53,.56,.52,.28-.01,.51-.24,.52-.52,0-2.61-2.1-4.73-4.7-4.74-2.61,0-4.73,2.1-4.74,4.7,0,2.61,2.1,4.73,4.7,4.74,.31,0,.63-.03,.94-.09,2.19-.46,3.77-2.37,3.8-4.61-.01-.3-.27-.53-.56-.52-.28,.01-.51,.24-.52,.52Z"/>
          <path id="Path-73" d="M135.83,68.2c0,2.01-1.62,3.64-3.63,3.64-2.01,0-3.64-1.62-3.64-3.63,0-2.01,1.62-3.64,3.63-3.64,.23,0,.46,.02,.68,.06,1.71,.32,2.96,1.82,2.96,3.56,.01,.3,.27,.53,.56,.52,.28-.01,.51-.24,.52-.52,0-2.61-2.1-4.73-4.7-4.74-2.61,0-4.73,2.1-4.74,4.7,0,2.61,2.1,4.73,4.7,4.74,.31,0,.63-.03,.94-.09,2.19-.46,3.77-2.37,3.8-4.61-.01-.3-.27-.53-.56-.52-.28,.01-.51,.24-.52,.52Z"/>
          <ellipse id="Oval-6" class="cls-2" cx="121" cy="65.95" rx="4.08" ry="4.07"/>
          <circle id="Oval-7" class="cls-1" cx="119.84" cy="65.37" r="1.07"/>
          <circle id="Oval-8" class="cls-1" cx="130.73" cy="67.7" r="1.07"/>
          <path id="Path-74" d="M124.54,65.95c0,1.96-1.58,3.54-3.53,3.55-1.96,0-3.54-1.58-3.55-3.53,0-1.96,1.58-3.54,3.53-3.55,.23,0,.46,.02,.69,.07,1.66,.32,2.86,1.78,2.86,3.46,.01,.3,.27,.53,.56,.52,.28-.01,.51-.24,.52-.52,0-2.55-2.05-4.63-4.61-4.63s-4.63,2.05-4.63,4.61,2.05,4.63,4.61,4.63c.31,0,.63-.03,.93-.09,2.14-.45,3.67-2.33,3.7-4.51-.01-.3-.27-.53-.56-.52-.28,.01-.51,.24-.52,.52Z"/>
          <path id="Path-75" class="cls-1" d="M146.89,89.52c-1.04,.48-2.17,.75-3.32,.78"/>
          <path id="Path-76" d="M146.62,89.06c-.06,.03-.12,.07-.19,.09-.08,.04-.1,.04,0,0l-.13,.05c-.11,.04-.23,.08-.35,.12-.33,.1-.66,.19-1,.25-.46,.09-.93,.16-1.4,.19-.3,0-.54,.24-.54,.54s.24,.54,.54,.54c.91-.06,1.81-.22,2.68-.48,.32-.09,.63-.21,.92-.37,.26-.14,.36-.47,.22-.73-.14-.25-.45-.35-.71-.23-.02,0-.04,.02-.06,.03h0Z"/>
          <path id="Path-77" class="cls-4" d="M130.63,75.64l7.36,1.18"/>
          <path id="Path-78" d="M130.49,76.16l6.43,1.03,.93,.15c.29,.07,.58-.1,.66-.38,.08-.29-.09-.58-.38-.66l-6.43-1.03-.92-.14c-.29-.07-.58,.09-.67,.38-.08,.29,.09,.58,.38,.66h0Z"/>
          <path id="Path-79" d="M128.29,79.46h.02c.1-.06-.14,.04-.05,.01s.17-.06,.26-.09c.13-.04,.26-.07,.39-.1,.08-.02,.15-.03,.23-.04,.15-.02-.12,0,.04,0h.14c.19-.03,.38-.03,.57-.02,.2,.01,.4,.04,.6,.1,.5,.13,.96,.37,1.36,.69,.26,.15,.59,.06,.74-.19,.14-.26,.06-.58-.19-.74-1.33-1.02-3.11-1.23-4.64-.54-.25,.15-.34,.48-.19,.74,.16,.25,.48,.33,.74,.19h0Z"/>
          <path id="Path-80" d="M120.89,78.38c1.35-.41,3.43-.08,3.64,1.6,.01,.8-.26,1.58-.77,2.2-.31,.43-.67,.83-1.07,1.18-.22,.2-.45,.34-.54,.63-.06,.18-.08,.37-.07,.55,.06,1.08,1.28,1.26,2.14,1.27,.3-.01,.53-.26,.52-.56-.01-.28-.24-.5-.52-.52-.35,.02-.7-.04-1.03-.18-.01,0-.02-.02-.03-.03,0-.11,.02-.21,.06-.31l-.14,.24c1.36-.97,2.27-2.44,2.54-4.09,.03-.8-.25-1.58-.8-2.17-.6-.61-1.41-.96-2.27-.99-.65-.08-1.32-.03-1.95,.14-.66,.2-.37,1.24,.29,1.04Z"/>
          <circle id="Oval-9" cx="122.14" cy="80.74" r=".74"/>
          <path id="Path-81" d="M122.62,80.76s-.01,.07-.02,.1c0,.02-.01,.04-.02,.06-.02,.05,0,0,0,0-.01,.03-.03,.06-.05,.09,0,.02-.02,.03-.03,.05,.03-.03,.01-.02,0,0s-.05,.06-.07,.07c.05-.01,.02-.02,0,0l-.04,.03-.05,.02s-.05,.04,0,0c-.04,.02-.07,.03-.11,.04-.01,0-.03,0-.04,0h-.11s-.04,0,.01,0c-.02,0-.04,0-.06-.01h-.03s-.08-.04-.04-.02-.02,0-.02-.01l-.04-.02-.04-.03s.02,.03,0,0-.04-.04-.06-.06h0s-.02-.04-.03-.05c-.01-.02-.05-.06-.05-.08v.03s0-.04,0-.04c0-.01,0-.02-.01-.04s0-.04-.01-.06-.02-.04,0,.01c0-.04,0-.08,0-.12,0,0,0-.07,0-.03s0-.02,0-.02c0-.03,.02-.07,.03-.1,.02-.05,0,0,0,0,0-.02,.01-.04,.02-.05l.02-.03,.02-.03h0s.05-.05,.07-.06c0,0,.02-.02,.02-.02l-.02,.02,.03-.02s.05-.03,.08-.04,.05-.04,0,0c.02,0,.03-.02,.05-.02,.02,0,.08-.03,.1-.02h.1s.08,.01,.12,.03c0,0,.06,.03,.02,0s.03,.02,.04,.02l.03,.02,.03,.02s.02,.02,0,0c.03,0,.06,.06,.08,.07s.05,.04,0,0c.01,.01,.02,.03,.03,.05,.01,.02,.02,.03,.03,.05s.04,.06,0,0c.02,.03,.03,.07,.04,.11,0,.01,0,.03,0,.04,0-.04,0-.04,0-.01v.04s0,.08,0,.12c0,.15,.12,.27,.27,.27h0c.15,0,.27-.12,.27-.27,.04-.41-.17-.8-.53-.99-.38-.2-.85-.13-1.17,.16-.4,.39-.41,1.03-.02,1.43s1.03,.41,1.43,.02c.15-.15,.25-.34,.29-.55,.04-.14-.05-.29-.19-.33-.14-.04-.3,.04-.34,.18,0,0,0,0,0,0h-.01Z"/>
          <path id="Path-82" d="M128.17,81.6c.09-.05-.1,.04-.07,.03,.04-.02,.08-.03,.12-.05,.07-.02,.14-.04,.2-.05,.03,0,.17-.03,.05-.01s-.02,0,0,0h.07c.1-.01,.2-.01,.3,0,.05,0,.13,.03-.03,0,.03,0,.06,.01,.09,.02,.05,.01,.11,.02,.17,.04s.11,.04,.17,.06c.11,.04-.1-.05,0,0,.03,.02,.07,.03,.1,.05,.07,.03,.14,.07,.2,.11,.03,.02,.05,.04,.08,.06l.05,.04c-.05-.04-.06-.04-.01,0,.1,.1,.24,.16,.38,.16,.3,0,.54-.24,.54-.54,0-.14-.06-.28-.16-.38-.51-.45-1.17-.69-1.86-.68-.33,.01-.66,.09-.96,.23-.26,.15-.34,.48-.19,.74,.16,.25,.48,.34,.74,.19h0Z"/>
        </g>
      </g>
    </g>
  </g>
</svg>