<?xml version="1.0" encoding="UTF-8"?>
<svg id="Layer_2" data-name="Layer 2" xmlns="http://www.w3.org/2000/svg" viewBox="0 0 52.09 52.06">
  <g id="Layer_1-2" data-name="Layer 1">
    <g>
      <path id="Path_1496" data-name="Path 1496" d="M50.63,2.01c-.11-.25-.31-.45-.56-.56-.13-.06-13.15-5.53-23.86,5.17-2.13,2.17-4.08,4.51-5.83,7l-2.47-.57c-3.71-.87-7.61,.24-10.3,2.94L.86,22.74c-1.15,1.15-1.15,3.02,0,4.17,.5,.5,1.15,.8,1.85,.85l9.5,.76c-.42,1.11-.77,2.2-.98,2.92-.17,.63-.16,1.29,.04,1.91-1.55,.39-2.98,1.14-4.17,2.21-1.95,1.94-3.69,10.46-4.02,12.15-.12,.59,.26,1.15,.85,1.27,.14,.03,.28,.03,.42,0,1.69-.34,10.2-2.08,12.15-4.02,1.06-1.19,1.83-2.62,2.22-4.17,.62,.2,1.29,.21,1.91,.03h.01c.72-.2,1.78-.54,2.91-.98l.76,9.5c.13,1.62,1.56,2.83,3.19,2.7,.69-.06,1.34-.36,1.84-.85l6.76-6.76c2.71-2.69,3.82-6.58,2.94-10.29l-.57-2.47c2.49-1.75,4.83-3.7,7-5.83,10.7-10.69,5.22-23.71,5.15-23.84ZM2.41,24.28l6.74-6.76c2.15-2.17,5.28-3.07,8.26-2.36l1.64,.38c-2.3,3.45-4.29,7.09-5.97,10.87l-10.19-.81c-.43-.04-.74-.41-.7-.84,.02-.18,.1-.35,.22-.48Zm12.56,19.16c-.95,.95-5.64,2.26-9.42,3.09,.82-3.79,2.14-8.47,3.09-9.42,1.14-.97,2.52-1.61,4-1.84l4.17,4.17s-.01,.08-.02,.13c-.26,1.42-.89,2.76-1.82,3.87Zm3.91-5.01l-5.23-5.23c-.3-.31-.42-.75-.31-1.17,.09-.32,.26-.91,.49-1.57l7.79,7.79c-.47,.16-1.09,.36-1.57,.49-.42,.12-.87,0-1.17-.31Zm18.04-3.76c.7,2.98-.19,6.1-2.36,8.26l-6.76,6.76c-.3,.3-.8,.3-1.1,0-.13-.13-.21-.3-.22-.48l-.81-10.19c3.79-1.67,7.43-3.67,10.88-5.97l.37,1.63Zm-13.07,2.75l-9.19-9.19c3.11-7.43,7.54-14.23,13.07-20.07,5.44-5.64,13.69-7.55,21.06-4.87,2.6,7.37,.7,15.58-4.87,21.07-5.84,5.54-12.64,9.96-20.07,13.06Z"/>
      <path id="Path_1497" data-name="Path 1497" d="M31.8,9.7c-2.92,2.92-2.92,7.66,0,10.58,2.92,2.92,7.66,2.92,10.58,0s2.92-7.66,0-10.58c0,0,0,0,0,0-2.92-2.92-7.66-2.92-10.58,0Zm9.04,9.04c-2.07,2.07-5.43,2.07-7.51,0-2.07-2.07-2.07-5.43,0-7.51,2.07-2.07,5.43-2.07,7.51,0,2.07,2.07,2.08,5.42,.01,7.5,0,0,0,0-.01,.01Z"/>
    </g>
  </g>
</svg>