<?xml version="1.0" encoding="UTF-8"?>
<svg id="Layer_2" data-name="Layer 2" xmlns="http://www.w3.org/2000/svg" viewBox="0 0 272 272">
  <defs>
    <style>
      .cls-1 {
        fill: #fff;
      }

      .cls-2 {
        fill: #23219b;
      }

      .cls-3 {
        fill: #a8542a;
      }

      .cls-4 {
        fill: #458dc9;
      }

      .cls-5 {
        fill: #fc7f3a;
      }

      .cls-6 {
        fill: #365dff;
      }

      .cls-7 {
        fill: #234a99;
      }

      .cls-8 {
        fill: #fc7272;
      }

      .cls-9 {
        fill: #24c6ff;
      }

      .cls-10 {
        fill: #a76400;
      }
    </style>
  </defs>
  <g id="Layer_1-2" data-name="Layer 1">
    <g id="Group_2313" data-name="Group 2313">
      <rect id="Rectangle_324-2" data-name="Rectangle 324-2" class="cls-1" width="272" height="272"/>
      <g id="search_people_find_magnifier_employee_man_woman_people" data-name="search people find magnifier employee man woman people">
        <g id="Group-3">
          <ellipse id="Oval-17" class="cls-1" cx="68.95" cy="185.2" rx="30.64" ry="30.64"/>
          <path id="Path-193" d="M38.11,189c.4,3.24,1.3,6.4,2.68,9.36,7.27,15.56,25.77,22.28,41.33,15.02,15.56-7.27,22.28-25.77,15.02-41.33-7.27-15.56-25.77-22.28-41.33-15.02-1.81,.85-3.54,1.87-5.16,3.05-2.53,1.86-4.77,4.08-6.65,6.6-4.77,6.4-6.88,14.4-5.89,22.32,0,.24,.2,.43,.44,.44,.24,0,.44-.2,.44-.44-2.1-16.55,9.62-31.67,26.17-33.77,16.55-2.1,31.67,9.62,33.77,26.17,.31,2.41,.32,4.85,.04,7.27-.35,3.04-1.16,6.01-2.41,8.8-6.76,15.25-24.6,22.13-39.85,15.37-9.68-4.29-16.4-13.33-17.72-23.84,0-.24-.2-.43-.44-.44-.24,0-.43,.2-.43,.44Z"/>
          <ellipse id="Oval-18" class="cls-9" cx="68.95" cy="185.2" rx="25.33" ry="25.33"/>
          <path id="Path-194" d="M43.38,188.34c.33,2.7,1.09,5.32,2.23,7.79,6.03,12.9,21.38,18.47,34.28,12.43s18.47-21.38,12.43-34.28c-6.03-12.9-21.38-18.47-34.28-12.43-1.51,.7-2.94,1.55-4.28,2.53-2.09,1.53-3.93,3.36-5.48,5.44-3.96,5.31-5.72,11.94-4.9,18.52,0,.24,.2,.43,.44,.44,.24,0,.44-.2,.44-.44-1.72-13.64,7.94-26.09,21.59-27.81,13.64-1.72,26.09,7.94,27.81,21.59,.25,1.97,.26,3.96,.04,5.93-.28,2.51-.95,4.95-1.98,7.26-5.57,12.57-20.28,18.24-32.85,12.67-7.97-3.53-13.51-10.98-14.61-19.63,0-.24-.2-.43-.44-.44-.24,0-.44,.2-.44,.44Z"/>
          <path id="Path-195" class="cls-2" d="M83.73,189.83c-1.81-1.21-4.11-1.42-6.11-.56l-6.3,2.71-6.56,3.47-.26,.11c-2.34,1.02-6.34,4.65-6.34,7.21v5.35c4.34,2.05,9.17,2.82,13.93,2.22h0c.26-.03,.52-.07,.77-.11l.23-.04c.19-.03,.37-.06,.56-.1l.23-.04c.23-.05,.46-.09,.68-.14l.07-.02c.25-.06,.5-.12,.74-.18l.2-.06c.18-.05,.37-.1,.55-.15l.22-.06c.21-.07,.42-.13,.62-.2l.1-.03c.24-.08,.48-.16,.71-.25l.17-.06c.18-.07,.36-.14,.54-.21l.2-.08c.19-.08,.39-.16,.58-.25l.11-.05c.23-.1,.46-.21,.68-.32l.13-.07c.18-.09,.36-.18,.54-.28l.18-.09c.18-.1,.37-.2,.55-.3l.11-.06c.22-.13,.44-.26,.65-.39l.08-.05c.19-.12,.37-.23,.55-.35l.15-.1c.18-.12,.35-.24,.52-.36l.09-.06c.21-.15,.42-.3,.62-.46l.02-.02c.19-.15,.38-.29,.57-.44l.11-.09c.17-.14,.34-.28,.5-.42l.08-.07c.39-.33,.76-.68,1.12-1.03l.08-.08c.16-.16,.32-.32,.47-.48l.06-.07c.35-.37,.7-.75,1.03-1.15l.05-.07c.15-.18,.3-.36,.44-.54l.05-.06c.32-.41,.63-.82,.92-1.25l.03-.05c.14-.2,.27-.4,.4-.6l.04-.06c.28-.44,.55-.89,.81-1.34v-.02c.13-.22,.25-.43,.37-.66l.03-.06c.24-.47,.47-.94,.68-1.42h0l-8.39-5.6Z"/>
          <path id="Path-196" d="M83.95,189.46c-1.95-1.27-4.42-1.48-6.55-.56-.76,.32-1.51,.65-2.26,.98-1.56,.67-3.16,1.28-4.66,2.07-1.95,1.03-3.89,2.07-5.84,3.09-.38,.2-.77,.35-1.14,.56-.76,.45-1.48,.97-2.14,1.56-1.45,1.14-2.6,2.62-3.35,4.3-.27,.94-.36,1.92-.27,2.89v3.78c0,.16,.08,.3,.22,.38,11.45,5.42,25.15,1.7,32.29-8.77,.43-.63,.83-1.28,1.21-1.94,.39-.7,.71-1.43,1.07-2.14,.12-.21,.05-.47-.16-.6l-2.82-1.89-4.53-3.03-1.04-.69c-.47-.31-.91,.44-.44,.76l2.83,1.89,4.54,3.02,1.04,.69-.16-.6c-.3,.6-.57,1.22-.89,1.81s-.67,1.18-1.04,1.75c-6.77,10.42-20.19,14.25-31.44,8.96l.22,.38v-2.73c0-.91-.04-1.82,0-2.72,.08-.7,.32-1.36,.72-1.94,.48-.75,1.04-1.45,1.68-2.07,1.12-1.16,2.44-2.11,3.9-2.79,.66-.3,1.29-.67,1.92-1.01l3.41-1.8c.47-.25,.93-.53,1.42-.74l2.79-1.2,3.1-1.34c1.41-.65,3.02-.76,4.51-.29,.52,.17,1.01,.41,1.46,.72,.47,.31,.91-.45,.43-.75Z"/>
          <path id="Path-197" class="cls-5" d="M210.99,150.56v-6.24c1.03-.38,1.88-1.11,2.42-2.06,1.94-4.21,0-19.58,0-19.58h-18.09s-2.74,15.14,0,19.57c.92,1.5,3.08,2.47,5.6,2.93v5.38"/>
          <path id="Path-198" d="M211.42,150.56v-6.24l-.22,.38c1.15-.44,2.09-1.29,2.65-2.39,.24-.58,.4-1.19,.5-1.82,.26-1.67,.37-3.36,.35-5.06-.02-3.48-.22-6.96-.6-10.42-.08-.78-.16-1.56-.26-2.33,0-.24-.2-.43-.44-.44h-15.86s-2.23,0-2.23,0c-.2,0-.37,.13-.42,.32-.13,.73-.24,1.45-.35,2.19-.26,1.74-.47,3.48-.62,5.23-.2,2.06-.28,4.13-.25,6.19-.03,1.77,.23,3.54,.76,5.23,.3,.87,.83,1.64,1.53,2.23,1.1,.83,2.36,1.42,3.7,1.72,.37,.1,.75,.18,1.12,.24l-.32-.42v5.38c.01,.24,.22,.43,.46,.42,.23-.01,.41-.19,.42-.42v-5.38c0-.2-.13-.37-.32-.42-1.37-.21-2.7-.67-3.9-1.37-.48-.29-.9-.65-1.25-1.09-.12-.16-.22-.32-.31-.5l-.09-.17-.05-.11s-.07-.16-.04-.08c-.56-1.55-.84-3.2-.82-4.85-.06-2.01,0-4.03,.19-6.04,.08-.95,.17-1.9,.28-2.84,.1-.82,.19-1.56,.3-2.34,.12-.86,.25-1.73,.4-2.59l-.42,.32h18.09l-.44-.44c.26,2.08,.45,4.18,.6,6.27,.13,1.83,.23,3.67,.25,5.5,.05,1.72-.03,3.45-.22,5.17-.04,.29-.11,.73-.18,1.07-.07,.34-.16,.67-.27,1-.02,.07-.05,.13-.07,.2-.01,.03-.03,.06-.04,.1,.04-.1,0,0,0,.02-.12,.26-.28,.5-.47,.72-.51,.52-1.12,.93-1.8,1.21-.14,.08-.22,.22-.22,.38v6.24c.01,.24,.22,.43,.46,.42,.23-.01,.41-.19,.42-.42h0Z"/>
          <path id="Path-199" class="cls-3" d="M203.15,127.89c1.65,.03,2.99,1.37,3.01,3.02l.06,4.26c0-2.36,1.87-5.56,3.57-5.56s2.99,.57,2.99,2.99c-.19,1.91-.99,3.71-2.28,5.13l3.13,4c10.33-4.43,9.46-19.05,9.46-19.05-.08-8.43-9.72-16.52-18.14-16.52h-.57c-8.48,0-17.25,7.17-17.25,15.65h0c0,3.12,2.43,5.71,5.54,5.91l10.49,.18Z"/>
          <path id="Path-200" d="M203.15,128.33c1.44,.05,2.58,1.23,2.57,2.67,.02,1.03,.03,2.06,.04,3.08l.02,1.09c.01,.24,.22,.43,.46,.42,.23-.01,.41-.19,.42-.42,.05-1.24,.43-2.44,1.11-3.48,.5-.8,1.24-1.67,2.2-1.64,.84-.09,1.66,.32,2.09,1.04,.4,1.05,.37,2.21-.08,3.23-.22,.65-.51,1.28-.85,1.87-.24,.46-.56,.88-.95,1.23-.17,.17-.17,.45,0,.62l2.75,3.5,.39,.49c.14,.14,.36,.17,.53,.07,3.04-1.36,5.52-3.74,7.02-6.71,1.28-2.56,2.11-5.32,2.42-8.16,.2-1.49,.28-2.99,.23-4.48-.04-1.5-.32-2.98-.83-4.39-.73-1.9-1.77-3.67-3.1-5.21-2.71-3.23-6.32-5.6-10.36-6.8-3.71-1.03-7.65-.81-11.22,.62-3.88,1.5-7.15,4.23-9.32,7.77-1.03,1.72-1.69,3.65-1.93,5.64-.14,.99-.1,2,.11,2.97,.24,.96,.71,1.85,1.35,2.6,1.13,1.32,2.76,2.12,4.5,2.2,.81,.03,1.62,.03,2.43,.04l7.5,.13h.52c.24,0,.43-.21,.42-.45-.01-.23-.19-.41-.42-.42l-5.81-.1-3.63-.06c-.86,.03-1.71-.07-2.53-.32-1.73-.63-3.04-2.08-3.47-3.87-.19-.92-.21-1.86-.06-2.78,.12-.94,.35-1.86,.67-2.75,1.45-3.67,4.14-6.72,7.6-8.62,3.22-1.87,6.96-2.66,10.67-2.25,3.94,.58,7.61,2.37,10.51,5.11,2.79,2.56,5.12,6.03,5.5,9.88,.11,1.33,.1,2.67-.02,4.01-.08,1.14-.24,2.27-.46,3.38-.27,1.36-.65,2.7-1.14,3.99-1.03,2.86-2.9,5.34-5.38,7.1-.69,.46-1.42,.86-2.18,1.19l.53,.07-2.75-3.5-.39-.49v.62c.41-.37,.76-.8,1.02-1.29,.36-.61,.67-1.25,.91-1.92,.55-1.23,.62-2.62,.22-3.9-.44-1.04-1.46-1.72-2.59-1.74-.54-.08-1.09,0-1.59,.25-.55,.32-1.02,.75-1.38,1.26-.99,1.28-1.55,2.84-1.6,4.46h.88l-.04-2.92c0-.43-.01-.86-.02-1.28,0-1.91-1.54-3.47-3.45-3.51-.24,.02-.42,.23-.41,.47,.01,.22,.19,.39,.41,.41h-.02Z"/>
          <path id="Path-201" d="M200.89,131.84c.08-.05,.17-.1,.26-.14,.03-.02,.19-.08,.08-.04,.05-.02,.1-.04,.15-.06,.14-.05,.28-.09,.43-.12,.08-.02,.16-.03,.24-.05,.04,0,.08-.01,.19-.02,.19-.01,.38,0,.57,.01,.42,.06,.83,.2,1.19,.42,.22,.11,.48,.02,.59-.19,.1-.2,.04-.44-.15-.56-.83-.49-1.82-.66-2.77-.47-.43,.08-.84,.24-1.21,.47-.2,.13-.27,.39-.16,.6,.12,.21,.39,.28,.6,.16h0Z"/>
          <path id="Path-202" d="M194.61,131.7s.07-.02-.06,.02c.04-.01,.07-.03,.1-.04,.12-.04,.24-.08,.37-.11,.4-.1,.8-.14,1.21-.12,.72,0,1.36,.47,1.59,1.15,.14,.68,.02,1.38-.33,1.97-.21,.41-.46,.8-.76,1.15-.19,.16-.33,.37-.43,.59-.04,.17-.04,.35-.01,.53,.16,.87,1.17,.91,1.87,.83,.24,0,.43-.2,.44-.44,0-.24-.2-.44-.44-.44-.31,.06-.64,.05-.95-.03-.01,0-.07-.08-.05-.03-.03-.08-.03-.16,0-.24l-.11,.19c.55-.57,1-1.23,1.33-1.95,.29-.58,.42-1.22,.39-1.87-.07-.68-.4-1.3-.93-1.73-.59-.45-1.34-.65-2.08-.57-.55,.02-1.09,.14-1.6,.36-.21,.12-.28,.39-.16,.6,.13,.2,.39,.27,.6,.16h0Z"/>
          <path id="Path-203" d="M199.58,139.33c.6-.03,1.17-.26,1.63-.63,.19-.16,.35-.36,.46-.59,.13-.2,.07-.48-.13-.61-.2-.13-.48-.07-.61,.13,0,0,0,0,0,.01v.02s-.06,.09-.08,.13c-.02,.04-.05,.08-.08,.11,0,0,.07-.08,.04-.05l-.02,.02-.05,.05s-.06,.06-.09,.09l-.04,.04s-.08,.07-.02,.02,0,0-.01,0l-.06,.04c-.07,.05-.14,.09-.22,.12-.04,.02-.07,.03-.11,.05s.11-.04,.04-.02l-.06,.02c-.07,.03-.14,.05-.2,.07-.11,.03-.22,.06-.34,.07h-.03s.05,0,.08,0h-.05s-.04,0-.04,0c-.24,.01-.43,.22-.42,.46,.01,.23,.19,.41,.42,.42h0Z"/>
          <path id="Path-204" d="M208.42,135.5c.09-.35,.21-.7,.34-1.04,.03-.07,.05-.14,.08-.21-.04,.09,0,.02,.01-.03s.03-.08,.05-.12c.07-.15,.14-.29,.22-.43,.08-.14,.16-.27,.25-.4l.04-.06c-.04,.06,.03-.04,.04-.05,.05-.06,.1-.11,.15-.16,.03-.03,.06-.05,.09-.08,.04-.04-.03,.02-.03,.02s.04-.03,.05-.03c.03-.02,.06-.04,.09-.05l.04-.02c.07-.04,.01,.02-.03,0,.01,0,.07-.03,.09-.03h.04c.07-.03-.03,0-.04-.01,.03,0,.07,0,.1,0,.11,0-.1-.02,.01,0,.23,.06,.47-.07,.54-.3,.06-.23-.07-.47-.31-.54-.74-.06-1.44,.35-1.74,1.02-.34,.58-.62,1.2-.81,1.84-.05,.14-.09,.29-.13,.43-.09,.23,.02,.48,.25,.57s.48-.02,.57-.25c.01-.03,.02-.06,.02-.08h0Z"/>
          <circle id="Oval-19" cx="195.89" cy="133.6" r=".63"/>
          <path id="Path-205" d="M196.3,133.6v.05s-.01,.05-.02,.08c0,.02-.01,.03-.02,.05,0,0,.02-.04,0,0s-.03,.06-.05,.09,.02-.02,0,0c-.01,0-.02,.02-.03,.03-.01,.01-.08,.06-.03,.03-.02,.02-.05,.03-.07,.05l-.03,.02s.04,0-.02,0c-.03,0-.05,.02-.08,.02s-.05,0,0,0h-.13s.05,.01,0,0h-.05s-.05-.02-.05-.02c-.01,0-.03-.02,0,0-.03-.01-.05-.02-.07-.04-.02-.01-.02-.02-.03-.02-.03-.02,.04,.04,0,0l-.07-.07s.01,.02,0,0c0-.01-.02-.03-.02-.04,0-.02-.04-.09-.02-.04-.01-.03-.02-.05-.03-.08,0-.01,0-.02,0-.03-.01-.04,0,.04,0-.02,0-.03,0-.05,0-.08,0,0,0-.06,0,0,0-.01,0-.02,0-.04,0-.03,.02-.05,.02-.08,.02-.05-.02,.04,0,0,.01-.02,.01-.03,.02-.04,0-.01,.02-.02,.02-.04,0-.01,.03-.04,0,0,.02-.02,.04-.04,.06-.06,0,0,.04-.04,.02-.02s.02-.01,.02-.01c.03-.02,.06-.03,.09-.05h0l.05-.02h.03s.06-.02,.02-.01,.02,0,.02,0h.09c.05,0-.03-.01,.01,0,.03,0,.07,.02,.1,.03,.05,.02-.02-.02,0,0s.03,.02,.05,.03l.03,.02,.03,.02s-.03-.02,0,0l.06,.06s-.02-.04,0,0c0,.01,.02,.03,.03,.04s.02,.03,.02,.04c.02,.04-.01-.04,0,0s.02,.06,.03,.1v.06c0,.12,.11,.21,.23,.2,.11,0,.2-.09,.2-.2h0c0-.36-.23-.68-.57-.81-.44-.16-.93,.07-1.09,.52-.16,.44,.07,.93,.52,1.09,.44,.16,.93-.07,1.09-.52,.03-.09,.05-.19,.05-.29,0-.12-.11-.21-.23-.2-.11,0-.2,.09-.2,.2h0Z"/>
          <circle id="Oval-20" cx="201.87" cy="133.61" r=".63"/>
          <path id="Path-206" d="M202.29,133.61v.05s-.01,.05-.02,.08c0,.02-.01,.03-.02,.05,0,0,.02-.04,0,0s-.03,.06-.05,.08,.02-.02,0,0c-.01,0-.02,.02-.03,.03-.01,.01-.08,.06-.03,.03-.02,.02-.05,.03-.07,.05l-.03,.02s.04,0-.02,0c-.03,0-.05,.02-.08,.02s-.05,0,0,0h-.13s.05,.01,0,0h-.06s-.05-.02-.05-.02c-.01,0-.03-.02,0,0-.03-.01-.05-.02-.07-.04-.02-.02-.02-.02-.03-.02-.03-.02,.04,.04,0,0l-.07-.07s.01,.02,0,0c0-.01-.02-.03-.02-.04,0-.02-.04-.09-.02-.04-.01-.03-.02-.05-.03-.08,0-.01,0-.02,0-.03-.01-.04,0,.04,0-.02,0-.03,0-.05,0-.08,0,0,0-.06,0,0,0-.01,0-.02,0-.04,0-.03,.02-.05,.02-.08,.02-.05-.02,.04,0,0,.01-.02,.01-.03,.02-.04,0-.01,.02-.02,.02-.04,0-.01,.03-.04,0,0,.02-.02,.04-.04,.06-.06,0,0,.04-.04,.02-.02s.02-.01,.02-.01c.03-.02,.06-.03,.09-.05,0,0-.04,.02,0,0l.05-.02h.03s.06-.02,.02,0,.02,0,.02,0h.09c.05,0-.03-.01,.01,0,.03,0,.07,.02,.1,.03,.05,.02-.02-.02,0,0s.03,.02,.05,.03l.03,.02,.03,.02s-.03-.02,0,0l.06,.06s-.02-.04,0,0c0,.01,.02,.03,.03,.04s.02,.03,.02,.04c.02,.04-.01-.04,0,0s.02,.06,.03,.1v.06c0,.12,.1,.22,.22,.22s.22-.1,.22-.22h0c0-.36-.23-.68-.57-.81-.44-.16-.93,.07-1.09,.52-.16,.44,.07,.93,.52,1.09,.44,.16,.93-.07,1.09-.52,.03-.09,.05-.19,.05-.28,0-.12-.1-.22-.22-.22s-.22,.1-.22,.22h0Z"/>
          <path id="Path-207" class="cls-5" d="M111.23,131.54s-.29-3.74,5.2-4.42c4.62,1.04-.18,5.77-.18,5.77l-5.02-1.35Z"/>
          <path id="Path-208" d="M111.67,131.54c0-.12,0-.24,0-.36,0-.03,0-.05,0-.08,.01-.11-.02,.08,0,0s.02-.15,.04-.22c.04-.17,.08-.34,.14-.5,.02-.05,.04-.09,.05-.14,.03-.07-.03,.06,.02-.05s.1-.2,.15-.29,.11-.18,.16-.27c.03-.05,.07-.1,.11-.15,.04-.06-.04,.05,0-.01,.02-.03,.05-.06,.07-.08,.37-.44,.83-.8,1.34-1.06,.73-.37,1.52-.61,2.33-.73,.18-.04,.37-.03,.55,.03,.17,.05,.33,.11,.48,.18,.23,.11,.44,.26,.61,.45,.23,.32,.3,.72,.21,1.1-.11,.5-.31,.98-.6,1.41-.4,.66-.88,1.27-1.43,1.81l.43-.11-4.38-1.18-.63-.17c-.23-.07-.48,.07-.54,.3-.07,.23,.07,.48,.3,.54l4.08,1.1c.39,.1,1.06,.43,1.4,.11,.38-.38,.73-.79,1.04-1.23,.89-1.19,1.95-3.17,.62-4.43-.4-.35-.87-.6-1.38-.73-.17-.06-.34-.09-.52-.09-.2,.02-.39,.05-.59,.09-.34,.06-.67,.13-1,.23-1.02,.27-1.96,.8-2.72,1.54-.79,.78-1.23,1.84-1.24,2.94v.05c.06,.56,.93,.56,.89,0Z"/>
          <path id="Path-209" class="cls-5" d="M199.55,156.81l-18.43,26.99-31.25-3.2-8.61,3.69c-.9,.39-1.53,1.21-1.67,2.18h0c-.04,.29,0,.59,.15,.85l.74,1.39c.14,.26,.19,.56,.15,.85l-.16,1.14c-.04,.27,0,.55,.12,.8l.89,1.84c.15,.3,.18,.65,.09,.98l-.12,.45c-.1,.36-.05,.74,.13,1.06l.86,1.51h0c.22,.98,1.18,1.6,2.16,1.42l1.22-.23,4.97-4.75,30.08,6.48c13.02,2.14,14.45-4.41,19.56-12.42l19.65-28.41"/>
          <path id="Path-210" d="M199.17,156.59l-1.83,2.69-4.41,6.46-5.31,7.77-4.61,6.75-1.52,2.22c-.26,.33-.5,.69-.72,1.05-.01,.02-.02,.03-.03,.05l.38-.22-3.01-.31-7.27-.74-8.83-.91-7.83-.8c-1.38-.14-2.76-.32-4.14-.42-.37,.03-.73,.14-1.05,.33l-3.52,1.51-3.64,1.56c-.26,.11-.51,.21-.76,.32-.84,.37-1.48,1.08-1.77,1.94-.19,.49-.19,1.04,0,1.53,.1,.24,.23,.46,.36,.69,.36,.46,.54,1.03,.53,1.62-.2,.69-.17,1.42,.07,2.1,.26,.55,.53,1.08,.79,1.63,.35,.72-.2,1.4-.02,2.15,.22,.61,.52,1.19,.9,1.72l.15,.26s-.05-.14,0,.02c.04,.14,.1,.28,.17,.42,.24,.45,.62,.82,1.08,1.03,.73,.25,1.52,.25,2.26,.01,.21-.01,.41-.08,.59-.19,.08-.06,.15-.15,.23-.22l1.18-1.13,2.97-2.84,.58-.56-.43,.11,4.94,1.06,10.69,2.3,10.42,2.25c1.98,.48,3.98,.86,5.99,1.14,2.46,.36,4.97,.18,7.35-.52,1.8-.61,3.41-1.67,4.68-3.08,2.54-2.76,4.02-6.28,6.11-9.36,1.05-1.56,2.14-3.09,3.21-4.64l6.2-8.96,6.33-9.16,3.68-5.32,.18-.26c.32-.47-.44-.9-.76-.44l-2.02,2.92-4.85,7.01-5.78,8.36-4.89,7.07c-.7,1.02-1.42,2.02-2.11,3.05-1.99,2.98-3.43,6.39-5.87,9.05-1.06,1.2-2.37,2.13-3.85,2.73-1.9,.68-3.93,.95-5.94,.8-1.98-.14-3.94-.44-5.87-.9l-8.12-1.75-9.89-2.13-7.71-1.67c-.58-.13-1.17-.26-1.75-.38-.2-.07-.43-.04-.59,.09-.33,.26-.63,.6-.93,.89l-3.39,3.23-.5,.48s-.08,.07-.11,.11c-.05,.09,.29-.08,.08-.07-.83,.05-1.59,.52-2.32-.15-.24-.3-.42-.63-.55-.99-.18-.33-.38-.66-.57-.99-.25-.31-.36-.72-.31-1.11,.15-.42,.2-.86,.15-1.3-.21-.68-.51-1.33-.88-1.94-.16-.25-.25-.55-.25-.84,.02-.34,.1-.68,.15-1.02,.04-.78-.19-1.55-.66-2.18-.21-.29-.34-.63-.36-.99,.06-.58,.34-1.12,.78-1.5,.35-.27,.74-.49,1.16-.63l1.67-.71,4.54-1.95,1.56-.67c.11-.04,.23-.09,.33-.14,.07-.05-.27,0-.16,.05,.15,.04,.3,.05,.45,.05l.93,.1,3.05,.31,9.16,.94,9.9,1.01,6.75,.69,.98,.1c.16,0,.3-.08,.38-.22l1.84-2.69,4.41-6.45,5.31-7.77,4.61-6.75c.74-1.08,1.57-2.15,2.24-3.27,.01-.02,.02-.03,.03-.05,.31-.48-.45-.92-.76-.45Z"/>
          <path id="Path-211" class="cls-5" d="M191.98,198.52l31.11-38.01"/>
          <path id="Path-212" d="M192.29,198.83l.83-1.02,2.26-2.76,3.35-4.1,4.08-4.98,4.48-5.48,4.51-5.51,4.22-5.15,3.55-4.34,2.56-3.13c.4-.49,.81-.98,1.21-1.48l.05-.06c.16-.17,.16-.45,0-.62-.17-.17-.45-.17-.62,0l-.84,1.02-2.26,2.76-3.35,4.09-4.08,4.98-4.48,5.48-4.51,5.51-4.22,5.16-3.55,4.34-2.56,3.14c-.4,.49-.81,.98-1.21,1.48l-.05,.06c-.16,.17-.16,.45,0,.62,.17,.17,.45,.17,.62,0h0Z"/>
          <path id="Path-213" d="M199.55,156.81l-18.43,26.99,13.77,10.75"/>
          <path id="Path-214" d="M199.17,156.59l-1.84,2.69-4.4,6.44-5.32,7.79-4.61,6.75-1.52,2.21c-.24,.35-.5,.69-.72,1.05-.01,.02-.02,.03-.03,.05-.1,.17-.07,.39,.07,.53l4.66,3.64,7.42,5.8,1.69,1.32c.17,.16,.45,.16,.62,0,.17-.17,.17-.45,0-.62l-4.66-3.64-7.42-5.8-1.69-1.32,.07,.53,1.84-2.69,4.4-6.44,5.32-7.79,4.61-6.75,1.51-2.21c.24-.35,.5-.69,.72-1.05,.01-.02,.02-.03,.03-.05,.32-.47-.44-.91-.76-.44h0Z"/>
          <path id="Path-215" d="M196.17,197.83l-4.12,.62s-.86,4.76,3.28,6.25c4.02,1.45,.85-6.87,.85-6.87Z"/>
          <path id="Path-216" d="M196.06,197.4l-4.12,.62c-.15,.04-.27,.16-.31,.31-.15,.89-.13,1.8,.06,2.68,.31,1.71,1.43,3.17,3.01,3.9,.6,.35,1.31,.46,1.99,.31,.51-.2,.88-.63,.99-1.16,.21-1.24,.12-2.51-.27-3.7-.22-.89-.49-1.78-.81-2.64-.07-.23-.31-.37-.54-.31-.23,.07-.37,.31-.31,.54,.24,.65,.45,1.3,.64,1.97,.37,1.1,.54,2.24,.53,3.4,0,.06-.01,.12-.02,.19,0,.02,0,.05,0,.07,.02-.11,0,0,0,.02-.02,.11-.05,.22-.08,.32-.01,.03-.07,.18-.02,.07-.02,.04-.04,.09-.07,.13-.02,.04-.05,.08-.08,.12,.08-.11-.03,.02-.05,.05-.08,.09,.03-.01-.04,.03l-.11,.06c-.08,.05,.09-.03,0,0-.02,0-.04,.01-.05,.02-.03,0-.22,.04-.09,.03-.12,.01-.23,.01-.35,0,.1,.01-.07-.02-.1-.02-.08-.02-.16-.04-.23-.06-1.48-.46-2.62-1.65-3-3.15-.16-.61-.24-1.23-.21-1.86,0-.21,.02-.42,.04-.63,0-.03,0-.06,.01-.1,0-.07-.04,.11,0,.03,0-.02,.01-.04,.01-.06l-.31,.31,4.12-.62c.23-.06,.37-.31,.31-.54-.07-.23-.3-.37-.54-.31Z"/>
          <path id="Path-217" d="M225.7,189.11s7.27,.48,8.6,4.47-8.93,6.25-8.93,6.25"/>
          <path id="Path-218" d="M225.7,189.55c.08,0,.17,.01,.25,.02,.1,0,.2,.02,.3,.03l.17,.02h.05s.07,.02,.07,.02c.75,.11,1.49,.26,2.23,.45,1.69,.45,3.61,1.2,4.64,2.68,.24,.34,.42,.72,.53,1.12,.01,.04,.04,.24,.03,.15,.01,.09,.02,.18,.02,.26,0,.07,0,.15-.01,.22,.01-.09-.02,.11-.03,.15-.02,.08-.04,.15-.07,.23-.01,.04-.03,.07-.04,.1,.03-.08-.01,.02-.03,.05-.07,.14-.16,.28-.25,.42-.03,.05-.07,.1-.12,.15-.06,.07-.12,.14-.18,.2-.13,.13-.26,.26-.4,.38-1.32,1.01-2.81,1.78-4.4,2.26-1.04,.36-2.09,.63-3.15,.92h-.05c-.55,.13-.32,.98,.23,.86,.95-.22,1.9-.48,2.82-.8,1.74-.51,3.39-1.32,4.87-2.38,.65-.46,1.16-1.09,1.49-1.81,.28-.75,.23-1.58-.13-2.29-.84-1.86-2.86-2.89-4.71-3.49-.83-.27-1.68-.48-2.54-.62-.5-.1-1-.16-1.51-.2-.02,0-.05,0-.07,0-.57-.04-.56,.84,0,.88h0Z"/>
          <path id="Path-219" class="cls-1" d="M203.81,237.33l10.97-28.33-5.11-27.61s-12.92,7.16-17.57,17.13c-1.38,2.98-12.93,20.36-18.92,38.91"/>
          <path id="Path-220" d="M204.23,237.45l1.02-2.63,2.47-6.37,3.06-7.89,2.75-7.09,1.57-4.06c.1-.19,.13-.41,.09-.62l-.24-1.3-1.11-6-1.52-8.22-1.41-7.6-.78-4.2-.04-.19c-.07-.23-.31-.37-.55-.3-.03,0-.07,.02-.1,.04-.6,.34-1.19,.7-1.78,1.07-1.48,.93-2.91,1.93-4.31,3-1.89,1.43-3.68,2.98-5.36,4.65-1.83,1.8-3.46,3.8-4.85,5.96-.81,1.28-1.42,2.67-2.17,3.98-.78,1.37-1.6,2.73-2.39,4.1-1.15,1.98-2.29,3.97-3.4,5.96-1.36,2.46-2.68,4.94-3.95,7.45-1.42,2.81-2.77,5.66-4.03,8.54-1.33,3.04-2.56,6.12-3.65,9.25-.27,.77-.53,1.55-.78,2.32-.17,.54,.67,.77,.85,.23,2.04-6.16,4.52-12.17,7.42-17.98,2.34-4.77,4.89-9.44,7.56-14.04,.89-1.53,1.79-3.05,2.68-4.58,.28-.48,.57-.98,.84-1.47,.29-.53,.54-1.08,.82-1.62,2.45-4.32,5.77-8.1,9.73-11.1,2.24-1.83,4.63-3.48,7.13-4.92l.11-.06-.65-.26,.51,2.75,1.22,6.61,1.47,7.96,1.28,6.89,.42,2.28c.07,.36,.11,.73,.2,1.08,0,.02,0,.03,0,.05v-.23l-1.09,2.82-2.62,6.77-3.17,8.19-2.74,7.07-.9,2.32c-.14,.37-.31,.73-.43,1.11,0,.02-.01,.03-.02,.05-.06,.23,.07,.47,.31,.54,.23,.06,.47-.08,.54-.31h0Z"/>
          <path id="Path-221" class="cls-1" d="M200.41,196.52c-3.53,4.73-6.82,9.63-9.85,14.69-1.15,1.93-8.85,13.94-12.96,26.64"/>
          <path id="Path-222" class="cls-4" d="M200.03,196.3c-1.09,1.44-2.14,2.91-3.17,4.39-2.35,3.36-4.58,6.8-6.69,10.32-.94,1.57-1.9,3.12-2.82,4.71-1.7,2.94-3.31,5.93-4.8,8.98-1.86,3.75-3.48,7.61-4.87,11.56-.17,.49-.34,.98-.5,1.48-.17,.54,.67,.77,.85,.23,1.31-3.97,2.87-7.84,4.69-11.61,1.52-3.19,3.17-6.32,4.92-9.39,1.01-1.77,2.07-3.52,3.13-5.26,1.97-3.24,3.99-6.44,6.14-9.56,.84-1.21,1.68-2.42,2.55-3.61,.42-.58,.87-1.15,1.28-1.74,.02-.03,.04-.05,.06-.07,.12-.21,.05-.48-.16-.6-.21-.12-.47-.05-.6,.16h0Z"/>
          <path id="Path-223" class="cls-1" d="M198.58,237.79l7.52-19.39"/>
          <path id="Path-224" class="cls-4" d="M199,237.91l.75-1.93,1.8-4.64,2.16-5.58,1.88-4.85,.62-1.61c.1-.25,.22-.5,.29-.76,0-.01,0-.02,.01-.03,.06-.23-.07-.47-.31-.54-.23-.06-.47,.08-.54,.31l-.75,1.93-1.8,4.64-2.16,5.58-1.88,4.85-.62,1.61c-.1,.25-.22,.5-.29,.76,0,.01,0,.02-.01,.03-.06,.23,.07,.47,.31,.54,.23,.06,.47-.08,.54-.31h0Z"/>
          <path id="Path-225" class="cls-1" d="M192.08,236.59l11.11-27.2"/>
          <path id="Path-226" class="cls-4" d="M192.5,236.7l1.11-2.71,2.65-6.49,3.21-7.85,2.78-6.8,.91-2.23c.14-.35,.31-.7,.44-1.06,0-.02,0-.03,.02-.05,.06-.23-.07-.47-.31-.54-.23-.06-.47,.08-.54,.31l-1.11,2.71-2.65,6.49-3.21,7.85-2.78,6.8-.91,2.23c-.14,.35-.32,.7-.44,1.06,0,.02-.01,.03-.02,.05-.06,.23,.07,.47,.31,.54,.23,.06,.47-.08,.54-.31h0Z"/>
          <path id="Path-227" class="cls-1" d="M209.62,237.17c-3.62-16.85-5.13-33.53-5.55-36.41l-1.75-13.16,25.15-4.97,5.49,15.4c1.4,3.95,2.34,8.05,2.8,12.22l2.96,26.92"/>
          <path id="Path-228" d="M210.05,237.06c-1.2-5.58-2.19-11.21-3.04-16.86-.67-4.42-1.25-8.86-1.77-13.3-.17-1.42-.33-2.84-.49-4.26-.05-.45-.11-.91-.16-1.37-.02-.19-.05-.38-.08-.56-.02-.12,.02,.12,0,.04,0-.03,0-.05-.01-.08-.29-2.14-.57-4.28-.86-6.42l-.87-6.52v-.11s-.34,.42-.34,.42l2.51-.5,6.02-1.19,7.25-1.43,6.27-1.24,2.08-.41c.32-.06,.67-.1,.98-.2h.04s-.54-.32-.54-.32l1.09,3.05,2.24,6.28,1.85,5.2c.86,2.35,1.57,4.76,2.14,7.2,.47,2.14,.81,4.3,1.04,6.47l.45,4.07,.69,6.3,.76,6.88,.64,5.79,.33,3.04,.02,.14c0,.24,.2,.43,.44,.44,.24,0,.44-.2,.44-.44l-.23-2.14-.58-5.26-.75-6.79-.73-6.59-.52-4.76c-.15-1.37-.3-2.75-.52-4.12-.54-3.35-1.39-6.63-2.53-9.82l-1.53-4.29-2.28-6.42-1.51-4.24-.08-.21c-.07-.23-.31-.37-.54-.31l-2.51,.5-6.02,1.19-7.25,1.43-6.27,1.24-2.08,.41c-.32,.06-.66,.11-.98,.19-.01,0-.03,0-.04,0-.19,.05-.32,.23-.32,.42l.74,5.58,.96,7.19c.02,.18,.05,.37,.07,.55l.03,.2c-.02-.16,0-.01,0,.03l.02,.16c.03,.21,.05,.42,.08,.62,.15,1.29,.3,2.57,.45,3.86,.49,4.26,1.03,8.51,1.65,12.75,.81,5.56,1.75,11.11,2.87,16.62,.15,.71,.29,1.42,.45,2.13,.12,.55,.96,.32,.85-.23h0Z"/>
          <path id="Path-229" class="cls-1" d="M215.76,237.17c-2.42-11.28-5.25-31.99-5.53-33.92l-1.17-8.81,16.83-3.33,3.67,10.31c.94,2.64,1.57,5.39,1.88,8.18l2.9,27.86"/>
          <path id="Path-230" class="cls-4" d="M216.19,237.06c-.78-3.64-1.43-7.31-2.05-10.99-.66-3.9-1.28-7.81-1.86-11.73-.44-2.94-.87-5.88-1.29-8.82-.1-.73-.2-1.45-.31-2.18-.01-.08-.04-.3-.02-.1l-.03-.24-.17-1.29-.95-7.1-.02-.16-.32,.42,5.72-1.13,9.04-1.79,2.07-.41-.54-.31,1.16,3.26,1.93,5.42c.65,1.73,1.2,3.49,1.67,5.27,.39,1.66,.68,3.35,.84,5.05l.34,3.26,.54,5.17,.62,5.99,.61,5.83,.48,4.58,.24,2.32s0,.07,.01,.1c0,.24,.2,.43,.44,.44,.24,0,.44-.2,.44-.44l-.17-1.62-.43-4.14-.59-5.63-.63-6.07-.57-5.44-.4-3.81c-.1-1.01-.21-2.01-.37-3.01-.41-2.44-1.05-4.83-1.9-7.16l-1.77-4.98-1.56-4.37-.09-.24c-.07-.23-.31-.36-.54-.31l-5.72,1.13-9.04,1.78-2.07,.41c-.19,.05-.32,.23-.32,.42l.85,6.4c.19,1.4,.38,2.79,.57,4.19,.39,2.74,.78,5.47,1.19,8.21,.57,3.86,1.18,7.72,1.81,11.57,.62,3.77,1.28,7.54,2.05,11.28,.08,.4,.17,.8,.25,1.2,.12,.56,.97,.33,.85-.22Z"/>
          <path id="Path-231" class="cls-1" d="M223.37,237.9c-1.09-5.05-8.24-39.32-8.36-40.19l-.53-3.95,5.67-6.17,2.49,9.15c.42,1.18,.7,2.41,.84,3.66l6.47,36.03"/>
          <path id="Path-232" class="cls-4" d="M223.79,237.79c-.19-.87-.37-1.74-.55-2.61-.29-1.39-.59-2.79-.88-4.18-.37-1.77-.74-3.54-1.11-5.31-.41-1.97-.83-3.95-1.24-5.93-.42-2.01-.84-4.03-1.26-6.04-.4-1.91-.8-3.82-1.19-5.73-.34-1.63-.68-3.27-1.02-4.9-.25-1.19-.49-2.39-.73-3.58-.12-.6-.24-1.2-.36-1.8,0-.02,0-.05-.01-.07-.02-.09,.02,.16,0,.06-.03-.26-.07-.52-.1-.78l-.34-2.58-.07-.55-.13,.31,4.97-5.4,.7-.76-.73-.19,1.2,4.39c.43,1.58,.81,3.18,1.29,4.74,.27,.83,.5,1.67,.68,2.52,.07,.4,.11,.8,.18,1.2,.04,.22,.08,.44,.12,.67l.61,3.4,.97,5.39,1.16,6.52,1.21,6.77,1.11,6.18,.84,4.66c.14,.77,.26,1.54,.41,2.3,0,.03,.01,.07,.02,.1,.07,.23,.31,.37,.54,.31,.23-.07,.36-.31,.31-.54l-.28-1.58-.75-4.18-1.05-5.87-1.2-6.73-1.19-6.66-1.03-5.74-.71-3.95c-.16-.88-.26-1.72-.42-2.57-.19-1.01-.53-1.97-.81-2.96l-.7-2.58-1.54-5.66-.1-.35c-.07-.23-.31-.37-.55-.3-.07,.02-.13,.06-.18,.11l-3.29,3.58-1.95,2.12c-.14,.15-.28,.29-.41,.45-.2,.23-.13,.46-.09,.73,.17,1.3,.29,2.63,.54,3.92,.18,.95,.38,1.9,.58,2.84,.36,1.75,.72,3.49,1.08,5.23,.47,2.25,.93,4.49,1.4,6.74,.51,2.45,1.02,4.9,1.53,7.35,.5,2.39,1,4.77,1.5,7.16,.42,2,.84,3.99,1.26,5.99,.28,1.34,.57,2.68,.85,4.03l.12,.58c.12,.55,.96,.32,.85-.23h-.01Z"/>
          <path id="Path-233" class="cls-7" d="M234.26,193.23c-4.65-3.91-42.15,5.14-42.15,5.14l1.83-42.21c-.15-2.61,1.71-4.91,4.29-5.32l16.7-2.09c2.72-.34,4.28,.61,5.95,4.45,0,0,10.5,26.93,13.39,40.03Z"/>
          <path id="Path-234" d="M193.73,151.83l3.32-.42,7.33-.92,7.28-.91c1.12-.14,2.23-.29,3.35-.42,1.26-.25,2.57,.12,3.51,1.01,.58,.61,1.05,1.31,1.41,2.07,.2,.38,.39,.79,.53,1.14,.43,1.08,.84,2.17,1.25,3.26,.88,2.32,1.75,4.65,2.6,6.99,1.12,3.05,2.21,6.1,3.27,9.17,1.13,3.25,2.22,6.52,3.25,9.8,.92,2.94,1.8,5.9,2.54,8.89,.15,.61,.3,1.23,.43,1.85l.73-.43c-.7-.51-1.53-.82-2.39-.9-1.25-.17-2.52-.24-3.78-.19-1.61,.03-3.22,.16-4.83,.32-1.87,.19-3.74,.43-5.6,.71-1.95,.29-3.89,.6-5.83,.95s-3.86,.7-5.78,1.08c-1.77,.35-3.54,.71-5.3,1.09-1.47,.31-2.94,.63-4.41,.96-1.05,.24-2.11,.48-3.16,.72-.49,.11-1,.2-1.48,.35-.02,0-.04,.01-.06,.02l.55,.42,.14-2.95,.34-7.05,.41-8.52,.36-7.38c.06-1.19,.17-2.38,.17-3.57v-.05c.03-.57-.85-.57-.88,0l-.14,2.94-.34,7.06-.41,8.52-.36,7.38c-.06,1.19-.17,2.38-.17,3.57v.05c0,.24,.2,.44,.45,.44h0s.07,0,.11-.02c.33-.08,.67-.16,1-.24,.91-.22,1.83-.43,2.74-.63,1.36-.31,2.73-.61,4.09-.91,1.68-.36,3.37-.72,5.06-1.06,1.89-.38,3.77-.74,5.66-1.09,1.93-.35,3.87-.68,5.82-.99,1.87-.29,3.69-.55,5.55-.77,1.67-.19,3.34-.35,5.02-.44,1.35-.08,2.7-.07,4.04,.03,.14,.01,.28,.03,.42,.04l.18,.02c.11,.01-.06,0,.02,0h.1c.24,.05,.48,.1,.72,.15,.21,.05,.41,.1,.62,.17l.14,.05s.16,.06,.09,.04,.06,.03,.08,.04l.12,.06c.07,.04,.14,.08,.21,.12,.03,.02,.06,.04,.09,.06,.1,.07-.07-.06,.02,.02,.18,.17,.46,.16,.62-.02,.1-.11,.14-.26,.11-.41-.63-2.86-1.44-5.69-2.29-8.49-.99-3.29-2.06-6.55-3.17-9.79-1.09-3.19-2.21-6.37-3.36-9.54-.93-2.55-1.87-5.1-2.83-7.64-.53-1.4-1.06-2.8-1.6-4.19-.77-1.99-1.94-4.38-4.16-5.02-1.39-.24-2.82-.2-4.19,.11l-6.69,.84-7.73,.96-4.7,.59-.23,.03c-.24,0-.43,.2-.44,.44,0,.24,.2,.44,.44,.44h0Z"/>
          <path id="Path-235" d="M199.94,196.56l.83,6.72c.12,1.35,.5,2.66,1.11,3.87l1.68,3.12,1.6,2.96c.27,.5,1.03,.05,.76-.44l-3.17-5.86c-.57-1.06-.94-2.22-1.08-3.41l-.46-3.71-.4-3.24c0-.24-.2-.43-.44-.44-.24,0-.43,.2-.44,.44Z"/>
          <path id="Path-236" class="cls-7" d="M203.43,171.31l-27.09-.5c.48-1.9,3.72-9.33,3.98-11.84,.37-3.13,.37-6.29-.02-9.42l24.65,.34,8.48-.88"/>
          <path id="Path-237" d="M203.43,170.88l-2.7-.05-6.48-.12-7.8-.14-6.77-.13-2.24-.04c-.34,0-.71-.05-1.05-.02h-.05l.42,.56c.27-.94,.6-1.87,.97-2.78,.5-1.33,1.02-2.67,1.51-4.01,.45-1.24,.9-2.49,1.24-3.77,.35-1.58,.52-3.19,.51-4.81,.11-2.05,.02-4.1-.27-6.13l-.42,.56,4.22,.06,9.07,.12,8.52,.12c1.11,.06,2.23,.06,3.34-.01l7.77-.8,.21-.02c.24,0,.43-.2,.44-.44,0-.24-.2-.44-.44-.44l-7.25,.75c-.46,.07-.93,.11-1.39,.12l-1.95-.03-8.1-.11-9.27-.13c-1.69-.02-3.39-.09-5.09-.07h-.08c-.25,0-.44,.21-.44,.45,0,.03,0,.07,.01,.1,.24,1.73,.33,3.47,.26,5.21-.02,1.08-.09,2.16-.18,3.24-.02,.28-.05,.57-.08,.85,0,.02-.02,.14,0,.08,0-.04-.02,.1-.02,.13-.04,.23-.09,.45-.14,.68-.32,1.23-.71,2.45-1.16,3.64-.48,1.35-1,2.68-1.51,4.02-.43,1.04-.81,2.1-1.12,3.18-.06,.24,.08,.48,.32,.54,.03,0,.07,.01,.1,.01l2.7,.05,6.47,.12,7.8,.14,6.77,.12c1.09,.02,2.2,.09,3.29,.06h.05c.24-.01,.43-.22,.42-.46-.01-.23-.19-.41-.42-.42h0Z"/>
          <path id="Path-238" d="M176.44,170.79c.91,.09,1.93-1.94,2.74-5.1l-4.4-.48c.15,3.28,.74,5.48,1.66,5.58Z"/>
          <path id="Path-239" d="M176.44,171.22c.83,.06,1.4-.84,1.74-1.46,.63-1.26,1.11-2.59,1.42-3.96,.06-.24-.09-.48-.33-.54h0s-.07-.01-.1-.01l-4.4-.48c-.24,0-.44,.2-.44,.44,.02,1.43,.22,2.84,.59,4.22,.23,.76,.62,1.68,1.51,1.8,.24,0,.44-.2,.44-.44,0-.24-.2-.43-.44-.44,.15,.02,0,0,0,0-.03-.05,.06,.04,0,0-.03-.02-.15-.1-.07-.04-.05-.05-.1-.1-.15-.15,.05,.06-.06-.08-.07-.11-.2-.34-.34-.7-.43-1.08-.3-1.23-.46-2.48-.49-3.74l-.44,.44,4.4,.48-.42-.56c-.28,1.23-.69,2.43-1.24,3.57-.16,.35-.37,.67-.63,.95-.08,.09-.17,.17-.28,.22-.07,.04,.04-.01,0,0-.03,0-.05,.02-.08,.02-.1,.03,.1,0,0,0-.03,0-.06,0-.09,0-.57-.04-.57,.84,0,.88Z"/>
          <path id="Path-240" class="cls-5" d="M178.74,167.3c.76-2.73,1.29-5.52,1.58-8.33,.37-3.13,.37-6.29-.02-9.42l-3.47-.09-12.71-.34-25.59-18.52-16.38,3.55,3.91,6.88,23.58,19.15s7.6,6.23,29.09,7.15Z"/>
          <path id="Path-241" d="M179.16,167.42c.65-2.34,1.14-4.72,1.44-7.13,.33-2.47,.47-4.96,.41-7.45-.02-1.14-.12-2.28-.29-3.41-.05-.19-.23-.32-.42-.32l-5.08-.14-8.66-.23-2.44-.07,.22,.06-1.55-1.12-3.98-2.88-5.34-3.87-5.69-4.12-5-3.62-3.3-2.39c-.22-.16-.44-.34-.67-.48-.23-.1-.49-.11-.73,0l-4.67,1.01-6.74,1.46-4.41,.96-.22,.05c-.23,.07-.37,.31-.3,.55,.01,.03,.02,.07,.04,.1l3.31,5.82c.19,.33,.36,.67,.56,.99,.05,.08,.11,.15,.18,.21,.33,.29,.68,.55,1.01,.82l4.78,3.88,6.65,5.4,6.43,5.22,4.11,3.34c.36,.29,.71,.58,1.1,.84,1.19,.77,2.44,1.44,3.75,1.99,2.61,1.11,5.31,2,8.07,2.65,4.29,1.01,8.65,1.67,13.05,1.98,1.32,.1,2.64,.18,3.96,.24,.57,.03,.57-.85,0-.88-4.78-.17-9.54-.72-14.24-1.63-3.09-.6-6.11-1.46-9.05-2.57-1.59-.6-3.12-1.33-4.57-2.2-.3-.19-.6-.38-.89-.59-.08-.06-.07-.06,0,0-.01,0-.02-.02-.03-.03-.05-.04-.1-.08-.14-.12l-3.27-2.65-6.06-4.92-6.77-5.5-5.38-4.36-1.54-1.25c-.12-.1-.23-.2-.36-.29,0,0-.06-.06-.06-.05,.02-.01,.1,.16,0-.01-1.13-2.08-2.34-4.12-3.52-6.18l-.34-.6-.26,.65,5.54-1.2,8.82-1.91,2.02-.44-.34-.04,1.51,1.1,3.88,2.81,5.27,3.82,5.6,4.06,5.03,3.64,3.39,2.46,.78,.57c.17,.11,.37,.16,.58,.15l5.16,.14,6.19,.17,3.72,.1,.87,.02-.42-.32c.29,2.12,.36,4.27,.22,6.41-.12,2.42-.4,4.83-.86,7.21-.25,1.31-.55,2.62-.92,3.9-.05,.24,.11,.47,.35,.52,.21,.04,.42-.08,.5-.28h0Z"/>
          <path id="Path-242" class="cls-5" d="M126.06,141l-2.3-1.61-3.06,.31-5.22-10.7c-.49-.99-.07-2.19,.92-2.68,.11-.06,.23-.1,.35-.13l6.18-1.68c4.64-.58,6.83,.05,12.71,3.98l4.49,3.26"/>
          <path id="Path-243" d="M126.28,140.63l-2.14-1.49c-.11-.1-.25-.16-.39-.18-.1,0-.21,.01-.31,.03l-1.57,.16-1.19,.12,.38,.22-2.87-5.88-1.8-3.69c-.36-.74-.93-1.55-.57-2.4,.24-.5,.71-.86,1.26-.96l1.63-.44,3.98-1.08c.11-.03,.22-.06,.32-.09-.1,.02,.06,0,.1-.01l.35-.04c.25-.03,.51-.05,.76-.07,.87-.07,1.74-.07,2.6,.02,1.83,.28,3.59,.93,5.17,1.9,2.64,1.59,5.2,3.33,7.65,5.21l.24,.17c.21,.12,.48,.05,.6-.16,.12-.21,.05-.47-.16-.6-2.19-1.59-4.34-3.23-6.64-4.65-1.73-1.17-3.65-2.04-5.67-2.57-.87-.18-1.75-.27-2.64-.26-.48,0-.96,.03-1.44,.07-.39,.02-.78,.07-1.16,.13-.4,.09-.81,.22-1.21,.33l-2.22,.61-2.02,.55c-.42,.09-.82,.22-1.21,.39-1,.55-1.5,1.71-1.2,2.81,.1,.3,.22,.58,.37,.85l1.57,3.21,3.38,6.93,.07,.14c.08,.14,.22,.22,.38,.22l3.06-.31-.22-.06,2.31,1.61c.46,.32,.9-.44,.44-.76h0Z"/>
          <path id="Path-244" class="cls-1" d="M154.34,202.3h0c1.57-.78,2.21-2.67,1.43-4.24l-40.22-81.4-5.68,2.81,40.22,81.4c.77,1.57,2.67,2.21,4.24,1.44h0Z"/>
          <path id="Path-245" d="M154.57,202.68c1.79-.93,2.48-3.14,1.55-4.92-.17-.34-.34-.68-.5-1.02l-2.54-5.13-4.14-8.39-5.27-10.65-5.93-12.01-6.04-12.21-5.68-11.5-4.85-9.81-3.5-7.09c-.55-1.12-1.08-2.25-1.66-3.36-.02-.05-.05-.1-.07-.15-.13-.21-.39-.27-.6-.16l-5.68,2.81c-.21,.12-.28,.39-.16,.6l1.15,2.32,3.11,6.29,4.55,9.21,5.52,11.17,5.99,12.13,5.97,12.1,5.48,11.1,4.48,9.06,2.97,6.01c.41,1.1,1,2.12,1.75,3.02,1.11,1.02,2.73,1.25,4.09,.58,.51-.24,.07-1-.44-.76-1.36,.63-2.97,.06-3.64-1.28-.03-.06-.05-.11-.08-.17l-.58-1.17-2.64-5.33-4.2-8.5-5.28-10.68-5.88-11.89-5.99-12.13-5.63-11.39-4.78-9.68-3.45-6.99c-.55-1.1-1.04-2.25-1.64-3.32-.03-.05-.05-.1-.07-.15l-.16,.6,5.67-2.81-.6-.16,1.12,2.28,3.07,6.2,4.5,9.11,5.48,11.1,5.95,12.04,5.95,12.04,5.46,11.06,4.5,9.11,3.05,6.18c.37,.76,.77,1.51,1.12,2.28,.63,1.36,.06,2.97-1.28,3.64-.51,.27-.07,1.03,.44,.78Z"/>
          <path id="Path-246" class="cls-5" d="M122.02,125.88c-4.31,4.31-10.92,4.19-10.79,5.2-.19,.74-.24,1.51-.14,2.27,.33,2.52,2.13,9.19,5.75,10.06,1.85,.44,7.67-3.29,7.67-3.29l5.35,4"/>
          <path id="Path-247" d="M111.03,130.15l-.09,.4c-.06,.16-.09,.33-.11,.5-.02-.01,.07-.16,.02-.06-.03,.05-.05,.11-.08,.16-.11,.24-.2,.48-.27,.73-.21,.66-.24,1.37-.1,2.05,.26,.55,.56,1.08,.92,1.58,.03,.06,.05,.12,.07,.19,.09,.23,0-.06,.02,.06,.02,.09,.02-.08,0,.01,0,.03-.02,.06-.03,.09,.04-.1-.04,.06-.05,.09-.05,.11-.1,.22-.15,.33-.17,.55-.12,1.14,.14,1.65,.31,.48,.71,.9,1.18,1.24,.18,.16,.31,.37,.37,.61,.04,.29,.07,.58,.08,.88,.01,.31,.09,.61,.24,.89,.18,.27,.41,.49,.69,.65,.51,.23,.99,.5,1.45,.81,.29,.25,.45,.59,.79,.77,.27,.13,.57,.19,.88,.18,.72-.04,1.43-.2,2.1-.48,.82-.32,1.62-.68,2.4-1.09,1.11-.57,2.18-1.2,3.23-1.88h-.44l3.08,2.34,4.92,3.74,1.13,.86c.21,.12,.48,.05,.6-.16,.12-.21,.05-.47-.16-.6l-3.08-2.34-4.91-3.73-1.13-.86c-.14-.08-.31-.08-.44,0-.81,.53-1.64,1.02-2.48,1.48-1.33,.83-2.79,1.44-4.32,1.81-.13,.03-.25,.04-.38,.04h-.17s-.27-.03-.14,0c-.05,0-.1-.02-.15-.03-.03,0-.05-.02-.08-.03-.09-.03,.08,.05,0,0l-.12-.07c-.08-.05,.08,.07,0,0-.03-.02-.05-.05-.07-.07,.11,.11-.02-.03-.03-.05-.05-.06-.1-.13-.15-.19-.09-.11-.2-.22-.31-.31-.24-.19-.5-.36-.77-.49-.38-.19-1.01-.38-1.21-.8-.08-.25-.12-.51-.11-.77,.04-.92-.44-1.78-1.24-2.22-.4-.29-.63-.77-.6-1.27,.02-.12,.06-.24,.11-.35,.08-.15,.15-.3,.19-.46,.14-.62-.37-1.23-.7-1.7-.18-.22-.31-.49-.35-.78-.03-.36-.01-.73,.06-1.09,.09-.37,.21-.73,.37-1.07,.1-.31,.17-.63,.22-.96,.12-.55-.72-.79-.85-.23h0Z"/>
          <path id="Path-248" d="M121.53,126.25c-.92,.66-1.9,1.22-2.93,1.68-1.18,.57-2.38,1.08-3.61,1.51-.55,.2-1.11,.37-1.68,.5-.55,.12-.32,.96,.23,.84,1.13-.27,2.23-.64,3.29-1.11,1.26-.51,2.48-1.09,3.67-1.73,.51-.28,1.01-.59,1.48-.94,.2-.13,.27-.39,.16-.6-.12-.21-.39-.28-.6-.16h0Z"/>
          <path id="Path-249" class="cls-5" d="M145.1,195.08c2.69-.18,5.34-.68,7.91-1.49,3.43-1.23,5.07,3.57-7.93,4.99"/>
          <path id="Path-250" d="M145.1,195.52c1.81-.1,3.6-.37,5.36-.79,.79-.18,1.58-.39,2.36-.62,.28-.1,.56-.18,.85-.24,.04,0,.21-.03,.06-.01,.05,0,.1-.01,.14-.01,.09,0,.18-.01,.27,0,.04,0,.09,0,.13,0,.02,0,.04,0,.06,0,.08,0-.12-.02-.04,0s.15,.03,.23,.05c.04,.01,.07,.03,.11,.04,.12,.04-.07-.05,.01,0,.06,.04,.12,.08,.19,.11,.08,.04-.07-.08-.01,0,.02,.02,.04,.04,.07,.06,.04,.03,.08,.13,0,0,.02,.03,.04,.06,.06,.09s.02,.05,.04,.07c-.04-.07-.02-.09,0-.01,0,.03,.01,.06,.02,.09,.03,.06,0-.12,0,0,0,.07-.04,.24,0,.08-.02,.07-.04,.15-.06,.23-.04,.12,.04-.07,0,.02-.02,.04-.04,.07-.06,.11-.05,.08-.1,.16-.15,.23,.09-.12-.02,.02-.04,.05s-.07,.08-.11,.12c-.08,.08-.17,.16-.26,.24-.05,.04-.1,.08-.15,.12,.09-.07-.08,.06-.1,.07-.12,.09-.24,.17-.37,.25-.3,.18-.61,.35-.93,.49-2.45,1-5.05,1.6-7.69,1.79-.24,0-.43,.2-.44,.44,0,.24,.2,.44,.44,.44,2.58-.2,5.12-.76,7.54-1.66,1.22-.37,2.29-1.14,3.03-2.17,.42-.66,.22-1.53-.43-1.95l-.04-.03c-.99-.57-2.11-.09-3.1,.19-2.24,.66-4.54,1.07-6.87,1.22h-.11c-.56,.03-.56,.91,0,.89Z"/>
          <path id="Path-251" class="cls-5" d="M144.59,192.23c2.58-.18,5.13-.67,7.59-1.47,3.43-1.23,5.07,3.57-7.93,4.99"/>
          <path id="Path-252" d="M144.59,192.67c1.71-.1,3.42-.35,5.08-.77,.78-.18,1.55-.39,2.32-.62,.28-.1,.56-.18,.85-.24,.04,0,.21-.03,.06-.01,.05,0,.1-.01,.14-.02,.09,0,.18,0,.27,0,.04,0,.09,0,.13,0,.02,0,.04,0,.06,0,.08,0-.12-.02-.04,0s.15,.03,.23,.05c.04,.01,.07,.02,.11,.04,.12,.04-.07-.05,.01,0,.06,.04,.12,.08,.19,.11,.08,.05-.07-.08-.01,0,.02,.02,.04,.04,.07,.06,.04,.03,.08,.13,0,0,.02,.03,.04,.06,.06,.09,.01,.02,.03,.05,.04,.07-.04-.07-.02-.09,0-.01,0,.03,.01,.06,.02,.09,.03,.06,0-.12,0,0,0,.07-.04,.24,0,.08-.02,.07-.04,.15-.06,.23-.04,.12,.04-.07,0,.02-.02,.04-.04,.07-.06,.11-.05,.08-.1,.16-.15,.23,.09-.12-.02,.02-.04,.05s-.07,.08-.11,.12c-.08,.08-.17,.16-.26,.24-.05,.04-.1,.08-.15,.12,.09-.07-.08,.06-.1,.07-.12,.09-.25,.17-.37,.25-.3,.18-.61,.35-.93,.49-2.45,1-5.05,1.6-7.69,1.79-.24,0-.43,.2-.44,.44,0,.24,.2,.44,.44,.44,2.58-.2,5.12-.76,7.54-1.66,1.22-.37,2.29-1.14,3.03-2.17,.42-.66,.22-1.53-.43-1.95,0,0,0,0,0,0l-.04-.02c-.99-.57-2.11-.09-3.1,.19-2.14,.63-4.34,1.03-6.56,1.2h-.1c-.57,.03-.57,.91,0,.88h0Z"/>
          <path id="Path-253" class="cls-5" d="M143.75,189.23c2.74-.18,5.45-.68,8.07-1.5,3.43-1.23,5.07,3.57-7.93,4.99"/>
          <path id="Path-254" d="M143.75,189.67c1.85-.1,3.69-.37,5.5-.8,.8-.18,1.59-.39,2.38-.63,.28-.1,.56-.18,.85-.24,.04,0,.21-.03,.06-.01,.05,0,.1-.01,.14-.02,.09,0,.18,0,.27,0,.04,0,.09,0,.13,0,.02,0,.04,0,.06,0,.08,0-.12-.02-.04,0s.15,.03,.23,.05c.04,.01,.07,.02,.11,.04,.12,.04-.07-.05,.01,0,.06,.04,.12,.08,.19,.11,.08,.05-.07-.08-.01,0,.02,.02,.04,.04,.07,.06,.04,.03,.08,.13,0,0,.02,.03,.04,.06,.06,.09,.01,.02,.03,.05,.04,.07-.04-.07-.02-.09,0-.01,0,.03,.01,.06,.02,.09,.03,.06,0-.12,0,0,0,.07-.04,.24,0,.08-.02,.07-.04,.15-.06,.23-.04,.12,.04-.07,0,.02-.02,.04-.04,.07-.06,.11-.05,.08-.1,.16-.15,.23,.09-.12-.02,.02-.04,.05s-.07,.08-.11,.12c-.08,.08-.17,.16-.26,.24-.05,.04-.1,.08-.15,.12,.09-.07-.08,.06-.1,.07-.12,.09-.25,.17-.37,.25-.3,.18-.61,.35-.93,.49-2.45,1-5.05,1.6-7.69,1.79-.24,0-.43,.2-.44,.44,0,.24,.2,.44,.44,.44,2.58-.2,5.12-.76,7.54-1.66,1.22-.37,2.29-1.14,3.03-2.17,.42-.66,.22-1.53-.43-1.95,0,0,0,0,0,0l-.04-.02c-.99-.57-2.12-.09-3.11,.19-2.29,.67-4.64,1.08-7.02,1.24h-.12c-.57,.02-.57,.9,0,.88h0Z"/>
          <path id="Path-255" class="cls-5" d="M142.59,186.83c2.85-.23,5.67-.76,8.41-1.6,3.43-1.23,5.07,3.57-7.93,4.99"/>
          <path id="Path-256" d="M142.59,187.27c1.95-.14,3.89-.43,5.8-.88,.81-.18,1.62-.4,2.42-.64,.28-.1,.56-.18,.85-.24,.04,0,.21-.03,.06-.01,.05,0,.1-.01,.14-.02,.09,0,.18,0,.27,0,.04,0,.09,0,.13,0,.02,0,.04,0,.06,0,.08,0-.12-.02-.04,0s.15,.03,.23,.05c.04,.01,.07,.02,.11,.04,.12,.04-.07-.05,.01,0,.06,.04,.12,.08,.19,.11,.08,.05-.07-.08-.01,0,.02,.02,.04,.04,.07,.06,.04,.03,.08,.13,0,0,.02,.03,.04,.06,.06,.09s.02,.05,.04,.07c-.04-.07-.02-.09,0-.01,0,.03,.01,.06,.02,.09,.03,.06,0-.12,0,0,0,.07-.04,.24,0,.08-.02,.07-.04,.15-.06,.23-.04,.12,.04-.07,0,.02-.02,.04-.04,.07-.06,.11-.05,.08-.1,.16-.15,.23,.09-.12-.02,.02-.04,.05s-.07,.08-.11,.12c-.08,.08-.17,.16-.26,.24-.05,.04-.1,.08-.15,.12,.09-.07-.08,.06-.1,.07-.12,.09-.24,.17-.37,.25-.3,.18-.61,.34-.93,.49-2.45,1-5.05,1.6-7.69,1.79-.24,0-.43,.2-.44,.44,0,.24,.2,.44,.44,.44,2.58-.2,5.12-.76,7.54-1.66,1.22-.37,2.29-1.14,3.03-2.17,.42-.66,.22-1.53-.43-1.95,0,0,0,0,0,0l-.04-.02c-.99-.57-2.12-.09-3.11,.19-2.4,.69-4.86,1.13-7.35,1.33h-.13c-.56,.05-.56,.93,0,.89Z"/>
          <path id="Path-257" class="cls-5" d="M149.03,185.38l1.81-2.74"/>
          <path id="Path-258" d="M149.41,185.6l1.58-2.39,.23-.35c.12-.21,.05-.48-.16-.6-.21-.12-.47-.05-.6,.16l-1.58,2.4-.23,.35c-.12,.21-.05,.48,.16,.6,.21,.12,.48,.05,.6-.16Z"/>
          <path id="Path-259" class="cls-5" d="M153.91,189.98c1.59,1.05,3.48,1.57,5.39,1.48"/>
          <path id="Path-260" d="M153.6,190.29c.49,.36,1.02,.65,1.59,.87,1.31,.52,2.71,.78,4.12,.74,.24-.01,.43-.22,.42-.46-.01-.23-.19-.41-.42-.42-1.31,.03-2.61-.2-3.83-.69-.33-.14-.65-.3-.96-.48-.09-.06-.19-.11-.28-.18-.05-.03-.2-.15-.02,0-.17-.16-.45-.16-.62,0-.17,.17-.17,.45,0,.62h0Z"/>
          <path id="Path-261" class="cls-4" d="M200.89,145.24c1.2,.31,2.45,.4,3.68,.25"/>
          <path id="Path-262" d="M200.77,145.66c1.27,.35,2.61,.43,3.91,.25,.23-.07,.36-.31,.3-.54-.07-.23-.31-.36-.54-.31-.78,.09-1.58,.08-2.36-.03-.37-.05-.73-.12-1.09-.22-.24-.06-.47,.09-.53,.33-.05,.22,.08,.45,.3,.52h0Z"/>
          <ellipse id="Oval-21" class="cls-1" cx="96.44" cy="84.89" rx="41.17" ry="41.18"/>
          <path id="Path-263" d="M55.16,89.99c2.86,23.04,23.86,39.41,46.91,36.54,23.04-2.86,39.41-23.86,36.54-46.91-2.86-23.04-23.86-39.41-46.91-36.54-4.33,.54-8.55,1.75-12.51,3.58-16.56,7.7-26.27,25.2-24.04,43.32,.07,.55,.95,.56,.88,0-2.82-22.33,12.99-42.72,35.32-45.54s42.72,12.99,45.54,35.32c2.6,20.53-10.61,39.75-30.71,44.69-4.19,1.03-8.52,1.39-12.83,1.07-19.3-1.47-34.9-16.32-37.32-35.53-.07-.55-.95-.56-.88,0Z"/>
          <ellipse id="Oval-22" class="cls-7" cx="96.44" cy="84.89" rx="34.04" ry="34.04"/>
          <path id="Path-264" d="M62.23,89.11c.45,3.59,1.45,7.09,2.97,10.38,8.06,17.27,28.59,24.73,45.85,16.68s24.73-28.59,16.68-45.85-28.59-24.73-45.85-16.68c-2.02,.94-3.94,2.08-5.74,3.39-2.81,2.06-5.29,4.52-7.36,7.31-5.3,7.1-7.64,15.98-6.54,24.78,0,.24,.2,.43,.44,.44,.24,0,.44-.2,.44-.44-2.3-18.41,10.77-35.2,29.19-37.5s35.2,10.77,37.5,29.19c.33,2.64,.34,5.3,.04,7.94-.39,3.38-1.29,6.69-2.68,9.8-7.52,16.96-27.37,24.61-44.34,17.09-10.77-4.78-18.25-14.84-19.71-26.52,0-.24-.2-.43-.44-.44-.24,0-.44,.2-.44,.44Z"/>
          <path id="Path-265" class="cls-1" d="M201.29,203.84s-12.43,21.64-15.35,33.34"/>
          <path id="Path-266" class="cls-4" d="M200.91,203.61c-.43,.74-.84,1.49-1.26,2.24-1.06,1.92-2.1,3.85-3.12,5.79-1.38,2.62-2.71,5.26-4.01,7.92-1.38,2.86-2.71,5.74-3.93,8.67-1.11,2.59-2.06,5.24-2.84,7.94-.08,.29-.16,.59-.23,.88-.06,.24,.08,.47,.32,.53,.23,.06,.46-.07,.53-.3h0c.7-2.64,1.58-5.24,2.64-7.76,1.17-2.89,2.46-5.74,3.8-8.55,1.29-2.71,2.64-5.39,4.03-8.04,1.07-2.05,2.16-4.09,3.28-6.11,.5-.91,1.04-1.81,1.53-2.73l.02-.04c.12-.21,.05-.48-.16-.6-.21-.12-.47-.05-.59,.16h0Z"/>
          <path id="Path-267" class="cls-1" d="M111.53,104.23c-1.46-4.74-5.88-7.94-10.84-7.86h-21.42c-4.76-.07-9.04,2.88-10.67,7.34l-.18,.52c10.29,14.91,30.45,19.15,45.88,9.65l-2.77-9.65Z"/>
          <path id="Path-268" d="M111.95,104.11c-1.18-3.86-4.3-6.82-8.22-7.8-2.06-.39-4.15-.52-6.24-.39h-11.6c-2.2,0-4.4,0-6.6,0-3.93-.02-7.61,1.9-9.86,5.12-.56,.84-1,1.75-1.32,2.71-.07,.15-.11,.3-.14,.46,.02,.14,.08,.28,.17,.39,.16,.23,.33,.46,.49,.69,.31,.42,.63,.83,.95,1.23,1.32,1.63,2.78,3.14,4.37,4.51,3.2,2.74,6.87,4.88,10.83,6.31,4.06,1.46,8.36,2.14,12.67,2.01,6.03-.17,11.91-1.93,17.05-5.1,.17-.1,.25-.31,.2-.5l-.94-3.26-1.49-5.2-.34-1.19c-.07-.23-.32-.36-.55-.29-.22,.07-.35,.3-.3,.52h0l.94,3.26,1.49,5.19,.34,1.19,.2-.5c-14.83,9.14-34.19,5.43-44.6-8.54-.23-.31-.46-.63-.68-.95l.05,.34c.37-1.15,.91-2.23,1.61-3.22,.69-.92,1.53-1.73,2.48-2.38,1.87-1.27,4.09-1.95,6.35-1.95,2.57,0,5.14,0,7.71,0h13.52c1.81-.02,3.59,.39,5.21,1.18,2.07,1.03,3.75,2.71,4.77,4.79,.24,.51,.44,1.03,.6,1.57,.06,.24,.29,.38,.53,.33s.38-.29,.33-.53c0-.01,0-.02,0-.03h0Z"/>
          <path id="Path-269" class="cls-8" d="M80.97,96.36c0,4.89,3.96,8.85,8.85,8.85s8.85-3.96,8.85-8.85h-17.69Z"/>
          <path id="Path-270" d="M80.53,96.36c0,5.13,4.17,9.28,9.29,9.28,5.12,0,9.27-4.15,9.28-9.28,0-.24-.2-.44-.44-.44h-17.69c-.24,.01-.43,.22-.42,.46,.01,.23,.19,.41,.42,.42h17.69l-.44-.44c0,4.64-3.76,8.41-8.41,8.41s-8.41-3.76-8.41-8.41c0-.24-.2-.44-.44-.44s-.44,.2-.44,.44Z"/>
          <ellipse id="Oval-23" class="cls-1" cx="189.57" cy="70.57" rx="30.64" ry="30.64"/>
          <path id="Path-271" d="M158.73,74.36c.4,3.24,1.31,6.4,2.68,9.36,7.27,15.56,25.77,22.28,41.33,15.02,15.56-7.27,22.28-25.77,15.02-41.33-7.27-15.56-25.77-22.28-41.33-15.02-1.82,.85-3.54,1.87-5.16,3.05-2.53,1.86-4.77,4.08-6.65,6.6-4.77,6.4-6.88,14.4-5.89,22.32,0,.24,.2,.43,.44,.44,.24,0,.44-.2,.44-.44-2.09-16.55,9.62-31.67,26.17-33.76,16.55-2.09,31.67,9.62,33.76,26.17,.3,2.41,.32,4.84,.04,7.25-.35,3.04-1.16,6.01-2.41,8.8-6.76,15.25-24.6,22.13-39.85,15.37-9.68-4.29-16.4-13.33-17.72-23.84,0-.24-.2-.43-.44-.44-.24,0-.43,.2-.44,.44Z"/>
          <ellipse id="Oval-24" class="cls-6" cx="189.57" cy="70.57" rx="25.33" ry="25.33"/>
          <path id="Path-272" d="M163.99,73.7c.33,2.7,1.09,5.32,2.23,7.79,6.03,12.9,21.38,18.47,34.28,12.44s18.47-21.38,12.44-34.28c-6.03-12.9-21.38-18.47-34.28-12.44-1.51,.7-2.94,1.55-4.29,2.53-2.09,1.53-3.93,3.36-5.48,5.44-3.96,5.31-5.72,11.94-4.9,18.52,0,.24,.2,.43,.44,.44,.24,0,.44-.2,.44-.44-1.72-13.64,7.94-26.09,21.59-27.81,13.64-1.72,26.09,7.94,27.81,21.59,.25,1.97,.26,3.96,.04,5.93-.28,2.51-.95,4.95-1.98,7.26-5.57,12.57-20.28,18.24-32.85,12.67-7.97-3.53-13.51-10.98-14.61-19.63,0-.24-.2-.43-.44-.44-.24,0-.44,.2-.44,.44Z"/>
          <path id="Path-273" class="cls-4" d="M202.52,79.1h-15.94c-3.54-.05-6.72,2.14-7.94,5.46-.03,.1-1.97,4.92-2.9,7.23,11.57,7.54,27.04,4.42,34.79-7.01-1.15-3.43-4.39-5.73-8.01-5.68Z"/>
          <path id="Path-274" d="M202.52,78.66h-15.77c-1.49-.01-2.96,.32-4.29,.98-1.62,.81-2.95,2.12-3.79,3.73-.47,.92-.81,1.95-1.19,2.92-.6,1.49-1.19,2.97-1.79,4.46l-.38,.94c-.05,.19,.03,.4,.2,.5,3.03,1.97,6.45,3.29,10.02,3.85,3.6,.56,7.27,.36,10.78-.58,3.15-.85,6.11-2.3,8.72-4.27,1.28-.96,2.47-2.04,3.55-3.23,.55-.6,1.06-1.22,1.55-1.87,.24-.32,.47-.64,.7-.97,.25-.36,0-.78-.15-1.15-1.24-2.85-3.9-4.83-6.99-5.21-.39-.05-.79-.08-1.18-.08-.24,.01-.43,.22-.42,.46,.01,.23,.19,.41,.42,.42,2.64-.01,5.11,1.26,6.64,3.41,.41,.6,.73,1.25,.95,1.94l.04-.34c-7.61,11.23-22.83,14.29-34.19,6.86l.2,.5c.96-2.4,1.98-4.79,2.89-7.21,.56-1.54,1.59-2.86,2.94-3.77,1.37-.91,2.97-1.39,4.61-1.39,1.92,0,3.84,0,5.76,0h10.16c.24,0,.44-.2,.44-.44s-.2-.44-.44-.44h0Z"/>
          <path id="Path-275" class="cls-10" d="M54.65,66.87c-1.46,3.51-1.76,7.38-.86,11.07,20.07-.56,23.9-2.39,23.9-2.39l-.07-2.96-16.75-14.91c-1.09,1.19-2.1,2.45-3,3.79l1.94,3.19-3.48-1c-.36,.6-.7,1.2-1,1.8l1.03,1.54-1.71-.13Z"/>
          <path id="Path-276" d="M54.23,66.75c-1.5,3.57-1.8,7.54-.86,11.3,.05,.19,.23,.32,.42,.32,3.35-.09,6.69-.23,10.03-.45,2.28-.15,4.55-.34,6.82-.6,1.44-.17,2.89-.36,4.32-.63,.73-.14,1.45-.29,2.17-.49,.27-.06,.53-.15,.78-.27h0c.14-.08,.22-.22,.22-.38l-.07-2.76c.02-.2-.04-.4-.18-.55-.1-.09-.2-.18-.3-.27l-3.43-3.06-5.33-4.74-5.04-4.48c-.86-.76-1.7-1.54-2.58-2.29l-.04-.04c-.17-.17-.45-.17-.62,0-1.13,1.21-2.15,2.51-3.07,3.88-.08,.14-.08,.31,0,.44l1.94,3.19,.5-.65-3.48-1c-.19-.05-.4,.03-.5,.2-.36,.59-.69,1.19-1,1.8-.08,.14-.08,.31,0,.44l1.03,1.54,.38-.66-1.71-.13c-.57-.04-.56,.84,0,.88l1.71,.13c.24,0,.44-.2,.44-.44,0-.08-.02-.15-.06-.22l-1.02-1.54v.44c.31-.61,.64-1.21,1-1.8l-.5,.2,3.47,1c.24,.06,.48-.08,.54-.32,.03-.11,.01-.23-.04-.33l-1.94-3.19v.44c.88-1.31,1.86-2.55,2.93-3.7h-.62l1.66,1.48,4.01,3.57,4.83,4.3,4.2,3.73,1.37,1.22c.21,.21,.43,.4,.65,.58,.01,0,.02,.02,.03,.03l-.13-.31,.07,2.96,.22-.38s-.02,0-.03,.01c.17-.1,.07-.03,0,0-.13,.05-.27,.09-.41,.14-.64,.19-1.3,.34-1.96,.46-.56,.11-1.11,.2-1.67,.29-.35,.05-.71,.11-1.06,.16-.36,.05-.7,.09-1.12,.15-2.15,.27-4.31,.45-6.47,.61-3.17,.23-6.36,.37-9.54,.47l-1.43,.04,.42,.32c-.89-3.61-.59-7.41,.86-10.84,.06-.23-.07-.47-.31-.54-.24-.06-.48,.08-.55,.31Z"/>
          <path id="Path-277" class="cls-1" d="M80.93,70.1s-4.81-1.99-7.15,4.29c-1.02,5,4.4,5.9,4.4,5.9"/>
          <path id="Path-278" d="M81.04,69.68c-.58-.22-1.21-.32-1.83-.31-1.38,0-2.71,.52-3.72,1.47-.71,.68-1.28,1.49-1.69,2.38-.13,.28-.26,.57-.37,.85-.1,.28-.16,.57-.18,.86-.06,.47-.05,.95,.02,1.42,.24,1.44,1.11,2.7,2.38,3.43,.74,.46,1.56,.78,2.41,.94,.23,.06,.47-.08,.54-.31,.06-.23-.07-.47-.31-.54-.18-.03-.36-.08-.54-.13-.19-.05-.38-.12-.57-.19l-.16-.06-.1-.04h0c-.12-.06-.25-.11-.37-.17-1.09-.48-1.93-1.4-2.31-2.54-.24-.8-.23-1.65,.04-2.45,.34-.92,.85-1.77,1.5-2.51,.47-.52,1.04-.93,1.68-1.21,.26-.1,.52-.18,.79-.24,.23-.05,.47-.08,.71-.09,.26-.01,.51,0,.77,.02-.48-.02-.89,.35-.91,.84s.35,.89,.84,.91c.48,.02,.89-.35,.91-.84,.02-.44-.3-.83-.74-.9l.16,.02c.1,.02,.19,.04,.29,.06,.19,.04,.37,.09,.55,.16,.23,.06,.47-.07,.54-.31,.06-.23-.08-.47-.31-.54Z"/>
          <path id="Path-279" d="M93.1,73.25c.24,.01,.45-.18,.46-.42s-.18-.45-.42-.46c-.24-.01-.45,.18-.46,.42,0,.01,0,.03,0,.04,0,.23,.19,.41,.42,.42Z"/>
          <path id="Path-280" class="cls-10" d="M83.58,71.57c-3.45,7.44,7.08,23.2,9.52,23.96,5.2,.27,10.33-1.24,14.55-4.28,.38-.28-.24-1.69,.09-1.97,.41-.34,1.77,.44,2.11,.12,.97-.91,1.83-1.93,2.56-3.04-6-2.45-7.05-6.6-7.08-9.14,0-1.81-.37-3.61-1.07-5.28l-.6-1.43"/>
          <path id="Path-281" d="M83.21,71.35c-1.35,2.93-.68,6.44,.25,9.39,1.13,3.44,2.71,6.72,4.7,9.74,.78,1.23,1.64,2.42,2.58,3.54,.53,.73,1.2,1.34,1.96,1.82,.39,.15,.8,.2,1.21,.15,.68,0,1.36-.02,2.03-.07,1.29-.09,2.58-.29,3.84-.58,2.13-.5,4.17-1.3,6.07-2.39,.4-.23,.8-.48,1.19-.73,.18-.12,.36-.24,.54-.37,.2-.11,.38-.26,.52-.44,.15-.41,.17-.86,.04-1.28-.03-.16-.05-.32-.05-.48v-.06s.04-.06-.01,0l.02-.03c-.1,.09-.12,.11-.05,.07-.05,.02-.04,.02,0,0h-.03c.39,.04,.78,.12,1.16,.23,.2,.05,.41,.06,.61,.03,.26-.08,.48-.24,.65-.45,.78-.77,1.49-1.6,2.12-2.5,.08-.12,.17-.24,.24-.37,.12-.21,.04-.49-.17-.61-.03-.02-.06-.03-.09-.04-2.58-.93-4.72-2.79-5.99-5.22-.2-.43-.36-.88-.48-1.34-.11-.4-.18-.81-.23-1.23-.05-.51-.05-1.02-.07-1.53-.05-.96-.19-1.91-.42-2.84-.34-1.19-.78-2.36-1.3-3.48-.12-.21-.39-.28-.6-.16-.2,.13-.27,.39-.16,.6,.43,.92,.79,1.87,1.1,2.84,.27,.95,.43,1.92,.49,2.9,.03,.55,.02,1.09,.08,1.64,.23,2.2,1.21,4.26,2.79,5.81,1.32,1.24,2.87,2.22,4.56,2.87l-.26-.65c-.29,.46-.61,.91-.97,1.32-.41,.49-.84,.96-1.29,1.41-.04,.04-.22,.17-.23,.22,0,0,.08-.1,.06-.05,0,.02,.05,0-.02,0,.02,0-.13,0-.08,0-.2-.03-.39-.08-.58-.14-.4-.15-.83-.18-1.24-.08-.36,.18-.55,.59-.46,.98,.06,.37,.1,.75,.13,1.12,0-.05-.01,.06-.02,.06,.02-.02,.01-.06,.05-.08-.08,.05-.16,.11-.24,.17-.18,.12-.36,.25-.54,.37-3.78,2.44-8.19,3.72-12.69,3.66-.17,0-.33,0-.5,0-.08-.01-.15-.01-.23,0,0,0-.02-.01-.03-.01,.08,0,.1,.05,.04,.02-.03-.02-.07-.03-.1-.05-.06-.03-.12-.07-.17-.11-.03-.02-.06-.04-.09-.06-.11-.07,.04,.03-.05-.04-.34-.28-.65-.58-.95-.91-.86-.95-1.64-1.96-2.34-3.02-1.95-2.83-3.54-5.89-4.75-9.11-.61-1.59-1.04-3.24-1.29-4.92-.23-1.41-.17-2.85,.18-4.23,.09-.3,.19-.59,.32-.87,.11-.21,.05-.47-.16-.6-.21-.12-.48-.05-.6,.16h0Z"/>
          <path id="Path-282" class="cls-8" d="M94.42,98.99l-.58-9.17-9.78-3.5-.02,10.77"/>
          <path id="Path-283" d="M94.86,98.99l-.51-8.04-.07-1.13c0-.2-.14-.37-.32-.42l-3.31-1.18-5.25-1.88-1.22-.44c-.24-.06-.48,.08-.54,.31,0,.04-.01,.07-.02,.11v3.63s-.02,5.81-.02,5.81v1.33c.01,.24,.22,.43,.46,.42,.23-.01,.41-.19,.42-.42v-3.62s.02-5.81,.02-5.81v-1.33l-.55,.42,3.32,1.18,5.25,1.88,1.22,.44-.32-.42,.51,8.04,.07,1.13c.04,.56,.91,.57,.88,0h0Z"/>
          <path id="Path-284" class="cls-8" d="M89.18,90.44c1.92,.8,3.98,1.23,6.07,1.26,9.9-1.47,5.08-18.81,5.08-18.81l-18.62-.22s-2.32,4.04-2.1,5.87c.38,3.15,3.51,5.33,4.46,9.39"/>
          <path id="Path-285" d="M88.96,90.82c1.7,.72,3.5,1.15,5.34,1.27,.44,.06,.89,.05,1.33,0,.26-.05,.52-.11,.78-.18,.49-.14,.96-.34,1.4-.58,1.65-.99,2.86-2.56,3.39-4.41,.58-1.93,.82-3.94,.73-5.94-.05-1.83-.25-3.65-.58-5.45-.14-.91-.34-1.81-.59-2.7,0-.01,0-.03-.01-.04-.05-.19-.23-.32-.42-.32l-1.84-.02-4.46-.05-5.37-.06-4.64-.05c-.76,0-1.52-.05-2.28-.03h-.03c-.16,0-.3,.08-.38,.22-.3,.53-.58,1.08-.85,1.64-.52,1.01-.92,2.08-1.2,3.18-.12,.49-.14,.99-.08,1.49,.1,.6,.27,1.19,.53,1.75,.55,1.12,1.19,2.19,1.91,3.2,.91,1.32,1.6,2.79,2.02,4.34,.13,.55,.98,.32,.85-.23-.36-1.39-.93-2.71-1.7-3.91-.65-1.06-1.4-2.07-1.98-3.18-.54-.86-.8-1.87-.74-2.89,.2-1.04,.55-2.05,1.03-3,.3-.66,.63-1.31,.99-1.94l-.38,.22,1.84,.02,4.46,.05,5.37,.06,4.64,.05,1.54,.02c.24,.02,.49,.02,.73,0h.03l-.42-.32c.19,.69,.34,1.4,.48,2.11,.33,1.61,.54,3.24,.63,4.88,.15,1.91,.02,3.83-.39,5.71-.19,.87-.51,1.72-.95,2.5-.4,.72-.94,1.36-1.58,1.88-.74,.56-1.61,.95-2.52,1.12-.34,.06-.69,.07-1.03,.03-.47-.03-.95-.08-1.42-.15-.88-.13-1.75-.33-2.59-.6-.38-.12-.76-.26-1.13-.43-.21-.11-.47-.04-.6,.16-.12,.21-.05,.48,.16,.6h0Z"/>
          <path id="Path-286" d="M87.04,81.44c-.13-.39-.28-.77-.46-1.15-.26-.64-.67-1.21-1.2-1.65-.3-.23-.69-.31-1.05-.22-.24,.06-.38,.3-.32,.53,.06,.24,.3,.38,.53,.32h.02s.05-.01,.08-.02c-.08,.04-.1,0-.06,0h.05s.12,.01,.03,0,.02,0,.04,.01,.05,.02,.08,.02c.06,.01-.05-.02-.05-.02s.04,.02,.05,.02c.05,.03,.1,.06,.15,.1s-.04-.03-.04-.03l.04,.03,.08,.07s.1,.1,.14,.15l.06,.08c.08,.09-.04-.06,.02,.02,.05,.06,.09,.12,.13,.18,.17,.26,.31,.52,.44,.8,.03,.06,.06,.13,.09,.2l.04,.09c.05,.12-.02-.06,.01,.02,.04,.11,.09,.21,.13,.32s.09,.23,.12,.35c.04,.24,.27,.4,.51,.35,.24-.04,.4-.27,.35-.51,0-.01,0-.03,0-.04,0-.01,0-.02,0-.03h0Z"/>
          <path id="Path-287" d="M94.71,77.15c-.38-.23-.8-.39-1.24-.47-.97-.19-1.98,0-2.83,.5-.2,.13-.26,.4-.13,.61,.12,.19,.37,.26,.57,.15,.37-.22,.77-.37,1.19-.44,.19-.02,.38-.03,.58-.02,.16,0,.31,.02,.46,.06,.14,.03,.29,.07,.43,.12,.06,.02,.12,.05,.18,.06,.08,.03-.08-.04,0,0l.06,.03c.1,.04,.19,.09,.28,.15,.22,.1,.48,0,.58-.23,.08-.19,.02-.41-.14-.53h0Z"/>
          <path id="Path-288" d="M101.15,76.96c-.42-.18-.86-.29-1.31-.33-.75-.13-1.52,0-2.18,.37-.6,.38-1.01,.98-1.15,1.67-.1,.64-.02,1.3,.24,1.9,.35,.85,.86,1.63,1.51,2.28l-.11-.19c.03,.08,.03,.16,0,.24,.04-.1-.08,.09,0,.01-.04,.03-.04,.04,0,.01-.02,.02-.05,.03-.08,.04-.31,.07-.63,.08-.95,.03-.24,0-.44,.2-.44,.44,0,.24,.2,.43,.44,.44,.65,.07,1.55,.07,1.84-.65,.15-.34,.11-.73-.11-1.03-.35-.37-.65-.78-.92-1.21-.4-.59-.6-1.29-.58-2.01,.1-.74,.66-1.34,1.4-1.47,.47-.07,.95-.05,1.42,.06,.16,.03,.31,.07,.46,.12,.08,.03,.24,.1,.1,.03,.21,.11,.47,.04,.6-.16,.12-.21,.05-.48-.16-.6,0,0,0,0,0,0Z"/>
          <circle id="Oval-25" cx="99.41" cy="79.69" r=".65"/>
          <path id="Path-289" d="M98.54,79.7c0,.37,.24,.69,.58,.82,.45,.16,.95-.08,1.11-.54s-.08-.95-.54-1.11c-.45-.16-.95,.08-1.11,.54-.03,.09-.05,.19-.05,.29,0,.12,.08,.23,.2,.23,.12,0,.23-.08,.23-.2,0,0,0-.02,0-.03v-.05s.01-.06,.02-.09l.02-.05s-.02,.04,0,0,.03-.06,.05-.09-.02,.02,0,0l.03-.03s.04-.04,.06-.06h0l.04-.02,.03-.02,.03-.02s-.03,.01-.01,0c.03,0,.06-.01,.08-.02,.01,0,.05,0,0,0h.14s-.05-.01,0,0h.06s.05,.02,.05,.02c.01,0,.04,.02,0,0,.03,.01,.05,.03,.08,.04,.01,0,.02,.02,.04,.02,.03,.01-.04-.03,0,0s.05,.05,.07,.07,0,0,0,0c.01,.01,.02,.03,.03,.04,.02,.02,.03,.05,.04,.08,0,0-.02-.04,0,0l.02,.05s0,.02,0,.03c.01,.04,0-.04,0,.02,0,.03,0,.05,0,.08,0,.01-.01,.07,0,.01,0,.01,0,.02,0,.04,0,.03-.01,.05-.02,.08-.02,.05,.02-.04,0,.01,0,.02-.02,.03-.02,.05l-.02,.04s-.03,.04,0,0c-.02,.02-.04,.04-.06,.06-.01,0-.02,.02-.03,.03-.02,.02,.04-.03,0,0s-.06,.04-.09,.05c-.01,0-.04,.01,0,0l-.05,.02h-.04s-.02,.02-.02,.02c.04,0-.02,0-.02,0h-.09c-.05,0,.03,0-.01,0-.03,0-.07-.02-.1-.03-.05-.02,.02,.02,0,0-.02-.01-.04-.02-.06-.03l-.03-.02-.03-.02s.02,.02,0,0c-.02-.02-.04-.04-.06-.06,0,0-.04-.05,0,0-.01-.01-.02-.03-.03-.04,0-.02-.02-.03-.02-.05,0-.02-.02-.06,0,0-.01-.03-.02-.07-.03-.1,0-.01,0-.04,0,0,0-.02,0-.05,0-.07,0-.12-.11-.21-.23-.2-.11,0-.2,.09-.2,.2h0Z"/>
          <circle id="Oval-26" cx="93.27" cy="79.74" r=".65"/>
          <path id="Path-290" d="M92.4,79.75c0,.37,.24,.69,.58,.82,.45,.16,.95-.08,1.11-.54,.16-.45-.08-.95-.54-1.11s-.95,.08-1.11,.54c-.03,.09-.05,.19-.05,.29,0,.12,.08,.23,.2,.23,.12,0,.23-.08,.23-.2,0,0,0-.02,0-.03v-.05s.01-.06,.02-.09l.02-.05s-.02,.04,0,0,.03-.06,.05-.09-.02,.02,0,0l.03-.03s.04-.04,.06-.06h0l.05-.02,.03-.02h.03s-.03,0-.01,0c.03,0,.05-.01,.08-.02,.01,0,.05,0,0,0h.14s-.05-.01,0,0h.06s.05,.02,.05,.02c.01,0,.04,.02,0,0,.03,.01,.05,.03,.08,.04,.01,0,.02,.02,.04,.02,.03,.01-.04-.03,0,0s.05,.05,.07,.07,0,0,0,0c.01,.01,.02,.03,.03,.04,.01,.02,.03,.05,.04,.08,0,0-.02-.04,0,0l.02,.05s0,.02,0,.03c.01,.04,0-.04,0,.02,0,.03,0,.05,0,.08,0,.01-.01,.07,0,.01,0,.01,0,.02,0,.04,0,.03-.01,.05-.02,.08-.02,.05,.02-.04,0,.01,0,.02-.02,.03-.02,.05l-.02,.04s-.03,.04,0,0c-.02,.02-.04,.04-.06,.06-.01,0-.02,.02-.03,.03-.02,.02,.04-.03,0,0s-.06,.04-.09,.05c-.01,0-.04,.01,0,0l-.05,.02h-.04s-.06,.03-.02,.02-.02,0-.02,0h-.09c-.05,0,.03,0-.01,0-.03,0-.07-.02-.1-.03-.05-.02,.02,.02,0,0-.02-.01-.04-.02-.06-.03l-.03-.02-.03-.02s.02,.02,0,0c-.02-.02-.04-.04-.06-.06,0,0-.04-.05,0,0-.01-.01-.02-.03-.03-.04-.01-.01-.02-.03-.02-.05,0-.02-.02-.06,0,0-.01-.03-.02-.07-.03-.1,0-.01,0-.04,0,0,0-.02,0-.05,0-.07,0-.12-.11-.21-.23-.2-.11,0-.2,.09-.2,.2h0Z"/>
          <path id="Path-291" d="M93.64,84.77c.09,.18,.21,.34,.35,.48,.3,.31,.68,.53,1.1,.62,.35,.06,.7,.06,1.05-.02,.23-.07,.37-.31,.31-.54-.07-.23-.31-.36-.54-.31l-.09,.02s-.04,0-.06,.01c0,0,.09-.01,.04,0s-.12,.01-.18,.01h-.25c-.1-.02,.1,.01,0,0-.1-.02-.19-.04-.29-.07l-.06-.03s.1,.05,.03,.01c-.04-.02-.08-.04-.12-.06-.04-.02-.07-.04-.11-.07l-.05-.03-.02-.02s.08,.07,.05,.04c-.06-.05-.11-.1-.17-.15s-.08-.09-.12-.14,.07,.1,.02,.02c-.01-.02-.03-.04-.04-.06-.03-.04-.06-.09-.08-.14-.12-.21-.39-.28-.6-.16-.2,.13-.27,.39-.16,.6Z"/>
          <path id="Path-292" class="cls-10" d="M103.9,71.11l-.44-1.1c-2.11-4.98-6.58-8.79-17.35-5.54-3.27,1.37-6.03,3.71-7.92,6.71l-1.05,1.66c-.39,.85-.66,1.74-.8,2.67-.4,2.35-.17,4.76,.68,6.99,.04,.12,.09,.24,.13,.35,1.36,3.99,.95,8.37-1.12,12.04l-.79,1.41,8.76-.19,.38-12.23c-1.29-1.27-2.14-2.93-2.41-4.72-.12-2.28,1.07-2.89,2.67-2.97s3.52,2.83,3.64,5.06v-4.83c0-1.4,1.13-2.53,2.53-2.53,.08,0,.16,0,.24,.01,1.92,.18,5.62,.38,8.89,.46,.76,.02,1.51-.21,2.13-.66"/>
          <path id="Path-293" d="M104.33,70.99c-.46-1.27-1.06-2.48-1.79-3.62-.86-1.28-1.99-2.34-3.31-3.12-3.76-2.16-8.46-1.54-12.45-.44-1.01,.28-1.97,.7-2.87,1.24-1.85,1.12-3.49,2.55-4.86,4.23-.59,.73-1.14,1.49-1.63,2.29-.28,.39-.52,.8-.74,1.22-1.02,2.47-1.25,5.19-.66,7.8,.3,1.42,.92,2.73,1.21,4.15,.28,1.34,.35,2.72,.23,4.09-.12,1.37-.44,2.72-.94,4-.36,.88-.79,1.74-1.27,2.56l-.38,.68c-.12,.21-.04,.48,.17,.6,.06,.04,.14,.06,.21,.06l7.69-.16,1.07-.02c.24,0,.43-.2,.44-.44l.1-3.22,.18-5.91,.07-2.25,.02-.64c.03-.16,0-.33-.09-.47-.14-.17-.35-.3-.53-.51-.19-.23-.37-.48-.53-.74-.37-.58-.68-1.2-.92-1.85-.37-1-.65-2.51,.19-3.32,.35-.3,.79-.49,1.26-.53,.46-.1,.95-.01,1.34,.26,1.08,.84,1.84,2.03,2.15,3.36,.09,.31,.14,.63,.16,.95,.01,.24,.22,.43,.46,.42,.23-.01,.41-.19,.42-.42,0-1.58,0-3.17,0-4.75-.03-1.17,.9-2.14,2.07-2.17h.18c1.63,.1,3.26,.24,4.9,.32,1.13,.05,2.26,.1,3.39,.13,.53,.04,1.07,.02,1.59-.07,.51-.11,1-.33,1.43-.63,.2-.13,.27-.39,.16-.6-.12-.21-.39-.28-.6-.16-.36,.26-.78,.45-1.22,.54-.48,.07-.97,.08-1.45,.03-1.04-.03-2.07-.07-3.1-.12-1.67-.08-3.34-.19-5.01-.32-1.65-.11-3.08,1.13-3.2,2.78,0,.04,0,.07,0,.1-.02,.75,0,1.5,0,2.25v2.66h.88c-.11-1.37-.61-2.67-1.43-3.77-.58-1.02-1.65-1.67-2.82-1.71-1.05-.02-2.04,.52-2.59,1.41-.49,1.17-.47,2.49,.05,3.65,.27,.72,.61,1.4,1.02,2.05,.31,.53,.72,1.01,1.21,1.39l-.22-.38-.13,4.12-.21,6.6-.05,1.51,.44-.44-7.69,.16-1.07,.02,.38,.66,.79-1.41c.66-1.18,1.16-2.45,1.5-3.76,.68-2.66,.63-5.47-.16-8.1-.21-.68-.48-1.34-.67-2.02-.6-2.11-.64-4.34-.13-6.48,.12-.48,.26-.95,.44-1.41,.01-.04,.03-.07,.05-.11,.02-.04,.04-.08,.05-.12s.03-.06,.05-.1c.31-.53,.66-1.05,.99-1.56,1.21-1.88,2.76-3.51,4.57-4.82,.63-.46,1.29-.88,1.98-1.24,.23-.12,.46-.23,.7-.34l.12-.05c.11-.05-.08,.03,.04-.02,.06-.02,.12-.05,.18-.07,.83-.29,1.69-.51,2.55-.68,1.18-.27,2.37-.44,3.58-.52,1.85-.15,3.71,.11,5.45,.75,1.35,.55,2.54,1.42,3.48,2.53,.45,.53,.84,1.11,1.18,1.71,.18,.31,.34,.63,.49,.96,.08,.16,.15,.33,.22,.49-.05-.12,0-.02,0,0,.03,.07,.06,.14,.09,.22l.33,.81c.07,.23,.31,.36,.54,.31,.23-.07,.37-.31,.31-.54h0Z"/>
          <path id="Path-294" class="cls-5" d="M194.22,87.46h0c-3.96,0-7.17-3.21-7.17-7.17h0v-1.35h14.34v1.35c0,3.96-3.21,7.17-7.17,7.17h0Z"/>
          <path id="Path-295" d="M194.22,87.02c-3.61,0-6.58-2.85-6.73-6.47-.02-.54,0-1.08,0-1.62l-.44,.44h14.34l-.44-.44v1.34c0,.86-.16,1.7-.47,2.5-1.02,2.56-3.5,4.25-6.26,4.24-.24,.01-.43,.22-.42,.46,.01,.23,.19,.41,.42,.42,4.03,0,7.36-3.13,7.6-7.15,.04-.6,.01-1.2,.01-1.81,0-.24-.2-.44-.44-.44h-14.35c-.24,0-.44,.2-.44,.44v1.43c.03,2.95,1.76,5.62,4.45,6.84,.99,.45,2.07,.68,3.16,.69,.24-.01,.43-.22,.41-.47-.01-.22-.19-.39-.41-.41h0Z"/>
          <path id="Path-296" class="cls-5" d="M198.51,79.84l-.38-4.96c.79-.36,1.43-1,1.79-1.79,1.28-3.46-1.2-15.56-1.2-15.56l-14.38,1.11s-1.24,12.2,1.2,15.56c.83,1.14,2.6,1.77,4.63,1.98l.33,4.28"/>
          <path id="Path-297" d="M198.95,79.84l-.34-4.34-.05-.62-.22,.38c.91-.43,1.62-1.18,2.01-2.11,.15-.49,.25-.99,.29-1.5,.11-1.33,.1-2.67-.03-4.01-.23-2.81-.61-5.61-1.13-8.38-.11-.61-.22-1.23-.35-1.84-.05-.19-.23-.32-.42-.32l-4.87,.38-7.73,.59-1.77,.14c-.24,0-.43,.2-.43,.44-.2,1.96-.29,3.95-.32,5.92-.03,1.64,.03,3.28,.19,4.91,.09,1.44,.42,2.86,.96,4.2,.94,2.08,3.34,2.72,5.43,2.94l-.44-.44,.33,4.28c.04,.56,.92,.57,.88,0l-.33-4.28c0-.24-.2-.43-.44-.44-1.72-.18-3.77-.67-4.6-2.36-.06-.12-.11-.25-.14-.3-.06-.15-.11-.3-.16-.44-.1-.3-.18-.61-.26-.92-.15-.69-.27-1.39-.34-2.09-.27-2.96-.29-5.94-.05-8.91,.04-.69,.09-1.39,.16-2.07l-.44,.44,4.88-.38,7.73-.6,1.77-.14-.42-.32c.33,1.62,.61,3.25,.85,4.89,.5,2.77,.73,5.58,.68,8.4,0,.55-.08,1.1-.21,1.64-.27,.86-.89,1.55-1.71,1.92-.14,.08-.22,.22-.22,.38l.34,4.34,.05,.62c.04,.56,.92,.56,.88,0h0Z"/>
          <path id="Path-298" d="M193.82,75.45c-1.13,.33-2.31,.43-3.48,.29-.24,0-.44,.2-.44,.44,0,.24,.2,.43,.44,.44,.84,.09,1.7,.07,2.53-.08,.4-.06,.79-.14,1.18-.24,.23-.06,.37-.31,.31-.54s-.31-.37-.54-.31h0Z"/>
          <path id="Path-299" d="M189.45,65.6c-.17,.13-.07,.05-.03,.02s.1-.06,.15-.09c.08-.04,.16-.08,.23-.12s-.09,.03,0,0l.08-.03c.06-.02,.12-.04,.17-.06,.13-.04,.25-.06,.38-.09,.03,0,.02,0-.03,0h.06s.09,0,.09,0c.08,0,.16,0,.24,0,.08,0,.17,0,.25,.02-.09-.01,.05,.01,.05,.01,.04,0,.09,.02,.13,.03,.17,.04,.33,.1,.49,.17,.21,.12,.48,.05,.6-.16,.12-.21,.05-.48-.16-.6-.72-.36-1.54-.44-2.31-.23-.37,.1-.72,.28-1.03,.51-.17,.17-.17,.45,0,.62,.17,.17,.45,.17,.62,0h0Z"/>
          <path id="Path-300" d="M184.35,65.94s.06-.03,.09-.04c.07-.04,.02,0,.03-.02,.05-.02,.1-.04,.15-.06,.3-.1,.62-.17,.94-.18,.55-.05,1.07,.25,1.29,.76,.15,.53,.09,1.1-.17,1.59-.15,.34-.34,.67-.57,.97-.15,.15-.24,.35-.27,.55,0,.12,0,.25,.04,.37,.22,.75,1.1,.69,1.71,.57,.55-.11,.32-.95-.23-.85-.14,.03-.28,.05-.43,.05-.07,0-.13,0-.2-.03,0,0,0-.01,.01,.03,0-.03-.02-.11-.02-.04,0-.06,0-.12,0-.19l-.13,.31c.85-1.07,1.76-2.83,.8-4.12-.46-.61-1.21-.93-1.97-.85-.53,.02-1.05,.16-1.53,.4-.21,.12-.28,.39-.16,.6,.12,.21,.39,.28,.6,.16Z"/>
          <path id="Path-301" d="M188.84,71.69c.13-.02,.25-.05,.37-.1,.32-.1,.61-.28,.85-.51,.17-.17,.3-.38,.38-.61,.07-.23-.07-.48-.3-.54-.12-.03-.24-.02-.35,.04-.09,.06-.17,.16-.2,.26v.03s.03-.1,.03-.1c-.04,.09-.09,.18-.15,.26l.07-.09c-.07,.09-.15,.17-.24,.24l.09-.07c-.12,.09-.26,.17-.4,.23l.1-.05c-.15,.07-.32,.11-.48,.14-.23,.07-.37,.31-.3,.54,.03,.11,.1,.2,.2,.26l.1,.05c.08,.02,.16,.02,.23,0h0Z"/>
          <path id="Path-302" d="M195.62,68.07c.05-.29,.12-.57,.21-.85,.04-.12,.08-.24,.12-.36,.02-.06,.04-.11,.07-.17,0-.02,.01-.03,.02-.05,.02-.05-.04,.09-.02,.04,.02-.03,.03-.07,.04-.1,.05-.11,.11-.23,.17-.33,.03-.05,.06-.1,.1-.15,0-.01,.02-.02,.03-.04,0,0-.07,.09-.03,.04,.02-.02,.04-.05,.06-.07,.04-.04,.09-.08,.13-.12,.03-.03-.05,.04-.05,.04,.02,0,.03-.02,.04-.03,.02-.01,.05-.03,.07-.04,.07-.04-.11,.03-.02,0,.03,0,.05-.01,.08-.02-.03,.01-.12,0-.02,0,.03,0,.06,0,.09,0,.24,0,.44-.2,.44-.44,0-.24-.2-.43-.44-.44-.61-.08-1.07,.48-1.32,.96-.24,.48-.42,.99-.54,1.52-.03,.11-.05,.23-.08,.35-.06,.24,.09,.47,.32,.53,.22,.05,.45-.08,.52-.3h0Z"/>
          <circle id="Oval-27" cx="185.47" cy="67.29" r=".51"/>
          <path id="Path-303" d="M185.75,67.25s0,.05,0,.07h0s0,.02,0,.03c0,.02-.01,.04-.02,.06-.02,.05,.02-.04,0,0,0,.01-.01,.02-.02,.04l-.02,.03s-.01,0,0,0c-.01,0-.04,.04-.04,.05l-.02,.02,.02-.02-.02,.02s-.04,.02-.06,.04,.05-.02,0,0h-.06s-.05,.02-.01,0,0,0-.01,0h-.07s.05,.01,0,0c-.02,0-.04,0-.07-.02h0s-.02,0-.02,0c-.02-.01-.04-.02-.05-.03-.04-.02,.03,.03,0,0-.01-.01-.02-.02-.03-.03l-.02-.02s.03,.04,0,0c-.01-.02-.02-.03-.03-.05,0,0,0-.02-.01-.02v.03s0-.03,0-.03c0-.02-.01-.05-.02-.07s0,.06,0,0v-.03s0-.05,0-.07v.03s0-.02,0-.03c0,0,0-.02,0-.03,0-.01,0-.03,.01-.04,.01-.04-.02,.04,0,0,.01-.02,.02-.04,.03-.06s.02-.04,0-.01,0,0,0,0,.05-.04,.05-.05c0,.02-.04,.03-.01,.01s.03-.02,.04-.03h.02s-.05,0,0-.01c.02,0,.03-.01,.06-.02,0,0,.03,0,.03,0-.02,.02-.05,0-.01,0s.05,0,.08,0c.05,0-.05-.01,0,0h.04s.03,.02,.03,.02c.05,.02-.03-.02,0,0s.05,.03,.07,.04,0,0-.01,0c0,0,.02,.02,.03,.03l.03,.03s-.03-.04,0,0c.02,.02,.03,.05,.04,.07,.02,.04-.01-.04,0,0s.01,.03,.01,.05,0,.02,0,.03c0,0,0,.02,0,.03,0-.04,0-.04,0-.02,0,.12,.1,.22,.22,.22,.12,0,.21-.1,.21-.22-.02-.4-.36-.71-.76-.69-.4,.02-.71,.36-.69,.76,.02,.4,.36,.71,.76,.69h0c.4-.02,.71-.36,.69-.76,0-.12-.11-.21-.23-.2-.11,0-.2,.09-.2,.2h.01Z"/>
          <circle id="Oval-28" cx="190.22" cy="66.92" r=".51"/>
          <path id="Path-304" d="M190.51,66.88s0,.05,0,.07h0s0,.02,0,.03c0,.02-.01,.04-.02,.06-.02,.04,.02-.05,0,0,0,.01-.01,.02-.02,.04l-.02,.03s-.01,0,0,0c-.01,0-.04,.04-.04,.05,0,0-.01,.01-.02,.02l.02-.02-.02,.02s-.04,.02-.06,.04,.05-.02,0,0h-.06s-.05,.02-.01,0,0,0-.01,0h-.07s.05,.01,0,0c-.02,0-.04,0-.07-.02h0s-.02,0-.02,0c-.02-.01-.04-.02-.06-.03-.04-.02,.03,.03,0,0-.01-.01-.02-.02-.03-.03l-.02-.02s.03,.04,0,0c-.01-.02-.02-.03-.03-.05,0,0,0-.02-.01-.03v.03s0-.03,0-.03c0-.02-.01-.05-.02-.07,0-.03,0,.06,0,.01v-.03s0-.05,0-.07v.03s0-.02,0-.03v-.03s0-.03,.01-.04c.01-.04-.02,.04,0,0,.01-.02,.02-.04,.03-.06s.02-.04,0-.01,0,0,0,0,.05-.04,.05-.05c0,.02-.04,.03-.01,.01s.03-.02,.04-.03h.02s-.05,0,0-.01c.02,0,.03-.01,.06-.02,0,0,.03,0,.03,0-.02,.02-.05,0-.01,0s.05,0,.08,0c.05,0-.05-.01,0,0h.04s.03,.02,.03,.02c.05,.02-.03-.02,0,0s.05,.03,.07,.04,0,0-.01,0c0,0,.02,.02,.03,.03l.03,.03s-.03-.04,0,0c.02,.02,.03,.05,.04,.07,.02,.04-.01-.04,0,0s.01,.03,.02,.05,0,.02,0,.03c0,0,0,.02,0,.03,0-.04,0-.04,0-.02,0,.12,.1,.22,.22,.22s.22-.1,.22-.22c-.02-.4-.36-.71-.76-.69-.4,.02-.71,.36-.69,.76s.36,.71,.76,.69c.07,0,.13-.02,.19-.04,.31-.1,.52-.4,.5-.73,0-.12-.11-.21-.23-.2-.11,0-.2,.09-.2,.2h0Z"/>
          <path id="Path-305" class="cls-3" d="M204.42,59.78c-.21-1.19-.9-2.25-1.89-2.94,.28-.51,.71-1.09,1.26-1.18-.96-.4-2.17,.39-2.49,.62l-.06-.02c.31-1.08,.97-2.03,1.89-2.69-1.23,.05-2.37,.66-3.09,1.66-.41-1.53-2.23-4.49-10.09-4.48l-3.19-.02c-3.44-.02-6.53,2.11-7.73,5.34h0c-.39,1.3-1.22,4.53,2.24,6.55l-.12-1.67,2.86,2.15,.12-2.86,9.06,.48,.59,7.17c-.15-1.88,1.15-4.53,2.49-4.64s2.41,.27,2.56,2.2c-.03,1.53-.56,3.01-1.5,4.22l2.74,2.98s5.22-9.07,4.36-12.87Z"/>
          <path id="Path-306" d="M204.84,59.67c-.26-1.3-1.01-2.45-2.1-3.21l.16,.6c.22-.4,.52-.88,1-.97,.19-.05,.32-.23,.32-.42,0-.2-.14-.37-.32-.42-1-.25-2.05,0-2.83,.67l.34-.05-.06-.02,.31,.54c.26-.99,.85-1.85,1.69-2.43,.21-.13,.27-.4,.14-.61-.08-.13-.21-.2-.36-.21-1.35,.04-2.6,.7-3.4,1.79l.73,.19c-.39-1.26-1.23-2.34-2.36-3.02-2.24-1.45-5.15-1.75-7.75-1.78-.85-.01-1.7-.01-2.55-.02-.99-.04-1.99,.02-2.97,.2-2.22,.5-4.16,1.85-5.39,3.76-.21,.32-.4,.66-.56,1.01-.08,.18-.16,.36-.23,.54-.03,.09-.05,.17-.07,.26,.05-.18-.01-.02-.03,.03-.28,.9-.39,1.85-.32,2.79,.13,1.32,.77,2.54,1.78,3.4,.32,.27,.66,.51,1.03,.73,.21,.12,.48,.05,.6-.17,.04-.06,.06-.14,.06-.21l-.12-1.67-.66,.38,2.86,2.15c.28,.21,.65-.08,.66-.38l.12-2.86-.44,.44,7.96,.42,1.11,.06-.44-.44,.51,6.28,.07,.89c.04,.56,.92,.57,.88,0-.04-.96,.17-1.91,.63-2.76,.19-.39,.44-.74,.75-1.05,.21-.22,.49-.36,.8-.4,.63-.13,1.28,.11,1.68,.62,.38,.78,.44,1.69,.16,2.51-.13,.52-.31,1.02-.54,1.51-.16,.38-.38,.73-.67,1.04-.17,.17-.17,.45,0,.62l2.74,2.98c.17,.17,.45,.17,.63,0,.02-.02,.05-.05,.06-.08,.63-1.09,1.2-2.22,1.75-3.36,1.07-2.09,1.9-4.29,2.48-6.57,.3-1.07,.36-2.19,.18-3.28-.12-.55-.97-.32-.85,.23,.08,.38,.1,.78,.07,1.17-.03,.47-.09,.94-.19,1.4-.25,1.11-.58,2.2-.99,3.26-.74,1.91-1.6,3.77-2.58,5.57-.2,.38-.4,.76-.62,1.14l.69-.09-2.74-2.98v.62c.32-.33,.57-.71,.76-1.12,.25-.51,.46-1.04,.61-1.59,.37-1.06,.34-2.22-.1-3.25-.44-.8-1.31-1.28-2.22-1.22-.44-.03-.88,.08-1.27,.3-.43,.29-.79,.67-1.07,1.12-.72,1.09-1.07,2.37-1.02,3.67h.88l-.51-6.28-.07-.89c0-.24-.2-.43-.44-.44l-7.95-.42-1.11-.06c-.24,0-.44,.2-.44,.44l-.12,2.86,.66-.38-2.86-2.15c-.21-.12-.48-.05-.6,.16-.04,.07-.06,.14-.06,.22l.12,1.67,.66-.38c-1.13-.6-1.96-1.65-2.29-2.89-.18-.88-.14-1.79,.11-2.65,.04-.16,.1-.32,.13-.48,0-.05,.01-.1,.02-.15,0,.02,0,.07,.03,0s.06-.15,.09-.22c.07-.17,.15-.33,.23-.49,.96-1.87,2.65-3.26,4.66-3.87,.94-.25,1.92-.36,2.9-.32l2.5,.02c2.48-.13,4.96,.32,7.23,1.33,.66,.32,1.24,.78,1.72,1.33,.05,.05,.09,.11,.14,.17-.07-.09,0,0,.02,.03l.07,.1c.08,.11,.15,.23,.22,.35s.11,.21,.17,.32c.01,.03,.02,.05,.04,.08h0c.02,.05,.04,.1,.06,.16,.03,.1,.06,.19,.09,.29,.07,.23,.31,.37,.55,.3,.07-.02,.13-.06,.19-.11,.64-.91,1.67-1.48,2.78-1.53l-.22-.82c-1.03,.7-1.77,1.75-2.09,2.95-.06,.23,.07,.47,.31,.54,.4,.11,.82-.32,1.17-.48,.42-.23,.92-.27,1.38-.12v-.85c-.68,.22-1.24,.72-1.53,1.37-.12,.21-.05,.47,.16,.6,.89,.65,1.49,1.61,1.69,2.69,.13,.56,.98,.32,.85-.23Z"/>
          <path id="Path-307" class="cls-3" d="M194.87,56.8c-.83,2.33,2.6,4.88,2.6,4.88-1.24,.26-2.53,0-3.58-.71,.06,.69,.3,1.35,.72,1.91,0,0-11.57,.71-11.57-5.13-.13-1.08,.22-2.17,.95-2.98"/>
          <path id="Path-308" d="M194.45,56.69c-.3,1.32,.1,2.7,1.05,3.67,.51,.64,1.1,1.21,1.76,1.7l.1-.8s-.06,.01-.09,.02c-.03,0-.07,0-.1,.02-.12,.02,.03,0-.06,0-.27,.03-.54,.04-.82,.03-.79-.02-1.55-.28-2.18-.75-.21-.12-.48-.05-.6,.16-.04,.07-.06,.14-.06,.22,.03,.81,.33,1.59,.84,2.22l.31-.75c-1.61,.09-3.23,.02-4.83-.22-1.28-.16-2.54-.5-3.72-1.01-.52-.24-1.01-.55-1.44-.93-.1-.1-.21-.2-.3-.3-.08-.08-.15-.18-.22-.27-.08-.11-.16-.23-.22-.35-.03-.06-.07-.12-.1-.19l-.04-.08c-.04-.09,.01,.04-.02-.05-.19-.5-.28-1.03-.26-1.57-.08-.88,.23-1.76,.84-2.4,.41-.39-.21-1-.62-.62-1.02,1.14-1.39,2.72-.99,4.2,.3,1.25,1.12,2.32,2.24,2.94,1.19,.68,2.49,1.13,3.84,1.35,1.26,.23,2.54,.36,3.83,.39,.67,.02,1.34,.03,2-.02,.25,0,.44-.21,.43-.46,0-.11-.05-.21-.12-.29-.24-.29-.41-.64-.48-1.02-.04-.16-.07-.31-.1-.46,0-.03,0-.05-.01-.08,0-.06,.04,.07,0,.02,0-.02,0-.04,0-.06l-.66,.38c1.14,.8,2.56,1.07,3.92,.76,.23-.07,.36-.32,.29-.56-.03-.1-.1-.19-.19-.24h0c.07,.06-.05-.04-.07-.06-.13-.1-.25-.21-.37-.32-.37-.32-.71-.68-1.02-1.05-.8-.76-1.15-1.88-.93-2.96,.18-.54-.66-.77-.85-.23h.01Z"/>
          <path id="Path-309" d="M69.83,174.16c.24,.01,.45-.18,.46-.42,.01-.24-.18-.45-.42-.46-.24-.01-.45,.18-.46,.42,0,.01,0,.03,0,.04,.01,.23,.19,.41,.42,.42Z"/>
          <path id="Path-310" d="M57.35,176.11s-7.81-6.97-16.49-.08c-6.07,5.11-3.23,18.17-3.23,18.17,0,0-5.27,1.23-4.17,7.37,1.35,7.53,13.93,6.28,12.78-2.06,4.22,4.48,7.22-.48,5.72-6.02-.96-3.53-3.67-11.61,5.41-13.96"/>
          <path id="Path-311" d="M57.66,175.8c-1.26-1.06-2.7-1.88-4.25-2.43-1.44-.54-2.96-.82-4.49-.82-1.91,.02-3.79,.47-5.5,1.32-1.7,.78-3.18,1.95-4.33,3.43-.82,1.16-1.42,2.46-1.79,3.83-.71,2.71-.95,5.52-.72,8.31,.06,1.08,.18,2.15,.33,3.21,.06,.54,.15,1.07,.27,1.59,0,.02,0,.05,.01,.07l.31-.54c-1.22,.32-2.32,1.01-3.15,1.97-.78,.91-1.28,2.04-1.42,3.23-.19,1.37-.02,2.77,.49,4.06,.84,1.94,2.57,3.35,4.64,3.77,2,.45,4.1,.1,5.85-.98,1.83-1.18,2.91-3.23,2.84-5.4,0-.31-.03-.62-.07-.93l-.75,.31c.81,.99,1.96,1.66,3.23,1.86,.98,.04,1.91-.42,2.48-1.22,.67-.96,1.05-2.09,1.11-3.26,.1-1.34-.03-2.7-.41-3.99-.18-.66-.37-1.31-.53-1.98-.09-.38-.18-.77-.25-1.15-.07-.39-.15-.82-.18-1.16-.11-.85-.13-1.7-.06-2.55,.07-.82,.28-1.63,.61-2.38,.94-1.82,2.59-3.16,4.56-3.72,.33-.11,.66-.21,1-.3,.23-.07,.36-.32,.29-.55-.07-.22-.3-.35-.52-.3-2.22,.46-4.19,1.71-5.56,3.52-.95,1.5-1.4,3.25-1.29,5.02,.08,1.6,.35,3.19,.8,4.73,.26,.85,.47,1.72,.62,2.6,.2,1.25,.11,2.54-.26,3.75-.22,.85-.79,1.57-1.57,1.98-.37,.14-.78,.15-1.16,.05-.53-.15-1.02-.41-1.44-.76-.3-.24-.58-.5-.84-.78-.24-.25-.8-.08-.75,.31,.36,1.95-.35,3.95-1.86,5.23-1.44,1.09-3.25,1.57-5.04,1.33-1.79-.18-3.4-1.18-4.35-2.71-.56-1.04-.84-2.21-.81-3.39-.03-1.14,.3-2.26,.93-3.21,.46-.66,1.07-1.21,1.78-1.6,.14-.08,.28-.15,.43-.22,.07-.03,.13-.06,.2-.09,.09-.04-.07,.03,0,0l.1-.04c.16-.06,.32-.11,.49-.16,.02,0,.04-.01,.07-.02,.23-.07,.37-.31,.31-.54-.07-.34-.13-.69-.19-1.04-.03-.18-.06-.36-.08-.54-.02-.1-.03-.2-.04-.31v-.08h0c0-.07-.01-.12-.02-.18-.07-.51-.12-1.03-.16-1.54-.27-2.6-.17-5.23,.31-7.8,.25-1.35,.71-2.65,1.36-3.86,.31-.57,.69-1.11,1.12-1.6,.6-.64,1.28-1.2,2.02-1.66,1.6-1.08,3.43-1.76,5.34-2.01,1.52-.16,3.06-.03,4.53,.4,1.14,.33,2.23,.81,3.25,1.42,.36,.21,.7,.44,1.04,.68l.18,.13,.09,.07c.07,.06-.08-.06,0,0,.07,.06,.14,.11,.2,.16l.07,.06c.42,.37,1.04-.24,.62-.62v.02Z"/>
          <path id="Path-312" class="cls-1" d="M59.8,173.13s-4.08-.96-5.13,4.32c-.17,4.1,4.25,4.13,4.25,4.13"/>
          <path id="Path-313" d="M59.92,172.71c-1.6-.32-3.25,.26-4.3,1.52-.49,.62-.87,1.33-1.1,2.09-.17,.46-.27,.94-.28,1.43,0,.4,.05,.8,.15,1.19,.34,1.18,1.2,2.14,2.34,2.6,.69,.3,1.44,.47,2.2,.49,.24-.01,.43-.22,.42-.46-.01-.23-.19-.41-.42-.42-.15,0-.3-.02-.45-.03-.12-.01,.06,.01-.02,0l-.12-.02c-.1-.02-.19-.03-.29-.05-.19-.04-.38-.09-.57-.15-.93-.25-1.7-.9-2.11-1.77-.27-.63-.33-1.34-.17-2.01,.17-.73,.46-1.42,.87-2.04,.29-.43,.66-.79,1.1-1.06,.1-.06,.2-.12,.3-.17,.08-.04,.17-.08,.25-.11,.2-.07,.4-.13,.6-.17,.05-.01,.1-.02,.15-.03h.07c.11-.03-.1,0,.02-.01,.09-.01,.19-.02,.28-.02,.16,0,.32,0,.48,0,.07,0,.13,.01,.19,.02,.12,.01-.11-.02,.04,0,.04,0,.08,.01,.12,.02,.55,.13,.78-.72,.23-.85h0Z"/>
          <path id="Path-314" d="M77.93,170.54l.67,1.06c.77,1.24,1.29,2.62,1.52,4.06l1.86,1.17c1.82,1.14,2.79,3.25,2.46,5.38h0c-.32,2.11-1.85,3.84-3.92,4.41l-8.23,2.26c-2.03-.29-11.98-8.56-10.19-14.92"/>
          <path id="Path-315" d="M77.55,170.76c.54,.79,1.01,1.62,1.42,2.49,.32,.75,.55,1.54,.7,2.34,.02,.21,.14,.39,.32,.5,.14,.09,.28,.18,.42,.27,.74,.41,1.45,.89,2.1,1.43,2,1.88,2.09,5.02,.21,7.02,0,0,0,0,0,0l-.04,.04c-.65,.66-1.47,1.14-2.37,1.37l-4.09,1.12-2.52,.69c-.48,.13-.98,.24-1.45,.4-.02,0-.05,.01-.07,.02h.23c-.12-.02-.23-.05-.34-.09-.02,0-.14-.06-.07-.03s-.05-.02-.06-.03c-.08-.04-.16-.08-.24-.12-.39-.21-.77-.44-1.13-.7-.99-.7-1.91-1.47-2.78-2.31-2.14-1.91-3.83-4.28-4.93-6.93-.54-1.32-.66-2.78-.33-4.18,.06-.24-.09-.47-.32-.53-.22-.05-.45,.08-.52,.3-.91,3.29,.99,6.65,2.95,9.16,1.04,1.33,2.21,2.56,3.49,3.67,.94,.86,1.98,1.62,3.09,2.25,.35,.25,.77,.38,1.2,.38,.22-.05,.44-.12,.65-.18l3.67-1.01,3.48-.95c.33-.08,.66-.18,.99-.3,3.01-1.16,4.51-4.54,3.35-7.55-.45-1.18-1.28-2.18-2.35-2.85-.46-.3-.93-.58-1.39-.88l-.47-.3,.2,.26c-.22-1.29-.65-2.53-1.28-3.68-.29-.53-.63-1.04-.96-1.55-.3-.48-1.06-.04-.76,.44h0Z"/>
          <path id="Path-316" class="cls-8" d="M73.21,191.51l-.62-4.36-8.22-1.53,1.64,9.29-2.33,1.03,5.5,2.15c1.5,.59,3.19,.48,4.6-.29h0c2.62-1.43,3.6-4.71,2.2-7.35l-.11-.21-2.65,1.27Z"/>
          <path id="Path-317" d="M73.64,191.39l-.62-4.36c-.04-.15-.16-.27-.31-.31l-7.21-1.34-1.02-.19c-.24-.06-.48,.09-.54,.32-.02,.07-.02,.14,0,.22l.56,3.15,.88,4.99,.2,1.15,.2-.5-2.33,1.03c-.39,.17-.2,.68,.11,.8l5.08,1.99c.33,.14,.68,.26,1.03,.36,3.15,.82,6.37-1.07,7.19-4.23,.16-.63,.22-1.27,.17-1.92-.08-.89-.35-1.76-.79-2.54-.13-.2-.39-.27-.6-.16l-2.66,1.27c-.51,.24-.07,1,.44,.76l2.65-1.27-.6-.16c.72,1.27,.87,2.78,.42,4.17-.86,2.52-3.53,3.93-6.09,3.21-.31-.09-.61-.2-.9-.32l-2.83-1.11-2.3-.9,.1,.8,2.33-1.03c.17-.1,.25-.31,.2-.5l-.55-3.15-.88-4.99-.2-1.15-.54,.54,7.21,1.34,1.02,.19-.31-.31,.62,4.36c.07,.23,.31,.37,.54,.31,.23-.06,.37-.3,.32-.53Z"/>
          <path id="Path-318" class="cls-8" d="M68.96,188.24c1.63,.39,3.32,.47,4.99,.23,7.68-2.44,1.63-15.6,1.63-15.6l-14.83,2.21s-1.33,3.51-.91,4.93c.71,2.46,3.48,3.79,4.75,6.89"/>
          <path id="Path-319" d="M68.85,188.66c1.46,.36,2.98,.46,4.47,.31,.32-.01,.65-.06,.96-.16,.22-.08,.44-.17,.66-.27,.38-.18,.74-.41,1.08-.67,1.17-.99,1.93-2.38,2.12-3.9,.22-1.64,.17-3.31-.17-4.93-.27-1.44-.65-2.85-1.15-4.23-.26-.74-.54-1.47-.86-2.18-.1-.17-.31-.25-.5-.2l-5.01,.75-7.99,1.19-1.83,.27c-.15,.04-.26,.16-.31,.31-.53,1.31-.87,2.69-1,4.09-.12,1.97,1.46,3.48,2.68,4.82,.89,.92,1.62,1.98,2.15,3.14,.07,.23,.31,.36,.54,.31,.23-.07,.37-.31,.31-.54-.46-1.07-1.09-2.06-1.86-2.94-.65-.76-1.37-1.46-1.98-2.26-.54-.62-.88-1.39-.97-2.2,.02-.85,.17-1.7,.43-2.51,.16-.57,.34-1.14,.55-1.69l-.31,.31,5.01-.75,7.99-1.19,1.83-.27-.5-.2,.05,.11,.06,.13,.04,.08c.05,.11-.04-.1,.01,.03,.16,.39,.31,.78,.46,1.17,.47,1.26,.85,2.54,1.14,3.85,.36,1.49,.5,3.03,.42,4.56-.04,1.38-.56,2.71-1.45,3.75-.56,.61-1.28,1.04-2.08,1.26-.41,.07-.82,.1-1.23,.1-.42,.02-.84,.02-1.26,0-.76-.03-1.52-.14-2.26-.33-.23-.07-.48,.06-.55,.29-.07,.23,.06,.48,.29,.55,0,0,.02,0,.03,0h0Z"/>
          <path id="Path-320" d="M66.17,181.28c-.14-.27-.3-.53-.47-.79-.29-.49-.69-.91-1.18-1.21-.31-.18-.69-.19-1.02-.04-.21,.12-.28,.39-.16,.6,.13,.2,.39,.27,.6,.16-.21,.09,.03-.02,.04,0s-.13,0-.07,.01h.11s-.13-.02-.07,0h.03s.06,.02,.06,.02c.02,0,.11,.04,.02,0s.01,0,.03,.02c.04,.02,.09,.05,.13,.08,.02,.02,.04,.03,.06,.04-.12-.06-.04-.03,0,0,.09,.08,.18,.16,.26,.24,.08,.09,.16,.19,.24,.28-.1-.12-.02-.02,0,0l.06,.08c.04,.05,.07,.1,.11,.15,.11,.17,.22,.34,.32,.52,.05,.09,.1,.18,.15,.27,.12,.21,.39,.28,.6,.16,.2-.13,.27-.39,.16-.6h0Z"/>
          <path id="Path-321" d="M71.75,176.92c-.37-.16-.76-.24-1.16-.25-.82-.02-1.62,.27-2.25,.81-.17,.17-.17,.45,0,.62,.17,.17,.45,.17,.62,0,.26-.21,.55-.37,.87-.46,.08-.02,.16-.04,.24-.06l.1-.02c-.1,.02,.01,0,.04,0,.14-.01,.28-.02,.42-.01,.06,0,.13,.01,.19,.02,.08,0-.07-.01-.01,0h.08c.09,.03,.18,.05,.27,.07,.06,.02,.13,.04,.19,.06l.05,.02c.06,.02-.11-.05-.08-.04,.21,.11,.47,.04,.6-.16,.12-.21,.05-.48-.16-.6,0,0,0,0,0,0h-.01Z"/>
          <path id="Path-322" d="M76.74,175.89c-1.33-.45-2.79,.14-3.42,1.4-.57,1.51,.77,3.01,1.87,3.85l-.2-.26c.03,.07,.05,.15,.05,.22,0-.03,0-.03,.02-.04-.08,.02-.15,.08-.25,.1-.14,.03-.28,.05-.43,.05-.56,.03-.57,.91,0,.88s1.33-.14,1.51-.78c.08-.28,.03-.58-.12-.82-.14-.14-.29-.28-.46-.39-.16-.14-.3-.29-.44-.44-.4-.41-.68-.93-.78-1.5-.05-.55,.26-1.08,.77-1.31,.38-.14,.78-.2,1.18-.17,.17,0,.33,.02,.49,.06,.23,.07,.48-.07,.54-.3,.07-.23-.07-.48-.3-.54h0Z"/>
          <circle id="Oval-29" cx="75.72" cy="178.38" r=".52"/>
          <path id="Path-323" d="M74.99,178.53c.08,.4,.47,.66,.88,.58,.4-.08,.66-.47,.58-.88-.08-.4-.47-.66-.88-.58h0c-.21,.04-.39,.17-.5,.35-.09,.16-.12,.34-.09,.52,.03,.12,.15,.19,.27,.15,.11-.03,.18-.15,.15-.27,.01,.07,0-.01,0-.03v-.04s.01,0,0,.02c0-.02,.01-.04,.01-.07,0-.01,.01-.03,.01-.04,0,0-.02,.05,0,0,.01-.02,.02-.04,.04-.06,.02-.03,0,.01-.01,.01,0,0,.02-.02,.03-.03,.02-.01,.03-.03,.05-.05,0,.01-.04,.03-.01,.01,.01,0,.03-.02,.04-.03l.03-.02s-.04,.01,0,0,.05-.02,.07-.02c.05-.01,0,0,0,0s.03,0,.04,0h.11s.03,.02,.03,.02c.03,0,0,0-.02,0,.02,.01,.04,.02,.06,.03,.01,0,.02,.01,.03,.02s0,0-.02-.01l.02,.02s.03,.03,.05,.05-.01-.01,0-.01c0,.01,.02,.02,.02,.04,0,.02,.02,.04,.03,.06,0,0-.02-.05,0-.01,0,.02,.01,.03,.01,.05v.04s.01-.05,.01-.02v.07s-.02,.05,0,0c0,0,0,.02,0,.03,0,.03-.02,.05-.02,.08,0-.02,.02-.04,0,0l-.02,.03-.02,.03s-.01,0,0,0c-.02,.02-.03,.03-.05,.05l-.02,.02s-.01,.01,.01,0l-.02,.02s-.04,.02-.06,.03c-.02,.01,.01-.01,.01,0h-.03s-.04,.02-.04,.02h-.07s-.03,0-.04,0h0s-.05-.02-.08-.02c.01,0,.04,.02,.01,0l-.05-.02-.02-.02s.03,.03,0,0c-.02-.02-.04-.04-.06-.06-.03-.04,.03,.04,0,0,0-.01-.01-.02-.02-.04,0,0-.01-.02-.02-.03-.02-.05,0,.04,0,0,0-.03-.02-.06-.02-.08-.03-.12-.15-.18-.27-.15-.11,.03-.18,.15-.15,.27h0Z"/>
          <circle id="Oval-30" cx="70.85" cy="179.21" r=".52"/>
          <path id="Path-324" d="M70.12,179.36c.08,.4,.47,.66,.87,.58,.4-.08,.66-.47,.58-.87-.08-.4-.47-.66-.87-.58-.21,.04-.39,.17-.5,.35-.09,.16-.12,.34-.09,.52,.03,.12,.15,.19,.27,.15h0c.11-.04,.18-.15,.15-.27,.01,.07,0-.01,0-.03v-.04s.01,0,0,.02c0-.02,.01-.04,.01-.07,0-.01,0-.03,.01-.04,0,0-.02,.05,0,0,.01-.02,.02-.04,.04-.06,.02-.03,0,.01-.01,.01,0,0,.02-.02,.03-.03,.02-.01,.03-.03,.05-.05,0,.01-.04,.03-.01,.01,.01,0,.03-.02,.04-.03l.03-.02s-.04,.01,0,0,.05-.01,.07-.02c.05-.01,0,0,0,0s.03,0,.04,0h.11s.03,.02,.03,.02c.03,0,0,0-.01,0,.02,.01,.04,.02,.06,.03,.01,0,.02,.01,.03,.02s0,0-.02-.01l.02,.02s.03,.03,.05,.05-.01-.01,0-.01,.02,.03,.02,.04,.03,.06,.03,.06-.02-.05,0-.01c0,.02,.01,.03,.01,.05v.04s.01-.05,.01-.02v.07s-.01,.05,0,0c0,0,0,.02,0,.03-.01,.03-.02,.05-.02,.08,0-.02,.02-.04,0,0l-.02,.03-.02,.03s-.01,0,0,0c-.02,.02-.03,.03-.05,.05l-.02,.02s-.01,.01,.01,0l-.02,.02s-.04,.02-.06,.03c-.02,.01,.01-.01,.01,0h-.03s-.04,.02-.04,.02h-.07s-.03,0-.04,0h0s-.05-.02-.08-.02c.01,0,.04,.02,.02,0s-.03-.02-.05-.02l-.02-.02s.03,.03,0,0c-.02-.02-.04-.04-.06-.06-.03-.04,.03,.04,0,0,0-.01-.01-.02-.02-.04,0,0-.01-.02-.02-.03-.02-.05,0,.04,0,0-.01-.03-.02-.06-.02-.08-.03-.12-.15-.18-.27-.15-.12,.03-.19,.15-.16,.27Z"/>
          <path id="Path-325" d="M71.68,183.15c.33,.46,.86,.75,1.42,.77,.27,0,.53-.04,.78-.13,.11-.03,.2-.1,.26-.2,.12-.21,.06-.48-.15-.6-.1-.06-.23-.08-.35-.04-.12,.04-.25,.07-.38,.1,.14-.03,.04,0,0,0-.03,0-.06,0-.09,0-.05,0-.1,0-.15,0-.08,0,.13,.02,.02,0h-.06s-.1-.03-.14-.05l-.05-.02c-.07-.02,.12,.05,.02,.01-.04-.02-.07-.04-.11-.06-.04-.02-.07-.04-.1-.06l-.04-.03c-.07-.05,.09,.07,.04,.03-.05-.04-.09-.08-.13-.12-.03-.03-.05-.06-.08-.09-.05-.05,.08,.12,.04,.05-.13-.2-.4-.26-.61-.13-.19,.12-.26,.37-.15,.57h0Z"/>
          <path id="Path-326" d="M78.2,170.99l-.49-.82c-2.31-3.69-6.36-6.14-14.5-2.18-2.42,1.51-4.32,3.72-5.44,6.34l-.62,1.45c-.21,.72-.31,1.47-.3,2.22-.02,1.92,.48,3.81,1.43,5.47,.05,.09,.1,.18,.15,.27l4.48,8.38c.52,.96,1.59,1.48,2.66,1.29h0l-1.26-9.77c-1.19-.85-2.07-2.05-2.52-3.44-.41-1.01,.08-2.15,1.09-2.56,.21-.08,.43-.13,.65-.14,1.26-.27,3.16,1.8,3.54,3.56l-.62-3.84c-.18-1.11,.57-2.15,1.68-2.33,.06-.01,.13-.02,.19-.02,1.55-.1,4.52-.42,7.12-.77,.61-.08,1.17-.36,1.61-.8"/>
          <path id="Path-327" d="M78.57,170.76c-.67-1.23-1.55-2.35-2.59-3.3-1.28-1.08-2.87-1.75-4.54-1.9-2.29-.12-4.58,.3-6.67,1.24-.7,.26-1.37,.57-2.02,.93-.47,.29-.92,.62-1.34,.98-1.65,1.42-2.98,3.16-3.91,5.12-.27,.56-.5,1.13-.74,1.7-.27,.77-.39,1.59-.36,2.41-.02,1.43,.23,2.85,.75,4.19,.29,.69,.62,1.35,.98,2l1.63,3.04,2.1,3.91c.53,1,.97,2.06,2.09,2.55,.55,.24,1.15,.31,1.74,.2,.19-.05,.32-.23,.32-.42l-.94-7.26-.23-1.8c-.03-.25-.05-.52-.1-.77-.06-.28-.29-.34-.48-.49-.18-.14-.35-.29-.5-.46-.38-.4-.71-.84-1-1.32-.45-.74-.94-1.88-.42-2.69,.25-.33,.61-.55,1.02-.63,.41-.13,.86-.06,1.21,.2,1.05,.69,1.79,1.75,2.08,2.97,.07,.23,.31,.37,.54,.31,.23-.07,.36-.31,.31-.54-.2-1.26-.43-2.52-.61-3.78-.13-.89,.48-1.72,1.37-1.85,0,0,0,0,0,0,.06,0,.13-.02,.19-.02,1.35-.09,2.69-.24,4.03-.39,.9-.1,1.8-.21,2.7-.33,.82-.06,1.6-.4,2.2-.96,.4-.4-.22-1.02-.62-.62-.55,.47-1.24,.74-1.96,.76-.82,.11-1.64,.21-2.45,.3-1.36,.15-2.72,.25-4.08,.39-1.37,.13-2.38,1.34-2.25,2.72,0,0,0,0,0,0,0,.02,0,.04,0,.05,.08,.62,.2,1.23,.29,1.84l.34,2.13,.85-.23c-.28-1.08-.85-2.07-1.66-2.84-.62-.75-1.58-1.13-2.54-1-.88,.13-1.62,.73-1.93,1.56-.22,1.01-.03,2.07,.54,2.94,.31,.53,.66,1.02,1.07,1.47,.31,.38,.69,.7,1.11,.95l-.22-.38,.43,3.3,.68,5.26,.16,1.21,.32-.42c-.89,.13-1.76-.32-2.18-1.11-.14-.25-.27-.5-.4-.75l-1.89-3.54-1.84-3.44c-.11-.21-.22-.42-.33-.62-.32-.55-.59-1.12-.83-1.7-.24-.62-.42-1.27-.53-1.92-.22-1.18-.21-2.39,.02-3.57,.03-.12,.06-.24,.09-.36,.04-.16-.07,.13,0-.02l.39-.91c.76-1.82,1.85-3.48,3.23-4.89,.65-.71,1.41-1.31,2.25-1.78,1.12-.57,2.28-1.04,3.49-1.38,1.01-.31,2.05-.51,3.11-.57,1.61-.12,3.22,.28,4.6,1.13,1.13,.76,2.08,1.77,2.76,2.96l.43,.71c.13,.2,.4,.26,.61,.13,.19-.12,.26-.37,.15-.57h0Z"/>
          <path id="Path-328" d="M37.65,194.6s.05-.01,.08-.02c.03-.01,.07-.02,.1-.02-.02,0-.14,.02-.05,0h.08c.26-.03,.53-.03,.79,0h.06s-.1,0-.02,0l.11,.02c.09,.02,.18,.04,.28,.06,.09,.02,.18,.05,.25,.07,.05,.02,.09,.03,.14,.05l.05,.02c-.09-.04,.02,.01,.03,.02,.4,.17,.75,.43,1.03,.75,.42,.5,.73,1.07,.92,1.7,.17,.54,1.02,.31,.85-.23-.32-1.22-1.1-2.26-2.18-2.9-.68-.35-1.44-.51-2.2-.46-.18,0-.36,.03-.54,.07-.55,.14-.32,.99,.23,.86Z"/>
          <path id="Path-329" d="M123.55,45.45c.58-.42,1.19-.81,1.82-1.15,1.63-.93,3.33-1.73,5.08-2.39,2.54-.96,5.18-1.65,7.86-2.06,3.36-.5,6.77-.54,10.14-.12,4.14,.53,8.17,1.69,11.95,3.43,.53,.24,1.06,.5,1.59,.76,.25,.12,.48-.25,.22-.38-3.85-1.95-7.97-3.31-12.22-4.03-6.31-1.04-12.77-.47-18.8,1.66-1.92,.67-3.78,1.5-5.56,2.47-.8,.41-1.56,.88-2.29,1.41l-.03,.02c-.22,.17,0,.55,.22,.38h0Z"/>
          <path id="Path-330" d="M54.91,152.91c-.35-.62-.68-1.26-.96-1.91-.77-1.7-1.41-3.45-1.92-5.25-.75-2.59-1.23-5.25-1.43-7.94-.25-3.27-.07-6.57,.54-9.79,.75-3.88,2.1-7.61,4.01-11.07,.25-.47,.52-.93,.79-1.39,.06-.11,.01-.24-.1-.3-.1-.05-.22-.02-.28,.07-2.09,3.47-3.62,7.24-4.55,11.19-.76,3.32-1.07,6.74-.91,10.14,.13,2.8,.56,5.57,1.27,8.28,.51,1.96,1.17,3.88,1.97,5.73,.24,.57,.51,1.12,.78,1.67,.12,.26,.25,.51,.4,.75,0,.01,.01,.02,.02,.03,.07,.1,.21,.12,.31,.06,.09-.06,.12-.18,.07-.28h0Z"/>
          <path id="Path-331" d="M161.38,40.64l.67,3.23,.15-.27-3.3,1.01c-.27,.08-.15,.51,.12,.42l3.3-1.01c.11-.04,.18-.15,.15-.27l-.66-3.23c-.06-.28-.48-.16-.42,.12h0Z"/>
          <path id="Path-332" d="M52.63,116.53l3.17-.93-.27-.15,1.27,3.21c.1,.26,.53,.15,.42-.12l-1.27-3.21c-.03-.12-.15-.18-.27-.15l-3.17,.92c-.11,.04-.17,.17-.13,.28,.04,.1,.14,.16,.25,.14h0Z"/>
        </g>
      </g>
    </g>
  </g>
</svg>