<?xml version="1.0" encoding="UTF-8"?>
<svg id="Layer_2" data-name="Layer 2" xmlns="http://www.w3.org/2000/svg" viewBox="0 0 61.52 35.89">
  <g id="Layer_1-2" data-name="Layer 1">
    <path id="Path_1501" data-name="Path 1501" d="M1.87,22.1l7.93,2.61c1.16,.4,2.44-.07,3.08-1.12l13.35,10.64q.09,.09,.19,.09c2.24,.93,4.76,1.31,6.63-.19l1.03,1.03c1.03,.93,3.73,1.03,4.76-.09,.33-.41,.55-.89,.65-1.4,.91,.05,1.81-.14,2.61-.56,.98-.49,1.64-1.44,1.77-2.52,2.24,.19,3.64-.75,4.2-2.24,.36-.95,.29-2-.19-2.89l1.4-.93c.53,.65,1.31,1.02,2.15,1.03,.38-.02,.76-.08,1.12-.19l7.28-3.17c1.39-.62,2.04-2.22,1.49-3.64l-6.25-15.4c-.62-1.39-2.2-2.08-3.64-1.59l-7.93,2.99c-.82,.33-1.44,1.02-1.68,1.87-6.53-2.8-17.08-2.61-24.17-1.77-.26-.79-.83-1.43-1.59-1.77L8.41,.17c-1.41-.52-2.97,.19-3.49,1.6-.02,.06-.04,.12-.06,.17L.1,18.84c-.39,1.39,.4,2.83,1.77,3.27Zm44.43,5.6c-.47,1.21-1.68,1.21-2.89,.93l-6.53-7.65c-.33-.39-.92-.43-1.31-.09-.39,.33-.43,.92-.09,1.31h0l6.53,7.66c0,.37-.09,1.31-.75,1.59-.65,.26-1.36,.36-2.05,.28l-6.91-8.59c-.31-.41-.89-.5-1.31-.19s-.5,.89-.19,1.31h0l6.91,8.59c-.09,1.4-1.03,1.03-1.12,1.12-1.77,0-1.31-.47-2.89-1.77l-5.51-6.72c-.33-.39-.92-.43-1.31-.09-.39,.33-.43,.92-.09,1.31h0l5.04,6.07c-1.31,.93-3.08,.56-4.48-.09l-13.91-10.92c.37-1.59-1.49,5.6,4.01-15.03,.93-.09,2.89-.28,5.32-.47-1.31,2.33-3.17,6.53-1.12,9.15,2.8,3.45,7.56-.75,9.52-1.87,.56,0,6.81,.28,14.47,12.23,.72,.35,1.02,1.22,.66,1.94,0,0,0,.01,0,.02Zm-2.15-21.28l7.93-2.99c.49-.17,1.02,.08,1.21,.56l6.35,15.31c.2,.46,0,1-.47,1.21l-2.52,1.12c.86-.46,1.4-1.36,1.4-2.33,0-1.5-1.21-2.71-2.71-2.71s-2.71,1.21-2.71,2.71c-.01,1.45,1.15,2.64,2.6,2.65,.29,0,.58-.04,.85-.13l-4.29,1.87c-.46,.2-1,0-1.21-.47-.19-.65-6.81-15.4-7-15.59-.18-.48,.06-1.02,.54-1.21,0,0,.01,0,.02,0Zm12.04,12.79c0,.46-.38,.84-.84,.84s-.84-.38-.84-.84,.38-.84,.84-.84c.46,0,.84,.37,.84,.83,0,0,0,0,0,0h0Zm-14.09-10.45l6.44,14.09-1.59,1.03c-7.84-11.77-14.75-12.61-16.15-12.23-.44,.19-.85,.44-1.21,.75-2.52,1.77-5.13,3.36-6.35,1.77-1.59-1.96,.65-6.16,1.87-8.12,5.13-.09,12.32,.28,16.99,2.71ZM1.87,19.4L6.73,2.5c.07-.41,.46-.68,.86-.61,.06,0,.11,.03,.16,.05l7.56,2.89c.36,.16,.56,.55,.47,.93-6.07,22.96-4.01,15.03-4.48,16.71-.11,.43-.55,.69-.98,.57-.01,0-.03,0-.04-.01l-7.93-2.61c-.33-.23-.51-.63-.47-1.03Z"/>
  </g>
</svg>