<?xml version="1.0" encoding="UTF-8"?>
<svg id="Layer_2" data-name="Layer 2" xmlns="http://www.w3.org/2000/svg" xmlns:xlink="http://www.w3.org/1999/xlink" viewBox="0 0 98 48.27">
  <defs>
    <style>
      .cls-1 {
        clip-path: url(#clippath);
      }

      .cls-2 {
        fill: none;
      }
    </style>
    <clipPath id="clippath">
      <rect class="cls-2" y=".17" width="98" height="48"/>
    </clipPath>
  </defs>
  <g id="Layer_1-2" data-name="Layer 1">
    <g class="cls-1">
      <g id="Mask_Group_1" data-name="Mask Group 1">
        <g id="_3c39f922d5695a318137e64534862119" data-name=" 3c39f922d5695a318137e64534862119">
          <path id="Path_1503" data-name="Path 1503" d="M62.94,48.27h-28.16c-.56,0-1.01-.45-1.01-1.01V1.01C33.78,.45,34.23,0,34.78,0h28.16c.56,0,1.01,.45,1.01,1.01V47.27c0,.56-.45,1.01-1.01,1.01Zm-27.15-2.01h26.15V2.01h-26.15V46.26Z"/>
          <path id="Path_1504" data-name="Path 1504" d="M48.86,22.12c-2.22,0-4.02-1.8-4.02-4.02,0-2.22,1.8-4.02,4.02-4.02,2.22,0,4.02,1.8,4.02,4.02,0,2.22-1.8,4.02-4.02,4.02Zm0-6.03c-1.11,0-2.01,.9-2.01,2.01,0,1.11,.9,2.01,2.01,2.01s2.01-.9,2.01-2.01h0c0-1.11-.9-2.01-2.01-2.01Zm0,15.08c-1.94,0-3.85-.51-5.53-1.48-.31-.18-.5-.51-.5-.87v-3.68c0-.56,.45-1.01,1.01-1.01h10.06c.56,0,1.01,.45,1.01,1.01h0v3.68c0,.36-.19,.69-.5,.87-1.68,.97-3.59,1.48-5.54,1.48Zm-4.02-2.95c2.54,1.24,5.51,1.24,8.04,0v-2.08h-8.04v2.08Zm6.03,11h-4.02c-.56,0-1.01-.45-1.01-1.01h0v-4.02c0-.56,.45-1.01,1.01-1.01h4.02c.56,0,1.01,.45,1.01,1.01h0v4.02c0,.56-.45,1.01-1,1.01h0Zm-3.02-2.01h2.01v-2.01h-2.01v2.01Zm11.06,2.01h-4.02c-.56,0-1.01-.45-1.01-1.01h0v-4.02c0-.56,.45-1.01,1.01-1.01h4.02c.56,0,1.01,.45,1.01,1.01h0v4.02c0,.56-.45,1.01-1,1.01h0Zm-3.02-2.01h2.01v-2.01h-2.01v2.01Zm-13.07,2.01h-4.02c-.56,0-1.01-.45-1.01-1.01h0v-4.02c0-.56,.45-1.01,1.01-1.01h4.02c.56,0,1.01,.45,1.01,1.01h0v4.02c0,.56-.45,1.01-1,1.01h0Zm-3.02-2.01h2.01v-2.01h-2.01v2.01Z"/>
          <path id="Path_1505" data-name="Path 1505" d="M48.86,31.18c-6.11,0-11.06-4.95-11.06-11.06,0-6.11,4.95-11.06,11.06-11.06,6.11,0,11.06,4.95,11.06,11.06,0,3.95-2.11,7.6-5.53,9.58-1.68,.97-3.59,1.48-5.53,1.48Zm0-20.11c-5,0-9.05,4.05-9.05,9.05,0,3.23,1.73,6.22,4.52,7.84,2.81,1.59,6.24,1.59,9.05,0,4.33-2.5,5.81-8.03,3.31-12.36-1.62-2.8-4.61-4.53-7.84-4.53h0Zm8.05-5.03h-16.1c-.56,0-1.01-.45-1.01-1.01V1.01C39.81,.45,40.26,0,40.81,0h16.09c.56,0,1.01,.45,1.01,1.01h0V5.03c0,.56-.45,1.01-1.01,1.01h0Zm-15.09-2.01h14.08V2.01h-14.08v2.01Zm14.08,40.23h-14.08c-.56,.02-1.02-.42-1.04-.97-.02-.56,.42-1.02,.97-1.04,.02,0,.04,0,.06,0h14.08c.56-.02,1.02,.42,1.04,.97,.02,.56-.42,1.02-.97,1.04-.02,0-.04,0-.06,0Z"/>
          <rect id="Rectangle_365" data-name="Rectangle 365" class="cls-2" x="25" y=".17" width="48" height="48"/>
        </g>
      </g>
    </g>
  </g>
</svg>