<?xml version="1.0" encoding="UTF-8"?>
<svg id="Layer_2" data-name="Layer 2" xmlns="http://www.w3.org/2000/svg" viewBox="0 0 272 272">
  <defs>
    <style>
      .cls-1 {
        fill: #fff;
      }

      .cls-2 {
        fill: #23219b;
      }

      .cls-3 {
        fill: #458dc9;
      }

      .cls-4 {
        fill: #ea2f2f;
      }

      .cls-5 {
        fill: #389b48;
      }

      .cls-6 {
        fill: #234a99;
      }

      .cls-7 {
        fill: #ff7f40;
      }

      .cls-8 {
        fill: #ffc41f;
      }
    </style>
  </defs>
  <g id="Layer_1-2" data-name="Layer 1">
    <g id="Group_2314" data-name="Group 2314">
      <rect id="Rectangle_323-2" data-name="Rectangle 323-2" class="cls-1" width="272" height="272"/>
      <g id="accounts_user_users_profile_account_man_people_website_browser_webpage" data-name="accounts user users profile account man people website browser webpage">
        <g id="Group-2">
          <path id="Path-83" class="cls-1" d="M124.45,180.69c0,4.75-3.86,8.6-8.61,8.59H26.12c-4.75,0-8.61-3.84-8.61-8.59h0V58.4H124.45v122.29Z"/>
          <path id="Path-84" d="M124,180.69c-.04,3.91-2.82,7.25-6.65,8-.74,.12-1.49,.16-2.24,.14H26.34c-4.5,.13-8.25-3.41-8.39-7.91V58.4l-.46,.46H122.84c.48,.03,.96,.03,1.44,0,.06,0,.12,0,.18,0l-.46-.46v117.33c0,1.58-.03,3.17,0,4.75v.21c0,.25,.2,.46,.46,.46s.46-.2,.46-.46V63.36c0-1.58,.03-3.17,0-4.75v-.21c0-.25-.21-.45-.46-.46H21.85c-1.39,0-2.78-.03-4.17,0h-.18c-.25,0-.46,.2-.46,.46v119.09c0,1.06,0,2.13,0,3.19,.02,3.17,1.67,6.1,4.37,7.75,1.52,.89,3.25,1.34,5.01,1.31H113.22c2.17,0,4.28,.12,6.33-.79,3.24-1.47,5.34-4.69,5.37-8.26-.02-.25-.23-.44-.49-.43-.23,.02-.41,.2-.43,.43h0Z"/>
          <path id="Path-85" d="M26.12,42.46H115.85c4.75,0,8.6,3.84,8.61,8.59h0v7.37H17.5v-7.37c0-4.75,3.86-8.6,8.61-8.59h0Z"/>
          <path id="Path-86" d="M26.12,42.92H113.36c1.66-.12,3.32,0,4.94,.38,3.3,1.06,5.57,4.07,5.69,7.53,.05,1.9,0,3.8,0,5.7v1.9l.46-.46H21.84c-1.37,0-2.79-.11-4.16,0-.06,0-.12,0-.18,0l.46,.46v-5.97c-.04-.92,0-1.83,.11-2.74,.67-3.92,4.07-6.79,8.05-6.79,.25,0,.46-.2,.46-.46s-.2-.46-.46-.46c-3.85,.03-7.27,2.46-8.57,6.08-.37,1.17-.54,2.39-.5,3.62v6.72c0,.25,.21,.45,.46,.46H120.11c1.39,0,2.77,.03,4.16,0h.18c.25,0,.45-.2,.46-.46v-5.71c0-.73,.03-1.46-.02-2.18-.1-1.68-.66-3.3-1.63-4.67-1.72-2.41-4.48-3.84-7.44-3.86H30.99c-1.56,0-3.11-.02-4.67,0h-.2c-.25-.01-.47,.18-.48,.44s.18,.47,.44,.48c.01,0,.03,0,.04,0h0Z"/>
          <path id="Path-87" d="M42.26,131.98h52.05c.93,.01,1.86-.13,2.75-.42,4.09-1.39,6.28-5.83,4.89-9.92-.72-2.12-2.31-3.82-4.36-4.69-1.02-.42-2.11-.64-3.21-.62H42.27c-4.32-.05-7.87,3.41-7.92,7.74-.05,4.32,3.41,7.87,7.74,7.92,.06,0,.12,0,.18,0,.25,0,.45-.21,.45-.46,0-.25-.2-.45-.45-.45-3.82,.09-6.99-2.93-7.08-6.75-.09-3.82,2.93-6.99,6.75-7.08,.14,0,.28,0,.42,0h52.04c1.11-.01,2.21,.23,3.21,.72,3.42,1.69,4.83,5.84,3.14,9.26-1.09,2.22-3.29,3.68-5.76,3.84-.78,.05-1.56,.01-2.34,.01H42.26c-.25,0-.46,.2-.46,.45,0,.25,.2,.46,.45,.46h.01Z"/>
          <path id="Path-88" d="M42.26,154.48h52.05c.93,.01,1.86-.13,2.75-.42,4.09-1.39,6.28-5.83,4.89-9.92-.72-2.12-2.31-3.82-4.36-4.69-1.02-.42-2.11-.64-3.21-.62H42.27c-4.32-.05-7.87,3.41-7.92,7.74-.05,4.32,3.41,7.87,7.74,7.92,.06,0,.12,0,.18,0h0c.25,0,.45-.21,.45-.46,0-.25-.2-.45-.45-.45-3.82,.09-6.99-2.93-7.08-6.75-.09-3.82,2.93-6.99,6.75-7.08,.14,0,.28,0,.42,0h52.04c1.11-.01,2.21,.23,3.21,.72,3.42,1.7,4.82,5.84,3.12,9.27-1.09,2.21-3.28,3.67-5.74,3.83-.78,.05-1.56,.01-2.34,.01H42.26c-.25,0-.45,.21-.45,.46,0,.25,.2,.45,.45,.45h0Z"/>
          <path id="Path-89" d="M97.64,169.37H41.08c-.77,0-1.53-.02-2.3,0h-.1c-.25,0-.46,.2-.46,.45,0,.25,.2,.46,.45,.46h56.57c.77,0,1.53,.02,2.3,0h.1c.25,0,.45-.21,.45-.46,0-.25-.2-.45-.45-.45h0Z"/>
          <path id="Path-90" d="M85.91,176.36h-26.44c-1.22,0-2.46-.05-3.68,0h-.05c-.25,0-.46,.2-.46,.45,0,.25,.2,.46,.45,.46h26.45c1.22,0,2.46,.05,3.68,0h.05c.25,0,.45-.21,.45-.46,0-.25-.2-.45-.45-.45Z"/>
          <ellipse id="Oval-10" class="cls-4" cx="27.53" cy="51.59" rx="2.26" ry="2.26"/>
          <ellipse id="Oval-11" class="cls-8" cx="36.3" cy="51.59" rx="2.26" ry="2.26"/>
          <ellipse id="Oval-12" class="cls-5" cx="45.07" cy="51.59" rx="2.26" ry="2.26"/>
          <path id="Path-91" d="M191.89,126.44l.53,2.86c.72,3.88-.23,7.88-2.63,11.02l-2.62,3.42-9.59-18.37"/>
          <path id="Path-92" d="M191.44,126.56l.47,2.52c.29,1.49,.35,3.01,.17,4.51-.25,1.88-.89,3.69-1.88,5.31-.54,.83-1.12,1.64-1.74,2.41l-1.69,2.21h.79l-3.25-6.22-5.16-9.89-1.18-2.25c-.27-.52-1.06-.06-.79,.46l3.24,6.22,5.16,9.9,1.18,2.25c.13,.22,.42,.29,.64,.15,.06-.04,.11-.09,.15-.15l1.48-1.94c.57-.75,1.18-1.48,1.7-2.27,2.05-3.15,2.81-6.96,2.11-10.65-.17-.93-.35-1.86-.52-2.79-.11-.58-.99-.34-.88,.24Z"/>
          <path id="Path-93" class="cls-2" d="M209.86,196.25l17.99,9.84-13.88,25.48s-6.81-4.19-2.56-13.78c.81-1.8,.08-3.92-1.67-4.85-2.2-1.17-4.34-2.29-4.34-2.29"/>
          <path id="Path-94" d="M209.63,196.64l6.11,3.34,9.66,5.28,2.22,1.21-.17-.62-1.38,2.53-3.31,6.08-4.01,7.36-3.47,6.36-1.15,2.1c-.2,.32-.38,.65-.54,.99,0,.02-.02,.03-.02,.04l.62-.17s-.07-.04-.1-.07c-.03-.03-.07-.05-.1-.07-.05-.04-.2-.15-.08-.06-1.3-1.02-2.29-2.38-2.87-3.93-.62-1.77-.75-3.67-.37-5.51,.29-1.29,.7-2.55,1.22-3.76,.43-1.11,.37-2.35-.16-3.41-.69-1.41-2.09-1.99-3.41-2.69-.9-.48-1.8-.95-2.7-1.42-.52-.27-.98,.51-.46,.79,.75,.39,1.5,.79,2.25,1.18,.7,.37,1.4,.73,2.09,1.1,1.53,.8,2.18,2.65,1.5,4.23-.53,1.2-.94,2.45-1.22,3.74-.4,1.91-.31,3.9,.29,5.77,.45,1.32,1.16,2.53,2.1,3.56,.45,.51,.97,.97,1.55,1.34,.22,.12,.5,.05,.62-.17l1.38-2.53,3.31-6.08,4.01-7.36,3.47-6.36c.56-1.03,1.16-2.05,1.69-3.09l.02-.04c.12-.22,.05-.49-.17-.62l-6.1-3.33-9.66-5.29-2.22-1.21c-.52-.28-.98,.5-.46,.79h0Z"/>
          <path id="Path-95" class="cls-1" d="M218.29,223.28l-7.51-3.89c-2.58,7.61,2.07,11.39,3.02,12.07v.02s3.23,2.1,3.23,2.1c.65-.38,2.22-.95,2.71-1.83,.64-1.17-.58-1.84,.07-3.01s1.86-.5,2.5-1.68-.58-1.84,.07-3.01,1.86-.5,2.5-1.68-.57-1.84,.07-3.01,1.86-.5,2.5-1.67-.57-1.84,.07-3.01,1.86-.5,2.5-1.68-.57-1.84,.07-3.01c.39-.71,1-.75,1.56-.93,.33-.11,.51-.46,.4-.79-.05-.16-.17-.3-.32-.37l-1.47-.72-2.56-1.1-9.41,17.18Z"/>
          <path id="Path-96" d="M218.52,222.88l-6.57-3.4-.94-.49c-.22-.12-.51-.04-.63,.18,0,0,0,0,0,0-.02,.03-.03,.06-.04,.09-.88,2.39-1.01,4.99-.36,7.45,.47,1.57,1.31,3,2.46,4.16,.35,.36,.73,.68,1.14,.97l-.17-.62v.02c-.13,.22-.06,.49,.16,.62l3.24,2.11c.14,.08,.32,.08,.46,0,1.19-.68,3.05-1.23,3.13-2.88,.03-.64-.46-1.28-.28-1.9,.22-.77,.99-.77,1.61-1.03,.77-.31,1.27-1.07,1.25-1.9-.03-.62-.5-1.28-.23-1.89,.31-.7,1.11-.66,1.72-.96,.73-.37,1.16-1.16,1.07-1.98-.08-.67-.54-1.32-.1-1.96,.38-.55,1.19-.5,1.72-.82,.71-.44,1.08-1.28,.91-2.1-.12-.67-.52-1.28,.02-1.88,.23-.21,.51-.34,.81-.39,.35-.08,.68-.22,.98-.42,.65-.5,.94-1.34,.73-2.14-.16-.65-.49-1.35,.18-1.85,.58-.44,1.49-.24,1.72-1.11,.14-.57-.18-1.16-.74-1.35-.42-.2-.83-.42-1.26-.61-.76-.35-1.53-.66-2.29-1l-.28-.12c-.22-.12-.49-.05-.62,.17l-3.2,5.82-5.08,9.26-1.16,2.1c-.28,.51,.51,.97,.79,.46l3.2-5.82,5.08-9.26,1.16-2.1-.62,.17,2.29,1c.23,.1,.46,.21,.69,.32l.71,.34c.15,.05,.28,.12,.41,.21,.15,.16-.01,.28-.16,.32-.35,.08-.69,.2-1.01,.36-.7,.43-1.07,1.25-.92,2.06,.11,.64,.5,1.23,.05,1.84-.39,.51-1.18,.46-1.7,.78-.7,.43-1.07,1.25-.92,2.07,.11,.64,.5,1.23,.05,1.84-.39,.51-1.18,.46-1.7,.78-.69,.43-1.05,1.23-.92,2.03,.1,.64,.5,1.22,.08,1.83-.37,.54-1.16,.5-1.69,.8-.71,.42-1.1,1.23-.96,2.05,.1,.64,.5,1.23,.08,1.83-.38,.54-1.16,.5-1.69,.8-.7,.4-1.08,1.19-.97,1.98,.08,.62,.5,1.23,.13,1.83-.46,.55-1.05,.97-1.72,1.21-.26,.13-.53,.25-.79,.4h.46l-3.24-2.1,.17,.62v-.02c.13-.22,.05-.49-.16-.62-.05-.04-.11-.08-.16-.12-.02-.02,.07,.06-.03-.02l-.11-.09c-.18-.15-.35-.3-.51-.46-.44-.43-.84-.9-1.18-1.41-1.02-1.52-1.56-3.3-1.57-5.12,0-1.48,.26-2.94,.75-4.34l-.67,.27,6.57,3.41,.94,.49c.53,.26,.99-.53,.47-.81Z"/>
          <path id="Path-97" d="M213.78,220.91l1.59-3.13c.2-.4,.41-.8,.61-1.21,.48-.94,.6-2.02,.36-3.04-.28-1.1-.97-2.04-1.92-2.64-.27-.17-.56-.31-.84-.46l-3.73-1.98-2.94-1.56c-.52-.28-.98,.51-.46,.79l6.16,3.28c1.03,.39,1.91,1.09,2.54,1.99,.49,.91,.55,1.99,.16,2.94-.15,.37-.36,.73-.54,1.08l-1.77,3.47c-.27,.52,.52,.98,.79,.46h0Z"/>
          <path id="Path-98" d="M224.75,211.39c-.5-.26-.96-.59-1.37-.97-1.02-1.06-1.41-2.58-1.01-3.99,.14-.44,.34-.87,.59-1.26l.7-1.21c.11-.23,.02-.5-.21-.61-.2-.1-.45-.04-.58,.15-.55,.81-1,1.68-1.35,2.6-.48,1.64-.11,3.4,.99,4.71,.51,.56,1.11,1.02,1.79,1.37,.22,.13,.5,.05,.62-.16,.13-.22,.05-.5-.16-.62h0Z"/>
          <path id="Path-99" class="cls-7" d="M211.95,215.49c.79-.19,1.62-.12,2.37,.22"/>
          <path id="Path-100" d="M212.07,215.93c.06-.02,.12-.03,.18-.04l.08-.02h.06s-.12,0-.05,0,.19-.02,.28-.02,.22,0,.32,0c.06,0,.12,0,.19,.01,.03,0,.06,0,.09,.01-.11-.03,0,0,.03,0,.15,.02,.29,.05,.43,.09,.07,.02,.14,.04,.21,.06l.13,.05s.13,.05,.06,.02c.11,.06,.23,.07,.35,.05,.24-.07,.38-.32,.32-.56-.03-.11-.11-.21-.21-.27-.59-.26-1.24-.39-1.89-.38-.28,0-.56,.04-.83,.12-.24,.06-.39,.31-.33,.55s.31,.39,.55,.33c0,0,.02,0,.03,0h0Z"/>
          <path id="Path-101" class="cls-7" d="M211.22,213.91c.51-.63,1.22-1.08,2.02-1.26"/>
          <path id="Path-102" d="M211.61,214.13c.05-.07-.07,.08-.04,.05s.06-.07,.09-.11c.11-.12,.23-.24,.36-.34,.02-.02,.04-.04,.07-.05-.11,.09-.05,.04-.02,.02,.05-.04,.1-.07,.15-.11,.11-.07,.22-.14,.34-.2,.06-.03,.12-.06,.18-.09,.03-.02,.07-.04,.11-.05-.06,.03-.07,.03-.02,.01l.06-.02c.15-.06,.31-.11,.47-.15,.24-.07,.38-.32,.32-.56-.07-.24-.32-.38-.56-.32-.63,.16-1.21,.46-1.72,.87-.22,.17-.41,.37-.57,.6-.13,.22-.05,.5,.17,.62,.22,.12,.49,.05,.62-.17h0Z"/>
          <path id="Path-103" class="cls-7" d="M209.39,212.66c.19-.79,.64-1.5,1.28-2"/>
          <path id="Path-104" d="M209.83,212.79c.01-.06,.03-.12,.04-.18,.02-.07,.04-.13,.07-.2,.02-.04,.03-.08,.05-.12,.03-.07-.05,.12,0,.02l.03-.07c.1-.22,.23-.43,.38-.63l.03-.05-.03,.03,.07-.08c.05-.06,.1-.11,.15-.17,.12-.13,.24-.24,.38-.35,.18-.18,.18-.47,0-.64-.18-.17-.46-.17-.65,0-.47,.39-.86,.88-1.12,1.43-.13,.24-.22,.5-.28,.77-.07,.24,.08,.49,.32,.56s.49-.07,.56-.32h0Z"/>
          <path id="Path-105" class="cls-7" d="M207.22,211.49c.19-.79,.64-1.5,1.28-2"/>
          <path id="Path-106" d="M207.67,211.62c.01-.06,.03-.12,.04-.18,.02-.07,.04-.13,.07-.2,.02-.04,.03-.08,.05-.12,.03-.07-.05,.12,0,.02l.03-.07c.1-.22,.23-.43,.38-.63l.03-.05-.03,.03,.07-.08c.05-.06,.1-.11,.15-.17,.12-.13,.24-.24,.38-.35,.18-.18,.18-.47,0-.64-.18-.17-.46-.17-.65,0-.47,.39-.86,.88-1.12,1.43-.13,.24-.22,.5-.28,.77-.07,.24,.08,.49,.32,.56s.49-.07,.56-.32h0Z"/>
          <path id="Path-107" class="cls-2" d="M151.66,211.92l-5.9,19.6-27.87-8.24s2.69-7.52,12.98-5.37c1.93,.41,3.86-.74,4.41-2.64,.68-2.39,1.34-4.71,1.34-4.71"/>
          <path id="Path-108" d="M151.22,211.8l-2,6.65-3.17,10.53-.73,2.42,.56-.32-2.77-.82-6.66-1.97-8.05-2.38-6.96-2.06-2.3-.68c-.35-.13-.71-.23-1.08-.32-.02,0-.03,0-.05-.01l.32,.56s.03-.1,.04-.1c.04-.02-.04,.1-.02,.04,.01-.02,.02-.04,.03-.07,.03-.06,.05-.11,.08-.17,.17-.34,.35-.67,.57-.99,.66-.99,1.51-1.84,2.49-2.5,1.51-.98,3.26-1.54,5.06-1.61,1.23-.06,2.46,.02,3.67,.25,.64,.16,1.29,.21,1.95,.16,1.31-.16,2.47-.93,3.14-2.08,.36-.76,.63-1.55,.81-2.37,.31-1.09,.61-2.18,.92-3.28,.05-.25-.11-.49-.35-.54-.23-.05-.45,.08-.53,.3-.25,.89-.5,1.77-.75,2.66-.37,1.32-.57,2.84-1.72,3.74-.44,.34-.97,.57-1.52,.66-.64,.06-1.28,0-1.9-.16-1.22-.22-2.47-.31-3.71-.25-3.25,.11-6.26,1.71-8.18,4.33-.39,.53-.71,1.12-.95,1.74-.06,.24,.08,.49,.32,.56l2.77,.82,6.65,1.97,8.05,2.38,6.96,2.06c1.12,.33,2.24,.72,3.39,1h.05c.24,.08,.49-.06,.56-.3l2-6.65,3.17-10.52,.73-2.42c.05-.25-.11-.49-.35-.54-.23-.05-.45,.08-.53,.3h0Z"/>
          <path id="Path-109" class="cls-3" d="M156.24,127.53l-21.92,82.11,21.77,5.46s15.17-60.05,16.81-69.22,2.74-21.67,2.74-21.67"/>
          <path id="Path-110" d="M155.8,127.41l-.59,2.19-1.6,5.98-2.36,8.84-2.88,10.78-3.16,11.81-3.18,11.92-2.97,11.12-2.51,9.39-1.8,6.75c-.28,1.06-.59,2.12-.85,3.19-.01,.05-.02,.09-.04,.14-.06,.24,.08,.49,.32,.56l7.37,1.85,11.73,2.94,2.67,.67c.24,.06,.49-.08,.56-.32,.2-.78,.39-1.55,.59-2.33,.52-2.07,1.04-4.14,1.56-6.21,.76-3.02,1.51-6.04,2.27-9.05,.89-3.58,1.79-7.17,2.68-10.75,.95-3.81,1.89-7.63,2.82-11.45,.9-3.66,1.79-7.31,2.67-10.96,.76-3.16,1.52-6.33,2.26-9.49,.53-2.28,1.06-4.57,1.55-6.86,.74-3.47,1.23-7,1.69-10.52,.55-4.22,1.03-8.45,1.42-12.69,.02-.23,.04-.47,.06-.7,.05-.58-.86-.58-.91,0-.27,3.13-.62,6.25-.98,9.36-.52,4.41-1.06,8.84-1.93,13.19-.41,2.04-.87,4.07-1.34,6.1-.69,3-1.4,5.99-2.12,8.98-.86,3.57-1.72,7.14-2.6,10.71-.93,3.8-1.86,7.6-2.8,11.4-.91,3.67-1.82,7.33-2.73,11-.79,3.18-1.59,6.36-2.38,9.53-.58,2.33-1.17,4.66-1.76,6.98-.28,1.11-.64,2.23-.85,3.36,0,.05-.02,.1-.04,.15l.56-.32-7.37-1.85-11.73-2.94-2.67-.67,.32,.56,.59-2.2,1.59-5.97,2.36-8.84,2.88-10.78,3.16-11.81,3.18-11.92,2.97-11.11,2.5-9.39,1.8-6.75c.28-1.06,.59-2.12,.85-3.19,.01-.05,.02-.09,.04-.14,.05-.25-.11-.49-.35-.54-.23-.05-.45,.08-.53,.3h0Z"/>
          <path id="Path-111" class="cls-3" d="M168.75,128.57l-4.54,39.21c-1.34,11.75,3.66,23.33,13.14,30.41,1.13,.84,2.32,1.6,3.55,2.27l22.78,12.35,10.98-19.53s-18.82-11.86-27.27-15.83l3.21-31.39c.35-3.39,.03-6.81-.95-10.08l-4.63-12.73h-14.3"/>
          <path id="Path-112" d="M168.3,128.57l-.49,4.23-1.15,9.94-1.37,11.82-1.11,9.61c-.2,1.71-.44,3.42-.55,5.14-.39,6.12,.88,12.23,3.67,17.69,2.93,5.75,7.49,10.51,13.1,13.69,1.77,.98,3.55,1.93,5.33,2.89l10.22,5.54,7.15,3.88,.38,.2c.22,.12,.5,.05,.62-.17l3.72-6.62,5.9-10.5,1.35-2.41c.12-.22,.05-.49-.17-.62-2.27-1.43-4.55-2.84-6.85-4.24-4.5-2.75-9.03-5.45-13.63-8.03-2.23-1.25-4.47-2.48-6.79-3.57l.23,.39,.7-6.88,1.39-13.6,1.03-10.11c.22-1.9,.26-3.81,.12-5.72-.21-2.31-.73-4.58-1.53-6.75l-4-10.98-.1-.28c-.06-.19-.24-.33-.44-.33h-14.29c-.25,0-.45,.21-.45,.46,0,.25,.2,.45,.45,.45h14.3l-.44-.33,3.64,9.98c.61,1.54,1.11,3.11,1.5,4.72,.56,2.73,.7,5.54,.39,8.31l-.92,8.99-1.4,13.72-.56,5.46c-.09,.91-.23,1.84-.28,2.76,0,.04,0,.08-.01,.12,0,.16,.08,.31,.23,.39,4.43,2.09,8.66,4.59,12.87,7.07,4.02,2.36,8,4.78,11.96,7.24,.81,.5,1.62,1.01,2.43,1.52l-.17-.62-3.72,6.62-5.9,10.51-1.35,2.41,.62-.17-5.17-2.8-10.12-5.49-7.12-3.86c-4.47-2.4-8.3-5.83-11.2-9.99-3.48-5.05-5.49-10.96-5.8-17.09-.07-2.53,.07-5.07,.41-7.57l1-8.58,1.34-11.6,1.24-10.7,.68-5.89,.03-.27c.07-.58-.85-.58-.91,0h0Z"/>
          <path id="Path-113" d="M157.59,209.14l-2.15-.55-5.21-1.32-6.27-1.59-5.45-1.38c-.88-.22-1.75-.48-2.64-.67h-.04c-.24-.08-.49,.07-.56,.31-.07,.24,.08,.49,.32,.56h0l2.15,.55,5.21,1.32,6.27,1.59,5.45,1.38c.88,.22,1.76,.48,2.64,.67h.04c.25,.06,.49-.09,.54-.34,.05-.23-.08-.46-.3-.53h0Z"/>
          <path id="Path-114" d="M209.79,190.44l-1.09,1.94-2.62,4.66-3.17,5.64-2.74,4.88c-.44,.79-.92,1.57-1.33,2.38,0,.01-.01,.02-.02,.04-.11,.23-.02,.5,.21,.61,.2,.1,.45,.04,.58-.15l1.09-1.94,2.62-4.66,3.17-5.64,2.74-4.88c.44-.79,.92-1.57,1.34-2.38,0-.01,.01-.02,.02-.04,.11-.23,.02-.5-.21-.61-.2-.1-.45-.04-.58,.15h0Z"/>
          <path id="Path-115" class="cls-1" d="M126.92,225.77l2.25-8.14c-8-.93-10.74,4.39-11.2,5.46h-.02s-1.39,3.59-1.39,3.59c.51,.55,1.39,1.97,2.36,2.26,1.28,.38,1.68-.94,2.96-.56s.88,1.71,2.16,2.1,1.68-.94,2.96-.56,.88,1.71,2.16,2.09,1.68-.94,2.96-.56,.88,1.71,2.16,2.09,1.68-.94,2.96-.56,.88,1.71,2.16,2.1,1.68-.94,2.96-.56c.78,.23,.94,.82,1.23,1.33,.17,.3,.56,.41,.86,.24,.15-.09,.26-.23,.3-.4l.39-1.59,.55-2.72-18.8-5.63Z"/>
          <path id="Path-116" d="M127.36,225.89l1.97-7.12,.28-1.02c.06-.25-.09-.5-.33-.56,0,0,0,0,0,0-.03,0-.07-.01-.11-.01-2.52-.36-5.08,.06-7.36,1.2-1.43,.77-2.64,1.88-3.54,3.23-.27,.4-.5,.82-.7,1.25l.52-.21h-.02c-.24-.06-.49,.08-.56,.32l-1.39,3.6c-.04,.16,0,.33,.12,.44,.95,1.05,2.04,2.97,3.76,2.36,.61-.22,1.13-.76,1.81-.53,.64,.22,.77,.97,1.16,1.45,.52,.62,1.36,.86,2.12,.62,.58-.2,1.1-.74,1.76-.56,.68,.19,.81,.9,1.19,1.4,.49,.65,1.33,.93,2.12,.71,.6-.17,1.12-.75,1.78-.59,.7,.17,.82,.86,1.19,1.37,.48,.67,1.32,.97,2.12,.77,.58-.16,1.1-.72,1.73-.62,.74,.12,.87,.8,1.24,1.33,.46,.68,1.29,1.01,2.1,.84,.6-.13,1.12-.72,1.76-.64,.9,.11,.86,1.05,1.47,1.5,.5,.35,1.18,.23,1.53-.27,.08-.11,.14-.24,.17-.37,.13-.47,.24-.95,.35-1.43,.2-.83,.34-1.67,.51-2.5l.07-.34c.06-.24-.08-.49-.32-.56l-6.37-1.91-10.13-3.03-2.3-.69c-.24-.07-.5,.08-.57,.32-.07,.24,.08,.5,.32,.57h0l6.37,1.91,10.13,3.03,2.3,.69-.32-.56-.52,2.56c-.06,.31-.14,.61-.22,.91-.04,.16-.12,1.04-.42,.97-.21-.05-.34-.53-.44-.7-.2-.34-.49-.62-.84-.79-.71-.32-1.53-.24-2.17,.19-.48,.39-1.19,.36-1.63-.08-.17-.24-.31-.49-.43-.75-.17-.32-.41-.59-.71-.79-.66-.4-1.48-.41-2.15-.02-.54,.29-1.1,.62-1.68,.17-.21-.2-.38-.45-.49-.72-.14-.31-.35-.58-.6-.81-.61-.5-1.47-.61-2.18-.26-.57,.26-1.06,.69-1.71,.35-.54-.28-.67-1.02-1.06-1.46-.54-.58-1.38-.78-2.12-.52-.58,.21-1.08,.73-1.74,.53-.63-.19-.75-.87-1.1-1.34-.48-.65-1.3-.96-2.09-.78-.57,.14-1.07,.69-1.68,.64-.76-.07-1.33-.87-1.77-1.41-.21-.26-.42-.54-.64-.79l.12,.44,1.39-3.6-.56,.32h.02c.2,.05,.41-.03,.52-.21,1.21-2.59,3.56-4.47,6.36-5.06,1.46-.3,2.97-.36,4.45-.17l-.44-.58-1.97,7.12-.28,1.02c-.05,.25,.1,.49,.35,.54,.23,.05,.46-.08,.53-.3h0Z"/>
          <path id="Path-117" d="M128.32,220.88l3.4,.9c.44,.11,.87,.23,1.31,.35,1.03,.27,2.13,.16,3.09-.32,1.01-.51,1.78-1.39,2.15-2.46,.1-.29,.18-.6,.27-.9l1.17-4.07,.91-3.16c.05-.25-.1-.49-.35-.54-.23-.05-.46,.08-.53,.3l-1.92,6.65-.33,1.16c-.19,.7-.59,1.32-1.14,1.78-.78,.65-1.81,.91-2.8,.73-.41-.08-.81-.2-1.21-.31l-3.78-1c-.24-.07-.5,.07-.57,.31-.07,.24,.07,.5,.31,.57,0,0,0,0,.01,0h0Z"/>
          <path id="Path-118" d="M139.92,229.58c.15-.53,.37-1.04,.66-1.52,.83-1.23,2.25-1.93,3.73-1.83,.48,.05,.94,.16,1.39,.33l1.3,.42c.56,.18,.8-.7,.24-.88-.92-.37-1.87-.63-2.85-.77-1.69-.12-3.32,.61-4.36,1.94-.45,.62-.78,1.32-.99,2.06-.18,.56,.7,.8,.88,.24h0Z"/>
          <path id="Path-119" class="cls-7" d="M133.23,217.96c.35,.73,.45,1.56,.28,2.35"/>
          <path id="Path-120" d="M132.83,218.19c.03,.05,.05,.11,.08,.16-.08-.16-.02-.04,0,0,.02,.04,.03,.07,.04,.11,.03,.09,.06,.18,.08,.27,.03,.11,.05,.22,.07,.32,0,.03,.04,.12,0,0,0,.03,.01,.07,.01,.1,0,.06,.01,.13,.01,.19,0,.14,0,.29,0,.43,0,.08-.01,.16-.02,.24,0-.07,0-.01,0,.03s-.02,.1-.03,.15c-.05,.25,.1,.49,.35,.54,.23,.05,.46-.08,.53-.3,.13-.64,.12-1.29-.03-1.93-.06-.27-.16-.54-.29-.78-.13-.22-.41-.29-.63-.16-.21,.13-.28,.4-.16,.62h0Z"/>
          <path id="Path-121" class="cls-7" d="M134.63,216.92c.73,.37,1.31,.97,1.65,1.7"/>
          <path id="Path-122" d="M134.4,217.32c.13,.06,.26,.13,.38,.22l.08,.06,.04,.03,.02,.02s-.05-.04-.05-.04c.06,.06,.14,.11,.2,.17,.15,.14,.29,.29,.42,.44,.06,.08-.05-.07,0,0l.06,.08c.04,.06,.08,.11,.11,.17,.08,.13,.15,.26,.22,.39,.13,.22,.41,.29,.62,.17,.21-.13,.29-.4,.17-.62-.36-.75-.94-1.38-1.67-1.8-.05-.03-.09-.05-.14-.07-.11-.06-.24-.08-.36-.05-.11,.03-.21,.11-.27,.21-.06,.11-.08,.23-.05,.35,.03,.12,.11,.21,.21,.27Z"/>
          <path id="Path-123" class="cls-7" d="M135.47,214.88c.81,.02,1.6,.31,2.23,.83"/>
          <path id="Path-124" d="M135.47,215.33c.06,0,.12,0,.18,0h.1s.05,.01,.05,.01c.08,0-.12-.02-.04,0,.09,.02,.19,.03,.28,.05s.21,.05,.32,.09c.06,.02,.11,.04,.17,.06,.03,0,.06,.02,.09,.04-.1-.06,0,0,.02,0,.14,.06,.27,.13,.4,.21,.07,.04,.14,.08,.2,.13l.08,.06s.13,.1,.06,.05c.09,.08,.2,.13,.32,.13,.25,0,.46-.2,.46-.45,0-.12-.05-.24-.13-.32-.5-.41-1.09-.7-1.72-.86-.27-.07-.55-.11-.83-.11-.25,0-.45,.21-.45,.46,0,.25,.2,.45,.45,.45h0Z"/>
          <path id="Path-125" class="cls-7" d="M136.16,212.52c.81,.02,1.6,.31,2.23,.83"/>
          <path id="Path-126" d="M136.17,212.98c.06,0,.12,0,.18,0h.1s.05,.02,.05,.02c.08,0-.12-.02-.04,0,.09,.02,.19,.03,.28,.05s.21,.05,.32,.09c.05,.02,.11,.04,.17,.06,.03,.01,.06,.02,.09,.04-.1-.06,0,0,.02,0,.14,.06,.27,.13,.4,.21,.07,.04,.14,.08,.2,.13l.08,.06s.13,.1,.06,.05c.09,.08,.2,.13,.32,.13,.25,0,.46-.2,.46-.46,0-.12-.05-.24-.13-.32-.5-.41-1.09-.7-1.72-.86-.27-.07-.55-.11-.83-.1-.25,0-.45,.21-.45,.46,0,.25,.2,.45,.45,.45h0Z"/>
          <path id="Path-127" d="M183.13,98.22c1.18-.27,1.64-3.18,1.56-6.54l-5.45,2.29c.85,2.77,2.64,4.54,3.88,4.26Z"/>
          <path id="Path-128" d="M183.24,98.66c.97-.25,1.34-1.45,1.54-2.31,.31-1.54,.43-3.11,.36-4.68,0-.26-.29-.56-.58-.44l-4.75,2-.69,.29c-.24,.07-.38,.32-.32,.56,.37,1.31,1.04,2.52,1.96,3.53,.6,.75,1.53,1.14,2.48,1.04,.58-.12,.33-1-.24-.88-.1,.01-.21,.01-.31,0-.15-.03-.29-.08-.43-.15-.36-.2-.69-.46-.96-.77-.75-.88-1.3-1.9-1.62-3.02l-.32,.56,4.75-2,.69-.29-.58-.44c.06,1.4-.03,2.8-.27,4.18-.08,.47-.22,.92-.41,1.34-.07,.15-.16,.29-.27,.41-.07,.08-.17,.14-.27,.17-.24,.07-.39,.32-.32,.56,.07,.24,.32,.39,.56,.32h0Z"/>
          <path id="Path-129" class="cls-7" d="M161.15,105.8l-17.26,14.98-3.74,3.05c-5.1,4.04-9.01,3.83-17.77-1.84l-23.89-20.36,5.73-9.05,27.99,18.28,1.34-1.49,18.4-21.14c1.78-2.05,4.36-3.22,7.08-3.22h4.89"/>
          <path id="Path-130" d="M160.82,105.48l-3.64,3.17-7.35,6.38-5.66,4.91c-1.36,1.18-2.78,2.3-4.17,3.44-1.17,1.01-2.52,1.81-3.97,2.35-1.63,.52-3.38,.55-5.03,.08-2.35-.71-4.59-1.76-6.65-3.11-.75-.42-1.47-.91-2.15-1.45l-4.69-4-7.38-6.29-7.1-6.06-4.03-3.43-.19-.17,.07,.55,5.03-7.94,.7-1.11-.62,.17,2.79,1.82,6.69,4.37,8.09,5.28,6.99,4.57c1.12,.73,2.23,1.53,3.39,2.21,.02,.01,.03,.02,.05,.03,.18,.1,.41,.07,.55-.07,1.07-1.19,2.12-2.39,3.17-3.6l6.29-7.23,6.89-7.93c1.12-1.29,2.24-2.59,3.37-3.87,1.72-1.96,4.19-3.09,6.8-3.09h4.85c.25,0,.46-.2,.46-.46s-.2-.46-.46-.46h-4.24c-.81-.02-1.63,.04-2.43,.17-1.45,.26-2.83,.85-4.02,1.72-.78,.61-1.5,1.3-2.13,2.07l-2.04,2.34-6.73,7.72-6.64,7.64c-1.07,1.23-2.14,2.46-3.22,3.68l-.58,.65,.55-.07-2.79-1.82-6.69-4.37-8.09-5.28-6.99-4.57c-1.12-.73-2.23-1.53-3.39-2.21l-.05-.03c-.22-.12-.5-.05-.62,.17l-5.03,7.94-.7,1.11c-.1,.18-.07,.41,.07,.55l2.91,2.48,6.69,5.71,7.62,6.5,5.54,4.71c.36,.31,.73,.63,1.1,.93,.11,.09,.23,.17,.35,.25,.66,.43,1.34,.85,2.02,1.25,1.16,.7,2.36,1.33,3.6,1.89,1.8,.89,3.77,1.36,5.78,1.38,1.76-.09,3.46-.65,4.93-1.62,1.18-.79,2.3-1.65,3.37-2.57,.74-.6,1.48-1.18,2.2-1.8,1.47-1.26,2.92-2.53,4.37-3.8l7.48-6.49,5.09-4.42,.26-.22c.44-.39-.2-1.03-.65-.64h0Z"/>
          <path id="Path-131" class="cls-6" d="M164.95,104.13l-16.95,16.2-3.74,3.05c-5.1,4.04-15.89,8.73-24.65,3.06l-18.26-16.39,10.02-13.22,20.85,14.03,1.33-1.49,18.4-21.14c1.78-2.05,4.36-3.22,7.08-3.22h4.89"/>
          <path id="Path-132" d="M164.63,103.81l-3.04,2.91-6.45,6.16-5.86,5.6-1.45,1.39c-.44,.42-.93,.78-1.4,1.16-.89,.73-1.77,1.48-2.68,2.18-1.58,1.21-3.3,2.23-5.11,3.06-4.19,1.94-9.04,2.97-13.61,1.96-1.24-.27-2.44-.69-3.57-1.25-.56-.25-1.1-.55-1.6-.91-.43-.35-.83-.75-1.25-1.12l-5.7-5.11-6.83-6.14-4.21-3.78-.2-.18,.07,.55,3.41-4.49,5.38-7.1,1.24-1.64-.62,.17,2.07,1.39,4.97,3.35,6.02,4.05,5.21,3.51c.84,.57,1.66,1.19,2.54,1.71,.01,0,.02,.02,.04,.03,.18,.1,.41,.07,.55-.07,1.06-1.18,2.11-2.37,3.14-3.57l6.31-7.25,6.93-7.96c1.12-1.29,2.23-2.58,3.36-3.86,1.72-1.96,4.19-3.09,6.8-3.09h4.85c.25,.01,.47-.18,.48-.44,.01-.25-.18-.47-.44-.48-.01,0-.03,0-.04,0h-4.22c-.8-.02-1.61,.04-2.4,.16-1.45,.25-2.83,.84-4.02,1.7-.8,.62-1.53,1.32-2.18,2.11l-2.04,2.34-6.72,7.72-6.67,7.66c-1.06,1.22-2.12,2.45-3.2,3.65l-.58,.65,.55-.07-2.07-1.4-4.97-3.35-6.02-4.05-5.2-3.5c-.84-.57-1.66-1.19-2.54-1.71-.01,0-.02-.02-.04-.03-.22-.12-.49-.05-.62,.17l-3.4,4.49-5.37,7.09-1.24,1.64c-.1,.18-.07,.41,.07,.55l3.05,2.74,6.6,5.93,6.32,5.67,1.86,1.67c.74,.63,1.58,1.15,2.48,1.54,4.55,1.95,9.66,2.12,14.32,.48,3.48-1.11,6.73-2.88,9.55-5.2,1.28-1.04,2.59-2.04,3.78-3.18l5.07-4.85,6.72-6.42,4.28-4.09,.21-.2c.42-.41-.22-1.05-.64-.64h-.01Z"/>
          <path id="Path-133" class="cls-6" d="M163.92,84.95l15.8,.36c2.41-.17,3.74,.73,5.02,4.19,0,0,5.86,28.96,7.77,40.58-3.9-3.65-36.62-.93-36.62-.93l3.62-35.84"/>
          <path id="Path-134" d="M163.92,85.41l3.52,.08,6.98,.16,4.99,.11c.64-.04,1.29,0,1.92,.12,1.17,.46,2.08,1.4,2.49,2.59,.24,.48,.43,.98,.55,1.5,.09,.45,.18,.89,.27,1.34,.35,1.74,.7,3.48,1.04,5.22,.5,2.51,1,5.03,1.5,7.54,.57,2.89,1.13,5.79,1.69,8.68,.55,2.87,1.1,5.74,1.63,8.62,.46,2.45,.9,4.9,1.32,7.35,.08,.49,.17,.99,.25,1.48l.76-.44c-.6-.49-1.3-.83-2.06-1-1.08-.29-2.18-.49-3.28-.6-2.97-.32-5.96-.46-8.96-.44-3.36-.01-6.73,.07-10.09,.21-2.82,.12-5.65,.27-8.47,.46-.91,.06-1.82,.12-2.73,.19-.43,0-.86,.04-1.29,.1-.02,0-.04,0-.06,0l.46,.45,.36-3.57,.86-8.56,1.05-10.36,.9-8.95,.3-2.95c.05-.46,.12-.93,.14-1.39,0-.02,0-.04,0-.06,.06-.58-.85-.58-.91,0l-.36,3.57-.86,8.56-1.05,10.36-.9,8.95-.3,2.95c-.05,.46-.12,.93-.14,1.39,0,.02,0,.04,0,.06,0,.25,.21,.45,.46,.45,1.09-.09,2.19-.17,3.28-.24,2.65-.18,5.3-.33,7.95-.46,3.32-.15,6.64-.26,9.96-.27,3.08-.02,6.17,.03,9.24,.31,1.14,.09,2.28,.25,3.41,.49,.45,.09,.89,.22,1.33,.36,.09,.03,.18,.06,.27,.1,.02,0,.15,.06,.08,.03s.08,.04,.1,.05c.15,.07,.29,.14,.43,.23,.06,.04,.12,.08,.17,.12-.11-.08,.03,.03,.08,.07,.18,.17,.48,.17,.65-.02,.11-.11,.15-.27,.11-.42-.38-2.31-.8-4.62-1.21-6.93-.52-2.84-1.05-5.67-1.6-8.5-.57-2.96-1.14-5.93-1.72-8.89-.52-2.65-1.04-5.3-1.57-7.95-.39-1.94-.78-3.89-1.16-5.83-.17-.82-.28-1.67-.5-2.47-.19-.6-.45-1.19-.76-1.74-.32-.66-.75-1.25-1.27-1.76-.44-.41-.98-.71-1.56-.88-.62-.14-1.25-.19-1.88-.15-1.19,.02-2.4-.06-3.6-.08l-7.02-.17-4.92-.11h-.26c-.25-.02-.47,.18-.48,.43s.18,.47,.44,.48c.01,0,.03,0,.04,0h.01Z"/>
          <path id="Path-135" class="cls-7" d="M99.99,102.91l-5.96-3.59c-.83-.5-1.58-1.12-2.23-1.85h0c-1.31-1.68-3.18-2.82-5.26-3.24l-.85-1.7s7.18-8.84,8.24-8.65l2.96-.25c-.29-.72-.13-1.53,.41-2.09h0c.75-.78,2-.81,2.78-.05,.09,.09,.17,.18,.25,.29l1.37,1.96c.86,1.22,1.44,2.62,1.7,4.08l.31,1.75c.35,1.95,1.49,3.67,3.15,4.74l.46,.3"/>
          <path id="Path-136" d="M100.22,102.51l-3.95-2.38-1.9-1.14c-.41-.24-.8-.51-1.16-.8-.67-.55-1.2-1.21-1.81-1.81-1.27-1.33-2.93-2.24-4.73-2.59l.27,.21-.85-1.7-.07,.55c1.16-1.43,2.35-2.84,3.57-4.23,.89-1.01,1.79-2.01,2.74-2.96,.36-.35,.72-.7,1.11-1.02,.03-.03,.11-.08,.03-.03,.04-.03,.07-.05,.11-.08,.07-.05,.14-.1,.21-.14,.03-.02,.18-.09,.11-.06s0,0,.02,0c.11-.02-.1,0-.04,0h.03c-.22,.02-.02,0,.03,0h.04c.1,0,.19-.02,.29-.02l1.02-.09,1.61-.14c.25,0,.46-.21,.45-.47h0s0-.07-.02-.11c-.33-.77,.02-1.66,.79-1.99,.6-.26,1.29-.11,1.73,.38,.23,.28,.44,.58,.64,.89l.78,1.11c.87,1.24,1.46,2.66,1.72,4.16,.14,1.11,.4,2.21,.79,3.26,.37,.88,.91,1.67,1.58,2.35,.53,.51,1.12,.96,1.75,1.34,.49,.32,.95-.47,.46-.79-.56-.34-1.09-.74-1.57-1.2-.63-.64-1.13-1.39-1.46-2.23-.33-1.01-.56-2.04-.69-3.09-.32-1.62-.98-3.15-1.95-4.48l-.93-1.33c-.27-.46-.66-.85-1.12-1.13-1.19-.62-2.65-.16-3.27,1.03-.32,.61-.36,1.32-.12,1.97l.44-.58c-.98,.08-1.96,.16-2.95,.25-.05,0,.32-.01-.03,0h-.05c-.08,0-.16,.02-.24,.05-.16,.06-.3,.13-.44,.23-.38,.27-.74,.57-1.07,.89-1.9,1.87-3.69,3.86-5.36,5.94-.47,.55-.93,1.11-1.39,1.67-.14,.15-.17,.37-.07,.55l.62,1.24c.07,.16,.15,.32,.23,.47,.15,.22,.38,.22,.62,.28,.24,.05,.48,.11,.71,.19,.88,.29,1.69,.74,2.41,1.33,.76,.61,1.36,1.35,2.05,2.03,.81,.74,1.71,1.39,2.67,1.92l3,1.8,2.15,1.29c.22,.12,.5,.03,.62-.19,.11-.21,.04-.47-.16-.6h0Z"/>
          <path id="Path-137" class="cls-7" d="M91.05,91.81c-3.07-.87-6.26-1.26-9.45-1.16-3.24,.43-3.02,2.79,.17,3.13s4.5-.17,8.07,1.93"/>
          <path id="Path-138" d="M91.17,91.38c-.95-.29-1.92-.51-2.91-.67-1.03-.18-2.07-.32-3.12-.41-.62-.05-1.24-.09-1.86-.1-.64-.04-1.28-.03-1.91,.04-.82,.07-1.59,.42-2.18,1-.42,.47-.49,1.16-.17,1.7,.45,.62,1.12,1.03,1.87,1.17,.95,.18,1.92,.28,2.89,.29,.87,.02,1.73,.12,2.58,.31,1.14,.32,2.23,.79,3.23,1.42,.22,.13,.5,.05,.62-.16,.13-.22,.05-.5-.16-.62-1.53-.96-3.26-1.56-5.05-1.77-.77-.07-1.55-.09-2.33-.14-.84,.01-1.67-.17-2.42-.53-.21-.11-.39-.28-.5-.49-.05-.11-.05-.24-.02-.36,.22-.54,1.02-.76,1.58-.87,.57-.08,1.15-.1,1.72-.06,.57,0,1.15,.03,1.72,.08,.99,.07,1.98,.19,2.95,.36,1.08,.17,2.16,.41,3.21,.73,.56,.18,.8-.7,.24-.88h0Z"/>
          <path id="Path-139" class="cls-7" d="M91.18,88.33c-3.26-1.29-6.66-2.25-10.12-2.84-3.26-.18-3.49,2.18-.42,3.11s5.85,2.01,10.98,3.96"/>
          <path id="Path-140" d="M91.31,87.89c-1.23-.51-2.5-.93-3.77-1.33-1.23-.38-2.47-.72-3.72-1.01-1.25-.39-2.56-.55-3.87-.47-.8,.04-1.51,.51-1.85,1.23-.16,.71,.13,1.45,.73,1.86,.8,.55,1.7,.94,2.65,1.15,.86,.28,1.72,.57,2.58,.87,2.5,.89,4.98,1.85,7.46,2.79,.55,.21,.79-.67,.24-.88-2.14-.81-4.27-1.63-6.42-2.42-.82-.3-1.65-.59-2.48-.88-.81-.27-1.64-.49-2.44-.79-.57-.21-1.36-.64-1.46-1.24,.01,.07,0-.09,0-.12,0-.08,0,.07,0,0,0-.03,.01-.06,.02-.08,.01-.03,.03-.07,.05-.09,.02-.04,.05-.08,.09-.11,.24-.2,.53-.33,.84-.37,.51-.09,1.03-.09,1.53,.01,.64,.11,1.28,.24,1.92,.38,1.2,.27,2.39,.59,3.56,.95,1.38,.42,2.76,.88,4.1,1.43,.24,.07,.49-.08,.56-.32,.06-.24-.08-.49-.32-.56h0Z"/>
          <path id="Path-141" class="cls-7" d="M93.71,85.99c-3.3-2.37-6.84-4.41-10.55-6.07-3.14-.92-3.89,1.33-1.12,2.93s5.24,3.28,9.79,6.34"/>
          <path id="Path-142" d="M93.94,85.6c-1-.72-2.04-1.4-3.08-2.07-2.08-1.36-4.26-2.56-6.51-3.6-1.01-.59-2.19-.79-3.33-.57-.8,.19-1.29,.99-1.1,1.79h0c.37,.98,1.12,1.77,2.08,2.2,.84,.49,1.66,.99,2.48,1.51,2.41,1.52,4.76,3.14,7.12,4.72,.49,.33,.95-.46,.46-.79-2.05-1.38-4.08-2.76-6.15-4.1-.78-.51-1.57-1.01-2.37-1.49-.89-.42-1.71-.98-2.41-1.67-.2-.22-.32-.5-.34-.8,.01-.21,.15-.38,.35-.45,.85-.4,1.97,.08,2.76,.43,2.14,.98,4.21,2.12,6.19,3.4,1.15,.72,2.3,1.47,3.4,2.27,.48,.34,.93-.45,.46-.79h0Z"/>
          <path id="Path-143" class="cls-7" d="M97.12,84.3s-5.94-6.14-10.35-8.84c-2.94-1.43-4.06,.66-1.6,2.7s4.61,4.12,8.58,7.9"/>
          <path id="Path-144" d="M97.44,83.97c-2.5-2.61-5.2-5.04-8.06-7.25-.9-.78-1.91-1.43-3-1.92-.88-.34-2.26-.52-2.83,.45s.15,2.1,.82,2.79c.4,.41,.87,.77,1.31,1.14,.4,.34,.79,.68,1.18,1.03,2.24,1.99,4.39,4.09,6.56,6.16,.42,.4,1.07-.24,.64-.64-1.89-1.8-3.77-3.62-5.7-5.38-.74-.68-1.5-1.35-2.26-2-.68-.58-1.77-1.3-1.84-2.28-.04-.24,.09-.47,.31-.56,.46-.13,.94-.1,1.38,.09,.53,.2,1.03,.48,1.48,.82,.46,.31,.91,.64,1.35,.97,1.81,1.39,3.54,2.88,5.19,4.46,.96,.9,1.91,1.81,2.82,2.76,.41,.42,1.05-.22,.64-.64h0Z"/>
          <path id="Path-145" class="cls-7" d="M107.34,94.61l-.46-.3c-1.66-1.08-2.81-2.79-3.16-4.74l-.31-1.75c-.26-1.47-.84-2.86-1.7-4.08l-1.37-1.96c-.63-.89-1.86-1.1-2.75-.48-.1,.07-.2,.15-.28,.24h0c-.53,.55-.69,1.37-.41,2.09l1.2,2.99c-1.46,2.41-2.35,5.11-2.62,7.91"/>
          <path id="Path-146" d="M107.56,94.21c-.79-.47-1.49-1.07-2.08-1.78-.68-.88-1.14-1.91-1.33-3-.1-.55-.2-1.1-.3-1.65-.19-1.09-.54-2.14-1.05-3.13-.36-.65-.76-1.27-1.19-1.86-.33-.47-.64-.97-1-1.42-.84-1.04-2.36-1.2-3.4-.36-.7,.56-1.03,1.47-.86,2.35,.17,.61,.39,1.19,.67,1.76l.65,1.61,.05-.35c-.49,.79-.91,1.62-1.27,2.48-.8,1.79-1.28,3.71-1.42,5.66-.03,.58,.88,.58,.91,0,.21-2.58,1.01-5.08,2.34-7.31,.14-.17,.24-.38,.28-.6-.04-.24-.12-.47-.24-.68l-.92-2.29c-.2-.41-.23-.9-.07-1.33,.23-.53,.73-.89,1.31-.92,.96-.05,1.39,.73,1.87,1.41,.57,.75,1.08,1.54,1.54,2.36,.52,1.09,.87,2.25,1.05,3.45,.15,1.19,.5,2.35,1.05,3.42,.73,1.22,1.75,2.23,2.97,2.96,.49,.32,.95-.47,.46-.79h0Z"/>
          <path id="Path-147" d="M175.83,136.39c-.04,.77,.06,1.54,.31,2.27,.44,1.44,1.61,2.53,3.07,2.88l-.32-.56c-.46,2.99-.89,5.98-1.31,8.97-.53,3.75-1.05,7.49-1.56,11.24l-.75,5.44c-.31,1.72-.5,3.45-.59,5.19-.01,3.76,1.44,7.37,4.05,10.08,.93,.9,1.94,1.72,3.01,2.44l3.92,2.84,5.53,4.01,5.81,4.21,4.84,3.51,2.52,1.83,.11,.08c.48,.34,.93-.44,.46-.79l-1.72-1.25-4.33-3.14-5.65-4.1-5.7-4.13-4.45-3.22-1.97-1.43c-2.76-2.02-4.65-5.01-5.3-8.37-.29-1.76-.28-3.56,.03-5.33,.23-1.72,.47-3.44,.7-5.17,.51-3.74,1.03-7.47,1.55-11.21,.45-3.22,.91-6.45,1.39-9.68,.09-.6,.18-1.21,.27-1.81,.06-.24-.08-.49-.32-.56-1.21-.28-2.17-1.2-2.48-2.4-.2-.6-.27-1.24-.22-1.87,.05-.58-.86-.58-.91,0Z"/>
          <path id="Path-148" d="M164.05,137.7l-.46,1.85-1.25,5.04-1.85,7.45-2.26,9.09-2.47,9.96-2.5,10.05-2.32,9.34-1.97,7.92-1.41,5.69c-.23,.9-.46,1.79-.67,2.69,0,.04-.02,.08-.03,.12-.05,.25,.11,.49,.35,.54,.23,.05,.45-.08,.53-.3l.46-1.85,1.25-5.04,1.85-7.45,2.26-9.09,2.48-9.96,2.5-10.05,2.32-9.34,1.97-7.92,1.41-5.69c.22-.9,.46-1.79,.66-2.69,0-.04,.02-.08,.03-.12,.05-.25-.11-.49-.35-.54-.23-.05-.45,.08-.53,.3h0Z"/>
          <path id="Path-149" d="M165.88,128.45l-1.01,5.83-.59,3.41c-.27,1.15-.27,2.35,0,3.49,.53,1.36,1.29,2.61,2.25,3.7,.34,.47,1.13,.02,.79-.46-.7-.85-1.32-1.76-1.86-2.71-.45-.95-.6-2.01-.43-3.04,.03-.2,.07-.4,.1-.59l1.24-7.14,.39-2.25c.1-.57-.78-.82-.88-.24h0Z"/>
          <path id="Path-150" d="M131.04,112.91l1.59-1.79,.22-.25c.19-.16,.21-.45,.05-.64s-.45-.21-.64-.05c0,0-.02,.02-.03,.03l-.02,.02-1.59,1.8-.22,.25c-.16,.19-.13,.48,.06,.64,.17,.14,.42,.14,.59,0h0Z"/>
          <path id="Path-151" class="cls-7" d="M181.27,104.58l17.25,14.98,3.74,3.05c5.1,4.04,9.01,3.83,17.78-1.84l23.89-20.37-5.73-9.05-28,18.28-1.34-1.49-18.4-21.14c-1.78-2.05-4.36-3.22-7.08-3.22h-4.89"/>
          <path id="Path-152" d="M180.95,104.91l3.71,3.22,7.38,6.41,5.64,4.9c1.36,1.18,2.78,2.3,4.19,3.44,1.29,1.1,2.76,1.96,4.35,2.53,1.72,.53,3.56,.56,5.31,.09,2.36-.68,4.6-1.7,6.66-3.02,.92-.5,1.79-1.09,2.61-1.74l4.62-3.94,7.37-6.29,7.2-6.13,4.09-3.48,.19-.17c.15-.15,.17-.37,.07-.55l-5.03-7.94-.7-1.11c-.13-.22-.41-.29-.62-.17l-2.79,1.82-6.69,4.37-8.09,5.28-6.99,4.57-2.29,1.5c-.38,.22-.75,.46-1.1,.72-.02,.01-.03,.02-.05,.03l.55,.07c-1.08-1.2-2.14-2.41-3.2-3.63l-6.35-7.3-6.95-7.98c-1.08-1.24-2.15-2.48-3.24-3.72-1.88-2.13-4.59-3.35-7.43-3.35h-4.86c-.25,0-.46,.2-.46,.46s.2,.46,.46,.46h4.19c.78-.02,1.56,.02,2.33,.15,1.44,.27,2.79,.88,3.93,1.79,.65,.55,1.24,1.16,1.78,1.82l2.1,2.41,6.69,7.68,6.62,7.61c1.05,1.21,2.1,2.42,3.16,3.61l.58,.65c.15,.15,.37,.17,.55,.07l2.79-1.82,6.69-4.37,8.09-5.28,6.99-4.57,2.29-1.5c.38-.22,.75-.46,1.1-.72,.02-.01,.03-.02,.05-.03l-.62-.17,5.03,7.95,.7,1.11,.07-.55-2.85,2.43-6.65,5.67-7.54,6.43-5.61,4.78c-.39,.33-.77,.68-1.17,1-.6,.43-1.22,.82-1.87,1.17-1.17,.71-2.37,1.36-3.61,1.95-1.74,.89-3.66,1.38-5.62,1.41-1.68-.1-3.3-.65-4.69-1.61-1.13-.78-2.22-1.62-3.25-2.51-.66-.54-1.33-1.06-1.98-1.62-1.49-1.29-2.99-2.59-4.48-3.89l-7.43-6.44-5.02-4.36-.26-.22c-.44-.39-1.09,.26-.64,.64Z"/>
          <path id="Path-153" class="cls-6" d="M181.23,104.58l13.18,14.53,3.74,3.05c5.1,4.04,15.89,8.73,24.65,3.06l18.26-16.39-10.02-13.23-20.85,14.03-1.33-1.49-18.4-21.14c-1.78-2.05-4.36-3.22-7.08-3.22l-6.41,.15"/>
          <path id="Path-154" d="M180.91,104.91l2.96,3.26,5.81,6.4,4.16,4.58c.31,.32,.64,.62,1,.88l2.91,2.37c2.9,2.32,6.25,4.02,9.83,5.02,4.44,1.39,9.24,1.13,13.51-.72,.88-.37,1.69-.87,2.42-1.49l1.66-1.48,5.78-5.19,6.41-5.76,3.86-3.47,.18-.17c.15-.15,.18-.37,.07-.55l-3.4-4.48-5.39-7.11-1.24-1.64c-.13-.21-.41-.29-.62-.17l-2.08,1.4-4.98,3.35-6.02,4.06-5.21,3.5-1.7,1.15c-.28,.17-.56,.35-.82,.55-.01,0-.02,.02-.04,.03l.55,.07c-1.14-1.27-2.26-2.55-3.38-3.83l-6.78-7.79-7-8.05-2.1-2.41c-.76-.93-1.66-1.74-2.66-2.41-1.3-.81-2.78-1.31-4.31-1.45-.62-.04-1.25-.05-1.88-.02l-5.06,.12h-.38c-.25,0-.46,.21-.46,.47s.2,.46,.46,.46h0l4.18-.1,2.08-.05c1.08-.02,2.16,.16,3.18,.52,1.55,.59,2.92,1.57,3.97,2.84l1.79,2.06,6.72,7.72,6.99,8.03c1.12,1.29,2.24,2.59,3.38,3.86l.6,.67c.15,.15,.37,.17,.55,.07l2.08-1.4,4.98-3.35,6.02-4.05,5.21-3.5,1.7-1.15c.28-.17,.56-.35,.82-.55,.01,0,.02-.02,.04-.03l-.62-.17,3.4,4.48,5.38,7.11,1.24,1.64,.07-.55-2.72,2.44-6,5.39-6.21,5.58-2.21,1.98c-.35,.32-.69,.67-1.07,.96-.54,.38-1.12,.7-1.73,.97-1.07,.51-2.19,.9-3.34,1.16-2.2,.48-4.46,.54-6.68,.2-4.07-.64-7.94-2.22-11.3-4.6-.91-.64-1.76-1.36-2.62-2.07l-1.59-1.3c-.18-.15-.37-.28-.54-.44-.35-.33-.65-.72-.97-1.07l-2.19-2.42-5.8-6.38-4-4.41-.2-.23c-.4-.43-1.04,.21-.65,.64h-.03Z"/>
          <path id="Path-155" d="M212.01,111.06l-1.59-1.8-.22-.25c-.18-.18-.47-.18-.65,0-.17,.18-.17,.46,0,.64l1.59,1.8,.22,.25c.18,.18,.47,.18,.65,0,.17-.18,.17-.46,0-.64Z"/>
          <ellipse id="Oval-13" class="cls-1" cx="69.91" cy="86.39" rx="20.11" ry="20.06"/>
          <path id="Path-156" d="M49.34,86.39c0,11.34,9.2,20.52,20.54,20.51,11.34,0,20.52-9.2,20.51-20.54s-9.2-20.52-20.54-20.51c-10.1,0-18.69,7.36-20.26,17.34-.16,1.06-.25,2.13-.25,3.2,0,.25,.2,.46,.46,.46s.46-.2,.46-.46h0c.02-10.77,8.77-19.48,19.54-19.46,10.77,.02,19.48,8.77,19.46,19.54-.02,10.77-8.77,19.48-19.54,19.46-9.61-.02-17.78-7.04-19.23-16.54-.15-.99-.23-2-.23-3,0-.25-.2-.46-.46-.46-.25,0-.46,.2-.46,.46Z"/>
          <path id="Path-157" class="cls-6" d="M69.91,106.45c-5.33,0-10.45-2.11-14.22-5.88l1.89-6.09c1.08-3.5,4.31-5.88,7.96-5.88h7.54c3.45,0,6.54,2.12,7.78,5.33l2.93,6.96c-3.74,3.57-8.71,5.56-13.89,5.55Z"/>
          <path id="Path-158" d="M69.91,105.99c-5.21,0-10.21-2.06-13.9-5.74l.12,.44,1.87-6.02c.53-1.75,1.66-3.27,3.18-4.29,1.36-.88,2.96-1.34,4.58-1.32h7.12c1.67-.02,3.31,.46,4.69,1.4,1.33,.96,2.35,2.28,2.94,3.81l2.76,6.56,.08,.19,.11-.45c-3.65,3.49-8.51,5.43-13.56,5.42-.25-.01-.47,.18-.48,.43-.01,.25,.18,.47,.43,.48,.01,0,.03,0,.04,0,4.13,0,8.15-1.25,11.57-3.56,.93-.64,1.81-1.35,2.64-2.13,.12-.11,.16-.29,.12-.44l-2.68-6.36c-.15-.35-.29-.7-.44-1.05-.44-1.01-1.07-1.92-1.86-2.69-1.6-1.57-3.74-2.47-5.99-2.53-2.33-.05-4.67,0-7.01,0-1.42-.05-2.84,.18-4.17,.7-2,.85-3.62,2.41-4.53,4.39-.43,1.06-.79,2.14-1.09,3.24l-1.16,3.73-.07,.24c-.04,.16,0,.33,.12,.44,2.96,2.94,6.74,4.92,10.85,5.68,1.22,.22,2.46,.33,3.7,.33,.25,.01,.47-.18,.48-.43,.01-.25-.18-.47-.43-.48-.01,0-.03,0-.04,0h0Z"/>
          <path id="Path-159" d="M72.05,72.71h2.68c1.63,0,2.95,1.32,2.95,2.94h0c0,2.9-2.36,5.25-5.25,5.24h-2.12l1.74-8.18Z"/>
          <path id="Path-160" d="M72.06,73.17h2.35c.41-.02,.83,.04,1.22,.17,.62,.24,1.12,.71,1.39,1.31,.41,1.28,.17,2.69-.65,3.76-.79,1.13-2.03,1.87-3.4,2.02-.88,.05-1.77,.06-2.66,.03l.44,.58,1.52-7.15,.23-1.03c.12-.57-.76-.82-.88-.24l-1.52,7.15-.22,1.03c-.06,.25,.09,.5,.33,.56,.04,0,.07,.01,.11,.01,.84,0,1.69,.05,2.52-.02,1.59-.11,3.05-.88,4.05-2.12,1.01-1.21,1.44-2.81,1.16-4.37-.39-1.52-1.75-2.58-3.32-2.59-.89-.01-1.78,0-2.67,0-.25-.01-.47,.18-.48,.44-.01,.25,.18,.47,.44,.48,.01,0,.03,0,.04,0h0Z"/>
          <ellipse id="Oval-14" class="cls-7" cx="69.7" cy="81.18" rx="4.41" ry="4.41"/>
          <path id="Path-161" d="M64.82,81.18c0,2.69,2.17,4.88,4.86,4.89s4.88-2.17,4.89-4.86-2.17-4.88-4.86-4.89c-.32,0-.65,.03-.96,.09-2.27,.47-3.9,2.45-3.92,4.77,0,.25,.2,.46,.46,.46s.46-.2,.46-.46c0-2.19,1.76-3.96,3.95-3.97s3.96,1.76,3.97,3.95c0,2.19-1.76,3.96-3.95,3.97-.25,0-.51-.02-.76-.07-1.86-.36-3.21-1.98-3.21-3.88,0-.25-.2-.46-.46-.46-.25,0-.46,.2-.46,.46h0Z"/>
          <path id="Path-162" d="M75.56,74.35c0-.89-.71-1.61-1.6-1.62-2.51-.03-5.13-.02-7.15-.01h0c-2.6,0-4.7,2.1-4.71,4.69,0,.66,.14,1.31,.4,1.91l.46,1.03,1.16,2.55c.39,.84,1.38,1.21,2.22,.83,.47-.21,.81-.63,.93-1.13,.07-.31,.11-.62,.12-.93-1.45-.56-.78-2.68,.22-2.34s.89,2.67,.89,2.67c0,0,.36-.14,.5-1.62,.08-.75,.7-1.33,1.45-1.36h.4c2.58,0,4.68-2.09,4.69-4.68Z"/>
          <path id="Path-163" d="M76.02,74.35c0-.6-.27-1.17-.72-1.57-.48-.37-1.09-.55-1.7-.51-1.55-.02-3.11-.02-4.66-.02-1.2-.09-2.41-.02-3.59,.22-1.03,.31-1.94,.92-2.6,1.77-.66,.85-1.05,1.88-1.1,2.96-.01,.94,.2,1.86,.62,2.7,.47,1.07,.95,2.13,1.44,3.18,.4,.88,1.33,1.38,2.29,1.23,.51-.08,.97-.34,1.3-.74,.38-.55,.58-1.22,.56-1.89,0-.2-.14-.38-.33-.44-.4-.17-.6-.61-.48-1.03,.02-.1,.06-.2,.12-.28,.08-.11-.04,.03,.05-.07,0,0,.11-.09,.05-.05,.11-.08,.17-.09,.3,0,.29,.35,.45,.78,.45,1.23,.04,.32,.05,.65,.04,.97,0,.26,.22,.46,.47,.45,.07,0,.15-.02,.21-.06,.39-.17,.53-.82,.61-1.17,0-.47,.12-.93,.34-1.35,.23-.27,.56-.42,.91-.4,.86,.02,1.71-.15,2.49-.51,1.78-.85,2.92-2.65,2.92-4.63,0-.25-.2-.46-.46-.46s-.46,.2-.46,.46c-.01,1.68-1.01,3.2-2.54,3.88-.66,.25-1.37,.37-2.08,.35-.91,.03-1.69,.68-1.88,1.57-.04,.46-.13,.91-.26,1.35,0,0-.05,.09-.07,.12-.04,.09,.02,0,0,.01-.11,.06,.08-.04,.02-.01l.69,.39c.11-.94-.11-1.89-.62-2.69-.35-.46-.99-.6-1.5-.32-.47,.32-.75,.85-.75,1.42-.02,.76,.46,1.44,1.17,1.69l-.33-.44c-.04,.77-.23,1.63-1.13,1.74-.58,.07-1.13-.28-1.32-.82-.42-.9-.82-1.79-1.23-2.69-.32-.62-.55-1.29-.68-1.98-.1-.88,.07-1.77,.5-2.54,.42-.77,1.07-1.39,1.85-1.78,.88-.36,1.84-.51,2.79-.43,1.49,0,2.97,0,4.46,0h1.16c.32-.02,.64,0,.95,.08,.47,.16,.79,.6,.79,1.1,0,.25,.2,.46,.46,.46s.46-.2,.46-.46h0Z"/>
          <path id="Path-164" class="cls-7" d="M177.98,83.87c.28,4.53-3.16,8.43-7.68,8.71-4.48,.28-8.36-3.09-8.7-7.56l16.39-1.15Z"/>
          <path id="Path-165" d="M177.52,83.87c.25,4.28-3.02,7.95-7.3,8.2-4.18,.24-7.8-2.87-8.18-7.04l-.46,.46,5.54-.39,8.83-.62,2.02-.14c.58-.04,.59-.95,0-.91l-5.54,.39-8.83,.62-2.02,.14c-.25,0-.45,.2-.46,.46,.32,4.78,4.45,8.39,9.23,8.07s8.39-4.45,8.07-9.23h0c-.04-.58-.95-.59-.91,0Z"/>
          <path id="Path-166" class="cls-7" d="M174.37,85.64l-.79-10.31-8.58,3.86,.11,6.79"/>
          <path id="Path-167" d="M174.83,85.64l-.69-9.01-.1-1.29c0-.26-.22-.46-.47-.45-.08,0-.15,.02-.22,.06l-7.51,3.38-1.07,.48c-.14,.08-.23,.23-.23,.39l.09,5.94v.84c0,.25,.2,.47,.45,.48s.47-.18,.48-.44c0-.01,0-.03,0-.04l-.1-5.94v-.84s-.24,.39-.24,.39l7.51-3.38,1.07-.48-.69-.4,.69,9.02,.1,1.29c.04,.58,.96,.58,.91,0h0Z"/>
          <path id="Path-168" class="cls-7" d="M173.85,78.89c4.83-4.18,3.06-8.02,3.18-10.89,.07-1.66-2.33-5.14-2.33-5.14l-13.78-3.05-3.02,4.6s-5.78,19.16,10.31,15.5"/>
          <path id="Path-169" d="M174.18,79.21c1.5-1.22,2.61-2.84,3.2-4.68,.34-1.36,.42-2.77,.25-4.16-.05-.6-.12-1.19-.14-1.79,.02-.59-.05-1.18-.19-1.75-.44-1.28-1.05-2.49-1.81-3.61-.16-.25-.36-.7-.66-.8-.1-.03-.2-.05-.31-.07l-2.04-.45-6.78-1.5c-1.53-.34-3.05-.7-4.58-1.01l-.08-.02c-.2-.05-.41,.04-.52,.21l-1.72,2.62-1.05,1.6c-.12,.16-.22,.33-.3,.51-.31,1.02-.54,2.06-.68,3.12-.36,2.01-.43,4.07-.21,6.1,.16,2.13,1.1,4.12,2.64,5.59,2.14,1.81,5.1,1.9,7.75,1.49,.46-.07,.92-.17,1.38-.27,.57-.13,.33-1.01-.24-.88-1.56,.39-3.17,.52-4.76,.39-1.11-.1-2.17-.47-3.1-1.09-.38-.27-.73-.59-1.04-.94-.15-.17-.28-.34-.4-.53-.13-.2-.26-.4-.37-.62-.22-.41-.4-.84-.53-1.29-.15-.48-.27-.97-.35-1.47-.05-.3-.07-.4-.1-.69-.03-.26-.05-.52-.07-.78-.03-.51-.04-1.02-.02-1.53,.01-.49,.04-.99,.08-1.48,.02-.24,.05-.48,.07-.72,.01-.11,.03-.22,.04-.34,0-.03,.02-.18,0-.07l.03-.19c.17-1.17,.41-2.33,.72-3.47,.02-.03,.03-.07,.03-.1,0,0-.09,.15,0,.03,.27-.36,.5-.76,.75-1.14l2.09-3.18,.14-.22-.52,.21,4.65,1.03,7.43,1.65,1.71,.38-.27-.21c.4,.58,.77,1.2,1.12,1.82,.6,.9,1,1.92,1.15,2.99,.02,1,.11,1.98,.18,2.98,.12,1.14,.03,2.3-.26,3.42-.56,1.68-1.59,3.17-2.97,4.28-.44,.39,.2,1.03,.65,.64h0Z"/>
          <path id="Path-170" d="M163.52,68.5c.08-.05,.16-.1,.25-.14,.04-.02,.08-.04,.13-.06,.06-.03,.02,0-.02,0l.08-.03c.13-.05,.26-.09,.39-.12,.07-.02,.14-.03,.21-.05,0,0,.14-.02,.04,0,.04,0,.07,0,.11-.01,.18-.02,.36-.02,.53,0,.07,0,.13,.01,.2,.03,.1,.02,.19,.04,.29,.07,.21,.06,.41,.14,.6,.25,.22,.13,.5,.06,.63-.16,.13-.22,.06-.5-.16-.63h0c-.8-.45-1.73-.58-2.62-.39-.4,.08-.78,.24-1.13,.46-.21,.13-.29,.4-.17,.62,.13,.22,.41,.29,.62,.17h0Z"/>
          <path id="Path-171" d="M157.68,68.51c.09-.04-.1,.03,.03-.01,.11-.04,.22-.08,.33-.11,.37-.1,.76-.15,1.14-.14,.66,0,1.25,.42,1.45,1.05,.12,.63,0,1.29-.33,1.84-.2,.39-.44,.75-.72,1.09-.17,.15-.28,.36-.32,.59-.02,.15,0,.3,.03,.45,.23,.84,1.22,.79,1.9,.69,.24-.07,.38-.32,.32-.56-.07-.24-.32-.38-.56-.32-.25,.05-.5,.04-.75-.02-.03-.01-.03-.02-.03-.03,0,0,0-.02,0-.03v-.13l-.12,.2c1.03-1.16,2.17-3.12,1.17-4.64-.87-1.3-2.71-1.35-4.02-.71-.53,.25-.06,1.04,.46,.79Z"/>
          <circle id="Oval-15" cx="158.31" cy="70.72" r=".59"/>
          <path id="Path-172" d="M157.95,70.73s0-.06,0-.08v.03s0-.02,0-.03c0,0,0-.02,0-.03s.01-.03,.02-.04c.01-.03,0,0,0,.01,0-.01,.04-.07,.04-.08,.03-.04-.03,.03,0,0,0,0,.01-.02,.02-.03s.04-.05,.05-.05c0,0-.04,.03,0,0l.04-.03,.03-.02h.03s-.02,0-.02,0c.03,0,.05-.02,.08-.02,0,0,.03-.01,.04,0-.03-.01-.04,0,0,0,.03,0,.06,0,.08,0,.03,0,.03,.02,0,0,.01,0,.03,0,.04,.01,.03,0,.05,.01,.08,.02h-.03s.03,0,.03,0l.03,.02s.02,.01,.03,.02c.03,.01-.04-.04,0,0,.02,.02,.04,.04,.07,.06s0-.01,0-.01,.02,.03,.03,.04,.04,.06,.04,.07-.02-.05,0-.01c0,.02,.01,.03,.01,.04s0,.02,0,.03c0,.01,0,.02,0,.03,0-.03,0-.04,0-.02v.07s0,.03,0,.05c.01-.02,0-.04,0-.01s-.01,.05-.02,.08v.02s-.01,.02,0-.01c0,.01-.01,.03-.02,.04,0,0-.01,.02-.02,.03s-.01,.04,0,0c-.01,.02-.03,.04-.05,.06,0,0-.02,.02-.03,.03-.02,.02,.04-.03,0,0-.03,.02-.05,.03-.08,.05-.03,.02,0,.01,.01,0-.01,0-.03,0-.04,0l-.07,.02s.06,0,0,0h-.09s-.08-.02-.09-.03-.04-.03-.02,0-.02-.01-.03-.02l-.03-.02-.03-.02s.03,.02,.01,0c-.02-.02-.04-.03-.06-.05h-.01s-.01-.03,0,0c-.01-.01-.02-.02-.03-.04,0-.01-.02-.03-.02-.04h0s-.01-.03,0,0c-.01-.03-.02-.06-.02-.09,0-.01,0-.02,0-.03,0,.03,0,.04,0,.01v-.04c-.01-.13-.12-.22-.25-.21-.11,.01-.2,.1-.21,.21,.01,.35,.23,.65,.56,.76,.43,.14,.89-.09,1.03-.51,.14-.43-.09-.89-.51-1.03-.43-.14-.89,.09-1.03,.51-.03,.09-.04,.18-.04,.27,0,.13,.09,.24,.21,.24,.13,0,.24-.09,.24-.21,0-.01,0-.02,0-.03h0Z"/>
          <circle id="Oval-16" cx="163.87" cy="70.37" r=".59"/>
          <path id="Path-173" d="M163.51,70.38s0-.06,0-.08v0s.01-.03,.01-.03c0-.01,.01-.03,.02-.04,.01-.03,0,0,0,.01,0-.01,.04-.07,.04-.08,.03-.04-.03,.03,0,0,0,0,.01-.02,.02-.03s.04-.05,.06-.05c0,0-.04,.03-.01,0l.04-.03,.03-.02h.03s-.02,0-.02,0c.03,0,.05-.02,.08-.02,0,0,.03-.01,.04,0-.03-.01-.04,0,0,0,.03,0,.06,0,.08,0,.03,0,.03,.02,0,0,.01,0,.03,0,.04,0,.03,0,.05,.01,.08,.02h-.03s.03,0,.03,0l.03,.02,.03,.02s-.04-.04,0,0c.02,.02,.04,.04,.07,.06s0-.01,0-.01,.02,.03,.03,.04,.04,.06,.04,.07-.02-.05,0-.01c0,.02,.01,.03,.01,.04s0,.02,0,.03c0,.01,0,.02,0,.03,0-.03,0-.04,0-.02v.07s0,.03,0,.05c.01-.02,0-.04,0-.01s-.01,.05-.02,.08v.02s-.01,.02,0-.01c0,.01-.01,.03-.02,.04l-.02,.03s-.01,.04,0,0c-.01,.02-.03,.04-.05,.06,0,0-.02,.02-.03,.03-.02,.02,.04-.03,0,0-.03,.02-.05,.03-.08,.05s0,.01,.01,0c-.01,0-.02,0-.04,0-.02,0-.05,.01-.07,.02s.06,0,0,0h-.09s-.08-.02-.09-.03-.04-.03-.02,0-.02-.01-.03-.02l-.03-.02-.03-.02s.03,.02,.01,0c-.02-.02-.04-.03-.06-.05h-.01s-.01-.03,0,0c-.01-.01-.02-.02-.03-.04,0-.01-.02-.03-.02-.04h0s-.01-.03,0,0c-.01-.03-.02-.06-.02-.09,0-.01,0-.02,0-.03,0,.03,0,.04,0,.01v-.03c-.01-.13-.12-.22-.25-.21-.11,.01-.2,.1-.21,.21,.01,.35,.23,.65,.56,.76,.43,.14,.89-.09,1.03-.52,.14-.43-.09-.89-.52-1.03-.43-.14-.89,.09-1.03,.52-.03,.09-.04,.18-.04,.27,0,.13,.12,.22,.24,.21,.11,0,.21-.1,.21-.21h0Z"/>
          <path id="Path-174" d="M162.42,75.15c.24,.46,.82,.64,1.28,.39,.45-.24,.63-.79,.41-1.25l-1.69,.86Z"/>
          <path id="Path-175" d="M162.23,75.27c.3,.57,1.02,.79,1.59,.49,.3-.16,.51-.44,.59-.77,.06-.27,.03-.56-.1-.81-.06-.11-.2-.14-.31-.08l-1.48,.75-.21,.11c-.11,.07-.13,.21-.06,.32,.06,.1,.19,.13,.29,.08l1.48-.75,.21-.1-.31-.08,.02,.04h0s.02,.07,.03,.1,.01,.06,.02,.09c0-.04,0,.02,0,.03v.09s0,.1,0,.05c0,.05-.02,.1-.04,.15,0,0-.03,.08-.02,.05-.01,.03-.03,.05-.04,.08s-.03,.04-.04,.06l-.03,.04s.01-.02,0,0-.09,.09-.11,.11c-.04,.03-.09,.06-.13,.08-.04,.02-.08,.04-.12,.04-.03,0-.06,.01-.09,.02s-.03,0,0,0h-.04c-.05,0-.1,0-.16,0,.05,0-.04,0-.05-.01-.03,0-.06-.02-.08-.02-.02,0-.05-.01-.07-.02,.04,.02-.04-.02-.05-.02-.03-.02-.05-.03-.08-.05l-.04-.03s.02,.01,0,0c-.04-.03-.08-.07-.11-.11,.02,.03-.03-.04-.03-.05-.02-.03-.03-.05-.05-.08-.06-.11-.2-.15-.31-.09-.11,.06-.15,.2-.09,.31h0s0,0,0,0Z"/>
          <path id="Path-176" d="M173.42,67.83c-.26-.07-.53-.07-.78,0-.57,.19-1.04,.61-1.29,1.15-.25,.5-.42,1.04-.52,1.59-.05,.25,.1,.49,.35,.54,.23,.05,.46-.08,.53-.3,.05-.25,.11-.5,.18-.75,.03-.1,.07-.2,.1-.3,.02-.04,.03-.08,.05-.13,.02-.06-.05,.1,0,.01l.04-.08c.07-.14,.15-.28,.24-.41l.02-.04s.07-.05-.02,.02c.02-.02,.04-.04,.05-.07,.04-.05,.09-.1,.13-.14,.02-.02,.04-.04,.07-.06l.03-.02c.05-.05-.09,.06-.05,.03s.08-.06,.13-.09,.08-.04,.12-.06c.05-.03-.14,.05-.04,.02l.07-.02s.07-.02,.1-.03h.05c.05-.01-.15,.02-.06,0,.06,0,.12,0,.17,0h.04c.08,0-.11-.02-.08-.01s.04,0,.06,.01c.02,0,.03,0,.05,.01,.24,.07,.5-.08,.56-.32,.06-.24-.08-.49-.32-.56h0Z"/>
          <path id="Path-177" d="M180.6,67.87l-3.56,8.96c-.5,1.26-1.73,2.08-3.09,2.05h-.09l-.79-5.52c1.02-1.27,1.61-2.83,1.66-4.46-.13-2.05-1.26-2.46-2.7-2.37-.62,.11-1.16,.48-1.49,1.01-1.03,1.46-.68,4.7-.68,4.7l-1.5-4.87h0c-.65-1.67-2.25-2.79-4.05-2.82l-6.46-.14s-9.19-.96-6-11.43h15.52c4.06,0,7.84,2.1,9.99,5.55l1.27,2.04h0c1.78,0,3.22,1.43,3.22,3.21,0,.37-.06,.73-.18,1.08l-1.07,3.02Z"/>
          <path id="Path-178" d="M180.16,67.75l-1.62,4.07c-.64,1.6-1.26,3.2-1.9,4.79-.18,.45-.46,.85-.83,1.17-.5,.41-1.12,.64-1.77,.65-.18-.03-.36,.02-.51,.13l.76,.2-.69-4.82-.1-.7-.12,.44c.38-.39,.69-.84,.91-1.34,.3-.62,.54-1.27,.71-1.93,.41-1.22,.2-2.56-.56-3.59-.85-.78-2.07-1-3.14-.54-1.15,.7-1.85,1.94-1.87,3.29-.11,.89-.12,1.79-.03,2.68l.9-.12-.82-2.67c-.23-.96-.54-1.9-.95-2.8-.86-1.55-2.49-2.52-4.26-2.55-.97-.02-1.95-.04-2.92-.06l-3.3-.07c-.06,0-.12,0-.19,0-.09,0,0,0,.04,0-.16-.03-.32-.05-.48-.08-1.5-.28-2.88-1-3.97-2.07-.75-.77-1.29-1.72-1.56-2.76-.34-1.48-.33-3.01,.03-4.48,.11-.49,.23-.98,.38-1.46l-.44,.33h15.28c1.34-.01,2.68,.2,3.95,.62,2.01,.7,3.79,1.95,5.12,3.61,.78,.96,1.32,2.08,2.01,3.09,.24,.35,.7,.24,1.07,.33,.43,.1,.84,.31,1.17,.61,.67,.6,1.02,1.49,.92,2.39-.09,.49-.24,.97-.44,1.43l-.66,1.84-.14,.39c-.2,.55,.68,.79,.88,.24l.97-2.73c.22-.54,.32-1.13,.3-1.72-.06-.87-.42-1.69-1.03-2.32-.69-.72-1.65-1.12-2.65-1.12l.4,.23c-.42-.67-.84-1.35-1.26-2.03-2.28-3.68-6.34-5.88-10.66-5.79h-11.27c-1.31,0-2.62-.04-3.92,0h-.06c-.2,0-.38,.14-.44,.33-.85,2.82-1.17,6.16,.63,8.7,1.11,1.49,2.69,2.55,4.48,3.03,.42,.13,.85,.22,1.29,.27,.59,.05,1.2,.03,1.79,.04l3.84,.08c.29,0,.58,.01,.86,.02,.87,.02,1.7,.32,2.39,.86,.57,.44,1,1.03,1.25,1.7,.13,.39,.24,.79,.36,1.18l1.04,3.39,.07,.23c.14,.47,.95,.41,.9-.12-.17-1.26-.08-2.54,.27-3.76,.13-.41,.37-.78,.68-1.07,.31-.31,.75-.47,1.19-.43,.65-.06,1.28,.28,1.58,.86,.31,.83,.32,1.75,.02,2.59-.21,.85-.58,1.66-1.09,2.38-.19,.25-.38,.38-.33,.73,.02,.14,.04,.28,.06,.41l.25,1.74,.47,3.32c.05,.36,.54,.41,.76,.2h0l-.32,.13c1.59,.04,3.04-.91,3.62-2.39,.19-.46,.37-.93,.55-1.4l2.37-5.96,.64-1.6c.06-.24-.08-.49-.32-.56-.24-.06-.49,.08-.56,.32h0Z"/>
          <path id="Path-179" class="cls-7" d="M238.29,105.2l6.11-5.11c.83-.5,1.58-1.13,2.22-1.85h0c1.31-1.68,3.18-2.82,5.26-3.24l.85-1.7s-7.19-8.85-8.24-8.65l-2.96-.25c.29-.72,.13-1.53-.41-2.09h0c-.75-.78-2-.81-2.79-.05-.09,.09-.17,.18-.25,.29l-1.37,1.96c-.86,1.22-1.44,2.62-1.7,4.08l-.31,1.75c-.35,1.95-1.49,3.67-3.15,4.74l-.46,.3"/>
          <path id="Path-180" d="M238.61,105.51l4.59-3.85c.57-.51,1.17-.99,1.8-1.43,.9-.65,1.72-1.4,2.45-2.23,.7-.74,1.51-1.37,2.41-1.86,.49-.26,1.01-.45,1.55-.58,.29-.07,.68-.06,.86-.33,.03-.06,.06-.12,.09-.18l.76-1.53c.1-.18,.07-.4-.07-.55-1.2-1.47-2.43-2.92-3.68-4.35-.89-1.01-1.8-2.02-2.76-2.97-.35-.36-.73-.69-1.12-1-.26-.25-.58-.41-.93-.47-.04,0-.07,0-.11,0-.18,0,.1,.04,.02,0-.09-.02-.17-.03-.26-.02l-1-.08-1.67-.14,.44,.58c.45-1.27-.22-2.67-1.49-3.12-.43-.15-.89-.18-1.34-.08-1.18,.26-1.77,1.45-2.41,2.35-.91,1.22-1.59,2.59-2,4.05-.27,1.05-.34,2.16-.64,3.2-.27,.96-.75,1.84-1.41,2.58-.54,.57-1.15,1.07-1.83,1.48-.49,.32-.03,1.11,.46,.79,1.28-.76,2.33-1.83,3.06-3.13,.52-1.11,.85-2.3,1-3.52,.24-1.56,.82-3.05,1.7-4.36,.45-.66,.9-1.32,1.38-1.97,.47-.69,1.41-.86,2.1-.39,.6,.41,.82,1.19,.53,1.86-.06,.25,.08,.5,.33,.56,.04,0,.07,.01,.11,.02l1.35,.11c.52,.04,1.05,.13,1.57,.13h.03c.36,.01-.04-.01,.05,0s-.14-.02-.05,0c.03,0,.05,.01,.08,.03-.16-.08,.03,.02,.07,.04,.07,.04,.14,.08,.2,.13l.1,.08,.03,.03c.09,.08,.18,.15,.27,.23,.18,.16,.36,.33,.54,.5,1.86,1.86,3.62,3.81,5.27,5.86,.45,.54,.91,1.09,1.35,1.64l-.07-.55-.85,1.7,.27-.21c-1.76,.34-3.38,1.21-4.63,2.49-.68,.66-1.26,1.39-2,1.98-.38,.3-.81,.53-1.18,.84l-4.43,3.71-1.55,1.3c-.46,.37,.19,1.01,.64,.64Z"/>
          <path id="Path-181" class="cls-7" d="M247.37,92.57c3.07-.87,6.26-1.26,9.45-1.16,3.24,.43,3.02,2.79-.17,3.13s-4.5-.18-8.07,1.93"/>
          <path id="Path-182" d="M247.49,93.01c.84-.25,1.69-.45,2.55-.61,2.03-.39,4.1-.58,6.17-.55,.81-.07,1.62,.17,2.26,.66,.08,.07,.14,.15,.18,.25,.01,.03,.02,.05,.03,.08,.01,.06,.01-.01,.01,.09,0,.06-.01,.12-.03,.18-.04,.1-.1,.18-.17,.26-.57,.46-1.29,.72-2.02,.73-.82,.08-1.65,.11-2.47,.16-.85,.04-1.7,.17-2.53,.4-1.09,.34-2.13,.82-3.11,1.42-.21,.14-.27,.42-.14,.63,.13,.2,.39,.27,.6,.16,.91-.56,1.88-1.01,2.89-1.33,.76-.21,1.54-.33,2.33-.37,.89-.06,1.79-.08,2.68-.18,.88-.04,1.71-.37,2.39-.93,.48-.42,.63-1.1,.38-1.69-.37-.63-.99-1.08-1.71-1.22-1.17-.25-2.37-.31-3.56-.17-1.12,.06-2.25,.19-3.36,.36-1.22,.17-2.43,.44-3.61,.79-.56,.17-.32,1.05,.24,.88Z"/>
          <path id="Path-183" class="cls-7" d="M247.24,89.08c3.26-1.29,6.65-2.25,10.11-2.84,3.26-.18,3.49,2.18,.42,3.11s-5.85,2.01-10.98,3.96"/>
          <path id="Path-184" d="M247.36,89.52c1.08-.44,2.2-.82,3.31-1.18s2.25-.68,3.39-.97c.62-.15,1.25-.29,1.88-.42,.62-.16,1.26-.24,1.89-.26,.39,0,.78,.07,1.14,.22,.12,.05,.22,.12,.32,.2,.03,.03,.06,.06,.08,.09,.02,.02,.09,.17,.07,.11,.07,.18,.04,.38-.08,.53-.19,.28-.45,.5-.75,.66-.78,.37-1.6,.66-2.44,.87-.81,.27-1.62,.55-2.43,.84-2.37,.85-4.72,1.76-7.08,2.65-.54,.21-.31,1.09,.24,.88,2.27-.86,4.53-1.73,6.81-2.56,.86-.31,1.72-.61,2.59-.9,.92-.24,1.83-.56,2.69-.96,.74-.32,1.27-1,1.39-1.8-.04-.74-.55-1.37-1.27-1.54-1.15-.29-2.35-.25-3.48,.1-1.33,.27-2.64,.6-3.94,.98-1.56,.45-3.09,.97-4.59,1.58-.24,.07-.38,.32-.32,.56,.07,.24,.32,.38,.56,.31Z"/>
          <path id="Path-185" class="cls-7" d="M244.72,86.75c3.3-2.37,6.84-4.41,10.55-6.07,3.14-.92,3.89,1.33,1.12,2.93s-5.24,3.28-9.79,6.34"/>
          <path id="Path-186" d="M244.95,87.14c2.77-2.02,5.72-3.8,8.8-5.3,.94-.59,2.02-.91,3.13-.91,.14,.02,.27,.05,.4,.1,.04,.02,.17,.1,.17,.09,.04,.03,.08,.07,.12,.12,.05,.07,.03,.04,.05,.09,.01,.04,.02,.07,.03,.11,.01,.08,0-.06,0,.02,.01,.14-.02,.29-.08,.41-.36,.85-1.35,1.29-2.1,1.74-.79,.47-1.56,.95-2.34,1.44-2.27,1.46-4.51,2.98-6.75,4.49-.48,.33-.03,1.11,.46,.79,2.15-1.44,4.28-2.9,6.46-4.3,.83-.53,1.66-1.06,2.51-1.56,.98-.44,1.82-1.12,2.47-1.98,.48-.67,.35-1.61-.3-2.12-.93-.49-2.03-.52-2.98-.07-2.32,.99-4.55,2.17-6.68,3.52-1.29,.8-2.58,1.63-3.81,2.52-.48,.35-.03,1.14,.45,.79Z"/>
          <path id="Path-187" class="cls-7" d="M241.3,85.05s5.94-6.14,10.35-8.84c2.94-1.43,4.06,.66,1.6,2.7s-4.61,4.12-8.58,7.9"/>
          <path id="Path-188" d="M241.62,85.38c2.29-2.39,4.74-4.62,7.33-6.69,.88-.7,1.79-1.36,2.73-1.96,.48-.31,1.04-.5,1.61-.53,.18-.01,.37,.01,.54,.08,.1,.04,.18,.11,.24,.2,.11,.29,.08,.61-.08,.88-.29,.52-.69,.98-1.18,1.34-.74,.62-1.47,1.25-2.19,1.9-2.14,1.92-4.2,3.92-6.28,5.9-.43,.41,.22,1.05,.65,.64,1.99-1.89,3.96-3.8,5.99-5.64,.78-.7,1.56-1.39,2.36-2.07,.82-.68,1.82-1.64,1.71-2.81-.16-.89-1.01-1.49-1.9-1.33-.04,0-.08,.02-.12,.03-1.22,.26-2.36,.83-3.3,1.65-1.97,1.47-3.86,3.05-5.64,4.75-1.06,.98-2.1,1.98-3.11,3.02-.41,.42,.24,1.07,.65,.64Z"/>
          <path id="Path-189" class="cls-7" d="M231.09,95.37l.46-.3c1.66-1.08,2.81-2.79,3.16-4.74l.31-1.75c.26-1.47,.84-2.86,1.69-4.08l1.37-1.96c.62-.89,1.85-1.11,2.74-.48,.1,.07,.2,.16,.29,.25h0c.53,.56,.69,1.37,.41,2.09l-1.2,2.99c1.46,2.41,2.35,5.11,2.62,7.91"/>
          <path id="Path-190" d="M231.32,95.76c1.05-.63,1.96-1.47,2.67-2.47,.63-.98,1.05-2.09,1.23-3.25,.14-1.03,.37-2.04,.69-3.03,.41-1.03,.96-2.01,1.62-2.9l.77-1.1c.17-.29,.42-.53,.71-.71,.76-.37,1.67-.06,2.04,.7,.18,.36,.2,.78,.08,1.16-.22,.66-.52,1.3-.78,1.94l-.4,1c-.09,.19-.07,.41,.04,.58,1.41,2.31,2.26,4.91,2.5,7.6,.03,.58,.95,.59,.91,0-.14-1.96-.62-3.87-1.42-5.66-.35-.86-.77-1.69-1.26-2.48l.05,.35c.4-.99,.8-1.97,1.19-2.96,.48-1.25-.14-2.65-1.39-3.13-.73-.28-1.54-.19-2.19,.23-.5,.41-.92,.91-1.24,1.47-.35,.5-.72,1-1.05,1.52-.69,1.07-1.17,2.26-1.44,3.51-.13,.62-.23,1.25-.34,1.86-.17,1.04-.56,2.04-1.16,2.92-.62,.83-1.4,1.53-2.29,2.06-.49,.32-.03,1.11,.46,.79Z"/>
          <path id="Path-191" class="cls-1" d="M164.04,99.95l-5.02-.32-1.29,11.36,.94-.21c2.48-.45,4.39-2.43,4.75-4.92l.61-5.91Z"/>
          <path id="Path-192" d="M164.04,99.5l-5.02-.32c-.25,0-.45,.21-.46,.45l-.43,3.85-.69,6.1-.17,1.41c-.03,.31,.32,.5,.58,.44,1.12-.19,2.2-.57,3.18-1.13,1.24-.77,2.16-1.94,2.62-3.32,.18-.68,.29-1.39,.33-2.09l.3-2.92,.21-2.02c0-.25-.21-.45-.46-.45-.25,0-.45,.21-.46,.45l-.46,4.41c-.05,.53-.09,1.06-.17,1.58-.2,1.31-.9,2.49-1.96,3.29-1.01,.69-2.17,1.14-3.38,1.33l.58,.44,.44-3.85,.69-6.1,.16-1.41-.46,.46,5.02,.32c.59,.03,.59-.88,0-.92Z"/>
        </g>
      </g>
    </g>
  </g>
</svg>