<?xml version="1.0" encoding="UTF-8"?>
<svg id="Layer_2" data-name="Layer 2" xmlns="http://www.w3.org/2000/svg" viewBox="0 0 1497.37 961.21">
  <defs>
    <style>
      .cls-1, .cls-2, .cls-3, .cls-4, .cls-5, .cls-6, .cls-7, .cls-8, .cls-9, .cls-10, .cls-11, .cls-12 {
        fill: #fff;
      }

      .cls-2, .cls-13 {
        stroke: #007cff;
      }

      .cls-2, .cls-13, .cls-14, .cls-15, .cls-16, .cls-17 {
        stroke-miterlimit: 10;
        stroke-width: 3.34px;
      }

      .cls-3 {
        opacity: .9;
      }

      .cls-13, .cls-18, .cls-19, .cls-20, .cls-14, .cls-15, .cls-17 {
        fill: none;
      }

      .cls-4, .cls-21, .cls-9 {
        opacity: .4;
      }

      .cls-22 {
        fill: #f5f5f5;
      }

      .cls-18 {
        stroke: #1a2e35;
        stroke-width: 1.67px;
      }

      .cls-18, .cls-19, .cls-20 {
        stroke-linecap: round;
        stroke-linejoin: round;
      }

      .cls-19 {
        stroke-width: 5.01px;
      }

      .cls-19, .cls-20, .cls-14, .cls-15, .cls-16, .cls-17 {
        stroke: #fff;
      }

      .cls-20 {
        stroke-width: 6.68px;
      }

      .cls-5, .cls-21, .cls-23, .cls-9, .cls-24, .cls-25, .cls-11, .cls-12 {
        isolation: isolate;
      }

      .cls-5, .cls-24 {
        opacity: .3;
      }

      .cls-6 {
        opacity: .5;
      }

      .cls-7 {
        opacity: .7;
      }

      .cls-26, .cls-16 {
        fill: #007cff;
      }

      .cls-27 {
        fill: #b84d3c;
      }

      .cls-23, .cls-8, .cls-11 {
        opacity: .2;
      }

      .cls-28 {
        fill: #cc7a63;
      }

      .cls-29, .cls-25 {
        opacity: .1;
      }

      .cls-15 {
        stroke-dasharray: 0 0 15.12 15.12;
      }

      .cls-10, .cls-12 {
        opacity: .6;
      }

      .cls-30 {
        fill: #fcb373;
      }

      .cls-31 {
        fill: #1a2e35;
      }

      .cls-17 {
        stroke-dasharray: 0 0 17.64 17.64;
      }
    </style>
  </defs>
  <g id="Layer_1-2" data-name="Layer 1">
    <g>
      <ellipse id="_Path_" data-name="&amp;lt;Path&amp;gt;" class="cls-22" cx="763.39" cy="923.41" rx="647.2" ry="37.8"/>
      <g>
        <g>
          <g>
            <rect class="cls-26" x="353.49" y="775.23" width="224.14" height="145.78"/>
            <rect class="cls-12" x="353.49" y="775.23" width="224.14" height="145.78"/>
          </g>
          <rect class="cls-26" x="361.69" y="802.57" width="207.74" height="111.16"/>
          <g>
            <rect class="cls-1" x="378.62" y="819.18" width="153.67" height="4.78"/>
            <rect class="cls-1" x="378.62" y="833.82" width="73.73" height="4.78"/>
            <rect class="cls-1" x="378.62" y="848.47" width="92.86" height="4.78"/>
            <rect class="cls-1" x="378.62" y="863.11" width="32.73" height="4.78"/>
            <rect class="cls-1" x="378.62" y="877.76" width="21.19" height="4.78"/>
          </g>
        </g>
        <g>
          <g>
            <polygon class="cls-26" points="854.63 923.41 672.15 923.41 703.05 680.84 823.73 680.84 854.63 923.41"/>
            <polygon class="cls-10" points="854.62 923.42 672.16 923.42 693.3 757.46 703.06 680.85 823.72 680.85 838.12 793.87 854.62 923.42"/>
            <polygon class="cls-25" points="838.12 793.87 693.3 757.46 703.06 680.85 823.72 680.85 838.12 793.87"/>
          </g>
          <g>
            <path class="cls-26" d="M1193.54,82.72H333.23c-12.16,0-22.02,9.86-22.02,22.02V687.15c0,12.16,9.86,22.02,22.02,22.02h860.31c12.16,0,22.02-9.86,22.02-22.02V104.73c0-12.16-9.86-22.02-22.02-22.02Z"/>
            <path class="cls-7" d="M1193.54,82.72H333.23c-12.16,0-22.02,9.86-22.02,22.02V687.15c0,12.16,9.86,22.02,22.02,22.02h860.31c12.16,0,22.02-9.86,22.02-22.02V104.73c0-12.16-9.86-22.02-22.02-22.02Z"/>
          </g>
          <rect class="cls-26" x="340.19" y="104.28" width="846.41" height="561.62"/>
          <g>
            <rect class="cls-26" x="606.69" y="905.18" width="313.4" height="17.93" rx="3.46" ry="3.46"/>
            <rect class="cls-7" x="606.69" y="905.18" width="313.4" height="17.93" rx="3.46" ry="3.46"/>
          </g>
          <g>
            <rect class="cls-23" x="340.19" y="104.81" width="846.41" height="83.71"/>
            <rect class="cls-4" x="340.19" y="189.51" width="362.71" height="476.38"/>
            <g>
              <g>
                <polyline class="cls-14" points="1056.34 311.03 1056.34 319.38 1047.99 319.38"/>
                <line class="cls-17" x1="1030.36" y1="319.38" x2="756.98" y2="319.38"/>
                <polyline class="cls-14" points="748.16 319.38 739.82 319.38 739.82 311.03"/>
                <line class="cls-15" x1="739.82" y1="295.91" x2="739.82" y2="152.28"/>
                <polyline class="cls-14" points="739.82 144.72 739.82 136.38 748.16 136.38"/>
                <line class="cls-17" x1="765.8" y1="136.38" x2="1039.17" y2="136.38"/>
                <polyline class="cls-14" points="1047.99 136.38 1056.34 136.38 1056.34 144.72"/>
                <line class="cls-15" x1="1056.34" y1="159.84" x2="1056.34" y2="303.47"/>
              </g>
              <g>
                <rect class="cls-16" x="1051.05" y="131.09" width="10.58" height="10.58"/>
                <rect class="cls-16" x="1051.05" y="314.09" width="10.58" height="10.58"/>
                <rect class="cls-16" x="734.53" y="131.09" width="10.58" height="10.58"/>
                <rect class="cls-16" x="734.53" y="314.09" width="10.58" height="10.58"/>
              </g>
              <g>
                <rect class="cls-16" x="892.79" y="131.09" width="10.58" height="10.58"/>
                <rect class="cls-16" x="892.79" y="314.09" width="10.58" height="10.58"/>
              </g>
              <g>
                <rect class="cls-16" x="1051.05" y="222.59" width="10.58" height="10.58"/>
                <rect class="cls-16" x="734.53" y="222.59" width="10.58" height="10.58"/>
              </g>
            </g>
            <path class="cls-7" d="M950.14,197.85h77.45c3.49,0,6.32,2.83,6.32,6.32v20.69c0,3.49-2.83,6.32-6.32,6.32h-77.45c-3.49,0-6.32-2.83-6.32-6.32v-20.69c0-3.49,2.83-6.32,6.32-6.32Z"/>
            <path class="cls-7" d="M816.62,197.85h77.45c3.49,0,6.32,2.83,6.32,6.32v20.69c0,3.49-2.83,6.32-6.32,6.32h-77.45c-3.49,0-6.32-2.83-6.32-6.32v-20.69c0-3.49,2.83-6.32,6.32-6.32Z"/>
            <path class="cls-7" d="M644.72,603.71h77.45c3.49,0,6.32,2.83,6.32,6.32v20.69c0,3.49-2.83,6.32-6.32,6.32h-77.45c-3.49,0-6.32-2.83-6.32-6.32v-20.69c0-3.49,2.83-6.32,6.32-6.32Z"/>
            <g>
              <line class="cls-19" x1="1130.75" y1="134.58" x2="1158.92" y2="134.58"/>
              <line class="cls-19" x1="1130.75" y1="147.93" x2="1158.92" y2="147.93"/>
              <line class="cls-19" x1="1130.75" y1="161.28" x2="1158.92" y2="161.28"/>
            </g>
            <rect class="cls-6" x="397.57" y="263.36" width="283.91" height="283.91"/>
            <g>
              <line class="cls-13" x1="516.41" y1="286.58" x2="516.41" y2="531.45"/>
              <path class="cls-13" d="M638.85,531.45h0c-67.62,0-122.44-54.82-122.44-122.44h0c0-67.62,54.82-122.44,122.44-122.44h0"/>
              <rect class="cls-2" x="633.56" y="281.29" width="10.58" height="10.58"/>
              <rect class="cls-2" x="633.56" y="526.16" width="10.58" height="10.58"/>
              <rect class="cls-2" x="511.12" y="403.72" width="10.58" height="10.58"/>
              <path class="cls-2" d="M519.16,286.58c0,1.51-1.23,2.74-2.74,2.74s-2.74-1.23-2.74-2.74,1.23-2.74,2.74-2.74,2.74,1.23,2.74,2.74Z"/>
              <path class="cls-2" d="M519.16,531.45c0,1.51-1.23,2.74-2.74,2.74s-2.74-1.23-2.74-2.74,1.23-2.74,2.74-2.74,2.74,1.23,2.74,2.74Z"/>
            </g>
            <path class="cls-7" d="M986.79,607.74h-85.94c-13.72,0-24.83-11.12-24.83-24.83h0c0-13.72,11.12-24.83,24.83-24.83h85.94c13.72,0,24.83,11.12,24.83,24.83h0c0,13.72-11.12,24.83-24.83,24.83Z"/>
            <path class="cls-7" d="M1062.31,395.94h-265.5c-3,0-5.43-2.43-5.43-5.43h0c0-3,2.43-5.43,5.43-5.43h265.5c3,0,5.43,2.43,5.43,5.43h0c0,3-2.43,5.43-5.43,5.43Z"/>
            <path class="cls-7" d="M1062.31,435.58h-265.5c-3,0-5.43-2.43-5.43-5.43h0c0-3,2.43-5.43,5.43-5.43h265.5c3,0,5.43,2.43,5.43,5.43h0c0,3-2.43,5.43-5.43,5.43Z"/>
            <path class="cls-7" d="M1062.31,475.23h-165.36c-3,0-5.43-2.43-5.43-5.43h0c0-3,2.43-5.43,5.43-5.43h165.36c3,0,5.43,2.43,5.43,5.43h0c0,3-2.43,5.43-5.43,5.43Z"/>
            <g>
              <rect class="cls-21" x="366.92" y="128.02" width="18.76" height="18.76"/>
              <rect class="cls-21" x="403.39" y="128.02" width="18.76" height="18.76" rx="4.81" ry="4.81"/>
              <path class="cls-21" d="M448.44,128.02h1.59c4.74,0,8.58,3.85,8.58,8.58v1.59c0,4.74-3.85,8.58-8.58,8.58h-1.59c-4.74,0-8.58-3.85-8.58-8.58v-1.59c0-4.74,3.85-8.58,8.58-8.58Z"/>
            </g>
            <g>
              <path class="cls-3" d="M424.43,590.49v-7.31l-3.76-.35c-.51-2.45-1.48-4.73-2.81-6.75l2.42-2.92-5.17-5.17-2.92,2.42c-2.02-1.33-4.3-2.3-6.75-2.81l-.35-3.76h-7.31l-.35,3.76c-2.45,.51-4.73,1.48-6.75,2.81l-2.92-2.42-5.17,5.17,2.42,2.92c-1.33,2.02-2.3,4.3-2.81,6.75l-3.76,.35v7.31l3.76,.35c.51,2.45,1.48,4.73,2.81,6.75l-2.42,2.92,5.17,5.17,2.92-2.42c2.02,1.33,4.3,2.3,6.75,2.81l.35,3.76h7.31l.35-3.76c2.45-.51,4.73-1.48,6.75-2.81l2.92,2.42,5.17-5.17-2.42-2.92c1.33-2.02,2.3-4.3,2.81-6.75l3.76-.35Zm-23,6.24c-5.46,0-9.9-4.43-9.9-9.9s4.43-9.9,9.9-9.9,9.89,4.43,9.89,9.9-4.43,9.9-9.89,9.9Z"/>
              <path class="cls-10" d="M454.06,611.12v-5.73l-2.95-.28c-.4-1.92-1.16-3.7-2.2-5.29l1.89-2.29-4.05-4.05-2.29,1.89c-1.59-1.04-3.37-1.8-5.29-2.2l-.28-2.95h-5.73l-.28,2.95c-1.92,.4-3.71,1.16-5.29,2.2l-2.29-1.89-4.05,4.05,1.89,2.29c-1.04,1.59-1.8,3.37-2.2,5.29l-2.95,.28v5.73l2.95,.28c.4,1.92,1.16,3.7,2.2,5.29l-1.89,2.29,4.05,4.05,2.29-1.89c1.59,1.04,3.37,1.8,5.29,2.2l.28,2.95h5.73l.28-2.95c1.92-.4,3.71-1.16,5.29-2.2l2.29,1.89,4.05-4.05-1.89-2.29c1.04-1.59,1.8-3.37,2.2-5.29l2.95-.28Zm-18.03,4.89c-4.28,0-7.75-3.47-7.75-7.75s3.47-7.75,7.75-7.75,7.75,3.47,7.75,7.75-3.47,7.75-7.75,7.75Z"/>
              <path class="cls-4" d="M424.43,627.38v-4.81l-2.48-.23c-.33-1.61-.97-3.11-1.85-4.44l1.59-1.92-3.4-3.4-1.92,1.59c-1.33-.87-2.83-1.51-4.44-1.85l-.23-2.48h-4.81l-.23,2.48c-1.61,.33-3.11,.97-4.44,1.85l-1.92-1.59-3.4,3.4,1.59,1.92c-.87,1.33-1.51,2.83-1.85,4.44l-2.48,.23v4.81s2.48,.23,2.48,.23c.33,1.61,.97,3.11,1.85,4.44l-1.59,1.92,3.4,3.4,1.92-1.59c1.33,.87,2.83,1.51,4.44,1.85l.23,2.48h4.81l.23-2.48c1.61-.33,3.11-.97,4.44-1.85l1.92,1.59,3.4-3.4-1.59-1.92c.87-1.33,1.51-2.83,1.85-4.44l2.48-.23Zm-15.14,4.11c-3.6,0-6.51-2.92-6.51-6.51s2.92-6.51,6.51-6.51,6.51,2.92,6.51,6.51-2.92,6.51-6.51,6.51Z"/>
            </g>
          </g>
          <g>
            <g>
              <polygon class="cls-26" points="1054.38 134.49 1068.55 172.34 1092.23 148.65 1054.38 134.49"/>
              <rect class="cls-26" x="1076.66" y="152.2" width="7.46" height="16.58" transform="translate(202.95 810.96) rotate(-45)"/>
            </g>
            <polygon class="cls-4" points="1092.23 148.65 1054.38 134.49 1068.55 172.34 1077.75 163.13 1083.61 168.99 1088.89 163.72 1083.03 157.85 1092.23 148.65"/>
          </g>
          <g>
            <path class="cls-31" d="M474.52,269.76l35.61,13.32-18.67-18.67c-1.4,.78-3.18,.63-4.37-.56-1.44-1.44-1.44-3.77,0-5.21,1.44-1.44,3.77-1.44,5.21,0,1.19,1.19,1.34,2.97,.56,4.37l18.67,18.67-13.33-35.61-11.79,2.62-.46-4.26-2.23-2.23-13.07,13.07,2.23,2.23,4.26,.46-2.62,11.8Z"/>
            <path class="cls-8" d="M474.52,269.76l35.61,13.32-18.67-18.67c-1.4,.78-3.18,.63-4.37-.56-1.44-1.44-1.44-3.77,0-5.21,1.44-1.44,3.77-1.44,5.21,0,1.19,1.19,1.34,2.97,.56,4.37l18.67,18.67-13.33-35.61-11.79,2.62-.46-4.26-2.23-2.23-13.07,13.07,2.23,2.23,4.26,.46-2.62,11.8Z"/>
          </g>
          <g class="cls-29">
            <polygon class="cls-1" points="463.97 104.28 338.53 573 338.53 104.28 463.97 104.28"/>
            <polygon class="cls-1" points="605.54 104.28 455.23 665.89 351.68 665.89 501.96 104.28 605.54 104.28"/>
            <polygon class="cls-1" points="756.08 104.28 605.77 665.89 558.94 665.89 709.25 104.28 756.08 104.28"/>
            <polygon class="cls-1" points="894.71 104.28 744.4 665.89 727.64 665.89 877.95 104.28 894.71 104.28"/>
          </g>
        </g>
        <g>
          <g>
            <path class="cls-31" d="M1403.96,228.17c11.84,13.68,72.12,129.8,60.47,156.91-11.65,27.11-108.24-4.14-108.24-4.14l5.77-38.26s37.54,1.32,41.13-2.24c3.59-3.56-50.78-57.86-50.78-57.86l51.65-54.42Z"/>
            <g class="cls-23">
              <path class="cls-1" d="M1464.43,385.1c-1.33,3.1-3.77,5.44-7.04,7.14-.03,0-.07,.03-.1,.07-.6,.3-1.27,.6-1.94,.87-.07,.03-.17,.07-.27,.1-.57,.23-1.2,.47-1.84,.63-2.5,.83-5.31,1.4-8.34,1.74-.8,.1-1.6,.17-2.44,.23-1.2,.1-2.4,.17-3.64,.2-1.04,.03-2.1,.07-3.17,.07-32.38,.03-79.48-15.19-79.48-15.19l5.77-38.29s37.52,1.34,41.12-2.24c.87-.87-1.7-4.74-6.08-10.11t-.07-.07c-10.61-13.05-31.88-34.78-40.66-43.66-2.47-2.5-3.97-4.01-3.97-4.01l51.64-54.41c11.85,13.65,72.13,129.78,60.48,156.92Z"/>
            </g>
          </g>
          <path class="cls-23" d="M1457.39,392.24s-.07,.03-.1,.07c-.6,.3-1.27,.6-1.94,.87-.07,.03-.17,.07-.27,.1-.57,.23-1.2,.47-1.84,.63-2.5,.83-5.31,1.4-8.34,1.74-.8,.1-1.6,.17-2.44,.23-1.2,.1-2.4,.17-3.64,.2-1.04,.03-2.1,.07-3.17,.07-32.38,.03-79.48-15.19-79.48-15.19l5.77-38.29s42.26,3.57,45.86,0c.07-.07,.07-.1,.1-.17,.67-1.4-4.01-6.14-10.92-12.18t-.07-.07c-10.61-13.05-31.88-34.78-40.66-43.66l24.43-26.1,18.59-2s41.06,66.46,58.08,133.75Z"/>
          <g>
            <path class="cls-31" d="M1282.16,224.37c-6.69,4.85-9.98,11.73-7.35,15.36l176.39,243.19c2.63,3.63,10.19,2.64,16.88-2.22,6.69-4.85,9.98-11.73,7.35-15.36l-176.39-243.19c-2.63-3.63-10.19-2.64-16.88,2.22Z"/>
            <path class="cls-7" d="M1299.03,222.15l176.39,243.19c2.63,3.62-.67,10.51-7.34,15.35-6.7,4.86-14.24,5.84-16.87,2.21l-176.39-243.19c-1.45-2-1.1-4.98,.64-8.09,.8-1.45,1.93-2.97,3.35-4.37,.97-.99,2.11-1.98,3.35-2.88,6.67-4.84,14.24-5.83,16.87-2.21Z"/>
            <path class="cls-24" d="M1475.42,465.34c2.63,3.62-.67,10.51-7.34,15.35-6.7,4.86-14.24,5.84-16.87,2.21-1.45-2,2.19-5.02,4.3-9.41l-180.05-241.87c.8-1.45,1.93-2.97,3.35-4.37l176.41,243.21c1-1.01,2.09-2.01,3.33-2.91,6.67-4.84,14.24-5.83,16.87-2.21Z"/>
          </g>
          <g>
            <path class="cls-26" d="M1260.32,217.62c-5.65,6.03-7.58,13.41-4.3,16.47l219.31,205.32c3.27,3.06,10.5,.65,16.15-5.38,5.65-6.03,7.58-13.41,4.3-16.47l-219.31-205.32c-3.27-3.06-10.5-.65-16.15,5.38Z"/>
            <path class="cls-7" d="M1276.46,212.24l219.31,205.32c3.27,3.06,1.34,10.44-4.3,16.46-5.66,6.04-12.88,8.43-16.14,5.37l-219.31-205.32c-1.8-1.69-2.02-4.68-.9-8.07,.52-1.58,1.33-3.28,2.46-4.92,.77-1.16,1.69-2.35,2.74-3.47,5.63-6.02,12.88-8.43,16.14-5.37Z"/>
            <path class="cls-24" d="M1495.77,417.56c3.27,3.06,1.34,10.44-4.3,16.46-5.66,6.04-12.88,8.43-16.14,5.37-1.8-1.69,1.2-5.34,2.44-10.05l-222.65-203.34c.52-1.58,1.33-3.28,2.46-4.92l219.33,205.34c.79-1.18,1.67-2.37,2.72-3.49,5.63-6.02,12.88-8.43,16.14-5.37Z"/>
          </g>
          <path class="cls-30" d="M1313.02,872.88l-16.72,.27c-16.99-79.81-29.01-178.58-36.48-253.09-1.17-11.68-2.24-22.73-3.17-33.05-.43-4.91-.87-9.61-1.27-14.15-2-22.4-3.37-40.16-4.21-51.14-.6-8.01-.9-12.42-.9-12.42h60.42l-.57,15.39-1.87,50.8-.2,5.81-1.27,33.55-2.1,57.11c20.73,80.41,8.34,200.91,8.34,200.91Z"/>
          <path class="cls-30" d="M1448.54,868.61l-16.46,3.1c-32.95-82.35-63.89-187.8-84.02-261.46-3.1-11.42-5.98-22.1-8.55-31.78-.13-.5-.23-.97-.37-1.44-5.07-19.23-8.98-34.55-11.42-44.26-1.87-7.61-2.9-11.78-2.9-11.78l59.55-10.28,3.37,25.03,4.97,36.78,.97,7.21,3.37,25.07,9.05,67.23c34.11,75.71,42.43,196.57,42.43,196.57Z"/>
          <path class="cls-23" d="M1392.73,572.53l-53.21,5.94c-.13-.5-.23-.97-.37-1.44-5.07-19.23-8.98-34.55-11.42-44.26l60.02,2.97,4.97,36.78Z"/>
          <path class="cls-23" d="M1310.12,524.69l-1.87,50.8-.2,5.81-51.4,5.71c-.43-4.91-.87-9.61-1.27-14.15-2-22.4-3.37-40.16-4.21-51.14l58.95,2.97Z"/>
          <path class="cls-31" d="M1263.65,928.36c3.11-2.52,6.66-4.45,10.46-5.69h0s11.38-11.29,16.86-45.29l14.9-3.89c5.18-1.26,10.6,.86,13.56,5.29,.41,.6,.73,1.26,.95,1.96,.77,3.64,1.3,7.33,1.59,11.05,1.5,11.5,.21,37.33,.21,37.33h-2.69l-1.07-23.44c-.4-7.96-6.49,1.38-8.23,9.94-1.74,8.57-5.45,17.69-22.89,18.11-20.35,.4-28.79-.4-23.65-5.39Z"/>
          <path class="cls-31" d="M1319.95,879.06c.98-7.96,1.29-21.79,1.29-21.79l-33.11,3.67s4.01,15.73,.7,27.54c16.68-4.38,31.12-9.42,31.12-9.42Z"/>
          <path class="cls-31" d="M1398.37,928.36c3.11-2.52,6.66-4.45,10.46-5.69h0s11.38-11.29,16.86-45.29l14.9-3.89c5.18-1.26,10.6,.86,13.55,5.29,.41,.6,.73,1.26,.95,1.96,.77,3.64,1.3,7.33,1.59,11.05,1.5,11.5,.21,37.33,.21,37.33h-2.69l-1.07-23.44c-.4-7.96-6.49,1.38-8.23,9.94-1.74,8.57-5.45,17.69-22.89,18.11-20.35,.4-28.79-.4-23.65-5.39Z"/>
          <path class="cls-31" d="M1454.67,879.06c.98-7.96,1.29-21.79,1.29-21.79l-33.11,3.67s4.01,15.73,.7,27.54c16.68-4.38,31.12-9.42,31.12-9.42Z"/>
          <path class="cls-26" d="M1398.47,556.14l-62.99,8.04-2.44,.3-12.95-47.47-3.4,50.87-67.49-3.54c-30.08-176.48,21.33-218.17,21.33-218.17l91.56,18.43c41.47,70.48,31.6,152.42,31.6,152.42l4.78,39.12Z"/>
          <g>
            <path class="cls-18" d="M1311.77,126.3c0,6.93-3.07,12.54-6.87,12.54s-6.87-5.62-6.87-12.54,3.07-12.55,6.87-12.55,6.87,5.62,6.87,12.55Z"/>
            <path class="cls-30" d="M1356.98,168.34c-.25,.21-.52,.43-.8,.58-3.7,2.63-7.96,5.16-12.79,6.26-13.52,3.12-22.77,1.27-28.79-4.85h-.03c-8.45-9.18-10.56-25.44-9.36-45.06,.52-9,1.81-16.82,4.28-22.91,.03-.06,.03-.29,.06-.35,.12-.25,.21-.59,.34-.83,3.7-8.51,9.85-14.02,19.68-16.34,3.4-.8,7.25-1.24,11.6-1.3,38.25-.4,45.13,62.95,15.82,84.8Z"/>
            <path class="cls-23" d="M1356.19,168.92c-3.7,2.63-7.96,4.62-12.79,5.72-13.52,3.12-22.77,.83-28.79-5.39,6.64,1.47,15.57,2.02,24.26-1.99,5.48-2.51,11.57-1.22,17.32,1.65Z"/>
            <path class="cls-30" d="M1360.07,203.47c2.36,10.89-11.75,15.33-11.75,15.33-23.07-9.85-27.35-22.12-27.35-22.12,19.25-10.04,13.68-38.43,13.68-38.43l3.92,1.93,27.48,5.38s-7.63,14.63-8.64,17.97c0,.03-.03,.06-.03,.09-5.17,17.44,2.69,19.86,2.69,19.86Z"/>
            <path class="cls-31" d="M1309.48,102.11s-2.11,26.82,23.31,38.34c0,0,10.91,27.86,26.98,28.26,21.91,.54,41.21-30.63,33.62-62.38-9.84-41.17-72.21-44.52-83.92-4.22Z"/>
            <path class="cls-30" d="M1319.91,132.75c0-4.18,3.37-11.21,9.88-10.26,6.73,.99,10.46,17.58-6.08,21.29-2.37,.53-3.81-2.3-3.8-11.03Z"/>
            <path class="cls-31" d="M1356.19,73.6s-25.59-6.47-39.73,3.82c-16.52,12.02-22.78,24.44-3.22,43.74,0,0,42.96-13.93,57.25-10.98,14.28,2.95,24.5,7.11,24.5,7.11,3.01-28.37-24.5-49.49-38.79-43.69Z"/>
            <path class="cls-31" d="M1319.91,126.29s6.84,30.93-3.81,57.28c0,0,60.74,21.08,81.87,9.63,21.13-11.44,1.76-49.88,.88-72.04-.88-22.16-10.51-54.91-42.67-47.56-32.16,7.35-36.27,52.69-36.27,52.69Z"/>
            <line class="cls-18" x1="1298.03" y1="124.32" x2="1323.7" y2="124.32"/>
          </g>
          <path class="cls-23" d="M1335.49,564.18l-2.44,.3-12.95-47.47s27.77-47.43,19.09-72.13c1.24,1.74,31.14,46.1-3.7,119.3Z"/>
          <g>
            <path class="cls-31" d="M1283.48,201.07s30.54-10.9,76.59,2.39c46.05,13.29,47.74,32.9,47.74,32.9,0,0-29.18,66.12-33.76,140.98l-119.98-4.48s-14.31-105.65,29.41-171.79Z"/>
            <path class="cls-11" d="M1407.82,236.36s-29.17,66.13-33.78,141l-119.97-4.47s-2-14.72-2.2-36.58c-.17-15.25,.53-34.01,3.34-53.71,4.01-27.71,12.25-57.28,28.27-81.51,0,0,30.54-10.88,76.57,2.4,46.06,13.29,47.77,32.88,47.77,32.88Z"/>
          </g>
          <path class="cls-23" d="M1281.81,287.1s-4.97,30.44-29.94,49.2c-.17-15.25,.53-34.01,3.34-53.71l26.6,4.51Z"/>
          <path class="cls-30" d="M1149.28,198.98l-15.13-22.44s-2.33-9.74-5.24-11.97c-2.91-2.23-32-14.56-35.49-14.5-3.49,.06-3.49,22.63,0,26.47,3.49,3.84,21.82,12.06,26.61,12.89,4.8,.83,2.47,0,2.47,0l13.38,26.68,13.38-17.13Z"/>
          <g>
            <path class="cls-31" d="M1283.48,201.07s-42.09,16.57-93.54,48.26l-48.81-66.59s-13.18,4.09-18.04,26.98c0,0,25.08,95.52,57.65,104.98,32.57,9.46,101.07-27.59,101.07-27.59,0,0,19.89-49.78,1.67-86.04Z"/>
            <path class="cls-11" d="M1283.48,201.07s-42.09,16.57-93.54,48.26l-48.81-66.59s-13.18,4.09-18.04,26.98c0,0,25.08,95.52,57.65,104.98,32.57,9.46,101.07-27.59,101.07-27.59,0,0,19.89-49.78,1.67-86.04Z"/>
          </g>
          <g>
            <path class="cls-31" d="M1314.36,196.88s10.65,76.22,44.4,79.3c33.75,3.08,48.86-53.23,43.14-60.07-5.72-6.84-49.19-19.75-87.54-19.23Z"/>
            <path class="cls-5" d="M1314.36,196.88s10.65,76.22,44.4,79.3c33.75,3.08,48.86-53.23,43.14-60.07-5.72-6.84-49.19-19.75-87.54-19.23Z"/>
          </g>
        </g>
        <g id="_Group_" data-name="&amp;lt;Group&amp;gt;">
          <polygon class="cls-28" points="113.69 898.14 138.41 898.14 140.45 840.88 115.7 840.88 113.69 898.14"/>
          <path class="cls-31" d="M141.83,895.27h-30.03c-1.01,0-1.89,.71-2.11,1.7l-4.87,22.01c-.42,1.97,.84,3.91,2.81,4.32,.26,.06,.53,.08,.8,.08,9.72-.16,16.79-.75,28.99-.75,7.52,0,30.19,.79,40.56,.79s11.73-10.25,7.48-11.19c-19.05-4.15-33.39-9.9-39.49-15.38-1.13-1.04-2.62-1.6-4.15-1.57Z"/>
          <path class="cls-26" d="M143.53,898.7c-.24-.06-.41-.26-.44-.5-.04-.23,.08-.46,.28-.57,.88-.57,8.87-5.47,11.6-4.06,.63,.3,1.02,.94,1.01,1.64,.16,1.19-.3,2.38-1.23,3.14-1.39,.95-3.07,1.39-4.75,1.26-2.19-.06-4.36-.37-6.48-.91Zm1.7-.82c2.88,.97,6.03,.82,8.8-.44,.59-.53,.89-1.32,.79-2.11-.03-.47-.22-.69-.38-.69-.23-.12-.49-.18-.75-.16-3.01,.58-5.88,1.73-8.46,3.4Z"/>
          <path class="cls-26" d="M143.37,898.83c-.18-.12-.29-.32-.28-.53,.03-.35,.63-7.45,3.49-9.78,.68-.6,1.59-.87,2.48-.75,.92,0,1.71,.64,1.89,1.54,.5,2.61-4.43,8.05-6.98,9.43h-.28c-.09,.06-.2,.1-.31,.09Zm3.96-9.62c-1.74,2.22-2.76,4.92-2.92,7.74,2.55-1.92,5.69-6.04,5.38-7.64-.03-.16-.09-.6-.85-.6h-.28c-.49,0-.96,.18-1.32,.5Z"/>
          <polygon class="cls-23" points="115.7 840.91 140.45 840.91 139.38 870.43 114.63 870.43 115.7 840.91"/>
          <polygon class="cls-28" points="240.97 899.99 266.48 902.69 271.27 847.67 245.76 844.98 240.97 899.99"/>
          <path class="cls-31" d="M269.18,894.49h-30.03c-1.01,0-1.89,.71-2.11,1.7l-4.87,22.01c-.42,1.97,.84,3.91,2.81,4.32,.26,.06,.53,.08,.8,.08,9.72-.16,16.79-.75,28.99-.75,7.51,0,30.19,.79,40.56,.79s11.73-10.25,7.48-11.19c-19.06-4.15-33.39-9.91-39.49-15.38-1.13-1.04-2.62-1.6-4.15-1.57Z"/>
          <path class="cls-26" d="M270.88,897.92c-.24-.06-.41-.26-.44-.5-.04-.23,.08-.46,.28-.57,.88-.57,8.87-5.47,11.6-4.06,.63,.3,1.02,.94,1.01,1.63,.16,1.19-.3,2.38-1.23,3.14-1.39,.95-3.07,1.39-4.75,1.26-2.19-.06-4.36-.37-6.48-.91Zm1.7-.82c2.88,.97,6.03,.82,8.8-.44,.59-.53,.89-1.32,.79-2.11-.03-.47-.22-.69-.38-.69-.23-.12-.49-.18-.75-.16-3.01,.58-5.88,1.73-8.46,3.4Z"/>
          <path class="cls-26" d="M270.72,898.04c-.18-.12-.29-.32-.28-.54,.03-.35,.63-7.45,3.49-9.78,.68-.6,1.59-.87,2.48-.75,.92,0,1.71,.64,1.89,1.54,.5,2.61-4.43,8.05-6.98,9.43h-.28c-.09,.06-.2,.1-.31,.09Zm3.96-9.62c-1.74,2.22-2.76,4.92-2.92,7.74,2.55-1.92,5.69-6.04,5.38-7.64-.03-.16-.09-.6-.85-.6h-.28c-.49,0-.96,.18-1.32,.5Z"/>
          <polygon class="cls-23" points="245.76 844.98 271.27 847.67 268.78 876.05 243.27 873.35 245.76 844.98"/>
          <path class="cls-31" d="M125.91,338.63h131.2c12.48,68.12,51.52,309.17,23.51,523.94l-44.41-5.51s4.11-285.12-35.1-390.53c-4.51,56.41-9.87,116.44-14.52,148.37-11.41,78.61-35.85,250.41-35.85,250.41h-45.22s9.24-164.44,13.52-241.7c4.67-83.87,6.69-267.76,6.87-284.99Z"/>
          <polygon class="cls-26" points="285.69 872.92 230.72 864.74 232.4 849.52 289.58 857.03 285.69 872.92"/>
          <polygon class="cls-26" points="156.17 865.69 102.84 865.69 102.84 849.74 158.18 848.71 156.17 865.69"/>
          <path class="cls-23" d="M201.1,466.55c5.79,15.53,10.6,34.93,14.65,56.76,3.67-50.2-11.01-103.44-11.01-103.44l-3.65,46.68Z"/>
          <path class="cls-26" d="M122.2,361.47l-3,15.85s91.8,11.88,148.91,11.55l-1.98-10.89-143.94-16.51Z"/>
          <path class="cls-28" d="M308.54,224.17s31.76,100.11,53.47,106.65c21.71,6.55,76.93-76.07,76.93-76.07,0,0,49.49-.48,51.71-3.86,2.22-3.38-12.86-38.23-16.48-38.29-3.62-.06-46.71,16.21-48.38,18.93-1.67,2.72-51.12,50-53.53,48.67s-21.11-60.9-21.11-60.9l-42.62,4.86Z"/>
          <path class="cls-28" d="M445.27,249.51c.43-.09,.82-.18,1.19-.31-.21-.12-.4-.24-.58-.37-.18,.24-.37,.46-.61,.67Z"/>
          <g>
            <path class="cls-26" d="M290.52,212.61l3.87,7.13,18.08,33.41,3.75,6.89,50.7-17.62s-21.07-78.71-28.38-86.76l-48.02,56.95Z"/>
            <path class="cls-9" d="M290.52,212.61l3.87,7.13,18.08,33.41,3.75,6.89,50.7-17.62s-21.07-78.71-28.38-86.76l-48.02,56.95Z"/>
          </g>
          <path class="cls-23" d="M294.39,219.75l18.08,33.41c11.16-21.95,7.93-51.98,7.93-51.98l-26,18.57Z"/>
          <g>
            <path class="cls-26" d="M338.53,155.66s-26.66-34.73-76.36-37.06c-49.7-2.33-65.3,2.61-83.47,18.82-26.53,23.68-59.5,227.81-59.5,227.81,0,0,69.42,21.46,148.94,16.2,0,0,.6-56.66,18.52-94.85,34.86-74.28,51.87-130.92,51.87-130.92Z"/>
            <path class="cls-9" d="M119.19,365.23s69.42,21.46,148.95,16.22c0,0,.06-6.98,.95-17.71,.4-5.06,1.01-11.01,1.86-17.41,.85-6.62,2.01-13.75,3.51-21,.79-3.9,1.71-7.83,2.71-11.77,2.44-9.36,5.55-18.63,9.48-26.98,2.2-4.69,4.33-9.33,6.4-13.87,3.6-7.93,6.98-15.64,10.15-23.02,6.65-15.52,12.35-29.72,17.1-42.13,3.41-8.9,6.34-16.89,8.78-23.75,2.71-7.62,4.85-13.9,6.4-18.57,2.04-6.19,3.05-9.57,3.05-9.57,0,0-1.8-2.35-5.36-5.88-9.91-9.85-33.5-28.87-69.36-31.06-.55-.06-1.1-.09-1.65-.12-37.86-1.77-55.94,.67-70.42,9.12-4.54,2.62-8.72,5.85-13.05,9.72-2.96,2.65-6.04,7.56-9.08,14.21-5.06,10.91-10.21,26.46-15.15,44.27-.73,2.65-1.46,5.37-2.19,8.11-3.26,12.38-6.46,25.58-9.48,38.93-.85,3.78-1.71,7.59-2.53,11.37-1.25,5.79-2.47,11.58-3.66,17.29-2.99,14.39-5.7,28.35-8.08,40.88-3.38,18.05-6.04,33.14-7.62,42.5-1.1,6.52-1.71,10.24-1.71,10.24ZM265.07,120.55c3.51,.12,6.92,.4,9.94,.79,13.47,1.8,33.87,12.5,33.35,17.59-.55,5.09-8.32,18.02-28.26,14.88-6.89-1.07-13.54-4.21-19.36-8.08-11.04-7.29-19.05-17.13-19.85-20.33-.94-3.78,12.01-5.21,24.18-4.85Z"/>
            <path class="cls-26" d="M222.23,188.52s-26.41,63.67-31.69,116.49l71.11,9.07s31.93-86,38.52-112.9c0,0-56.8-5.69-77.93-12.66Z"/>
            <polygon class="cls-9" points="286.28 203.66 296.18 204.65 288.92 210.27 286.28 203.66"/>
          </g>
          <path class="cls-28" d="M247.56,125.5c5.37,15.36,25.37,22.36,35.86,23.25,14.72,1.25,19.01-10.3,19.01-10.3,0,0-11.96-5.95-10.78-12.68,.69-3.92,2.55-7.74,4.94-11.42,1.23-1.94,2.65-3.82,4.1-5.65l-19.19-41.13c-4.3,17.95-17.41,52.18-33.94,57.92Z"/>
          <path class="cls-23" d="M280.72,86.68c-9.16,19.93,3.77,33.81,10.93,39.08,.69-3.92,2.55-7.74,4.94-11.42l-15.87-27.67Z"/>
          <g>
            <g>
              <path class="cls-28" d="M345.09,33.24s6.14,33.9-11.56,47.51c-17.7,13.61-19.5-49.78-19.5-49.78l31.06,2.27Z"/>
              <path class="cls-21" d="M345.09,33.24s6.14,33.9-11.56,47.51c-17.7,13.61-19.5-49.78-19.5-49.78l31.06,2.27Z"/>
            </g>
            <path class="cls-28" d="M281.82,109.3c9.13,12.36,23.52,15.25,35.82,10.97,7.91-2.74,14.95-8.48,19.19-16.55,.57-1.05,1.07-2.17,1.54-3.32,8.31-21.06,10.18-72.47-12.28-70.56-18.4,1.57-36.45-4.13-45.84,11.8-2.7,4.51-4.26,9.62-4.61,14.88-2.01,24.4-4.35,38.66,6.18,52.77Z"/>
            <path class="cls-31" d="M311.47,68.53c-.41,1.94,.52,3.71,1.84,3.9,1.31,.18,2.56-1.29,2.85-3.25,.29-1.96-.56-3.72-1.84-3.9-1.28-.18-2.55,1.26-2.85,3.25Z"/>
            <path class="cls-31" d="M333.79,71.69c-.41,1.94,.56,3.72,1.84,3.9,1.28,.18,2.56-1.29,2.85-3.25,.29-1.96-.56-3.72-1.84-3.9-1.28-.18-2.58,1.38-2.85,3.25Z"/>
            <path class="cls-27" d="M326.56,71.65c1.49,6.37,3.86,12.5,7.04,18.22-3.02,1.57-6.59,1.73-9.74,.43l2.7-18.65Z"/>
            <path class="cls-31" d="M305.58,60.32c.42,.12,.87,.01,1.19-.29,2.06-2.15,5.01-3.2,7.97-2.83,.63,.14,1.25-.26,1.38-.89,.14-.63-.26-1.25-.89-1.38,0,0,0,0,0,0-3.72-.56-7.48,.72-10.09,3.44-.47,.44-.49,1.18-.05,1.64,0,0,.01,.01,.02,.02,.14,.12,.31,.22,.48,.3Z"/>
            <path class="cls-31" d="M344.47,65.35c.2,.12,.44,.17,.68,.14,.61-.19,.96-.84,.77-1.45,0,0,0-.02,0-.02-1.07-3.62-3.84-6.49-7.42-7.7-.62-.17-1.26,.2-1.43,.82h0c-.15,.62,.21,1.25,.82,1.43h0c2.8,1.03,4.94,3.33,5.78,6.19,.17,.31,.46,.52,.81,.59Z"/>
            <path class="cls-18" d="M308.37,91.18s4.11,8.82,12.47,8.49"/>
            <g>
              <path class="cls-28" d="M297.72,28.81l.31,10.87c-3.7,1.55-6.2,5.33-4.97,9.71,2.62,9.36-3.81,22.9-11.27,27.84,0,0,.15-3.94-3.24-3.32-3.39,.62-4.38,21.1,1.15,31.42,0,0-11.82-10.86-15.32-32.78-3.24-20.27-2.68-33.12,.2-42.81l33.14-.94Z"/>
              <path class="cls-21" d="M297.72,28.81l.31,10.87c-3.7,1.55-6.2,5.33-4.97,9.71,2.62,9.36-3.81,22.9-11.27,27.84,0,0,.15-3.94-3.24-3.32-3.39,.62-4.38,21.1,1.15,31.42,0,0-11.82-10.86-15.32-32.78-3.24-20.27-2.68-33.12,.2-42.81l33.14-.94Z"/>
            </g>
            <path class="cls-31" d="M262.42,41.86s13.89,2.13,35.6-2.18c33.65-6.69,47.95,5.69,47.95,5.69,0,0,7.98-6.86,6.99-16.55-.99-9.69-14.43-11.34-14.43-11.34,0,0-4.05-10.89-12.97-14.2-8.91-3.3-17.85,4.95-17.85,4.95,0,0-11.13-10.73-24.07-7.68-15.9,3.75-15.53,18.91-15.53,18.91,0,0-15.19,1.55-14.86,9.36,.33,7.81,9.16,13.05,9.16,13.05Z"/>
            <ellipse class="cls-18" cx="314.06" cy="70.15" rx="10.9" ry="12.57"/>
            <path class="cls-18" d="M352.4,72.01c0,6.94-4.88,12.57-10.9,12.57s-10.9-5.63-10.9-12.57,4.88-12.57,10.9-12.57,10.9,5.63,10.9,12.57Z"/>
            <path class="cls-18" d="M324.96,71.65s3.51-2.21,5.64,.36"/>
            <path class="cls-18" d="M303.15,70.15l-19.15-2.55c-2.5-.33-5.03,.35-7.02,1.9l-.83,.65"/>
            <path class="cls-28" d="M262.23,74.91c1.91,5.87,6.07,10.73,11.57,13.54,7.3,3.66,12.51-2.5,11.8-10.22-.69-6.85-5.26-17.22-13.24-17.6-7.99-.38-12.38,7.05-10.13,14.28Z"/>
          </g>
          <path class="cls-23" d="M140.26,254.32c31.49-13.08,56.4-67.13,56.4-67.13l-17.89-10.82-24.3,19.54c-.73,2.65-1.46,5.37-2.19,8.11-3.26,12.38-6.46,25.58-9.48,38.93-.85,3.78-1.71,7.59-2.53,11.37Z"/>
          <polygon class="cls-26" points="313.79 260.05 368.15 240.09 369.69 244.71 315.33 264.08 313.79 260.05"/>
          <g>
            <rect class="cls-26" x="6.72" y="384.33" width="159.49" height="98.37" transform="translate(68.98 -8.19) rotate(9.01)"/>
            <g>
              <polyline class="cls-20" points="71.17 409.44 39.18 426.02 64.47 451.69"/>
              <polyline class="cls-20" points="101.76 457.61 133.76 441.02 108.46 415.35"/>
              <line class="cls-20" x1="75.62" y1="453.46" x2="97.32" y2="413.58"/>
            </g>
          </g>
          <path class="cls-28" d="M159.9,146.12s-59.36,59.59-67.47,71.19c-8.11,11.59-23.58,139.98-23.58,139.98,0,0-3.26,1.13-3.54,3.91s-.52,38.83,0,40.5c.52,1.67,27.86,18.53,31.88,14.52,4.02-4.01,9.65-44.84,9.65-44.84l-14.4-14.09s16.77-94.57,27.25-109.87c10.47-15.3,53.74-48.1,53.74-48.1l-13.51-53.2Z"/>
          <g>
            <path class="cls-26" d="M205.54,122.13c8.65,18.32,2.07,56.9-13.87,70.52-24.12,20.6-53.37,38.29-53.37,38.29l-29.17-38.13s30.98-30.25,49.73-47.67c22.82-21.19,46.67-23.01,46.67-23.01Z"/>
            <path class="cls-9" d="M205.54,122.13c8.65,18.32,2.07,56.9-13.87,70.52-24.12,20.6-53.37,38.29-53.37,38.29l-29.17-38.13s30.98-30.25,49.73-47.67c22.82-21.19,46.67-23.01,46.67-23.01Z"/>
          </g>
          <polygon class="cls-26" points="109.13 190.35 105.53 195.26 135.96 235.03 140.26 231.94 109.13 190.35"/>
        </g>
      </g>
    </g>
  </g>
</svg>