<?xml version="1.0" encoding="UTF-8"?>
<svg id="Layer_2" data-name="Layer 2" xmlns="http://www.w3.org/2000/svg" viewBox="0 0 1583.67 1054.18">
  <defs>
    <style>
      .cls-1, .cls-2, .cls-3, .cls-4, .cls-5 {
        fill: #fff;
      }

      .cls-6, .cls-4, .cls-7 {
        opacity: .5;
      }

      .cls-2, .cls-8, .cls-9 {
        opacity: .4;
      }

      .cls-10 {
        fill: #f5f5f5;
      }

      .cls-11, .cls-12 {
        opacity: .2;
      }

      .cls-3 {
        opacity: .1;
      }

      .cls-13 {
        fill: #ff9287;
      }

      .cls-14 {
        fill: #87522a;
      }

      .cls-15 {
        fill: #e1e1e1;
      }

      .cls-5 {
        opacity: .7;
      }

      .cls-16 {
        fill: #a66534;
      }

      .cls-17 {
        fill: #007cff;
      }

      .cls-18 {
        opacity: .3;
      }

      .cls-9, .cls-12, .cls-7 {
        isolation: isolate;
      }

      .cls-19 {
        fill: #ffc3bd;
      }

      .cls-20 {
        fill: #1a2e35;
      }
    </style>
  </defs>
  <g id="Layer_1-2" data-name="Layer 1">
    <g>
      <g id="Shadow--inject-214">
        <ellipse id="path--inject-214" class="cls-10" cx="771.19" cy="1011.26" rx="734.99" ry="42.91"/>
      </g>
      <g>
        <rect class="cls-15" x="27.41" y="943.56" width="156.22" height=".95"/>
        <rect class="cls-15" x="345.38" y="935.98" width="156.67" height=".95"/>
        <rect class="cls-15" x="668.01" y="935.98" width="37.91" height=".95"/>
        <rect class="cls-15" x="151.71" y="968.35" width="175.32" height=".95"/>
        <rect class="cls-15" x="851.56" y="943.07" width="81.88" height=".95"/>
        <rect class="cls-15" x="967.18" y="943.07" width="105.88" height=".95"/>
        <rect class="cls-15" x="1346.97" y="959.1" width="236.69" height=".95"/>
      </g>
      <g id="Group">
        <rect class="cls-17" y="492.12" width="1545.18" height="19.44"/>
        <polygon class="cls-17" points="92.04 506.07 92.04 969.83 104.09 969.83 119.26 506.07 92.04 506.07"/>
        <g>
          <polygon class="cls-17" points="234.34 521.23 234.34 950.88 246.4 950.88 261.56 521.23 234.34 521.23"/>
          <polygon class="cls-6" points="234.34 521.23 234.34 950.88 246.4 950.88 261.56 521.23 234.34 521.23"/>
        </g>
        <polygon class="cls-17" points="1458.63 506.07 1458.63 969.83 1446.61 969.83 1431.41 506.07 1458.63 506.07"/>
        <g>
          <polygon class="cls-17" points="1316.36 521.23 1316.36 950.88 1304.31 950.88 1289.14 521.23 1316.36 521.23"/>
          <polygon class="cls-6" points="1316.36 521.23 1316.36 950.88 1304.31 950.88 1289.14 521.23 1316.36 521.23"/>
        </g>
        <g>
          <polygon class="cls-17" points="1486.11 532.37 63.61 532.37 32.15 511.57 1517.58 511.57 1486.11 532.37"/>
          <polygon class="cls-6" points="1486.11 532.37 63.61 532.37 32.15 511.57 1517.58 511.57 1486.11 532.37"/>
        </g>
      </g>
      <g>
        <path class="cls-17" d="M101.56,432.51v15c0,2.53,.98,4.9,2.77,6.69l12.03,12.03c1.1,1.1,2.44,1.86,3.89,2.31,4.91,10.55,15.57,17.88,27.98,17.88h4.5c17.05,0,30.87-13.82,30.87-30.87v-35.37H117.35v2.87h-6.33c-5.22,0-9.47,4.25-9.47,9.47Zm7.58,0c0-1.04,.84-1.89,1.88-1.89h6.33v24.92c0,.34,.04,.67,.05,1.01l-7.71-7.71c-.35-.35-.55-.84-.55-1.33v-15Z"/>
        <path class="cls-4" d="M101.56,432.51v15c0,2.53,.98,4.9,2.77,6.69l12.03,12.03c1.1,1.1,2.44,1.86,3.89,2.31,4.91,10.55,15.57,17.88,27.98,17.88h4.5c17.05,0,30.87-13.82,30.87-30.87v-35.37H117.35v2.87h-6.33c-5.22,0-9.47,4.25-9.47,9.47Zm7.58,0c0-1.04,.84-1.89,1.88-1.89h6.33v24.92c0,.34,.04,.67,.05,1.01l-7.71-7.71c-.35-.35-.55-.84-.55-1.33v-15Z"/>
        <g>
          <path class="cls-17" d="M199.33,491.48H104.03c-6.2,0-11.22-5.61-11.22-5.61h117.74s-5.02,5.61-11.22,5.61Z"/>
          <path class="cls-4" d="M199.33,491.48H104.03c-6.2,0-11.22-5.61-11.22-5.61h117.74s-5.02,5.61-11.22,5.61Z"/>
        </g>
      </g>
      <g>
        <path class="cls-17" d="M1481.44,445.27c-.5-15.05-11.95-18.73-26.91-20.43v-5.5c-.03-1.32-1.12-2.37-2.44-2.34-.02,0-.03,0-.05,0h-51.61c-1.35-.05-2.48,.99-2.53,2.34h0v71.69h56.63v-7.84c14.99-1.68,26.45-22.85,26.91-37.92Zm-26.91,28.65v-39.81c10.99,1.62,18.59,3.13,16.97,14.12-1.29,8.78-8.19,24.4-16.97,25.69Z"/>
        <g class="cls-6">
          <path class="cls-1" d="M1481.44,445.27c-.5-15.05-11.95-18.73-26.91-20.43v-5.5c-.03-1.32-1.12-2.37-2.44-2.34-.02,0-.03,0-.05,0h-51.61c-1.35-.05-2.48,.99-2.53,2.34h0v71.69h56.63v-7.84c14.99-1.68,26.45-22.85,26.91-37.92Zm-26.91,28.65v-39.81c10.99,1.62,18.59,3.13,16.97,14.12-1.29,8.78-8.19,24.4-16.97,25.69Z"/>
        </g>
      </g>
      <g>
        <g>
          <g>
            <rect class="cls-17" x="748.85" y="399.67" width="44.69" height="90.79"/>
            <rect class="cls-4" x="748.85" y="399.67" width="44.69" height="90.79"/>
          </g>
          <g>
            <polygon class="cls-17" points="813.72 492.09 729.05 492.09 749.7 473.91 793.07 473.91 813.72 492.09"/>
            <polygon class="cls-4" points="813.72 492.09 729.05 492.09 749.7 473.91 793.07 473.91 813.72 492.09"/>
          </g>
        </g>
        <g>
          <g>
            <polygon class="cls-17" points="999.89 462.69 788.21 462.69 826.46 492.2 1038.1 492.2 999.89 462.69"/>
            <polygon class="cls-2" points="999.89 462.69 788.21 462.69 826.46 492.2 1038.1 492.2 999.89 462.69"/>
          </g>
          <g>
            <polygon class="cls-17" points="793.1 492.2 788.21 462.69 826.46 492.2 793.1 492.2"/>
            <polygon class="cls-6" points="793.1 492.2 788.21 462.69 826.46 492.2 793.1 492.2"/>
          </g>
        </g>
        <g>
          <rect class="cls-17" x="570.16" y="184.78" width="399.89" height="250.88" rx="7.31" ry="7.31"/>
          <rect class="cls-6" x="584.69" y="200.45" width="370.44" height="218.63"/>
        </g>
        <g>
          <g>
            <rect class="cls-8" x="756.43" y="245.43" width="186.93" height="128.69"/>
            <rect class="cls-17" x="756.43" y="245.43" width="186.93" height="11.79"/>
          </g>
          <g>
            <path class="cls-1" d="M790.68,316.6l30.56,16.94c1.53,.86,2.55,1.63,3.06,2.3,.51,.67,.76,1.53,.76,2.58,0,1.32-.48,2.46-1.43,3.43-.95,.97-2.06,1.45-3.31,1.45-.83,0-2.07-.46-3.73-1.38l-39.43-21.93c-2.66-1.48-2.66-5.3,0-6.78l39.43-21.93c1.66-.89,2.88-1.34,3.68-1.34,1.29,0,2.41,.48,3.36,1.43,.95,.95,1.43,2.09,1.43,3.41,0,1.04-.25,1.9-.76,2.58-.51,.67-1.53,1.44-3.06,2.3l-30.56,16.94Z"/>
            <path class="cls-1" d="M869.31,285.03l-30.24,65.17c-.77,1.63-1.46,2.68-2.07,3.18-.8,.64-1.76,.97-2.9,.97-1.29,0-2.4-.46-3.34-1.38-.94-.92-1.4-1.96-1.4-3.13,0-.83,.37-2.04,1.1-3.64l30.33-65.12c.77-1.63,1.44-2.68,2.02-3.18,.83-.64,1.8-.97,2.9-.97,1.29,0,2.39,.45,3.31,1.36,.92,.91,1.38,1.94,1.38,3.11,0,.83-.37,2.04-1.11,3.64Z"/>
            <path class="cls-1" d="M907.33,316.6l-30.56-16.94c-1.53-.86-2.55-1.63-3.06-2.3-.51-.67-.76-1.53-.76-2.58,0-1.32,.47-2.45,1.43-3.41,.95-.95,2.07-1.43,3.36-1.43,.8,0,2.03,.45,3.68,1.34l39.43,21.93c2.66,1.48,2.66,5.3,0,6.78l-39.43,21.93c-1.66,.92-2.88,1.38-3.68,1.38-1.3,0-2.44-.49-3.39-1.46-.9-.92-1.39-2.13-1.39-3.42,0-1.04,.25-1.9,.76-2.57,.51-.67,1.53-1.44,3.06-2.3l30.56-16.94Z"/>
          </g>
        </g>
        <g>
          <g>
            <rect class="cls-1" x="599.87" y="220.64" width="12.65" height="12.65"/>
            <rect class="cls-1" x="599.87" y="253.4" width="12.65" height="12.65"/>
            <rect class="cls-1" x="599.87" y="286.16" width="12.65" height="12.65"/>
            <rect class="cls-1" x="599.87" y="318.92" width="12.65" height="12.65"/>
            <rect class="cls-1" x="599.87" y="351.68" width="12.65" height="12.65"/>
            <rect class="cls-1" x="599.87" y="384.44" width="12.65" height="12.65"/>
          </g>
          <rect class="cls-1" x="624.55" y="223.49" width="50.45" height="3.79"/>
          <rect class="cls-1" x="636.31" y="256.34" width="17.97" height="3.79"/>
          <rect class="cls-1" x="714.52" y="293.18" width="17.97" height="3.79"/>
          <rect class="cls-1" x="636.31" y="322.42" width="17.97" height="3.79"/>
          <rect class="cls-1" x="662.22" y="322.42" width="17.97" height="3.79"/>
          <rect class="cls-1" x="662.22" y="293.18" width="45.91" height="3.79"/>
          <rect class="cls-1" x="688.97" y="322.42" width="30.23" height="3.79"/>
          <rect class="cls-1" x="688.87" y="392.66" width="17.97" height="3.79"/>
          <rect class="cls-1" x="714.78" y="392.66" width="17.97" height="3.79"/>
          <rect class="cls-1" x="741.53" y="392.66" width="10.04" height="3.79"/>
          <rect class="cls-1" x="663.29" y="256.34" width="55.91" height="3.79"/>
          <rect class="cls-1" x="662.22" y="356.64" width="17.97" height="3.79"/>
          <rect class="cls-1" x="686.2" y="356.64" width="10.39" height="3.79"/>
          <rect class="cls-1" x="704.53" y="356.64" width="29.34" height="3.79"/>
        </g>
      </g>
      <g>
        <path class="cls-17" d="M738.73,80.38c-.92,45.87-48.6,84.32-106.47,85.85-17.76,.6-35.31-2.66-51.86-9.61-5.81,14.41-18.11,26.77-53.33,32.3,36.76-28.39,16.65-52.4,8.27-73.53h0c-4.26-8.83-6.45-19.02-6.32-29.49C529.94,40.01,577.61,1.58,635.49,.05c57.91-1.66,104.17,34.46,103.24,80.33Z"/>
        <g>
          <rect class="cls-1" x="584.65" y="32.36" width="50.45" height="3.79"/>
          <rect class="cls-1" x="596.41" y="65.2" width="17.97" height="3.79"/>
          <rect class="cls-1" x="674.62" y="102.05" width="17.97" height="3.79"/>
          <rect class="cls-1" x="596.41" y="131.29" width="17.97" height="3.79"/>
          <rect class="cls-1" x="622.32" y="131.29" width="17.97" height="3.79"/>
          <rect class="cls-1" x="622.32" y="102.05" width="45.91" height="3.79"/>
          <rect class="cls-1" x="649.07" y="131.29" width="30.23" height="3.79"/>
          <rect class="cls-1" x="623.39" y="65.2" width="55.91" height="3.79"/>
        </g>
      </g>
      <g>
        <g>
          <g>
            <g>
              <g>
                <polygon class="cls-16" points="957.57 949.39 929.94 941.13 936.38 873.39 964.02 881.65 957.57 949.39"/>
                <polygon class="cls-12" points="966.3 866.35 938.66 858.13 935.06 896.07 963 901.27 966.3 866.35"/>
              </g>
              <path class="cls-17" d="M1121.15,531.01s-190.03,16.04-185.37,98.56c3.83,67.56,13.84,49.2-5.84,250.06l47.81,2.64s48.63-164.3,42.07-229.58c53.56,0,176.19,4.7,194.01-43.63,8.85-24.54,13.15-50.49,12.7-76.57l-105.38-1.48Z"/>
            </g>
            <polygon class="cls-20" points="985.35 891.52 922.88 880.83 923.9 853.19 988.57 867.56 985.35 891.52"/>
          </g>
          <g>
            <path class="cls-20" d="M927.1,929.76l31.92,6.31c1.12,.16,1.93,1.36,1.82,2.69l-2.65,30.18c-.48,3.25-3.07,5.46-5.84,4.97-11.07-2.42-16.3-4.21-30.33-6.98-8.64-1.7-28.39-5.86-40.41-7.21-12.02-1.34-10.58-15.4-5.38-16.12,23.35-3.09,36.62-6.85,45.68-12.72,1.58-1.04,3.4-1.44,5.19-1.12Z"/>
            <g>
              <path class="cls-17" d="M912.78,935.23c2.51,.34,5.05,.42,7.58,.23,.26,0,.49-.17,.57-.42,.13-.22,.13-.5,0-.72-.8-.8-7.96-7.58-11.64-6.82-.86,.15-1.58,.76-1.86,1.59-.61,1.21-.52,2.66,.23,3.79,1.36,1.38,3.18,2.22,5.12,2.35Zm6.1-1.02c-5.27,0-8.98-.61-10.08-2.16-.44-.75-.44-1.68,0-2.43,.12-.41,.45-.73,.87-.83,1.93-.42,6.26,2.77,9.21,5.42Z"/>
              <path class="cls-17" d="M920.4,935.46h.3c.22-.08,.39-.27,.45-.49,0-.34,2.08-8.42-.34-11.64-.6-.88-1.59-1.4-2.65-1.4-1.17-.17-2.3,.49-2.73,1.59-1.18,2.99,2.08,9.63,4.62,11.79,.09,.09,.21,.15,.34,.15Zm-1.97-12.17c.54,.09,1.02,.39,1.33,.83,1.11,2.99,1.23,6.26,.34,9.33-2.3-2.6-3.52-5.97-3.41-9.44,0-.38,.42-.8,1.4-.76l.34,.04Z"/>
            </g>
          </g>
          <g>
            <g>
              <polygon class="cls-16" points="834.37 959.93 808.07 948.1 826.26 883.21 852.57 895.03 834.37 959.93"/>
              <polygon class="cls-12" points="857.01 878.33 830.71 866.51 821.34 899.98 847.65 911.81 857.01 878.33"/>
            </g>
            <g>
              <path class="cls-17" d="M1064.59,531.01c-1.25,0-213.04,21.8-213.31,93.63-.45,118.8-34.38,254.99-34.38,254.99l41.86,20.74s72.89-147.64,71.79-240.24c58.26-16.72,208.98,11.37,226.8-36.92,14.59-39.5,6.71-92.19,6.71-92.19h-99.47Z"/>
              <polygon class="cls-20" points="865.45 906.38 809.34 881.13 813.85 858.16 873.03 878.59 865.45 906.38"/>
            </g>
          </g>
          <g>
            <path class="cls-20" d="M810.68,926.29l31.99,6.65c1.11,.2,1.89,1.51,1.78,2.95l-2.5,33.18c-.43,3.6-3.02,6.07-5.79,5.51,0,0,0,0,0,0-11.07-2.56-16.3-4.53-30.33-7.43-8.64-1.77-32.18-7.48-44.05-10.58-11.87-3.1-9.21-18.21-3.79-18.31,23.46-.34,38.67-4.18,47.69-10.73,1.52-1.11,3.28-1.55,5-1.23Z"/>
            <g>
              <path class="cls-17" d="M797.54,933.46c2.23-1.21,4.32-2.65,6.24-4.31,.21-.17,.3-.46,.22-.72-.08-.24-.3-.42-.55-.44-1.11-.18-10.9-1.45-13.43,1.38-.57,.66-.76,1.56-.51,2.39,.22,1.34,1.14,2.46,2.41,2.93,1.96,.31,3.97-.13,5.62-1.23Zm4.28-4.43c-4.12,3.23-7.57,4.8-9.38,4.25-.81-.35-1.37-1.11-1.45-1.99-.14-.4-.05-.84,.24-1.16,1.35-1.36,6.66-1.47,10.59-1.1Z"/>
              <path class="cls-17" d="M803.79,929.15l.28-.2c.14-.17,.17-.41,.07-.61-.2-.28-3.32-8.04-7.17-9.22-1-.33-2.09-.16-2.95,.46-1.04,.57-1.55,1.78-1.25,2.92,.81,3.11,7.36,6.51,10.71,6.74,.11,0,.21-.04,.31-.09Zm-8.81-8.64c.48-.27,1.05-.33,1.57-.16,2.67,1.76,4.72,4.33,5.84,7.33-3.4-.72-6.4-2.71-8.37-5.58-.22-.31-.13-.89,.69-1.44l.27-.15Z"/>
            </g>
          </g>
          <g>
            <path class="cls-16" d="M1136.54,301.81c5.57,11.98,10.16,23.5,14.75,35.48,4.59,11.98,8.64,23.96,12.4,36.24,3.75,12.28,7.01,24.87,9.63,37.91,2.85,13.55,4.28,27.36,4.25,41.21-.04,8.13-1.26,16.21-3.6,24-1.47,4.77-3.61,9.31-6.33,13.5-1.58,2.37-3.4,4.58-5.42,6.6l-1.63,1.59c-.91,.76-1.9,1.59-2.84,2.24-1.6,1.1-3.3,2.04-5.08,2.81-2.63,1.16-5.37,2.04-8.19,2.62-2.21,.47-4.45,.8-6.71,.99-3.85,.24-7.71,.24-11.56,0-6.84-.33-13.65-1.09-20.39-2.27-25.16-4.57-49.81-11.63-73.58-21.08l5.5-20.89c24.07,2.88,48.64,5.95,71.8,7.01,5.76,0,11.37,.27,16.6,0,2.33-.12,4.65-.42,6.94-.87,1.9-.34,3.53-1.02,2.96-.99-.38,.13-.73,.31-1.06,.53-.38,.23-.74,.49-1.06,.8h0s.19-.3,.34-.64c.49-1.08,.87-2.21,1.14-3.37,.85-4.16,1.19-8.41,1.02-12.66-.56-10.86-2.17-21.64-4.81-32.18-2.58-11.37-5.91-22.44-9.55-33.7-3.64-11.26-7.58-22.52-11.9-33.74-4.32-11.22-8.87-22.48-13.34-33.06l39.77-18.04Z"/>
            <path class="cls-16" d="M1048.17,468.41l-25.13-14.14-12.62,27.22s29.38,12.24,35.56,4.59l2.2-17.66Z"/>
            <polygon class="cls-16" points="1002.68 459.43 991.2 477.62 1010.42 481.3 1023.04 454.08 1002.68 459.43"/>
          </g>
          <g>
            <path class="cls-16" d="M1077.93,323.43c-4.81,12.09-9.86,23.65-15.16,35.37-5.31,11.71-10.61,23.24-16.22,34.76-11.29,23.46-23.95,46.25-37.91,68.23-3.79,5.61-7.58,11.18-11.83,16.76-2.12,2.81-4.47,5.57-6.97,8.42-1.36,1.44-2.46,2.77-4.06,4.25l-2.27,2.2-1.29,1.21c-3.61,3.09-7.85,5.34-12.43,6.6-2.41,.69-4.87,1.21-7.35,1.55-4.05,.49-8.13,.65-12.21,.49-7.04-.23-14.06-.92-21-2.08-25.7-4.54-50.87-11.68-75.13-21.3l5.53-20.92c24.53,2.96,49.58,6.1,73.16,7.09,5.56,.21,11.13,.14,16.68-.23,2.24-.18,4.45-.53,6.63-1.06,.71-.17,1.4-.42,2.05-.76,.23,0,0-.27-1.02,.38-.37,.21-.72,.46-1.02,.76,0,0,.27-.34,.38-.45l1.06-1.18c.68-.68,1.52-1.82,2.31-2.73,1.55-1.97,3.15-4.09,4.74-6.41,3.15-4.51,6.22-9.51,9.25-14.59,6.07-10.16,11.71-20.96,17.25-31.88,5.53-10.92,10.84-22.06,16.07-33.28,10.42-22.37,20.62-45.3,30.33-67.85l40.45,16.68Z"/>
            <g>
              <path class="cls-16" d="M870.39,464.4l-25.17-14.33-12.62,27.22s29.38,12.28,35.6,4.62l2.2-17.51Z"/>
              <polygon class="cls-16" points="824.9 455.46 813.37 473.62 832.59 477.29 845.22 450.08 824.9 455.46"/>
            </g>
          </g>
          <g>
            <path class="cls-16" d="M1143.02,188.93l-16.07,18.61-24.53,25.38c.5,1.25,1.18,2.87,1.88,4.6,1.89,4.68,3.01,9.64,3.27,14.68,.53,10.17-.44,18.77-16.48,25.67,0,0-16.83,21.99,23.2,15.88,40.03-6.1,46.06-26.88,46.06-26.88-17.74-12.62-18.73-54.59-17.32-77.94Z"/>
            <g>
              <path class="cls-20" d="M1061.4,167.93c0,2.5-1.25,4.62-2.92,4.7s-2.99-1.9-3.03-4.4c-.04-2.5,1.29-4.62,2.92-4.7,1.63-.08,2.99,1.9,3.03,4.4Z"/>
              <path class="cls-20" d="M1069.78,158.6c-.49,0-.95-.26-1.21-.68-1.99-3.26-5.38-5.42-9.17-5.84-.81-.04-1.44-.71-1.44-1.52,.02-.82,.7-1.46,1.52-1.44h0c4.79,.43,9.09,3.1,11.6,7.2,.42,.69,.22,1.6-.45,2.05-.25,.15-.54,.23-.83,.23Z"/>
              <path class="cls-14" d="M1060.49,169.33c-2.03,6.83-4.96,13.35-8.72,19.41,3.15,1.78,6.93,2.06,10.31,.76l-1.59-20.17Z"/>
              <path class="cls-16" d="M1145.29,155.31c-1.48,30.93-.8,49.28-16.15,65.66-14.95,16.48-40.44,17.72-56.92,2.76-6.04-5.48-10.28-12.67-12.15-20.62-6.97-27.41-3.34-73.39,26.54-87.19,20.15-9.98,44.57-1.74,54.55,18.41,3.22,6.5,4.64,13.74,4.13,20.98Z"/>
            </g>
          </g>
          <g>
            <g>
              <path class="cls-20" d="M1159.33,165.62c-4.47,13.12-11.26,25.32-20.09,36.01l-40.26,7.58s-31.8-13.31-23.31-35.22c-5.38-4.55-3.37-18.61,.42-26.35,6.07,4.85,16.03,5.27,21.49-.57,4.4,8.07,17.59,9.21,23.31,1.93,6.56,7.28,20.55,5.04,24.49-3.94,4.85,3.18,11.83,2.73,16.22-1.06,.19-.19,.38-.34,.57-.53,.64,5.53,0,12.77-2.84,22.14Z"/>
              <path class="cls-3" d="M1159.33,165.62c-4.47,13.12-11.26,25.32-20.09,36.01l-40.26,7.58s-31.8-13.31-23.31-35.22c-5.38-4.55-3.37-18.61,.42-26.35,6.07,4.85,16.03,5.27,21.49-.57,4.4,8.07,17.59,9.21,23.31,1.93,6.56,7.28,20.55,5.04,24.49-3.94,4.85,3.18,11.83,2.73,16.22-1.06,.19-.19,.38-.34,.57-.53,.64,5.53,0,12.77-2.84,22.14Z"/>
            </g>
            <path class="cls-20" d="M1165.13,128.13c2.27,5.08,1.02,11.49-2.96,15.35-.19,.19-.38,.34-.57,.53-4.4,3.79-11.37,4.25-16.22,1.06-3.94,8.98-17.93,11.22-24.49,3.94-5.72,7.28-18.92,6.14-23.31-1.93-5.46,5.84-15.43,5.42-21.49,.57-1.59-1.25-2.92-2.84-3.79-4.7-.23-.42-.38-.83-.53-1.25-.34,.38-.68,.72-1.06,1.02-3.68,3.03-9.48,3.49-13.5,.8-3.3-2.2-5.12-6.29-4.85-10.2,.04-.83,.19-1.63,.42-2.43-.3,.57-.68,1.1-1.14,1.55-3.3,3.53-10.27,3.68-13.5-.34-4.02-4.97-1.74-13.23,3.75-16.53,2.2-1.29,4.62-1.9,7.13-1.9,3.87,0,7.81,1.4,10.88,3.75-3.3-4.74-2.12-11.98,2.5-15.43,4.62-3.41,11.9-2.46,15.47,2.05-.49-5.38,1.29-8.61,4.06-10.27,5.23-3.03,13.95-.42,18.2,4.66,0,0,5.84-14.1,15.92-12.51,2.2,.3,12.55,4.89,12.28,8.61,0,.27-.08,.49-.19,.72,.15-.3,.3-.57,.49-.83,1.97-3.11,5.95-4.66,9.7-4.59,4.06,.04,7.92,1.59,11.68,3.11,7.85,3.22,16.19,6.82,20.74,13.99,4.51,7.2,2.54,18.92-5.61,21.19Z"/>
            <path class="cls-16" d="M1093.43,176.88c-1.1,7.64-4.61,14.73-10.01,20.24-6.86,6.56-12.7,0-12.77-9.97,0-9.02,3.37-23.31,11.37-25.97,8-2.65,12.89,5.88,11.41,15.69Z"/>
          </g>
          <g>
            <path class="cls-20" d="M1214.66,277.63c-2.84-7.58-16.11-15.16-24.26-15.16h-5.38c-9.4,0-21.11,.76-32.49,2.08-21.67,2.4-43.18,6.02-64.44,10.84-9.78,2.58-19.22,5.84-26.72,8.64-9.55,3.79-15.16,6.33-15.16,6.33,0,0,10.47,69.69,15.88,138.92,3.01,38.52,1.77,76.78,2.73,103.09h161.71c5.57-31.61,4.69-59.19,5.15-116.28,.27-34.27-5.3-107.27-17.01-138.46Z"/>
            <path class="cls-12" d="M1058.59,390.6c1.21,14.52,2.46,29.76,3.79,45,18.95-27.67,29.45-103.38,29.45-103.38l-33.24,58.38Z"/>
          </g>
          <path class="cls-20" d="M1037.06,295.47c-23.16,13.04-45.87,79.77-45.87,79.77l53.03,40.02c20.24-19.14,49.85-66.64,53.07-85.63,5.19-29.15-23.12-54.93-60.24-34.15Z"/>
        </g>
        <g>
          <g>
            <path class="cls-20" d="M991.3,974.74c0,9.11-7.38,16.49-16.49,16.49-9.11,0-16.49-7.38-16.49-16.49s7.38-16.49,16.49-16.49,16.49,7.38,16.49,16.49h0Z"/>
            <path class="cls-20" d="M1237.28,974.74c0,9.11,7.38,16.49,16.49,16.49,9.11,0,16.49-7.38,16.49-16.49,0-9.11-7.38-16.49-16.49-16.49s-16.49,7.38-16.49,16.49h0Z"/>
            <path class="cls-20" d="M1098.24,969.47c0,9.11,7.38,16.49,16.49,16.49s16.49-7.38,16.49-16.49c0-9.11-7.38-16.49-16.49-16.49s-16.49,7.38-16.49,16.49h0Z"/>
          </g>
          <g>
            <path class="cls-20" d="M1109.61,949.12v-31.88h-47.23c-9.27,0-18.52,.87-27.63,2.58l-87.95,17.09c-4.34,.84-7.17,5.04-6.32,9.38,.75,3.85,4.18,6.59,8.1,6.46l161.04-3.64Z"/>
            <path class="cls-20" d="M1109.61,949.12v-31.88h47.27c9.27,0,18.52,.87,27.63,2.58l98.85,15.8c4.34,.84,7.17,5.04,6.32,9.38-.75,3.85-4.18,6.59-8.1,6.46l-171.97-2.35Z"/>
          </g>
          <g>
            <rect class="cls-20" x="1080.34" y="771.29" width="58.49" height="145.98"/>
            <rect class="cls-20" x="1088.76" y="703.36" width="41.7" height="67.89"/>
            <polygon class="cls-7" points="1088.76 723.3 1130.46 733.8 1130.46 703.36 1088.76 703.36 1088.76 723.3"/>
          </g>
          <g>
            <g>
              <rect class="cls-20" x="953.62" y="549.76" width="21.19" height="90.41"/>
              <path class="cls-17" d="M1081.04,703.36V310.33c0-14.88,6.42-29.04,17.62-38.84l28.01-24.52c9.41-8.24,21.49-12.78,34-12.78h101.2l49.45,52.62v416.57h-230.28Z"/>
              <path class="cls-17" d="M930.38,627.32h230.86v76.04h-268.46c-15.07,.01-27.3-12.2-27.31-27.27,0-4.9,1.31-9.72,3.81-13.93h0c12.78-21.6,36.01-34.85,61.11-34.84Z"/>
              <path class="cls-5" d="M1311.34,286.81v416.57h-418.58c-15.05,0-27.29-12.21-27.29-27.29,0-4.89,1.29-9.7,3.79-13.91,12.77-21.57,35.94-34.84,60.99-34.84h116.28c19.07,0,34.52-15.46,34.52-34.52V310.32c0-14.86,6.41-29.04,17.63-38.82l28.01-24.53c9.4-8.26,21.49-12.77,34-12.77h101.17l49.47,52.62Z"/>
              <g>
                <path class="cls-17" d="M1114.73,703.36V310.33c0-14.88,6.42-29.04,17.62-38.84l28.01-24.52c9.41-8.24,21.49-12.78,34-12.78h78.87c14.25,0,27.86,5.89,37.62,16.27l20.16,21.45c9,9.57,14.01,22.22,14.01,35.35v356.76c0,21.73-17.62,39.35-39.35,39.35h-190.93Z"/>
                <path class="cls-4" d="M1114.73,703.36V310.33c0-14.88,6.42-29.04,17.62-38.84l28.01-24.52c9.41-8.24,21.49-12.78,34-12.78h78.87c14.25,0,27.86,5.89,37.62,16.27l20.16,21.45c9,9.57,14.01,22.22,14.01,35.35v356.76c0,21.73-17.62,39.35-39.35,39.35h-190.93Z"/>
              </g>
            </g>
            <g>
              <path class="cls-17" d="M1036.18,577.36c-46.64-16.28-97.41-16.28-144.05,0-9.68,3.65-20.56-.5-25.36-9.67h0c-4.32-9.14,1.48-20.96,13.23-25.09,54.46-19.03,113.77-19.03,168.23,0,11.75,4.09,17.55,15.96,13.23,25.09h0c-4.8,9.12-15.62,13.25-25.28,9.67Z"/>
              <path class="cls-5" d="M1036.18,577.36c-46.64-16.28-97.41-16.28-144.05,0-9.68,3.65-20.56-.5-25.36-9.67h0c-4.32-9.14,1.48-20.96,13.23-25.09,54.46-19.03,113.77-19.03,168.23,0,11.75,4.09,17.55,15.96,13.23,25.09h0c-4.8,9.12-15.62,13.25-25.28,9.67Z"/>
            </g>
          </g>
        </g>
      </g>
      <g id="_Group_" data-name="&amp;lt;Group&amp;gt;">
        <g>
          <g>
            <path class="cls-20" d="M447.05,201.27c-.8,2.24-.23,4.47,1.25,4.97s3.3-.87,4.06-3.11c.76-2.24,.23-4.51-1.21-5-1.44-.49-3.3,.87-4.09,3.15Z"/>
            <path class="cls-13" d="M446.64,203.59c.3,7.81,1.66,15.54,4.06,22.97-3.86,1.11-8.02,.47-11.37-1.74l7.32-21.23Z"/>
            <path class="cls-20" d="M443.41,186.03c.28,.1,.59,.1,.87,0,3.37-1.13,7.08-.56,9.97,1.52,.63,.45,1.5,.32,1.96-.31,.4-.56,.34-1.32-.14-1.81-3.61-2.69-8.3-3.47-12.59-2.08-.73,.25-1.12,1.05-.87,1.78,.14,.41,.46,.73,.87,.87l-.08,.04Z"/>
            <path class="cls-19" d="M363.92,209.54c4.25,21.57,8.45,61.11-6.63,75.51,0,0,5.91,21.87,46.02,21.87,44.09,0,21.08-21.87,21.08-21.87-24.07-5.76-20.2-23.62-15.99-40.37l-44.47-35.14Z"/>
            <path class="cls-19" d="M373.74,170.42c-7.88,28.2-13.95,44.31-4.93,63.31,13.53,28.62,60.82,32.33,73.73-.43,9.82-30.16,19.52-62.04-3.68-82.4-16.5-14.65-41.75-13.16-56.41,3.34-4.13,4.64-7.11,10.19-8.72,16.19Z"/>
          </g>
          <path class="cls-20" d="M343.17,179.79c-2.05-10.39-2.58-21.76,2.61-30.99,5.19-9.24,17.76-14.89,26.88-9.51,7.87-16.61,26.91-27.17,45.17-25.06,18.26,2.11,34.38,16.73,38.26,34.7,3.88,17.96-4.78,37.94-20.53,47.39,2.1-7.75,4.21-15.5,6.31-23.25-1.81,10.71-7.67,20.69-16.15,27.47,1.22-7.75,2.44-15.5,3.65-23.25-1.11,10.94-7.71,21.19-17.21,26.73,1.47-5.43,2.95-10.85,4.42-16.28-.65,2.39-6.55,19.45-8.55,21.79-3.72,4.34-6.21,32.84-19.28,33.74-44.66,8.94-40.77-39.22-45.56-63.48Z"/>
          <path class="cls-19" d="M403.49,193.31c-.76,7.23,.86,14.51,4.62,20.74,5.04,8.11,12.43,5,15.16-3.3,2.43-7.58,2.69-20.66-4.32-25.93-7.01-5.27-14.4-.23-15.47,8.49Z"/>
        </g>
        <g>
          <path class="cls-19" d="M296.64,466.53c-4.83-1.6-27.38-13.2-30.97-11.12,10.41-26.56,16.9-30.64,21.64-47.55,2.64-9.45,.83-16.8-5.04-24.67-6.66-8.93-9-13.45-20.08-12.35-15.24,25.48-34.43,56.92-41.94,85.65-2.53,9.67-4.36,17.01,1.39,25.19,5.07,7.21,14.45,10.11,23.22,10.9,21.13,1.9,52.47-1.99,52.07-14.54-.25-7.91-.31-11.51-.31-11.51Z"/>
          <g>
            <path class="cls-19" d="M293.06,465.59l17.91-5.82-1.59,32.34s-14.34,.51-21.98-9.08l5.66-17.45Z"/>
            <polygon class="cls-19" points="333.33 459.27 330.77 485.94 309.37 492.12 310.97 459.77 333.33 459.27"/>
          </g>
        </g>
        <g>
          <path class="cls-19" d="M538.49,488.55s-24.96-19.56-57.73-84.21c-4.86-9.04-9.51-18.15-13.95-27.34-4.46-9.28-8.75-18.35-12.83-28.09l38.73-16.69c7.98,17.38,20.4,35.3,29.19,52.55,8.79,17.25,29.55,58.1,32.15,61.91,1.29,1.96,2.69,3.59,4.03,5.4l2,2.66-24.98,28.88,3.39,4.93Z"/>
          <g>
            <g>
              <path class="cls-19" d="M571.27,362.87l-7.76-9.25-3.59-13.85,23.39-21.73s5.66,6.97,9.62,14.47c.6,1.15,.86,2.44,.81,3.74l-.95,24.35-21.52,2.27Z"/>
              <polygon class="cls-19" points="560.26 324.78 577.77 308.87 583.3 318.15 559.92 339.77 560.26 324.78"/>
            </g>
            <path class="cls-19" d="M571.61,356.1c.61-2.6,1.15,2.5,2.87,.45,5.17-6.19,12.68-6.87,17.15-.15,4.47,6.72,.65,74.37-6.5,95.56-4.75,14.08-7.27,25.31-19.41,33.88-5.02,3.54-10.91,6.21-17.05,6.12-6.14-.1-12.47-3.46-14.8-9.15-3.61-8.84,9.78-40.67,14.56-50.95,15-32.19,15.99-45.21,23.17-75.76Z"/>
          </g>
          <g>
            <g>
              <path class="cls-17" d="M521.44,353.19c10.33-.1,20.66-.2,30.99-.3,4.41-.04,9-.12,12.96-2.05,5.2-2.53,8.49-7.84,10.59-13.23,4.38-11.24,4.75-23.56,6.49-35.5,1.74-11.94,5.33-24.39,14.36-32.39-16.46,2.18-45.55-2.97-58.19,10.51-6.7,7.15-18.47,72.97-17.2,72.96Z"/>
              <path class="cls-4" d="M521.44,353.19c10.33-.1,20.66-.2,30.99-.3,4.41-.04,9-.12,12.96-2.05,5.2-2.53,8.49-7.84,10.59-13.23,4.38-11.24,4.75-23.56,6.49-35.5,1.74-11.94,5.33-24.39,14.36-32.39-16.46,2.18-45.55-2.97-58.19,10.51-6.7,7.15-18.47,72.97-17.2,72.96Z"/>
            </g>
            <path class="cls-19" d="M574.44,307.18h0c-1.78,.47-2.95,6.83-2.57,8.63l1.74,3.1,3.54,15.36,11.82-6.54-10.66-18.92c-.77-1.36-2.36-2.04-3.87-1.64Z"/>
          </g>
        </g>
        <path class="cls-17" d="M307.31,290.47c-27.67,6.33-68.59,92.55-68.59,92.55l55.53,37.91c13.81-19.81,32.62-49.75,43.21-71.45,16.41-34.34-1.87-65.48-30.15-59Z"/>
        <g>
          <path class="cls-20" d="M347.74,292.56c-3.18-6.94-6.63-14.86,.53-17.32,7.92-2.73,51.29-5.53,66.22-.42,8.2,2.23,13.04,10.69,10.81,18.89-.03,.1-.05,.19-.08,.29l-77.48-1.44Z"/>
          <path class="cls-12" d="M324.42,340.25l-39.48,74.31,9.31,6.35s17.89-24.9,30.17-46.43v-34.23Z"/>
          <path class="cls-17" d="M475.56,328.4c5.98,30.26-7.99,102.22-7.85,219.77h-157.81c-1.04-23.76,16.24-80.01-5.23-192.06-.7-3.63-1.01-65,2.63-65.64,15.28-2.68,30.7-4.51,46.19-5.45,22.35-1.31,44.75-1.31,67.1,0,9.12,.92,23.51,6.58,32.58,9.85,14.16,5.1,19.47,18.78,22.39,33.54Z"/>
          <path class="cls-12" d="M433.8,358.53c4.12,24.91,20.45,57.82,36.73,77.12,.64-14.14,2.06-28.9,2.02-40.24l-38.75-36.89Z"/>
        </g>
        <path class="cls-17" d="M422.57,321.1c-3.79,27.94,51.18,99.28,51.18,99.28l55.31-37.91s-15.35-39.31-41.17-65.09c-29.42-29.57-60.99-26.69-65.31,3.71Z"/>
        <g>
          <polygon class="cls-19" points="603.35 939.45 632.84 939.45 639.55 871.1 610.06 871.1 603.35 939.45"/>
          <polygon class="cls-12" points="639.1 875.27 635.69 910.48 606.16 910.48 609.61 875.27 639.1 875.27"/>
        </g>
        <g>
          <polygon class="cls-19" points="487.01 939.45 516.5 939.45 531.32 871.1 501.83 871.1 487.01 939.45"/>
          <g class="cls-11">
            <polygon points="501.19 874.74 530.68 874.74 523.03 909.96 493.53 909.96 501.19 874.74"/>
          </g>
        </g>
        <path class="cls-20" d="M634.51,926.2h-32.18c-1.22,0-2.27,1.11-2.54,2.65l-5.84,33.76c-.54,2.98,.88,5.97,3.18,6.67,.35,.11,.71,.16,1.06,.15,11.6-.25,28.39-1.13,42.99-1.13,17.1,0,31.84,1.18,51.86,1.18,12.13,0,15.5-15.85,10.42-17.27-23.09-6.53-41.93-7.21-61.87-23.16-2.12-1.78-4.57-2.76-7.09-2.85Z"/>
        <g>
          <path class="cls-17" d="M657.93,937.17c3.79,0,7.58-.53,8.68-2.24,.64-.92,.64-2.15,0-3.07-.5-.8-1.29-1.38-2.2-1.63-4.93-1.33-15.16,4.55-15.66,4.81-.27,.13-.41,.43-.34,.72,.05,.28,.26,.5,.53,.57,2.96,.54,5.97,.82,8.98,.83Zm4.7-5.72c.44-.06,.89-.06,1.33,0,.58,.11,1.08,.47,1.36,.99,.49,.87,.34,1.29,0,1.52-1.36,1.93-8.83,1.97-14.33,1.18,3.6-1.97,7.56-3.22,11.64-3.68Z"/>
          <path class="cls-17" d="M649.02,936.34h.3c3.56-1.59,10.61-7.96,10.05-11.37,0-.8-.68-1.74-2.58-1.97-1.37-.12-2.74,.32-3.79,1.21-3.79,3.07-4.55,11.03-4.59,11.37-.03,.25,.07,.49,.27,.64,.1,.06,.22,.1,.34,.11Zm7.2-11.94h.42c1.25,0,1.33,.64,1.36,.8,.34,2.01-4.47,7.01-8.11,9.17,.3-3.34,1.63-6.5,3.79-9.06,.71-.6,1.61-.93,2.54-.91Z"/>
        </g>
        <path class="cls-20" d="M518.58,926.2h-33.13c-1.21,.01-2.25,1.12-2.5,2.65l-5.84,33.76c-.5,3.05,1,6.05,3.35,6.7,.32,.09,.64,.13,.97,.12,11.56-.25,17.21-1.13,31.77-1.13,8.98,0,20.47,1.18,32.87,1.18s13.99-15.85,8.91-17.27c-22.74-6.43-24.3-15.31-31.58-23.8-1.34-1.47-3.05-2.26-4.81-2.21Z"/>
        <g>
          <path class="cls-17" d="M535.91,940.93c2.53,.33,5.08-.37,7.09-1.93,.71-.98,.71-2.31,0-3.3-.45-.84-1.26-1.44-2.2-1.63-4.32-1.02-12.47,4.55-12.81,4.78-.22,.17-.34,.44-.3,.72,.05,.27,.26,.48,.53,.53,2.53,.55,5.11,.83,7.7,.83Zm3.79-5.61c.28-.04,.56-.04,.83,0,.55,.08,1.03,.42,1.29,.91,.64,1.18,.27,1.63,0,1.82-1.25,1.63-7.28,1.67-11.71,.95,2.85-1.93,6.11-3.19,9.51-3.68h.08Z"/>
          <path class="cls-17" d="M528.4,940.13h.3c3.07-1.67,8.98-8.11,8.34-11.37-.2-1.08-1.14-1.86-2.24-1.86-1.07-.13-2.15,.2-2.96,.91-3.41,2.81-4.13,11.37-4.17,11.68,0,.26,.13,.5,.34,.64,.12,.04,.26,.04,.38,0Zm5.95-11.94h.3c.91,0,.99,.53,1.02,.72,.38,1.93-3.41,6.82-6.44,9.14,.2-3.36,1.42-6.59,3.49-9.25,.45-.39,1.03-.61,1.63-.61h0Z"/>
        </g>
        <g>
          <g>
            <path class="cls-20" d="M420.4,548.2s139.69,57.67,168.57,102.01c-17.17,112.73-47.99,241.17-47.99,241.17h-52.53s-1.44-71.42,13.6-165.89c7.58-137.79-240.4,4.78-192.22-177.29h110.58Z"/>
            <path class="cls-18" d="M516.98,643.24c-9.79,.38-19.49,1.87-29.17,3.36-10.21,1.57-20.41,3.14-30.62,4.71,15.79,13.25,32.46,25.44,49.88,36.46,10.57,6.69,22.07,13.14,34.57,13.19,14.01,.07,52.07-17.99,45.76-36.65-6.4-18.92-54.5-21.69-70.42-21.07Z"/>
          </g>
          <path class="cls-20" d="M467.71,548.2s129.12,16.65,200.3,57.18c21.91,12.48,18.85,52.56,18.28,78.94-1.57,70.8-15.18,140.82-40.26,207.05h-43.82s2.24-71.53,.76-186.96c-.45-34.61-70.32-46.02-138.59-50.04-58.97-3.71-110.74-40.54-133.59-95.03l-4.66-11.14h141.58Z"/>
          <path class="cls-17" d="M656.76,879.63c.23,0-2.84,20.74-2.84,20.74h-60.65l-1.67-18.5,65.16-2.24Z"/>
          <path class="cls-17" d="M546.07,879.63c.23,0-5.57,20.74-5.57,20.74h-60.65l1.1-18.5,65.13-2.24Z"/>
        </g>
        <g>
          <g>
            <polygon class="cls-17" points="383.08 652.81 339.62 973.15 331.77 972.08 365.31 650.38 383.08 652.81"/>
            <polygon class="cls-9" points="381.52 664.28 339.62 973.15 331.77 972.08 363.87 664.24 381.52 664.28"/>
          </g>
          <g>
            <path class="cls-17" d="M535.95,664.28h-246.4c0-15.53,12.59-28.13,28.13-28.13h190.14c15.53,0,28.13,12.59,28.13,28.13h0Z"/>
            <path class="cls-5" d="M535.95,664.28h-246.4c0-15.53,12.59-28.13,28.13-28.13h190.14c15.53,0,28.13,12.59,28.13,28.13h0Z"/>
          </g>
          <polygon class="cls-17" points="300.96 664.24 263.81 975.69 271.77 975.69 318.89 664.24 300.96 664.24"/>
          <g>
            <polygon class="cls-17" points="524.54 664.24 561.69 975.69 553.73 975.69 506.64 664.24 524.54 664.24"/>
            <polygon class="cls-9" points="524.54 664.24 561.69 975.69 553.73 975.69 506.64 664.24 524.54 664.24"/>
          </g>
          <polygon class="cls-17" points="474.84 664.24 475.56 975.69 467.64 975.69 456.91 664.24 474.84 664.24"/>
        </g>
      </g>
    </g>
  </g>
</svg>