<?xml version="1.0" encoding="UTF-8"?>
<svg id="Layer_2" data-name="Layer 2" xmlns="http://www.w3.org/2000/svg" viewBox="0 0 102.01 171.39">
  <defs>
    <style>
      .cls-1 {
        fill: #fff;
      }

      .cls-2 {
        fill: #ccc;
      }
    </style>
  </defs>
  <g id="Layer_1-2" data-name="Layer 1">
    <g id="Group_60" data-name="Group 60">
      <path id="Path_871" data-name="Path 871" class="cls-2" d="M47.54,105.28l-25.15-25.25H0l25.15,25.25h22.38Z"/>
      <path id="Path_872" data-name="Path 872" d="M49.76,80.13l-.49,66.01H21.9l25.15,25.25h27.37l.5-66.01h22.28c1.26-8.73,2.42-17.4,3.68-26.46l-24.18-24.27c.13-.26,.28-.52,.44-.76,.08-.11,.14-.23,.22-.33s.31-.31,.46-.47c.34-.38,.72-.73,1.13-1.04,.21-.15,.43-.28,.65-.41,.41-.24,.84-.46,1.28-.64,.25-.1,.49-.2,.75-.29,.51-.16,1.03-.29,1.56-.39,.24-.05,.47-.11,.72-.15,.82-.13,1.66-.2,2.49-.23,1.94-.06,3.87-.08,5.81-.08,2.58,0,5.17,.03,7.75,.03h1.87l.18-23.53L76.87,1.12l-.18,23.53h-1.87c-2.59,0-5.16-.04-7.75-.04-1.94,0-3.87,0-5.81,.09-.83,.03-1.66,.11-2.49,.23-.25,.04-.48,.1-.72,.15-.53,.1-1.04,.23-1.56,.39-.26,.09-.51,.18-.76,.29-.44,.18-.87,.39-1.27,.64-.22,.13-.44,.26-.65,.41-.41,.31-.79,.65-1.13,1.04-.11,.12-.25,.2-.36,.32s-.06,.1-.1,.14-.15,.23-.23,.33c-.17,.23-.33,.46-.48,.7-.1,.18-.18,.4-.28,.6s-.12,.25-.17,.38-.09,.17-.12,.26c-.19,.5-.34,1.02-.46,1.54v.12c-.04,.21-.06,.45-.1,.67-.09,.47-.16,.95-.21,1.43,0,.22-.03,.45-.04,.68-.19,5.61-.34,17.99-.35,18.65l22.79,22.87c-.17,1.19-.32,2.38-.5,3.56l-22.31,.03Z"/>
      <g id="Group_59" data-name="Group 59">
        <path id="Path_873" data-name="Path 873" class="cls-1" d="M57.64,0c3.91,0,7.84,.21,11.73,.39,2.55,.1,5.09,.47,7.47,.73l-.18,23.53h-1.87c-2.59,0-5.16-.04-7.75-.04-1.94,0-3.87,0-5.81,.09-6.23,.21-10.8,2.55-11.14,10.34-.19,5.61-.34,17.99-.35,18.65h25.97c-1.26,9.04-2.42,17.71-3.68,26.46h-22.28l-.51,66.01H21.88l.51-66.11H0l.2-26.28H22.69v-1.98c.04-5.3,0-10.6,.17-15.89,.03-3.38,.31-6.74,.85-10.08,1.22-7.88,5.54-14.95,11.99-19.63C41.5,2.16,48.38,.02,55.43,.04c.75,0,1.48-.04,2.21-.04Z"/>
      </g>
    </g>
  </g>
</svg>