<?xml version="1.0" encoding="UTF-8"?>
<svg id="Layer_2" data-name="Layer 2" xmlns="http://www.w3.org/2000/svg" xmlns:xlink="http://www.w3.org/1999/xlink" viewBox="0 0 1586.51 1012.38">
  <defs>
    <style>
      .cls-1 {
        fill: url(#linear-gradient-2);
      }

      .cls-2 {
        fill: #f0f0f0;
      }

      .cls-3 {
        fill: #fff;
      }

      .cls-4 {
        fill: url(#linear-gradient-17);
      }

      .cls-5 {
        fill: #525263;
      }

      .cls-6 {
        fill: url(#linear-gradient-15);
      }

      .cls-7 {
        fill: url(#linear-gradient-18);
      }

      .cls-8 {
        fill: url(#linear-gradient-28);
      }

      .cls-9 {
        fill: url(#linear-gradient-14);
      }

      .cls-10 {
        fill: url(#linear-gradient-20);
      }

      .cls-11 {
        fill: url(#linear-gradient-6);
      }

      .cls-12 {
        fill: url(#linear-gradient-32);
      }

      .cls-13 {
        fill: url(#linear-gradient-11);
      }

      .cls-14 {
        fill: url(#linear-gradient-10);
      }

      .cls-15 {
        fill: #2e2e3f;
      }

      .cls-16, .cls-17 {
        fill: #66dffb;
      }

      .cls-18 {
        fill: url(#linear-gradient-16);
      }

      .cls-19 {
        fill: url(#linear-gradient-31);
      }

      .cls-20 {
        fill: url(#linear-gradient-21);
      }

      .cls-21 {
        fill: url(#linear-gradient-25);
      }

      .cls-22 {
        fill: url(#linear-gradient-5);
      }

      .cls-23 {
        fill: #f3bab8;
      }

      .cls-24 {
        fill: none;
      }

      .cls-25 {
        fill: url(#linear-gradient-7);
      }

      .cls-17 {
        isolation: isolate;
        opacity: .18;
      }

      .cls-26 {
        fill: url(#linear-gradient-24);
      }

      .cls-27 {
        fill: url(#linear-gradient-9);
      }

      .cls-28 {
        fill: url(#linear-gradient-22);
      }

      .cls-29 {
        fill: #3d3d54;
      }

      .cls-30 {
        fill: url(#linear-gradient-3);
      }

      .cls-31 {
        fill: url(#linear-gradient);
      }

      .cls-32 {
        fill: url(#linear-gradient-27);
      }

      .cls-33 {
        fill: url(#linear-gradient-33);
      }

      .cls-34 {
        fill: url(#linear-gradient-29);
      }

      .cls-35 {
        fill: url(#linear-gradient-30);
      }

      .cls-36 {
        fill: url(#linear-gradient-23);
      }

      .cls-37 {
        fill: url(#linear-gradient-19);
      }

      .cls-38 {
        fill: url(#linear-gradient-4);
      }

      .cls-39 {
        fill: url(#linear-gradient-8);
      }

      .cls-40 {
        fill: url(#linear-gradient-12);
      }

      .cls-41 {
        fill: url(#linear-gradient-13);
      }

      .cls-42 {
        fill: url(#linear-gradient-26);
      }
    </style>
    <linearGradient id="linear-gradient" x1="-289.39" y1="2730.8" x2="-284.43" y2="2730.82" gradientTransform="translate(3784.83 91351.76) scale(10.22 -33.32)" gradientUnits="userSpaceOnUse">
      <stop offset="0" stop-color="#000"/>
      <stop offset=".13" stop-color="#000" stop-opacity=".69"/>
      <stop offset="1" stop-color="#000" stop-opacity="0"/>
    </linearGradient>
    <linearGradient id="linear-gradient-2" x1="-108.22" y1="2720.97" x2="-110.52" y2="2717.4" gradientTransform="translate(19146.81 307618.32) scale(167.86 -112.94)" xlink:href="#linear-gradient"/>
    <linearGradient id="linear-gradient-3" x1="-130.13" y1="2720.67" x2="-132.03" y2="2719.43" gradientTransform="translate(8451.58 255218.35) scale(58.21 -93.64)" xlink:href="#linear-gradient"/>
    <linearGradient id="linear-gradient-4" x1="-183.99" y1="2727.57" x2="-177.56" y2="2725.28" gradientTransform="translate(4995.68 112305.38) scale(23.26 -41.01)" xlink:href="#linear-gradient"/>
    <linearGradient id="linear-gradient-5" x1="-123.08" y1="2719.83" x2="-121.6" y2="2719.83" gradientTransform="translate(10507.54 266250.56) scale(78.98 -97.71)" xlink:href="#linear-gradient"/>
    <linearGradient id="linear-gradient-6" x1="-167.84" y1="2733.11" x2="-169.03" y2="2733.44" gradientTransform="translate(5445.23 67647.31) scale(27.13 -24.53)" xlink:href="#linear-gradient"/>
    <linearGradient id="linear-gradient-7" x1="-183.83" y1="2728.04" x2="-182.35" y2="2728.04" gradientTransform="translate(5010.56 93269.08) scale(22.48 -33.96)" xlink:href="#linear-gradient"/>
    <linearGradient id="linear-gradient-8" x1="-460.77" y1="2748.38" x2="-454.4" y2="2746.67" gradientTransform="translate(3300.89 46031.09) scale(5.38 -16.64)" xlink:href="#linear-gradient"/>
    <linearGradient id="linear-gradient-9" x1="-287.39" y1="2730.06" x2="-293.66" y2="2729.37" gradientTransform="translate(3745.25 99984.84) scale(10.09 -36.51)" xlink:href="#linear-gradient"/>
    <linearGradient id="linear-gradient-10" x1="-204.79" y1="2723.16" x2="-200.58" y2="2723.2" gradientTransform="translate(4560.09 171449.04) scale(18.66 -62.82)" xlink:href="#linear-gradient"/>
    <linearGradient id="linear-gradient-11" x1="-122.37" y1="2719.35" x2="-121.27" y2="2719.7" gradientTransform="translate(10596.12 287545.24) scale(80.01 -105.55)" xlink:href="#linear-gradient"/>
    <linearGradient id="linear-gradient-12" x1="-241.35" y1="2727" x2="-238.33" y2="2727.01" xlink:href="#linear-gradient"/>
    <linearGradient id="linear-gradient-13" x1="-105.66" y1="2719.68" x2="-107.06" y2="2717.5" gradientTransform="translate(19146.81 307618.32) scale(167.86 -112.94)" xlink:href="#linear-gradient"/>
    <linearGradient id="linear-gradient-14" x1="-122.03" y1="2719.74" x2="-123.19" y2="2718.99" gradientTransform="translate(8451.58 255218.35) scale(58.21 -93.64)" xlink:href="#linear-gradient"/>
    <linearGradient id="linear-gradient-15" x1="-161.02" y1="2725.29" x2="-157.1" y2="2723.9" gradientTransform="translate(4995.68 112305.38) scale(23.26 -41.01)" xlink:href="#linear-gradient"/>
    <linearGradient id="linear-gradient-16" x1="-116.66" y1="2719.08" x2="-115.77" y2="2719.08" gradientTransform="translate(10507.54 266250.56) scale(78.98 -97.71)" xlink:href="#linear-gradient"/>
    <linearGradient id="linear-gradient-17" x1="-150.68" y1="2731.87" x2="-151.4" y2="2732.07" gradientTransform="translate(5445.23 67647.31) scale(27.13 -24.53)" xlink:href="#linear-gradient"/>
    <linearGradient id="linear-gradient-18" x1="-162.87" y1="2727.3" x2="-161.97" y2="2727.3" gradientTransform="translate(5010.56 93269.08) scale(22.48 -33.96)" xlink:href="#linear-gradient"/>
    <linearGradient id="linear-gradient-19" x1="-369.22" y1="2739.66" x2="-365.34" y2="2738.62" gradientTransform="translate(3300.89 46031.09) scale(5.38 -16.64)" xlink:href="#linear-gradient"/>
    <linearGradient id="linear-gradient-20" x1="-239.47" y1="2726.07" x2="-243.29" y2="2725.65" gradientTransform="translate(3745.25 99984.84) scale(10.09 -36.51)" xlink:href="#linear-gradient"/>
    <linearGradient id="linear-gradient-21" x1="-176.64" y1="2721.3" x2="-174.08" y2="2721.33" gradientTransform="translate(4560.09 171449.04) scale(18.66 -62.82)" xlink:href="#linear-gradient"/>
    <linearGradient id="linear-gradient-22" x1="-116.12" y1="2718.72" x2="-115.45" y2="2718.94" gradientTransform="translate(10596.12 287545.24) scale(80.01 -105.55)" xlink:href="#linear-gradient"/>
    <linearGradient id="linear-gradient-23" x1="-276.49" y1="2721.89" x2="-274.42" y2="2721.9" xlink:href="#linear-gradient"/>
    <linearGradient id="linear-gradient-24" x1="-107.97" y1="2718.08" x2="-108.93" y2="2716.6" gradientTransform="translate(19146.81 307618.32) scale(167.86 -112.94)" xlink:href="#linear-gradient"/>
    <linearGradient id="linear-gradient-25" x1="-128.37" y1="2718.13" x2="-129.16" y2="2717.61" gradientTransform="translate(8451.58 255218.35) scale(58.21 -93.64)" xlink:href="#linear-gradient"/>
    <linearGradient id="linear-gradient-26" x1="-175.55" y1="2721.53" x2="-172.86" y2="2720.58" gradientTransform="translate(4995.68 112305.38) scale(23.26 -41.01)" xlink:href="#linear-gradient"/>
    <linearGradient id="linear-gradient-27" x1="-121.12" y1="2717.6" x2="-120.5" y2="2717.6" gradientTransform="translate(10507.54 266250.56) scale(78.98 -97.71)" xlink:href="#linear-gradient"/>
    <linearGradient id="linear-gradient-28" x1="-164.38" y1="2726.85" x2="-164.88" y2="2726.99" gradientTransform="translate(5445.23 67647.31) scale(27.13 -24.53)" xlink:href="#linear-gradient"/>
    <linearGradient id="linear-gradient-29" x1="-179.29" y1="2723.76" x2="-178.67" y2="2723.76" gradientTransform="translate(5010.56 93269.08) scale(22.48 -33.96)" xlink:href="#linear-gradient"/>
    <linearGradient id="linear-gradient-30" x1="-435.94" y1="2728.89" x2="-433.28" y2="2728.17" gradientTransform="translate(3300.89 46031.09) scale(5.38 -16.64)" xlink:href="#linear-gradient"/>
    <linearGradient id="linear-gradient-31" x1="-275.46" y1="2721.15" x2="-278.08" y2="2720.87" gradientTransform="translate(3745.25 99984.84) scale(10.09 -36.51)" xlink:href="#linear-gradient"/>
    <linearGradient id="linear-gradient-32" x1="-195" y1="2718.67" x2="-193.25" y2="2718.68" gradientTransform="translate(4560.09 171449.04) scale(18.66 -62.82)" xlink:href="#linear-gradient"/>
    <linearGradient id="linear-gradient-33" x1="-120.56" y1="2717.39" x2="-120.1" y2="2717.53" gradientTransform="translate(10596.12 287545.24) scale(80.01 -105.55)" xlink:href="#linear-gradient"/>
  </defs>
  <g id="Layer_1-2" data-name="Layer 1">
    <g>
      <g>
        <g>
          <g>
            <path d="M1290.82,0H253.8c-39.81,0-72.2,32.39-72.2,72.2V831.04H1363.01V72.2c0-39.81-32.38-72.2-72.19-72.2Zm50.12,808.97H203.68V72.2c0-27.64,22.48-50.13,50.12-50.13H1290.82c27.64,0,50.12,22.49,50.12,50.13V808.97Z"/>
            <path class="cls-3" d="M1340.94,72.2V808.97H203.68V72.2c0-27.64,22.48-50.13,50.12-50.13H1290.82c27.64,0,50.12,22.49,50.12,50.13Z"/>
          </g>
          <g>
            <path d="M1510.22,921.16H34.4c-18.97,0-34.4-15.43-34.4-34.4v-77.56H1544.62v77.56c0,18.97-15.43,34.4-34.4,34.4Z"/>
            <path class="cls-3" d="M1522.55,831.27v55.49c0,6.79-5.53,12.32-12.33,12.32H34.4c-6.8,0-12.33-5.53-12.33-12.32v-55.49H1522.55Z"/>
          </g>
          <rect x="192.64" y="61.16" width="1159.34" height="22.07"/>
        </g>
        <g id="Notifications_Monochromatic" data-name="Notifications Monochromatic">
          <path id="Path_73" data-name="Path 73" class="cls-17" d="M1008.51,381.73c6.31,24.98,1.25,51.48-13.82,72.38-11.12,15.13-26.96,26.44-36.83,42.38-21.33,34.4-9.88,81.37-29.44,116.8-16.35,29.64-50.23,44.2-81.69,56.7-24.7,9.81-49.65,19.68-75.83,23.63-26.18,3.95-54.34,1.45-77.03-12.18-18.71-11.21-32.46-28.96-45.15-46.7-31.21-43.64-59.42-91.15-69-143.94-9.58-52.79,2.38-111.99,41.67-148.52,19.13-17.79,44.19-30.05,57.69-52.42,14.17-23.47,14.36-56.21,36.39-72.56,8.13-6.05,18.23-8.85,28.26-10.18,24.15-3.11,48.65,1.61,69.92,13.45,21.58,12.09,39.29,31.31,62.79,39.04,30.42,10.02,69.46,2.32,89.68,31.96,16.23,23.83,35.2,62.38,42.41,90.15Z"/>
          <path id="Path_74" data-name="Path 74" class="cls-16" d="M879.08,364.86c-.35,.75-.83,1.42-1.42,2-4.71,4.97-10.8,8.42-17.49,9.88-2.36,.54-4.78,.82-7.2,.82-1.42-9.16-2.87-18.34-3.98-27.54h0c-.88-7.19-1.53-14.36-1.84-21.58-.21-4.52-10-20.28-8-24.5,2.21-4.64,18.13,11.25,19.92,14.28,9.94,16.67,13.51,29.57,20.33,43.91,.26,.92,.15,1.91-.32,2.74Z"/>
          <path id="Path_75" data-name="Path 75" class="cls-31" d="M861.77,375.06c-.48,.62-1.01,1.19-1.61,1.7-2.36,.54-4.78,.82-7.2,.82-1.42-9.16-2.87-18.34-3.98-27.54h0c.42-7.23,1.18-14.43,2.28-21.6-.47,3,3.22,9.55,4.22,12.49l4.34,12.81c2.26,6.68,7.09,14.81,1.94,21.33Z"/>
          <path id="Path_76" data-name="Path 76" class="cls-23" d="M856.45,390.73c.99,6.03,2.25,12.13,5.23,17.46,1.53,2.74,3.82,5.43,6.92,5.92,1.72,.16,3.46-.1,5.06-.75,3.32-1.14,6.45-2.77,9.29-4.84,2.71-2.08,5.27-4.35,7.65-6.81,3.54-3.34,6.81-6.95,9.79-10.8,1.37-1.85,2.62-3.8,4.11-5.57,6.17-7.35,16.06-10.65,23.06-17.2,1.89-1.75,5.72-9.78,5.43-12.35-2.57-1.47-7.84,4.48-10.68,5.35-2.84,.86-5.5,2.27-8.35,3.07-3.42,.95-7.02,1-10.46,.14-1.16-.29-2.54-18.61-3.7-18.19-.58,.25-1.11,.62-1.53,1.09-2.4,2.47-3.7,23.55-5.69,26.3-2.92,3.58-6.38,6.69-10.25,9.21-.33,.23-.75,.48-1.12,.29-.25-.18-.41-.46-.44-.77-.98-3.62-2.08-7.21-3.27-10.76-.84-2.47-2.03-5.19-4.51-5.93-2.21-.65-4.51,.59-6.49,1.79-2.54,1.56-5.11,3.09-7.65,4.66-1.41,.86-3.11,1.7-3.78,3.3-.82,1.92-.12,4.56,.11,6.52,.37,2.98,.79,5.94,1.28,8.87Z"/>
          <path id="Path_77" data-name="Path 77" class="cls-16" d="M878.99,558.72c0,3.78-.19,7.5-.52,11.19-6.18,68.08-66.37,118.26-134.45,112.08-63.26-5.74-111.91-58.44-112.58-121.96v-1.23c-.03-68.36,55.36-123.8,123.72-123.83,68.36-.03,123.8,55.36,123.83,123.72v.04Z"/>
          <path id="Path_78" data-name="Path 78" class="cls-1" d="M878.99,558.72c0,3.78-.19,7.5-.52,11.19-28.48,19.38-70.4,31.61-117.15,31.61-54.34,0-102.09-16.52-129.87-41.55v-1.24c0-68.36,55.42-123.78,123.78-123.78s123.78,55.42,123.78,123.78h-.02Z"/>
          <path id="Path_79" data-name="Path 79" class="cls-30" d="M811.97,510.33c4.94,1.78,10.31,3.05,14.36,6.42,3.59,2.98,5.78,7.29,7.55,11.6,5.89,14.47,8.01,30.19,6.17,45.7-.49,4.13-1.23,8.37-.16,12.35,1.07,3.98,4.74,7.71,8.87,7.21,5.72-11.36,5.84-24.63,5.85-37.35,0-9.29,0-18.77-3.11-27.53-2.54-7.21-7.04-13.59-11.68-19.65-16.93-22.23-37.42-42.97-63.51-52.96-1.08-.55-2.32-.71-3.51-.43-5.37,1.96-4.5,11.52-2.41,15.36,2.96,5.31,6.26,10.42,9.88,15.3,7.93,10.98,18.97,19.33,31.69,23.97h0Z"/>
          <path id="Path_80" data-name="Path 80" class="cls-38" d="M763.13,482.42c.07-1.66,.29-3.31,.64-4.94,.39-1.64,1.66-2.94,3.3-3.35,.68-.02,1.35-.08,2.02-.19,1.37-.42,1.95-2.01,2.35-3.38l4.38-15.32c.84-2.96,1.69-6.08,1.05-9.08-1.01-4.69-5.32-7.87-9.52-10.16-3.05-1.68-6.49-3.17-9.88-2.54-5.26,.98-8.31,6.41-10.28,11.39-2.29,5.33-3.69,11-4.16,16.78-.35,6.68-.91,23.05,3.22,28.89,5.73,8.2,15.96-.69,16.87-8.1Z"/>
          <path id="Path_81" data-name="Path 81" class="cls-5" d="M829.75,463.09c11.21,3.79,23.15,5.38,33.94,10.21,.7,.21,1.29,.71,1.61,1.37,.09,.53,.03,1.09-.2,1.58-9.12,27.11-14.26,55.4-15.27,83.99,6.46,1.16,13.06,1.31,19.56,.43,.73-.05,1.44-.27,2.06-.65,.6-.52,1.05-1.2,1.31-1.95,10.45-23.46,19.83-47.36,28.14-71.7,1.47-4.31,2.93-8.82,2.33-13.34-.85-6.58-5.8-11.77-10.51-16.45l-36.67-36.58c-.93-1.05-2.08-1.89-3.36-2.47-1.48-.44-3.03-.52-4.55-.22-14.46,1.79-34.21,2.35-60.79,1.23-3.45-.15,13.59,19.48,15.01,23.24,1.14,2.99,4.73,6.84,6.93,9.16,5.51,5.78,12.94,9.6,20.45,12.14Z"/>
          <path id="Path_82" data-name="Path 82" class="cls-22" d="M829.75,463.09c11.21,3.79,23.15,5.38,33.94,10.21,.7,.21,1.29,.71,1.61,1.37,.09,.53,.03,1.09-.2,1.58-9.12,27.11-14.26,55.4-15.27,83.99,6.46,1.16,13.06,1.31,19.56,.43,.73-.05,1.44-.27,2.06-.65,.6-.52,1.05-1.2,1.31-1.95,10.45-23.46,19.83-47.36,28.14-71.7,1.47-4.31,2.93-8.82,2.33-13.34-.85-6.58-5.8-11.77-10.51-16.45l-36.67-36.58c-.93-1.05-2.08-1.89-3.36-2.47-1.48-.44-3.03-.52-4.55-.22-14.46,1.79-34.21,2.35-60.79,1.23-3.45-.15,13.59,19.48,15.01,23.24,1.14,2.99,4.73,6.84,6.93,9.16,5.51,5.78,12.94,9.6,20.45,12.14Z"/>
          <path id="Path_83" data-name="Path 83" class="cls-15" d="M847.95,576.46c-.9,1.4-1.51,2.97-1.79,4.61-.66,2.87-1.14,5.77-1.46,8.7-.47,2.25-.13,4.59,.96,6.61,1.3,1.87,3.43,2.54,5.43,3.32,5.04,2.07,9.93,4.48,14.65,7.2,3.19,1.75,6.51,3.57,10.14,3.7,3.63,.14,7.65-1.85,8.47-5.38,.29-1.7,.14-3.45-.42-5.08-1.98-7.09-5.87-13.49-11.24-18.53-.94-.92-1.99-1.72-3.13-2.38-1.09-.56-2.22-1.02-3.39-1.38-3.3-1.21-6.68-2.18-10.12-2.9-3.01-.48-6.04-1.37-8.12,1.51Z"/>
          <path id="Path_84" data-name="Path 84" class="cls-11" d="M847.95,576.46c-.9,1.4-1.51,2.97-1.79,4.61-.66,2.87-1.14,5.77-1.46,8.7-.47,2.25-.13,4.59,.96,6.61,1.3,1.87,3.43,2.54,5.43,3.32,5.04,2.07,9.93,4.48,14.65,7.2,3.19,1.75,6.51,3.57,10.14,3.7,3.63,.14,7.65-1.85,8.47-5.38,.29-1.7,.14-3.45-.42-5.08-1.98-7.09-5.87-13.49-11.24-18.53-.94-.92-1.99-1.72-3.13-2.38-1.09-.56-2.22-1.02-3.39-1.38-3.3-1.21-6.68-2.18-10.12-2.9-3.01-.48-6.04-1.37-8.12,1.51Z"/>
          <path id="Path_85" data-name="Path 85" class="cls-23" d="M851.62,561.17c-.94,4.89-1.42,9.85-1.46,14.82,0,2.19,.15,4.61,1.72,6.17,1.48,1.18,3.38,1.72,5.26,1.51,2.27-.08,4.52-.55,6.64-1.37,.47-.15,.89-.41,1.23-.77,.25-.35,.42-.75,.51-1.18,1.88-7.07,2.88-14.35,2.98-21.66,.12-1.15-.12-2.3-.68-3.31-1.18-1.64-3.61-1.57-5.58-1.18-2.53,.54-5.01,1.3-7.41,2.26-2.27,.8-2.74,2.36-3.2,4.7Z"/>
          <path id="Path_86" data-name="Path 86" class="cls-23" d="M875.98,584.39c.89,2.19,1.62,4.45,2.17,6.76,.18,1.83,.78,3.58,1.75,5.14,1.46,1.79,3.99,2.25,6.3,2.28,1.9,.11,3.81-.21,5.57-.94,.92-.36,1.68-1.02,2.17-1.88,.34-.84,.46-1.76,.35-2.67-.18-6.27-1.75-12.43-4.58-18.03-1.63-2.89-3.46-5.67-5.48-8.3-.64-1.18-1.72-2.07-3-2.47-1.33-.05-2.63,.45-3.59,1.37-2.04,1.53-6.52,4.09-6.05,6.99,.58,3.87,3,8.08,4.39,11.75Z"/>
          <path id="Path_87" data-name="Path 87" class="cls-15" d="M890.95,588.95c-1.4,.78-2.75,1.64-4.06,2.56-2.14,.91-4.38,1.58-6.67,1.99-.59,.11-1.13,.4-1.56,.83-.31,.42-.5,.91-.56,1.42-.42,3.37-.28,6.79,.41,10.12,1.14,7.2,2.46,14.36,3.98,21.5,.63,2.94,1.38,6.05,3.52,8.15,2.35,1.99,5.35,3.03,8.42,2.93,2.84,.16,5.68-.37,8.27-1.54,4.18-2.24,7.1-6.25,7.95-10.91,.8-4.63,.24-9.39-1.63-13.7-1.27-2.95-2.75-5.8-4.42-8.53-2.22-3.82-4.44-7.64-6.65-11.46-1.68-2.92-3.21-4.96-7.02-3.34Z"/>
          <path id="Path_88" data-name="Path 88" class="cls-25" d="M890.95,588.95c-1.4,.78-2.75,1.64-4.06,2.56-2.14,.91-4.38,1.58-6.67,1.99-.59,.11-1.13,.4-1.56,.83-.31,.42-.5,.91-.56,1.42-.42,3.37-.28,6.79,.41,10.12,1.14,7.2,2.46,14.36,3.98,21.5,.63,2.94,1.38,6.05,3.52,8.15,2.35,1.99,5.35,3.03,8.42,2.93,2.84,.16,5.68-.37,8.27-1.54,4.18-2.24,7.1-6.25,7.95-10.91,.8-4.63,.24-9.39-1.63-13.7-1.27-2.95-2.75-5.8-4.42-8.53-2.22-3.82-4.44-7.64-6.65-11.46-1.68-2.92-3.21-4.96-7.02-3.34Z"/>
          <path id="Path_89" data-name="Path 89" class="cls-23" d="M741.3,362.87c-1.08,2.72-1.8,5.57-2.15,8.47-1.17,7.52-1.93,15.1-2.25,22.71-.62,14.53,.32,29.07-.09,43.6-.42,15.1-2.2,30.77,3.24,44.86,.85,2.56,2.28,4.88,4.18,6.79,1.95,1.91,4.76,2.68,7.41,2.02,2.39-.92,4.22-2.91,4.94-5.37,.68-2.43,.98-4.96,.88-7.48l.2-13.81c0-.28,0-.62,.28-.74,.24-.08,.51-.03,.7,.14,1.06,.92,2.07,1.9,3.03,2.93,1.1,.88,2.85,1.33,3.83,.29,.55-.73,.76-1.65,.58-2.54-.59-5.98-5.8-10.29-8.9-15.44-4.47-7.41-4.47-16.75-3.35-25.37,1.4-10.8,4.31-21.33,7.21-31.83l2.47-8.88c1.87-6.74,3.7-14.1,.99-20.56-2.21-5.03-6.7-8.7-12.07-9.88-5.16-.95-9.28,5.89-11.14,10.09Z"/>
          <path id="Path_90" data-name="Path 90" class="cls-16" d="M855.97,419.03c-1.59,4.29-10.58-.72-15.72,1.85-9.81,4.94-21-.14-31.93,0-11.63,.21-19.66,11.67-31.21,13.13-.84,.17-1.7,.17-2.54,0-1.53-.67-2.7-1.97-3.21-3.56-1-2.31-1.71-4.72-2.12-7.2-1.43-8.2,0-17,1.53-25.33,1.28-7.07,2.56-14.13,3.83-21.21,1.48-8.23,2.98-16.52,4.48-24.85,.88-5.5,2.12-10.93,3.7-16.27,.29-.93,.6-1.83,.94-2.72,2.87-7.24,6.34-14.24,10.36-20.91,2.47-4.29,4.94-8.65,8.76-11.89,8.73-6.27,19.83-8.25,30.19-5.38,2.75,.96,3.79,3.88,5.98,5.67,2.77,2.05,5.24,4.48,7.35,7.21,2.14,3.3,3.66,6.96,4.51,10.8,7.74,30.11-3.46,62.59,3.9,92.79,.85,3.54,2.48,4.49,1.21,7.87Z"/>
          <path id="Path_91" data-name="Path 91" class="cls-39" d="M845.44,313.26l.96,6.31-3.7-2.06v16.72l-4.22-18.58,4.09-5.95,2.88,3.57Z"/>
          <path id="Path_92" data-name="Path 92" class="cls-27" d="M814.07,312.85l2.33,1.23,3.7,3.22-9.88,26.5s14.35-22.08,14.82-33.35c.29-6.93-.57-13.86-2.56-20.5l-8.42,22.88Z"/>
          <path id="Path_93" data-name="Path 93" class="cls-14" d="M782.43,388.82c-.78,6.07-.78,12.21,0,18.28,.73,3.77,1.09,7.61,1.06,11.45,.01,.75-.23,1.48-.68,2.08-.58,.47-1.29,.75-2.04,.8-3.86,.61-7.73,1.23-11.6,1.87-1.43-8.2,0-17,1.53-25.33,1.28-7.07,2.56-14.13,3.83-21.21,1.48-8.23,2.98-16.52,4.48-24.85,.88-5.5,2.12-10.93,3.7-16.27,.29-.93,.6-1.83,.94-2.72,3.83-2.12,9.15-3.7,11.52-.27,2.47,3.7-.78,12.35-1.74,16.06-3.5,13.42-9.25,26.26-11.02,40.12Z"/>
          <path id="Path_94" data-name="Path 94" class="cls-23" d="M871.27,281.74c.13,1.54,.08,3.08-.14,4.61-.26,1.57-1.56,2.75-3.15,2.84-3.85-.28-6.64,3.41-9.7,5.78-4.9,3.67-11.44,4.3-16.95,1.62-1.11-.4-2.35,.14-2.8,1.23-.38,1.09-.47,2.26-.25,3.39l1.42,13.51c.27,2.61,.29,5.79-1.92,7.2s-4.83,.19-6.66-1.41c-2.87-2.76-4.95-6.25-6.02-10.09-4.91-15.84-1.11-33.09,10.02-45.39,2.05-2.29,4.46-4.25,7.13-5.78,2.79-1.45,5.79-2.46,8.89-3,2.77-.65,5.64-.81,8.47-.47,3.8,.69,7.26,2.64,9.81,5.55,1.88,2.05,3.7,8.16,5.68,9.16-1.47,3.73-3.79,7.03-3.85,11.24Z"/>
          <path id="Path_95" data-name="Path 95" class="cls-15" d="M841.88,228.7c-1.81-.42-3.7-.37-5.48,.16-3.48,1.23-5.43,4.88-6.69,8.35-1.26,3.47-2.3,7.26-5.04,9.72-2.36,2.12-5.71,2.98-7.83,5.32-2.47,2.73-2.7,6.77-2.47,10.44,0,2.75,.77,5.45,2.24,7.78,1.31,1.78,3.32,3.01,4.35,4.94,1.16,2.21,1.56,5.63,4.05,5.78,1.04-.05,2.02-.49,2.75-1.23,2.52-2.18,4.42-4.99,5.51-8.14,.6-1.75,1-3.7,2.33-4.94s4.05-1.31,4.66,.44c.17,1.12,0,2.26-.49,3.27-.32,1.09-.19,2.56,.88,2.93,2-3.09,3.13-6.72,5.5-9.52,4.87-5.71,13.45-6.39,19.15-1.52,.87,.74,1.64,1.59,2.3,2.53,1.23,1.77,2.08,3.87,3.8,5.13,1.63,.99,3.49,1.54,5.4,1.58,4.25,.42,8.74,.58,12.57-1.31,3.83-1.89,6.66-6.47,5.19-10.49-1.16-3.15-4.47-4.94-7.68-5.95s-6.65-1.52-9.47-3.32c-3.83-2.47-5.89-6.87-8.13-10.86-2.24-3.99-5.26-8.09-9.73-9.03-1.83-.28-3.68-.28-5.51,0-1.78,.38-3.6,.52-5.42,.42-2.22-.46-4.37-1.96-6.72-2.48Z"/>
          <path id="Path_96" data-name="Path 96" class="cls-2" d="M841.88,330.19c2.82,14.29,3.65,28.9,2.47,43.41-.98,12.08-3.3,24.07-3.21,36.19,.18,3.41,.08,6.82-.31,10.21-.54,3.36-23.07,2.08-26.36,2.04-5.53-.07,1.47,7.41-2.68,3.8-6.53-5.69-9.45-14.57-10.25-23.2-1.15-12.29,1.37-24.59,4.11-36.63,1.68-8.39,4.14-16.61,7.34-24.54,4.22-9.7,10.91-22.03,13.05-32.4,.31-1.52-4.94-7.04-2.68-6.97,1.47,0,.78,2.28,1.03,3.42,.46,1.73,1.35,3.32,2.58,4.62,1.72,2.01,4.06,3.4,6.65,3.96,1.67,.31,3.57,.23,4.78,1.42,1.47,1.43,1.23,4.22,1.65,6.17,.6,2.79,1.25,5.62,1.82,8.48Z"/>
          <path id="Path_97" data-name="Path 97" class="cls-16" d="M791.87,293.45c-5.89,2.96-11.27,6.82-15.97,11.44-4.02,3.62-7.81,7.48-11.36,11.56-3.14,3.7-6,7.55-9.31,11.04-4.57,4.8-10.28,9.45-11.18,16.06-.28,3.45,.33,6.9,1.75,10.05,1.18,3.21,2.91,6.2,5.12,8.81,2.81,3.11,6.52,5.27,10.61,6.17,1.28,.33,2.62,.39,3.93,.17,1.84-.52,3.53-1.47,4.94-2.77,3.22-2.44,6.27-5.09,9.13-7.94,2.91-3.03,5.38-6.47,8.23-9.57,2.47-2.67,5.1-5.08,7.57-7.69,2.95-3.14,5.58-6.56,8.21-9.98,3.72-4.64,7.13-9.52,10.21-14.61,2.57-4.49,4.62-9.27,6.09-14.23,.95-3.24,2.47-7.34-.82-9.67-6.98-4.92-20.21-2.08-27.17,1.16Z"/>
          <path id="Path_98" data-name="Path 98" class="cls-16" d="M791.87,293.45c-5.89,2.96-11.27,6.82-15.97,11.44-4.02,3.62-7.81,7.48-11.36,11.56-3.14,3.7-6,7.55-9.31,11.04-4.57,4.8-10.28,9.45-11.18,16.06-.28,3.45,.33,6.9,1.75,10.05,1.18,3.21,2.91,6.2,5.12,8.81,2.81,3.11,6.52,5.27,10.61,6.17,1.28,.33,2.62,.39,3.93,.17,1.84-.52,3.53-1.47,4.94-2.77,3.22-2.44,6.27-5.09,9.13-7.94,2.91-3.03,5.38-6.47,8.23-9.57,2.47-2.67,5.1-5.08,7.57-7.69,2.95-3.14,5.58-6.56,8.21-9.98,3.72-4.64,7.13-9.52,10.21-14.61,2.57-4.49,4.62-9.27,6.09-14.23,.95-3.24,2.47-7.34-.82-9.67-6.98-4.92-20.21-2.08-27.17,1.16Z"/>
          <path id="Path_99" data-name="Path 99" class="cls-29" d="M895.4,349.84c-2.78,1.75-3.66,5.4-1.99,8.23,2.07,3.61,4.85,6.76,8.18,9.26,1.98,2.12,6.42,2.47,10.38,.15,3.95-2.32,22.81-12.59,32.24-19.29,2.81-1.93,3.52-5.78,1.59-8.59-.06-.09-.12-.18-.19-.26l-7.89-9.88c-1.94-2.42-5.39-2.99-8-1.33l-34.3,21.71Z"/>
          <path id="Path_100" data-name="Path 100" class="cls-24" d="M771.76,434.25l-.28-.28"/>
          <path id="Path_101" data-name="Path 101" class="cls-5" d="M770.05,456.3c1.39,5.12,3.87,9.88,7.25,13.96,3.7,4.32,8.74,7.41,13.59,10.35l20.39,12.41c2.99,1.72,5.85,3.66,8.55,5.79,6.68,5.51,11.12,13.19,15.43,20.7l29.74,51.84c1.51,2.65,3.62,5.66,6.67,5.56,1.64-.21,3.19-.9,4.45-1.98,3.82-2.68,7.92-5.73,9.05-10.26,.55-3.23,.22-6.56-.95-9.62-4.57-15.45-11.73-30-18.92-44.46-11.42-22.89-23.01-45.74-34.77-68.54-3.13-6.05-6.92-15.48-12.08-19.92,0,0-47.97-2.91-49.18,1.84-2.7,10.65-2.43,21.83,.78,32.33h0Z"/>
          <path id="Path_102" data-name="Path 102" class="cls-13" d="M770.05,456.3c1.39,5.12,3.87,9.88,7.25,13.96,3.7,4.32,8.74,7.41,13.59,10.35l20.39,12.41c2.99,1.72,5.85,3.66,8.55,5.79,6.68,5.51,11.12,13.19,15.43,20.7l29.74,51.84c1.51,2.65,3.62,5.66,6.67,5.56,1.64-.21,3.19-.9,4.45-1.98,3.82-2.68,7.92-5.73,9.05-10.26,.55-3.23,.22-6.56-.95-9.62-4.57-15.45-11.73-30-18.92-44.46-11.42-22.89-23.01-45.74-34.77-68.54-3.13-6.05-6.92-15.48-12.08-19.92,0,0-47.97-2.91-49.18,1.84-2.7,10.65-2.43,21.83,.78,32.33h0Z"/>
          <path id="Path_103" data-name="Path 103" class="cls-16" d="M824,286.68l-6.78,2.68-4.11,23.01,13.67-.62-2.78-25.07Z"/>
          <path id="Path_104" data-name="Path 104" class="cls-16" d="M838.36,311.2v3.11c0,.45,.02,.9,.07,1.35,.07,.45,.17,.9,.29,1.35l1.7,6.72,.7-10.91c2.01,.98,4.08,1.87,6.17,2.64-.16-1.64-.57-3.24-1.23-4.74-1.23-3.16-2.37-6.34-3.7-9.44-.31-.83-.76-1.6-1.33-2.27-.58-.68-1.45-1.05-2.35-.99-1.23,.52-.46,5.15-.44,6.17l.1,7.01Z"/>
          <path id="Path_105" data-name="Path 105" class="cls-16" d="M938.27,344.43l-25.1,15.87c-.91,.49-2.03,.28-2.7-.49l-7.98-9c-.6-.56-.63-1.5-.07-2.09,.08-.09,.17-.16,.27-.23l25.15-15.85c.91-.49,2.03-.28,2.7,.49l7.98,8.98c.59,.56,.61,1.5,.05,2.09-.09,.09-.19,.17-.29,.24h0Z"/>
        </g>
      </g>
      <g>
        <g>
          <g>
            <path d="M1301.71,830.4c-14.99,0-27.15,12.15-27.15,27.15s12.16,27.15,27.15,27.15,27.15-12.16,27.15-27.15-12.15-27.15-27.15-27.15Zm0,0c-14.99,0-27.15,12.15-27.15,27.15s12.16,27.15,27.15,27.15,27.15-12.16,27.15-27.15-12.15-27.15-27.15-27.15Zm191.97-662.2h-405.66c-51.19,0-92.83,41.64-92.83,92.83V835.9c0,51.19,41.64,92.83,92.83,92.83h405.66c51.19,0,92.83-41.64,92.83-92.83V261.03c0-51.19-41.64-92.83-92.83-92.83Zm70.76,667.7c0,39.02-31.74,70.76-70.76,70.76h-405.66c-39.02,0-70.76-31.74-70.76-70.76V261.03c0-39.02,31.74-70.76,70.76-70.76h405.66c39.02,0,70.76,31.74,70.76,70.76V835.9Zm-262.73-5.5c-14.99,0-27.15,12.15-27.15,27.15s12.16,27.15,27.15,27.15,27.15-12.16,27.15-27.15-12.15-27.15-27.15-27.15Z"/>
            <path class="cls-3" d="M1493.68,190.27h-405.66c-39.02,0-70.76,31.74-70.76,70.76V835.9c0,39.02,31.74,70.76,70.76,70.76h405.66c39.02,0,70.76-31.74,70.76-70.76V261.03c0-39.02-31.74-70.76-70.76-70.76Zm-191.97,694.43c-14.99,0-27.15-12.16-27.15-27.15s12.16-27.15,27.15-27.15,27.15,12.15,27.15,27.15-12.15,27.15-27.15,27.15Z"/>
            <circle class="cls-3" cx="1301.71" cy="857.55" r="27.15" transform="translate(320.07 2068.43) rotate(-84.35)"/>
          </g>
          <circle cx="1301.71" cy="857.55" r="27.15" transform="translate(320.07 2068.43) rotate(-84.35)"/>
        </g>
        <g id="Notifications_Monochromatic-2" data-name="Notifications Monochromatic">
          <path id="Path_73-2" data-name="Path 73" class="cls-17" d="M1428.47,497.26c3.84,15.21,.76,31.35-8.42,44.08-6.77,9.21-16.42,16.1-22.43,25.81-12.99,20.95-6.02,49.55-17.93,71.13-9.96,18.05-30.59,26.92-49.75,34.53-15.04,5.97-30.24,11.98-46.18,14.39-15.95,2.41-33.09,.88-46.91-7.42-11.4-6.83-19.77-17.64-27.5-28.44-19.01-26.57-36.19-55.51-42.02-87.66-5.84-32.15,1.45-68.2,25.38-90.45,11.65-10.83,26.91-18.3,35.13-31.92,8.63-14.29,8.75-34.23,22.16-44.19,4.95-3.68,11.1-5.39,17.21-6.2,14.7-1.89,29.63,.98,42.58,8.19,13.14,7.36,23.93,19.07,38.24,23.78,18.53,6.1,42.3,1.41,54.61,19.47,9.89,14.51,21.44,37.99,25.83,54.9Z"/>
          <path id="Path_74-2" data-name="Path 74" class="cls-16" d="M1349.65,486.98c-.21,.45-.51,.87-.86,1.22-2.87,3.03-6.58,5.12-10.65,6.02-1.44,.33-2.91,.5-4.38,.5-.86-5.58-1.75-11.17-2.42-16.77h0c-.53-4.38-.93-8.75-1.12-13.14-.13-2.75-6.09-12.35-4.87-14.92,1.35-2.83,11.04,6.85,12.13,8.69,6.06,10.15,8.23,18.01,12.38,26.74,.16,.56,.09,1.16-.19,1.67Z"/>
          <path id="Path_75-2" data-name="Path 75" class="cls-40" d="M1339.11,493.19c-.29,.38-.62,.73-.98,1.04-1.44,.33-2.91,.5-4.38,.5-.86-5.58-1.75-11.17-2.42-16.77h0c.26-4.4,.72-8.79,1.39-13.15-.29,1.83,1.96,5.81,2.57,7.6l2.64,7.8c1.38,4.07,4.32,9.02,1.18,12.99Z"/>
          <path id="Path_76-2" data-name="Path 76" class="cls-23" d="M1335.87,502.74c.6,3.67,1.37,7.39,3.18,10.64,.93,1.67,2.32,3.31,4.21,3.6,1.05,.1,2.11-.06,3.08-.46,2.02-.7,3.93-1.69,5.66-2.95,1.65-1.27,3.21-2.65,4.66-4.14,2.15-2.03,4.15-4.23,5.96-6.57,.84-1.13,1.59-2.32,2.5-3.39,3.76-4.48,9.78-6.48,14.04-10.48,1.15-1.07,3.48-5.96,3.31-7.52-1.56-.9-4.78,2.73-6.51,3.26s-3.35,1.38-5.08,1.87c-2.08,.58-4.28,.61-6.37,.08-.71-.18-1.55-11.34-2.26-11.08-.36,.15-.67,.38-.93,.66-1.46,1.5-2.26,14.34-3.47,16.01-1.78,2.18-3.88,4.08-6.24,5.61-.2,.14-.46,.29-.68,.18-.15-.11-.25-.28-.27-.47-.59-2.2-1.26-4.39-1.99-6.55-.51-1.5-1.23-3.16-2.75-3.61-1.35-.4-2.75,.36-3.95,1.09-1.55,.95-3.11,1.88-4.66,2.84-.86,.53-1.89,1.04-2.3,2.01-.5,1.17-.08,2.78,.07,3.97,.22,1.82,.48,3.62,.78,5.4Z"/>
          <path id="Path_77-2" data-name="Path 77" class="cls-16" d="M1349.6,605.04c0,2.3-.11,4.57-.32,6.81-3.76,41.46-40.42,72.02-81.88,68.25-38.53-3.5-68.15-35.59-68.56-74.27v-.75c-.02-41.63,33.71-75.39,75.34-75.41,41.63-.02,75.39,33.71,75.41,75.34v.02Z"/>
          <path id="Path_78-2" data-name="Path 78" class="cls-41" d="M1349.6,605.04c0,2.3-.11,4.57-.32,6.81-17.34,11.8-42.87,19.25-71.34,19.25-33.09,0-62.17-10.06-79.09-25.3v-.75c0-41.63,33.75-75.38,75.38-75.38s75.38,33.75,75.38,75.38h-.01Z"/>
          <path id="Path_79-2" data-name="Path 79" class="cls-9" d="M1308.78,575.57c3.01,1.08,6.28,1.86,8.75,3.91,2.19,1.81,3.52,4.44,4.6,7.06,3.59,8.81,4.88,18.39,3.76,27.83-.3,2.51-.75,5.1-.1,7.52,.65,2.42,2.89,4.69,5.4,4.39,3.48-6.92,3.56-15,3.57-22.74,0-5.66,0-11.43-1.89-16.77-1.55-4.39-4.29-8.27-7.12-11.97-10.31-13.54-22.79-26.17-38.68-32.25-.66-.34-1.42-.43-2.14-.26-3.27,1.2-2.74,7.02-1.47,9.36,1.81,3.23,3.82,6.34,6.02,9.32,4.83,6.68,11.55,11.77,19.3,14.6h0Z"/>
          <path id="Path_80-2" data-name="Path 80" class="cls-6" d="M1279.04,558.57c.04-1.01,.18-2.02,.39-3.01,.24-1,1.01-1.79,2.01-2.04,.41-.01,.82-.05,1.23-.11,.84-.26,1.19-1.23,1.43-2.06l2.67-9.33c.51-1.81,1.03-3.7,.64-5.53-.62-2.86-3.24-4.79-5.8-6.19-1.86-1.02-3.95-1.93-6.02-1.55-3.2,.59-5.06,3.9-6.26,6.94-1.39,3.25-2.25,6.7-2.53,10.22-.21,4.07-.56,14.03,1.96,17.59,3.49,4.99,9.72-.42,10.27-4.93Z"/>
          <path id="Path_81-2" data-name="Path 81" class="cls-5" d="M1319.61,546.8c6.83,2.31,14.09,3.28,20.67,6.22,.43,.13,.78,.43,.98,.84,.06,.33,.02,.66-.12,.96-5.55,16.51-8.68,33.74-9.3,51.15,3.93,.71,7.95,.8,11.91,.26,.45-.03,.88-.16,1.26-.4,.37-.32,.64-.73,.8-1.19,6.36-14.29,12.07-28.84,17.13-43.66,.9-2.63,1.78-5.37,1.42-8.12-.52-4.01-3.53-7.17-6.4-10.02l-22.33-22.28c-.57-.64-1.27-1.15-2.05-1.5-.9-.27-1.85-.31-2.77-.14-8.81,1.09-20.84,1.43-37.02,.75-2.1-.09,8.27,11.86,9.14,14.16,.69,1.82,2.88,4.17,4.22,5.58,3.35,3.52,7.88,5.84,12.46,7.39Z"/>
          <path id="Path_82-2" data-name="Path 82" class="cls-18" d="M1319.61,546.8c6.83,2.31,14.09,3.28,20.67,6.22,.43,.13,.78,.43,.98,.84,.06,.33,.02,.66-.12,.96-5.55,16.51-8.68,33.74-9.3,51.15,3.93,.71,7.95,.8,11.91,.26,.45-.03,.88-.16,1.26-.4,.37-.32,.64-.73,.8-1.19,6.36-14.29,12.07-28.84,17.13-43.66,.9-2.63,1.78-5.37,1.42-8.12-.52-4.01-3.53-7.17-6.4-10.02l-22.33-22.28c-.57-.64-1.27-1.15-2.05-1.5-.9-.27-1.85-.31-2.77-.14-8.81,1.09-20.84,1.43-37.02,.75-2.1-.09,8.27,11.86,9.14,14.16,.69,1.82,2.88,4.17,4.22,5.58,3.35,3.52,7.88,5.84,12.46,7.39Z"/>
          <path id="Path_83-2" data-name="Path 83" class="cls-15" d="M1330.69,615.84c-.55,.85-.92,1.81-1.09,2.81-.4,1.75-.7,3.52-.89,5.3-.29,1.37-.08,2.79,.59,4.02,.79,1.14,2.09,1.55,3.31,2.02,3.07,1.26,6.05,2.73,8.92,4.39,1.94,1.07,3.96,2.17,6.18,2.26s4.66-1.13,5.16-3.28c.17-1.04,.09-2.1-.26-3.09-1.21-4.32-3.57-8.22-6.84-11.28-.57-.56-1.21-1.05-1.9-1.45-.66-.34-1.35-.62-2.07-.84-2.01-.73-4.07-1.33-6.16-1.77-1.83-.29-3.68-.83-4.94,.92Z"/>
          <path id="Path_84-2" data-name="Path 84" class="cls-4" d="M1330.69,615.84c-.55,.85-.92,1.81-1.09,2.81-.4,1.75-.7,3.52-.89,5.3-.29,1.37-.08,2.79,.59,4.02,.79,1.14,2.09,1.55,3.31,2.02,3.07,1.26,6.05,2.73,8.92,4.39,1.94,1.07,3.96,2.17,6.18,2.26s4.66-1.13,5.16-3.28c.17-1.04,.09-2.1-.26-3.09-1.21-4.32-3.57-8.22-6.84-11.28-.57-.56-1.21-1.05-1.9-1.45-.66-.34-1.35-.62-2.07-.84-2.01-.73-4.07-1.33-6.16-1.77-1.83-.29-3.68-.83-4.94,.92Z"/>
          <path id="Path_85-2" data-name="Path 85" class="cls-23" d="M1332.93,606.53c-.57,2.98-.87,6-.89,9.03,0,1.33,.09,2.81,1.05,3.76,.9,.72,2.06,1.05,3.2,.92,1.38-.05,2.75-.33,4.04-.84,.29-.09,.54-.25,.75-.47,.15-.21,.26-.46,.31-.72,1.15-4.31,1.76-8.74,1.81-13.19,.07-.7-.07-1.4-.41-2.02-.72-1-2.2-.96-3.4-.72-1.54,.33-3.05,.79-4.51,1.38-1.38,.49-1.67,1.44-1.95,2.86Z"/>
          <path id="Path_86-2" data-name="Path 86" class="cls-23" d="M1347.76,620.67c.54,1.34,.99,2.71,1.32,4.11,.11,1.11,.47,2.18,1.07,3.13,.89,1.09,2.43,1.37,3.84,1.39,1.16,.07,2.32-.13,3.39-.57,.56-.22,1.03-.62,1.32-1.14,.21-.51,.28-1.07,.21-1.62-.11-3.82-1.06-7.57-2.79-10.98-.99-1.76-2.11-3.45-3.34-5.05-.39-.72-1.05-1.26-1.83-1.5-.81-.03-1.6,.27-2.19,.84-1.24,.93-3.97,2.49-3.68,4.26,.35,2.35,1.83,4.92,2.67,7.15Z"/>
          <path id="Path_87-2" data-name="Path 87" class="cls-15" d="M1356.88,623.44c-.85,.48-1.68,1-2.47,1.56-1.31,.55-2.67,.96-4.06,1.21-.36,.07-.69,.24-.95,.5-.19,.25-.3,.55-.34,.86-.26,2.05-.17,4.13,.25,6.16,.69,4.38,1.5,8.75,2.42,13.09,.38,1.79,.84,3.68,2.14,4.96,1.43,1.21,3.26,1.84,5.13,1.78,1.73,.1,3.46-.22,5.04-.94,2.54-1.36,4.33-3.81,4.84-6.65,.49-2.82,.15-5.72-.99-8.34-.77-1.79-1.67-3.53-2.69-5.2-1.35-2.33-2.7-4.65-4.05-6.98-1.02-1.78-1.96-3.02-4.27-2.03Z"/>
          <path id="Path_88-2" data-name="Path 88" class="cls-7" d="M1356.88,623.44c-.85,.48-1.68,1-2.47,1.56-1.31,.55-2.67,.96-4.06,1.21-.36,.07-.69,.24-.95,.5-.19,.25-.3,.55-.34,.86-.26,2.05-.17,4.13,.25,6.16,.69,4.38,1.5,8.75,2.42,13.09,.38,1.79,.84,3.68,2.14,4.96,1.43,1.21,3.26,1.84,5.13,1.78,1.73,.1,3.46-.22,5.04-.94,2.54-1.36,4.33-3.81,4.84-6.65,.49-2.82,.15-5.72-.99-8.34-.77-1.79-1.67-3.53-2.69-5.2-1.35-2.33-2.7-4.65-4.05-6.98-1.02-1.78-1.96-3.02-4.27-2.03Z"/>
          <path id="Path_89-2" data-name="Path 89" class="cls-23" d="M1265.75,485.77c-.66,1.66-1.1,3.39-1.31,5.16-.72,4.58-1.17,9.2-1.37,13.83-.38,8.85,.2,17.71-.05,26.55-.26,9.2-1.34,18.74,1.97,27.32,.52,1.56,1.39,2.97,2.54,4.14,1.19,1.16,2.9,1.63,4.51,1.23,1.46-.56,2.57-1.77,3.01-3.27,.41-1.48,.6-3.02,.54-4.56l.12-8.41c0-.17,0-.38,.17-.45,.15-.05,.31-.02,.43,.08,.65,.56,1.26,1.15,1.84,1.78,.67,.54,1.74,.81,2.34,.18,.33-.44,.46-1.01,.35-1.55-.36-3.64-3.53-6.27-5.42-9.4-2.72-4.51-2.72-10.2-2.04-15.45,.85-6.57,2.63-12.99,4.39-19.38l1.5-5.41c1.14-4.11,2.26-8.59,.6-12.52-1.35-3.06-4.08-5.3-7.35-6.02-3.15-.58-5.65,3.59-6.79,6.14Z"/>
          <path id="Path_90-2" data-name="Path 90" class="cls-16" d="M1335.57,519.97c-.97,2.61-6.45-.44-9.57,1.13-5.97,3.01-12.79-.08-19.44,0-7.09,.13-11.97,7.11-19.01,7.99-.51,.11-1.04,.11-1.55,0-.93-.41-1.64-1.2-1.96-2.17-.61-1.4-1.04-2.88-1.29-4.39-.87-4.99,0-10.35,.93-15.43,.78-4.3,1.56-8.61,2.34-12.91,.9-5.01,1.81-10.06,2.73-15.13,.53-3.35,1.29-6.66,2.26-9.91,.18-.56,.37-1.11,.57-1.65,1.75-4.41,3.86-8.67,6.31-12.73,1.5-2.61,3.01-5.26,5.33-7.24,5.32-3.82,12.07-5.02,18.38-3.28,1.68,.59,2.31,2.36,3.64,3.45,1.69,1.25,3.19,2.73,4.48,4.39,1.3,2.01,2.23,4.24,2.75,6.57,4.72,18.34-2.11,38.12,2.38,56.51,.52,2.16,1.51,2.73,.73,4.79Z"/>
          <path id="Path_91-2" data-name="Path 91" class="cls-37" d="M1329.16,455.56l.59,3.84-2.26-1.26v10.18l-2.57-11.32,2.49-3.63,1.75,2.17Z"/>
          <path id="Path_92-2" data-name="Path 92" class="cls-10" d="M1310.06,455.31l1.42,.75,2.26,1.96-6.02,16.14s8.74-13.45,9.03-20.31c.18-4.22-.35-8.44-1.56-12.48l-5.13,13.94Z"/>
          <path id="Path_93-2" data-name="Path 93" class="cls-20" d="M1290.79,501.57c-.48,3.7-.48,7.44,0,11.13,.45,2.3,.66,4.63,.65,6.97,0,.46-.14,.9-.41,1.26-.35,.29-.79,.46-1.24,.49-2.35,.37-4.71,.75-7.06,1.14-.87-4.99,0-10.35,.93-15.43,.78-4.3,1.56-8.61,2.34-12.91,.9-5.01,1.81-10.06,2.73-15.13,.54-3.35,1.29-6.66,2.26-9.91,.18-.56,.37-1.11,.57-1.65,2.34-1.29,5.57-2.26,7.02-.17,1.5,2.26-.47,7.52-1.06,9.78-2.13,8.18-5.63,15.99-6.71,24.43Z"/>
          <path id="Path_94-2" data-name="Path 94" class="cls-23" d="M1344.89,436.36c.08,.94,.05,1.88-.08,2.81-.16,.95-.95,1.67-1.92,1.73-2.35-.17-4.04,2.08-5.9,3.52-2.98,2.24-6.97,2.62-10.32,.99-.68-.24-1.43,.09-1.71,.75-.23,.66-.29,1.38-.15,2.07l.86,8.23c.17,1.59,.18,3.53-1.17,4.38s-2.94,.11-4.05-.86c-1.75-1.68-3.02-3.81-3.66-6.14-2.99-9.64-.67-20.15,6.1-27.64,1.25-1.4,2.71-2.59,4.34-3.52,1.7-.88,3.53-1.5,5.42-1.83,1.69-.4,3.44-.5,5.16-.29,2.31,.42,4.42,1.61,5.97,3.38,1.14,1.25,2.26,4.97,3.46,5.58-.89,2.27-2.31,4.28-2.34,6.85Z"/>
          <path id="Path_95-2" data-name="Path 95" class="cls-15" d="M1326.99,404.06c-1.1-.26-2.25-.22-3.34,.1-2.12,.75-3.31,2.97-4.08,5.08s-1.4,4.42-3.07,5.92c-1.44,1.29-3.47,1.81-4.77,3.24-1.5,1.66-1.65,4.12-1.5,6.36,0,1.68,.47,3.32,1.36,4.74,.8,1.08,2.02,1.84,2.65,3.01,.71,1.35,.95,3.43,2.47,3.52,.63-.03,1.23-.3,1.68-.75,1.54-1.33,2.69-3.04,3.35-4.96,.37-1.07,.61-2.26,1.42-3.01s2.47-.8,2.84,.27c.1,.68,0,1.37-.3,1.99-.2,.66-.11,1.56,.53,1.78,1.22-1.88,1.9-4.09,3.35-5.8,2.97-3.48,8.19-3.89,11.66-.92,.53,.45,1,.97,1.4,1.54,.75,1.08,1.26,2.35,2.32,3.12,.99,.6,2.13,.94,3.29,.96,2.59,.26,5.32,.35,7.66-.8s4.05-3.94,3.16-6.39c-.71-1.92-2.72-3.01-4.68-3.63s-4.05-.93-5.77-2.02c-2.34-1.5-3.59-4.18-4.95-6.61s-3.2-4.93-5.93-5.5c-1.11-.17-2.24-.17-3.35,0-1.08,.23-2.19,.32-3.3,.26-1.35-.28-2.66-1.2-4.09-1.51Z"/>
          <path id="Path_96-2" data-name="Path 96" class="cls-2" d="M1326.99,465.87c1.72,8.7,2.22,17.6,1.5,26.44-.59,7.36-2.01,14.66-1.96,22.04,.11,2.08,.05,4.16-.19,6.22-.33,2.05-14.05,1.26-16.05,1.24-3.37-.04,.9,4.51-1.63,2.32-3.98-3.47-5.75-8.88-6.24-14.13-.7-7.48,.84-14.98,2.5-22.31,1.02-5.11,2.52-10.11,4.47-14.95,2.57-5.9,6.64-13.42,7.95-19.73,.19-.93-3.01-4.29-1.63-4.24,.9,0,.47,1.39,.63,2.08,.28,1.05,.82,2.02,1.57,2.81,1.05,1.22,2.47,2.07,4.05,2.41,1.02,.19,2.17,.14,2.91,.86,.9,.87,.75,2.57,1.01,3.76,.37,1.7,.76,3.42,1.11,5.16Z"/>
          <path id="Path_97-2" data-name="Path 97" class="cls-16" d="M1296.54,443.49c-3.58,1.8-6.87,4.15-9.73,6.96-2.45,2.2-4.75,4.56-6.92,7.04-1.91,2.26-3.66,4.6-5.67,6.72-2.78,2.93-6.26,5.75-6.81,9.78-.17,2.1,.2,4.2,1.07,6.12,.72,1.96,1.77,3.77,3.12,5.36,1.71,1.89,3.97,3.21,6.46,3.76,.78,.2,1.6,.24,2.39,.11,1.12-.32,2.15-.9,3.01-1.68,1.96-1.48,3.82-3.1,5.56-4.84,1.77-1.84,3.28-3.94,5.01-5.83,1.5-1.62,3.11-3.09,4.61-4.69,1.8-1.91,3.4-3.99,5-6.08,2.27-2.83,4.34-5.8,6.22-8.9,1.57-2.74,2.81-5.64,3.71-8.66,.58-1.97,1.5-4.47-.5-5.89-4.25-3-12.31-1.27-16.54,.71Z"/>
          <path id="Path_98-2" data-name="Path 98" class="cls-16" d="M1296.54,443.49c-3.58,1.8-6.87,4.15-9.73,6.96-2.45,2.2-4.75,4.56-6.92,7.04-1.91,2.26-3.66,4.6-5.67,6.72-2.78,2.93-6.26,5.75-6.81,9.78-.17,2.1,.2,4.2,1.07,6.12,.72,1.96,1.77,3.77,3.12,5.36,1.71,1.89,3.97,3.21,6.46,3.76,.78,.2,1.6,.24,2.39,.11,1.12-.32,2.15-.9,3.01-1.68,1.96-1.48,3.82-3.1,5.56-4.84,1.77-1.84,3.28-3.94,5.01-5.83,1.5-1.62,3.11-3.09,4.61-4.69,1.8-1.91,3.4-3.99,5-6.08,2.27-2.83,4.34-5.8,6.22-8.9,1.57-2.74,2.81-5.64,3.71-8.66,.58-1.97,1.5-4.47-.5-5.89-4.25-3-12.31-1.27-16.54,.71Z"/>
          <path id="Path_99-2" data-name="Path 99" class="cls-29" d="M1359.59,477.84c-1.69,1.07-2.23,3.29-1.21,5.01,1.26,2.2,2.96,4.12,4.98,5.64,1.2,1.29,3.91,1.5,6.32,.09s13.89-7.66,19.63-11.75c1.71-1.18,2.14-3.52,.97-5.23-.04-.05-.08-.11-.12-.16l-4.81-6.02c-1.18-1.47-3.28-1.82-4.87-.81l-20.89,13.22Z"/>
          <path id="Path_100-2" data-name="Path 100" class="cls-24" d="M1284.29,529.24l-.17-.17"/>
          <path id="Path_101-2" data-name="Path 101" class="cls-5" d="M1283.26,542.66c.85,3.12,2.35,6.01,4.42,8.5,2.26,2.63,5.32,4.51,8.27,6.3l12.42,7.56c1.82,1.05,3.56,2.23,5.21,3.53,4.07,3.35,6.77,8.03,9.39,12.61l18.11,31.57c.92,1.62,2.2,3.45,4.06,3.38,1-.13,1.94-.55,2.71-1.2,2.32-1.63,4.82-3.49,5.51-6.25,.34-1.97,.14-3.99-.58-5.86-2.78-9.41-7.15-18.27-11.52-27.08-6.95-13.94-14.01-27.85-21.17-41.74-1.9-3.68-4.21-9.42-7.36-12.13,0,0-29.21-1.77-29.95,1.12-1.64,6.48-1.48,13.29,.47,19.69h0Z"/>
          <path id="Path_102-2" data-name="Path 102" class="cls-28" d="M1283.26,542.66c.85,3.12,2.35,6.01,4.42,8.5,2.26,2.63,5.32,4.51,8.27,6.3l12.42,7.56c1.82,1.05,3.56,2.23,5.21,3.53,4.07,3.35,6.77,8.03,9.39,12.61l18.11,31.57c.92,1.62,2.2,3.45,4.06,3.38,1-.13,1.94-.55,2.71-1.2,2.32-1.63,4.82-3.49,5.51-6.25,.34-1.97,.14-3.99-.58-5.86-2.78-9.41-7.15-18.27-11.52-27.08-6.95-13.94-14.01-27.85-21.17-41.74-1.9-3.68-4.21-9.42-7.36-12.13,0,0-29.21-1.77-29.95,1.12-1.64,6.48-1.48,13.29,.47,19.69h0Z"/>
          <path id="Path_103-2" data-name="Path 103" class="cls-16" d="M1316.11,439.37l-4.13,1.63-2.5,14.01,8.33-.38-1.69-15.27Z"/>
          <path id="Path_104-2" data-name="Path 104" class="cls-16" d="M1324.85,454.3v1.9c0,.27,.01,.55,.04,.82,.04,.28,.1,.55,.18,.82l1.04,4.09,.43-6.65c1.23,.59,2.48,1.14,3.76,1.61-.1-1-.35-1.97-.75-2.89-.75-1.93-1.44-3.86-2.26-5.75-.19-.5-.46-.97-.81-1.38-.36-.41-.88-.64-1.43-.6-.75,.32-.28,3.14-.27,3.76l.06,4.27Z"/>
          <path id="Path_105-2" data-name="Path 105" class="cls-16" d="M1385.7,474.54l-15.28,9.67c-.55,.3-1.24,.17-1.65-.3l-4.86-5.48c-.36-.34-.38-.91-.04-1.28,.05-.05,.1-.1,.16-.14l15.31-9.65c.55-.3,1.24-.17,1.65,.3l4.86,5.47c.36,.34,.37,.91,.03,1.27-.05,.06-.11,.1-.18,.14h0Z"/>
        </g>
      </g>
      <g>
        <g>
          <g>
            <path d="M1041,382.2h-215.99c-37.19,0-67.45,30.26-67.45,67.45v495.28c0,37.19,30.26,67.45,67.45,67.45h215.99c37.19,0,67.45-30.26,67.45-67.45V449.65c0-37.19-30.26-67.45-67.45-67.45Zm45.38,562.73c0,25.02-20.36,45.37-45.38,45.37h-215.99c-25.02,0-45.37-20.35-45.37-45.37V449.65c0-25.02,20.35-45.38,45.37-45.38h215.99c25.02,0,45.38,20.36,45.38,45.38v495.28Z"/>
            <path class="cls-3" d="M1041,404.27h-215.99c-25.02,0-45.37,20.36-45.37,45.38v495.28c0,25.02,20.35,45.37,45.37,45.37h215.99c25.02,0,45.38-20.35,45.38-45.37V449.65c0-25.02-20.36-45.38-45.38-45.38Zm-99.05,569.9c-12.35,0-22.36-10.01-22.36-22.36s10.01-22.36,22.36-22.36,22.36,10.01,22.36,22.36-10.01,22.36-22.36,22.36Z"/>
          </g>
          <circle cx="941.95" cy="951.81" r="22.36"/>
        </g>
        <g id="Notifications_Monochromatic-3" data-name="Notifications Monochromatic">
          <path id="Path_73-3" data-name="Path 73" class="cls-17" d="M1034.41,662.11c2.63,10.43,.52,21.5-5.77,30.22-4.64,6.32-11.26,11.04-15.38,17.7-8.91,14.36-4.13,33.98-12.3,48.77-6.83,12.38-20.98,18.46-34.11,23.68-10.32,4.1-20.73,8.22-31.67,9.87-10.93,1.65-22.69,.6-32.17-5.09-7.81-4.68-13.55-12.09-18.86-19.5-13.03-18.22-24.81-38.06-28.81-60.11-4-22.04,.99-46.77,17.4-62.02,7.99-7.43,18.45-12.55,24.09-21.89,5.92-9.8,6-23.47,15.19-30.3,3.39-2.52,7.61-3.7,11.8-4.25,10.08-1.3,20.32,.67,29.2,5.62,9.01,5.05,16.41,13.07,26.22,16.3,12.7,4.18,29.01,.97,37.45,13.35,6.78,9.95,14.7,26.05,17.71,37.64Z"/>
          <path id="Path_74-3" data-name="Path 74" class="cls-16" d="M980.36,655.06c-.15,.31-.35,.59-.59,.84-1.97,2.08-4.51,3.51-7.3,4.13-.99,.23-1.99,.34-3.01,.34-.59-3.83-1.2-7.66-1.66-11.5h0c-.37-3-.64-6-.77-9.01-.09-1.89-4.18-8.47-3.34-10.23,.92-1.94,7.57,4.7,8.32,5.96,4.15,6.96,5.64,12.35,8.49,18.33,.11,.38,.06,.8-.13,1.15Z"/>
          <path id="Path_75-3" data-name="Path 75" class="cls-36" d="M973.14,659.32c-.2,.26-.42,.5-.67,.71-.99,.23-1.99,.34-3.01,.34-.59-3.83-1.2-7.66-1.66-11.5h0c.18-3.02,.49-6.03,.95-9.02-.2,1.25,1.35,3.99,1.76,5.21l1.81,5.35c.94,2.79,2.96,6.18,.81,8.91Z"/>
          <path id="Path_76-3" data-name="Path 76" class="cls-23" d="M970.91,665.87c.41,2.52,.94,5.06,2.18,7.29,.64,1.14,1.59,2.27,2.89,2.47,.72,.07,1.45-.04,2.11-.31,1.39-.48,2.69-1.16,3.88-2.02,1.13-.87,2.2-1.82,3.19-2.84,1.48-1.39,2.84-2.9,4.09-4.51,.57-.77,1.09-1.59,1.72-2.33,2.58-3.07,6.7-4.45,9.63-7.18,.79-.73,2.39-4.08,2.27-5.16-1.07-.62-3.28,1.87-4.46,2.23s-2.3,.95-3.49,1.28c-1.43,.4-2.93,.42-4.37,.06-.48-.12-1.06-7.77-1.55-7.6-.24,.1-.46,.26-.64,.45-1,1.03-1.55,9.84-2.38,10.98-1.22,1.5-2.66,2.8-4.28,3.85-.14,.1-.31,.2-.47,.12-.1-.08-.17-.19-.18-.32-.41-1.51-.87-3.01-1.37-4.49-.35-1.03-.85-2.17-1.88-2.48-.92-.27-1.88,.25-2.71,.75-1.06,.65-2.14,1.29-3.19,1.94-.59,.36-1.3,.71-1.58,1.38-.34,.8-.05,1.9,.05,2.72,.15,1.25,.33,2.48,.54,3.7Z"/>
          <path id="Path_77-3" data-name="Path 77" class="cls-16" d="M980.33,736.01c0,1.58-.08,3.13-.22,4.67-2.58,28.43-27.72,49.38-56.14,46.8-26.42-2.4-46.73-24.4-47.01-50.93v-.52c-.01-28.55,23.12-51.7,51.66-51.71,28.55-.01,51.7,23.12,51.71,51.66v.02Z"/>
          <path id="Path_78-3" data-name="Path 78" class="cls-26" d="M980.33,736.02c0,1.58-.08,3.13-.22,4.67-11.89,8.09-29.4,13.2-48.92,13.2-22.69,0-42.63-6.9-54.23-17.35v-.52c0-28.55,23.14-51.69,51.69-51.69s51.69,23.14,51.69,51.69h0Z"/>
          <path id="Path_79-3" data-name="Path 79" class="cls-21" d="M952.34,715.81c2.06,.74,4.31,1.27,6,2.68,1.5,1.24,2.41,3.04,3.15,4.84,2.46,6.04,3.35,12.61,2.58,19.08-.21,1.72-.52,3.5-.07,5.16,.45,1.66,1.98,3.22,3.7,3.01,2.39-4.74,2.44-10.28,2.44-15.6,0-3.88,0-7.84-1.3-11.5-1.06-3.01-2.94-5.67-4.88-8.21-7.07-9.28-15.63-17.94-26.52-22.12-.45-.23-.97-.29-1.46-.18-2.24,.82-1.88,4.81-1.01,6.42,1.24,2.22,2.62,4.35,4.13,6.39,3.31,4.58,7.92,8.07,13.23,10.01h0Z"/>
          <path id="Path_80-3" data-name="Path 80" class="cls-42" d="M931.94,704.15c.03-.69,.12-1.38,.27-2.06,.16-.69,.69-1.23,1.38-1.4,.28,0,.57-.03,.85-.08,.57-.18,.81-.84,.98-1.41l1.83-6.4c.35-1.24,.71-2.54,.44-3.79-.42-1.96-2.22-3.29-3.98-4.24-1.27-.7-2.71-1.33-4.13-1.06-2.2,.41-3.47,2.68-4.29,4.76-.95,2.23-1.54,4.59-1.74,7.01-.14,2.79-.38,9.62,1.35,12.06,2.39,3.42,6.66-.29,7.05-3.38Z"/>
          <path id="Path_81-3" data-name="Path 81" class="cls-5" d="M959.76,696.08c4.68,1.58,9.66,2.25,14.17,4.27,.29,.09,.54,.3,.67,.57,.04,.22,.01,.45-.08,.66-3.81,11.32-5.95,23.13-6.37,35.07,2.7,.49,5.45,.55,8.17,.18,.31-.02,.6-.11,.86-.27,.25-.22,.44-.5,.55-.81,4.36-9.8,8.28-19.78,11.75-29.94,.62-1.8,1.22-3.68,.97-5.57-.36-2.75-2.42-4.91-4.39-6.87l-15.31-15.27c-.39-.44-.87-.79-1.4-1.03-.62-.18-1.27-.22-1.9-.09-6.04,.75-14.29,.98-25.39,.52-1.44-.06,5.67,8.13,6.27,9.71,.47,1.25,1.98,2.86,2.89,3.83,2.3,2.41,5.4,4.01,8.54,5.07Z"/>
          <path id="Path_82-3" data-name="Path 82" class="cls-32" d="M959.76,696.08c4.68,1.58,9.66,2.25,14.17,4.27,.29,.09,.54,.3,.67,.57,.04,.22,.01,.45-.08,.66-3.81,11.32-5.95,23.13-6.37,35.07,2.7,.49,5.45,.55,8.17,.18,.31-.02,.6-.11,.86-.27,.25-.22,.44-.5,.55-.81,4.36-9.8,8.28-19.78,11.75-29.94,.62-1.8,1.22-3.68,.97-5.57-.36-2.75-2.42-4.91-4.39-6.87l-15.31-15.27c-.39-.44-.87-.79-1.4-1.03-.62-.18-1.27-.22-1.9-.09-6.04,.75-14.29,.98-25.39,.52-1.44-.06,5.67,8.13,6.27,9.71,.47,1.25,1.98,2.86,2.89,3.83,2.3,2.41,5.4,4.01,8.54,5.07Z"/>
          <path id="Path_83-3" data-name="Path 83" class="cls-15" d="M967.37,743.42c-.38,.59-.63,1.24-.75,1.93-.27,1.2-.48,2.41-.61,3.63-.2,.94-.06,1.92,.4,2.76,.54,.78,1.43,1.06,2.27,1.39,2.1,.87,4.15,1.87,6.12,3.01,1.33,.73,2.72,1.49,4.23,1.55s3.19-.77,3.54-2.25c.12-.71,.06-1.44-.18-2.12-.83-2.96-2.45-5.63-4.69-7.74-.39-.38-.83-.72-1.3-1-.45-.23-.93-.43-1.42-.58-1.38-.5-2.79-.91-4.22-1.21-1.26-.2-2.52-.57-3.39,.63Z"/>
          <path id="Path_84-3" data-name="Path 84" class="cls-8" d="M967.37,743.42c-.38,.59-.63,1.24-.75,1.93-.27,1.2-.48,2.41-.61,3.63-.2,.94-.06,1.92,.4,2.76,.54,.78,1.43,1.06,2.27,1.39,2.1,.87,4.15,1.87,6.12,3.01,1.33,.73,2.72,1.49,4.23,1.55s3.19-.77,3.54-2.25c.12-.71,.06-1.44-.18-2.12-.83-2.96-2.45-5.63-4.69-7.74-.39-.38-.83-.72-1.3-1-.45-.23-.93-.43-1.42-.58-1.38-.5-2.79-.91-4.22-1.21-1.26-.2-2.52-.57-3.39,.63Z"/>
          <path id="Path_85-3" data-name="Path 85" class="cls-23" d="M968.9,737.04c-.39,2.04-.59,4.11-.61,6.19,0,.91,.06,1.92,.72,2.58,.62,.49,1.41,.72,2.2,.63,.95-.03,1.89-.23,2.77-.57,.2-.06,.37-.17,.52-.32,.1-.15,.18-.32,.21-.49,.79-2.95,1.2-5.99,1.24-9.05,.05-.48-.05-.96-.28-1.38-.49-.69-1.51-.66-2.33-.49-1.06,.23-2.09,.54-3.09,.94-.95,.33-1.15,.98-1.34,1.96Z"/>
          <path id="Path_86-3" data-name="Path 86" class="cls-23" d="M979.07,746.73c.37,.92,.68,1.86,.91,2.82,.07,.76,.33,1.5,.73,2.15,.61,.75,1.67,.94,2.63,.95,.79,.05,1.59-.09,2.33-.39,.38-.15,.7-.43,.91-.78,.14-.35,.19-.74,.14-1.11-.08-2.62-.73-5.19-1.91-7.53-.68-1.21-1.44-2.37-2.29-3.47-.27-.49-.72-.86-1.25-1.03-.56-.02-1.1,.19-1.5,.57-.85,.64-2.72,1.71-2.52,2.92,.24,1.61,1.25,3.37,1.83,4.9Z"/>
          <path id="Path_87-3" data-name="Path 87" class="cls-15" d="M985.32,748.64c-.58,.33-1.15,.68-1.7,1.07-.89,.38-1.83,.66-2.79,.83-.25,.05-.47,.17-.65,.35-.13,.17-.21,.38-.23,.59-.18,1.41-.12,2.83,.17,4.22,.47,3.01,1.03,6,1.66,8.98,.26,1.23,.58,2.52,1.47,3.4,.98,.83,2.23,1.26,3.52,1.22,1.19,.07,2.37-.15,3.46-.64,1.74-.93,2.97-2.61,3.32-4.56,.34-1.93,.1-3.92-.68-5.72-.53-1.23-1.15-2.42-1.85-3.56-.93-1.6-1.85-3.19-2.77-4.79-.7-1.22-1.34-2.07-2.93-1.39Z"/>
          <path id="Path_88-3" data-name="Path 88" class="cls-34" d="M985.32,748.64c-.58,.33-1.15,.68-1.7,1.07-.89,.38-1.83,.66-2.79,.83-.25,.05-.47,.17-.65,.35-.13,.17-.21,.38-.23,.59-.18,1.41-.12,2.83,.17,4.22,.47,3.01,1.03,6,1.66,8.98,.26,1.23,.58,2.52,1.47,3.4,.98,.83,2.23,1.26,3.52,1.22,1.19,.07,2.37-.15,3.46-.64,1.74-.93,2.97-2.61,3.32-4.56,.34-1.93,.1-3.92-.68-5.72-.53-1.23-1.15-2.42-1.85-3.56-.93-1.6-1.85-3.19-2.77-4.79-.7-1.22-1.34-2.07-2.93-1.39Z"/>
          <path id="Path_89-3" data-name="Path 89" class="cls-23" d="M922.83,654.23c-.45,1.14-.75,2.32-.9,3.54-.49,3.14-.8,6.31-.94,9.48-.26,6.07,.13,12.14-.04,18.21-.18,6.31-.92,12.85,1.35,18.73,.35,1.07,.95,2.04,1.74,2.84,.82,.8,1.99,1.12,3.09,.85,1-.39,1.76-1.21,2.06-2.24,.28-1.02,.41-2.07,.37-3.13l.08-5.77c0-.12,0-.26,.12-.31,.1-.03,.21-.01,.29,.06,.44,.38,.87,.79,1.26,1.22,.46,.37,1.19,.55,1.6,.12,.23-.3,.32-.69,.24-1.06-.25-2.5-2.42-4.3-3.72-6.45-1.87-3.09-1.87-6.99-1.4-10.59,.58-4.51,1.8-8.91,3.01-13.29l1.03-3.71c.78-2.82,1.55-5.89,.41-8.59-.92-2.1-2.8-3.63-5.04-4.13-2.16-.4-3.87,2.46-4.65,4.21Z"/>
          <path id="Path_90-3" data-name="Path 90" class="cls-16" d="M970.71,677.68c-.67,1.79-4.42-.3-6.57,.77-4.1,2.06-8.77-.06-13.33,0-4.86,.09-8.21,4.87-13.03,5.48-.35,.07-.71,.07-1.06,0-.64-.28-1.13-.82-1.34-1.49-.42-.96-.71-1.97-.89-3.01-.6-3.42,0-7.1,.64-10.58,.54-2.95,1.07-5.9,1.6-8.86,.62-3.44,1.24-6.9,1.87-10.38,.37-2.3,.88-4.56,1.55-6.79,.12-.39,.25-.76,.39-1.13,1.2-3.02,2.65-5.95,4.33-8.73,1.03-1.79,2.06-3.61,3.66-4.97,3.65-2.62,8.28-3.44,12.6-2.25,1.15,.4,1.58,1.62,2.5,2.37,1.16,.86,2.19,1.87,3.07,3.01,.89,1.38,1.53,2.9,1.88,4.51,3.23,12.57-1.44,26.14,1.63,38.75,.35,1.48,1.04,1.87,.5,3.29Z"/>
          <path id="Path_91-3" data-name="Path 91" class="cls-35" d="M966.32,633.52l.4,2.64-1.55-.86v6.98l-1.76-7.76,1.71-2.49,1.2,1.49Z"/>
          <path id="Path_92-3" data-name="Path 92" class="cls-19" d="M953.22,633.35l.97,.52,1.55,1.35-4.13,11.07s5.99-9.22,6.19-13.93c.12-2.89-.24-5.79-1.07-8.56l-3.52,9.56Z"/>
          <path id="Path_93-3" data-name="Path 93" class="cls-12" d="M940.01,665.07c-.33,2.53-.33,5.1,0,7.63,.31,1.57,.45,3.18,.44,4.78,0,.31-.1,.62-.28,.87-.24,.2-.54,.31-.85,.34-1.61,.25-3.23,.51-4.84,.78-.6-3.42,0-7.1,.64-10.58,.54-2.95,1.07-5.9,1.6-8.86,.62-3.44,1.24-6.9,1.87-10.38,.37-2.3,.88-4.56,1.55-6.79,.12-.39,.25-.76,.39-1.13,1.6-.89,3.82-1.55,4.81-.11,1.03,1.55-.33,5.16-.73,6.7-1.46,5.61-3.86,10.96-4.6,16.75Z"/>
          <path id="Path_94-3" data-name="Path 94" class="cls-23" d="M977.1,620.35c.05,.64,.03,1.29-.06,1.92-.11,.65-.65,1.15-1.32,1.19-1.61-.12-2.77,1.42-4.05,2.41-2.05,1.53-4.78,1.8-7.08,.68-.47-.17-.98,.06-1.17,.52-.16,.45-.2,.94-.1,1.42l.59,5.64c.11,1.09,.12,2.42-.8,3.01s-2.02,.08-2.78-.59c-1.2-1.15-2.07-2.61-2.51-4.21-2.05-6.61-.46-13.82,4.18-18.95,.86-.96,1.86-1.77,2.98-2.41,1.17-.61,2.42-1.03,3.71-1.25,1.16-.27,2.36-.34,3.54-.2,1.59,.29,3.03,1.1,4.1,2.32,.78,.86,1.55,3.41,2.37,3.83-.61,1.56-1.58,2.94-1.61,4.69Z"/>
          <path id="Path_95-3" data-name="Path 95" class="cls-15" d="M964.83,598.21c-.76-.18-1.55-.15-2.29,.07-1.45,.52-2.27,2.04-2.8,3.49s-.96,3.03-2.1,4.06c-.99,.89-2.38,1.24-3.27,2.22-1.03,1.14-1.13,2.83-1.03,4.36,0,1.15,.32,2.28,.93,3.25,.55,.74,1.39,1.26,1.82,2.06,.48,.92,.65,2.35,1.69,2.41,.43-.02,.84-.21,1.15-.52,1.05-.91,1.85-2.08,2.3-3.4,.25-.73,.42-1.55,.97-2.06s1.69-.55,1.94,.18c.07,.47,0,.94-.21,1.37-.13,.45-.08,1.07,.37,1.22,.84-1.29,1.3-2.81,2.3-3.98,2.03-2.38,5.61-2.67,8-.63,.36,.31,.69,.66,.96,1.06,.52,.74,.87,1.61,1.59,2.14,.68,.41,1.46,.64,2.25,.66,1.77,.18,3.65,.24,5.25-.55s2.78-2.7,2.17-4.38c-.48-1.32-1.87-2.06-3.21-2.49s-2.77-.63-3.96-1.39c-1.6-1.03-2.46-2.87-3.39-4.53s-2.2-3.38-4.06-3.77c-.76-.12-1.54-.12-2.3,0-.74,.16-1.5,.22-2.26,.18-.93-.19-1.83-.82-2.81-1.04Z"/>
          <path id="Path_96-3" data-name="Path 96" class="cls-2" d="M964.83,640.59c1.18,5.97,1.52,12.07,1.03,18.13-.41,5.04-1.38,10.05-1.34,15.11,.08,1.42,.03,2.85-.13,4.27-.23,1.4-9.63,.87-11.01,.85-2.31-.03,.62,3.09-1.12,1.59-2.73-2.38-3.95-6.09-4.28-9.69-.48-5.13,.57-10.27,1.72-15.3,.7-3.5,1.73-6.93,3.06-10.25,1.76-4.05,4.55-9.2,5.45-13.53,.13-.63-2.06-2.94-1.12-2.91,.62,0,.33,.95,.43,1.43,.19,.72,.56,1.39,1.08,1.93,.72,.84,1.69,1.42,2.77,1.66,.7,.13,1.49,.1,2,.59,.62,.6,.52,1.76,.69,2.58,.25,1.16,.52,2.35,.76,3.54Z"/>
          <path id="Path_97-3" data-name="Path 97" class="cls-16" d="M943.95,625.24c-2.46,1.24-4.71,2.85-6.67,4.78-1.68,1.51-3.26,3.12-4.74,4.83-1.31,1.55-2.51,3.15-3.89,4.61-1.91,2.01-4.29,3.95-4.67,6.7-.12,1.44,.14,2.88,.73,4.2,.49,1.34,1.22,2.59,2.14,3.68,1.17,1.3,2.72,2.2,4.43,2.58,.54,.14,1.09,.16,1.64,.07,.77-.22,1.48-.61,2.06-1.16,1.34-1.02,2.62-2.13,3.81-3.32,1.22-1.26,2.25-2.7,3.44-4,1.03-1.11,2.13-2.12,3.16-3.21,1.23-1.31,2.33-2.74,3.43-4.17,1.55-1.94,2.98-3.98,4.27-6.1,1.07-1.88,1.93-3.87,2.54-5.94,.4-1.35,1.03-3.06-.34-4.04-2.92-2.05-8.44-.87-11.34,.48Z"/>
          <path id="Path_98-3" data-name="Path 98" class="cls-16" d="M943.95,625.24c-2.46,1.24-4.71,2.85-6.67,4.78-1.68,1.51-3.26,3.12-4.74,4.83-1.31,1.55-2.51,3.15-3.89,4.61-1.91,2.01-4.29,3.95-4.67,6.7-.12,1.44,.14,2.88,.73,4.2,.49,1.34,1.22,2.59,2.14,3.68,1.17,1.3,2.72,2.2,4.43,2.58,.54,.14,1.09,.16,1.64,.07,.77-.22,1.48-.61,2.06-1.16,1.34-1.02,2.62-2.13,3.81-3.32,1.22-1.26,2.25-2.7,3.44-4,1.03-1.11,2.13-2.12,3.16-3.21,1.23-1.31,2.33-2.74,3.43-4.17,1.55-1.94,2.98-3.98,4.27-6.1,1.07-1.88,1.93-3.87,2.54-5.94,.4-1.35,1.03-3.06-.34-4.04-2.92-2.05-8.44-.87-11.34,.48Z"/>
          <path id="Path_99-3" data-name="Path 99" class="cls-29" d="M987.18,648.79c-1.16,.73-1.53,2.25-.83,3.44,.87,1.51,2.03,2.82,3.41,3.87,.83,.89,2.68,1.03,4.33,.06s9.53-5.26,13.46-8.06c1.17-.81,1.47-2.41,.66-3.59-.03-.04-.05-.07-.08-.11l-3.3-4.13c-.81-1.01-2.25-1.25-3.34-.55l-14.32,9.07Z"/>
          <path id="Path_100-3" data-name="Path 100" class="cls-24" d="M935.55,684.04l-.12-.12"/>
          <path id="Path_101-3" data-name="Path 101" class="cls-5" d="M934.84,693.24c.58,2.14,1.61,4.12,3.03,5.83,1.55,1.81,3.65,3.09,5.67,4.32l8.52,5.18c1.25,.72,2.44,1.53,3.57,2.42,2.79,2.3,4.64,5.51,6.44,8.64l12.42,21.65c.63,1.11,1.51,2.36,2.78,2.32,.69-.09,1.33-.38,1.86-.83,1.59-1.12,3.31-2.39,3.78-4.29,.23-1.35,.09-2.74-.4-4.02-1.91-6.45-4.9-12.53-7.9-18.57-4.77-9.56-9.61-19.1-14.52-28.62-1.3-2.52-2.89-6.46-5.04-8.32,0,0-20.03-1.22-20.54,.77-1.13,4.45-1.01,9.12,.33,13.5h0Z"/>
          <path id="Path_102-3" data-name="Path 102" class="cls-33" d="M934.84,693.24c.58,2.14,1.61,4.12,3.03,5.83,1.55,1.81,3.65,3.09,5.67,4.32l8.52,5.18c1.25,.72,2.44,1.53,3.57,2.42,2.79,2.3,4.64,5.51,6.44,8.64l12.42,21.65c.63,1.11,1.51,2.36,2.78,2.32,.69-.09,1.33-.38,1.86-.83,1.59-1.12,3.31-2.39,3.78-4.29,.23-1.35,.09-2.74-.4-4.02-1.91-6.45-4.9-12.53-7.9-18.57-4.77-9.56-9.61-19.1-14.52-28.62-1.3-2.52-2.89-6.46-5.04-8.32,0,0-20.03-1.22-20.54,.77-1.13,4.45-1.01,9.12,.33,13.5h0Z"/>
          <path id="Path_103-3" data-name="Path 103" class="cls-16" d="M957.37,622.42l-2.83,1.12-1.72,9.61,5.71-.26-1.16-10.47Z"/>
          <path id="Path_104-3" data-name="Path 104" class="cls-16" d="M963.36,632.65v1.3c0,.19,.01,.38,.03,.56,.03,.19,.07,.38,.12,.56l.71,2.81,.29-4.56c.84,.41,1.7,.78,2.58,1.1-.07-.68-.24-1.35-.52-1.98-.52-1.32-.99-2.65-1.55-3.94-.13-.35-.32-.67-.55-.95-.24-.28-.61-.44-.98-.41-.52,.22-.19,2.15-.18,2.58l.04,2.93Z"/>
          <path id="Path_105-3" data-name="Path 105" class="cls-16" d="M1005.08,646.53l-10.48,6.63c-.38,.2-.85,.12-1.13-.21l-3.33-3.76c-.25-.23-.26-.63-.03-.87,.03-.04,.07-.07,.11-.09l10.5-6.62c.38-.2,.85-.12,1.13,.21l3.33,3.75c.25,.24,.25,.62,.02,.87-.04,.04-.08,.07-.12,.1h0Z"/>
        </g>
      </g>
    </g>
  </g>
</svg>