<?xml version="1.0" encoding="UTF-8"?>
<svg id="Layer_2" data-name="Layer 2" xmlns="http://www.w3.org/2000/svg" viewBox="0 0 154.47 154.69">
  <defs>
    <style>
      .cls-1 {
        fill: #fff;
      }

      .cls-2 {
        fill: #ccc;
      }
    </style>
  </defs>
  <g id="Layer_1-2" data-name="Layer 1">
    <g id="Group_66" data-name="Group 66">
      <path id="Path_879" data-name="Path 879" class="cls-2" d="M58.8,44.22c-.98,.27-1.93,.61-2.86,1.02-.54,.24-1,.54-1.51,.8-.81,.44-1.58,.93-2.33,1.47-.48,.35-.93,.72-1.38,1.12-.68,.59-1.32,1.22-1.92,1.88-.23,.26-.54,.45-.73,.72s-.33,.54-.54,.76c-.34,.46-.65,.93-.97,1.42-.21,.32-.45,.61-.64,.94s-.38,.82-.58,1.23-.34,.68-.49,1.04c-.08,.2-.2,.39-.28,.6-.36,.94-.64,1.9-.86,2.87v.06c0,.1,0,.19-.04,.3-.2,.9-.34,1.81-.42,2.73-.03,.43-.05,.87-.06,1.31-.01,.79,.02,1.58,.09,2.37,.04,.49,.16,.97,.24,1.45,.05,.3,.09,.61,.15,.91,.23,1.14,.55,2.26,.96,3.35,.03,.09,.08,.16,.11,.25,.08,.19,.18,.38,.26,.58,.43,.98,.93,1.92,1.5,2.82,.16,.25,.31,.51,.49,.76s.22,.37,.35,.54c.63,.84,1.31,1.64,2.05,2.38h0l17.76,17.82c-.91,.08-1.83,.16-2.76,.16-8.74,.02-17.13-3.45-23.3-9.64h0l25.15,25.24c7.07,7.09,17,10.57,26.95,9.44,.39-.04,.77-.12,1.16-.17,.8-.12,1.62-.24,2.38-.42,.45-.1,.89-.23,1.32-.34,.71-.19,1.4-.38,2.08-.62,.45-.15,.89-.32,1.33-.49,.65-.25,1.3-.54,1.93-.81,.43-.19,.86-.39,1.28-.62,.63-.32,1.24-.67,1.85-1.03,.39-.23,.78-.45,1.16-.7,.63-.41,1.24-.85,1.85-1.31,.32-.24,.64-.46,.95-.71,.76-.62,1.5-1.27,2.2-1.94,.12-.12,.25-.22,.37-.33,.81-.81,1.58-1.65,2.31-2.54,.04-.04,.08-.08,.11-.12s.11-.17,.17-.25c1.11-1.38,2.11-2.85,2.99-4.38,.03-.06,.08-.11,.12-.17l.03-.08c.69-1.26,1.3-2.56,1.83-3.9,.06-.16,.15-.3,.21-.45s.11-.39,.17-.58c.39-1.09,.73-2.21,1.01-3.34,.04-.18,.12-.35,.16-.54v-.17c.3-1.39,.51-2.79,.63-4.21,0-.14,.05-.26,.06-.4,.06-.77,.09-1.54,.1-2.33,.01-1.12-.04-2.24-.14-3.36h0c-.14-1.37-.36-2.73-.67-4.07-.08-.38-.18-.75-.28-1.11-.27-1.03-.58-2.03-.94-3.02-.08-.21-.12-.43-.2-.65-.04-.1-.1-.19-.13-.29-.48-1.21-1.04-2.39-1.66-3.54-.12-.22-.25-.42-.38-.63-.54-.93-1.11-1.83-1.73-2.7-.11-.16-.19-.32-.31-.48s-.24-.26-.36-.41c-.86-1.14-1.79-2.22-2.79-3.24h0l-25.15-25.24c1,1.02,1.94,2.1,2.8,3.24,.23,.29,.45,.58,.66,.89,.62,.87,1.2,1.77,1.73,2.7,.12,.21,.26,.42,.38,.63,.62,1.14,1.17,2.33,1.65,3.54,.12,.31,.22,.63,.34,.93,.36,.99,.67,1.99,.94,3.02,.1,.37,.19,.75,.28,1.12,.31,1.34,.53,2.71,.67,4.08,.11,1.12,.15,2.25,.15,3.38,0,.87-.08,1.73-.15,2.58l-17.72-17.84c-3.94-3.96-9.3-6.21-14.89-6.24h-.19c-1.56,.01-3.11,.19-4.62,.54-.5,.1-.95,.29-1.43,.42Zm13.91,33.02c.38-.54,.82-1,1.24-1.48,.6-.67,1.24-1.29,1.92-1.88,.45-.39,.9-.77,1.38-1.12,.74-.54,1.52-1.03,2.33-1.46,.5-.28,.99-.57,1.51-.81,.93-.41,1.89-.74,2.86-1.02,.48-.14,.93-.33,1.43-.44,1.52-.35,3.07-.53,4.62-.54h.19c2.44,.04,4.86,.51,7.14,1.38-.1,.6-.14,1.22-.27,1.81-.05,.23-.13,.46-.19,.69-.27,1.13-.61,2.24-1,3.34-.12,.35-.25,.69-.38,1.03-.52,1.34-1.14,2.64-1.83,3.9-.04,.09-.1,.16-.15,.25-.88,1.54-1.88,3.02-2.99,4.4-.1,.12-.18,.25-.28,.37-.72,.89-1.49,1.74-2.31,2.54-.11,.11-.24,.21-.35,.31-.71,.69-1.45,1.34-2.22,1.97-.3,.25-.63,.46-.94,.7-.61,.45-1.22,.9-1.86,1.31-.38,.25-.76,.47-1.15,.7-.6,.36-1.23,.71-1.85,1.03-.42,.21-.84,.42-1.27,.61-.63,.29-1.28,.56-1.94,.82-.44,.17-.89,.33-1.33,.49-.69,.23-1.39,.43-2.09,.62-.44,.12-.87,.24-1.32,.34-.62,.14-1.25,.23-1.88,.33-.36-.96-.65-1.95-.87-2.95-.06-.3-.1-.61-.15-.91-.22-1.26-.33-2.54-.32-3.82,.03-1.36,.18-2.72,.47-4.06,0-.1,0-.19,.05-.29,.28-1.21,.67-2.4,1.16-3.54,.15-.35,.32-.69,.48-1.03,.37-.74,.77-1.46,1.22-2.16,.3-.49,.63-.96,.96-1.41h0Z"/>
      <path id="Path_880" data-name="Path 880" d="M35.49,143.67c4.62,4.46,10.37,7.58,16.63,9.03,11.91,1.62,23.93,2.25,35.94,1.91,11.91,.18,23.82-.3,35.68-1.44,2.03-.33,4.04-.81,6-1.44,.6-.18,1.15-.42,1.72-.63,1.26-.45,2.49-.98,3.69-1.57,.6-.3,1.18-.62,1.76-.96,1.09-.64,2.14-1.34,3.14-2.11,.48-.37,.98-.71,1.44-1.08,1.2-1.03,2.31-2.15,3.34-3.36,.15-.17,.32-.3,.47-.47,0,0,.04-.06,.06-.09,1.13-1.41,2.14-2.9,3.02-4.47,.04-.08,.1-.14,.14-.21,.26-.48,.46-1.03,.71-1.52,.54-1.04,1.04-2.08,1.49-3.21,.06-.15,.14-.28,.2-.43,.52-1.37,.98-2.8,1.39-4.29,.07-.27,.14-.57,.21-.88,.1-.44,.19-.95,.28-1.46,0-.09,.03-.16,.04-.25,.14-.86,.26-1.85,.39-2.89,.03-.26,.06-.54,.09-.81,.1-.99,.21-2.04,.29-3.16,0-.12,0-.24,.03-.36v-.11c.1-1.25,.18-2.59,.26-3.97,0-.43,.04-.89,.07-1.33,.05-1.03,.1-2.07,.15-3.15,.02-.55,.04-1.11,.06-1.68,.04-1.05,.08-2.11,.1-3.19,0-.54,.03-1.11,.04-1.68,.03-1.3,.06-2.6,.09-3.93v-1c.03-1.67,.04-3.35,.06-5.04v-11.78c0-1.26-.03-2.49-.05-3.7v-1c0-1.53-.06-3.01-.09-4.43v-.82c-.03-1.12-.06-2.2-.09-3.24,0-.4-.03-.78-.04-1.17-.03-.85-.06-1.66-.09-2.43,0-.36-.03-.72-.04-1.08-.04-.78-.08-1.5-.12-2.16,0-.22,0-.47-.04-.68-.05-.79-.1-1.5-.15-2.07v-.14c-.19-1.89-.51-3.77-.96-5.61-.14-.58-.35-1.14-.54-1.71-.27-.92-.49-1.86-.84-2.75-.12-.31-.29-.6-.42-.91-.21-.49-.44-.97-.67-1.45-.57-1.2-1.22-2.36-1.94-3.48-.27-.42-.54-.85-.82-1.27-.14-.2-.25-.42-.4-.63-.97-1.3-2.03-2.54-3.18-3.69l-25.15-25.24c1.31,1.34,2.51,2.78,3.58,4.32,.29,.42,.54,.84,.81,1.26,.72,1.12,1.36,2.29,1.94,3.49,.23,.48,.46,.96,.67,1.45,.49,1.19,.9,2.41,1.25,3.66,.17,.57,.38,1.13,.54,1.72,.45,1.84,.77,3.72,.96,5.61,.06,.6,.11,1.35,.17,2.2,0,.24,.03,.54,.04,.78,.04,.63,.07,1.3,.11,2.04v.08l-18.28-18.36c-3.56-3.43-8.13-5.62-13.03-6.24-10.75-.99-21.54-1.4-32.34-1.22-12.88,0-25.7,.35-31.32,.96-1.5,.18-2.99,.47-4.44,.89-.45,.12-.87,.3-1.31,.45-.92,.31-1.82,.67-2.7,1.08-.47,.22-.91,.47-1.36,.73-.76,.42-1.49,.89-2.19,1.41-.41,.3-.81,.6-1.19,.93-.67,.58-1.3,1.21-1.89,1.88-.22,.24-.49,.44-.7,.69-.09,.11-.16,.25-.24,.36-.37,.47-.69,.99-1.02,1.5-.26,.39-.54,.75-.79,1.17-.08,.14-.13,.31-.21,.45-.22,.42-.41,.86-.6,1.3s-.44,.86-.62,1.33c-.09,.23-.14,.49-.22,.73-.17,.54-.32,1.04-.47,1.58-.11,.41-.26,.78-.36,1.2-.13,.59-.25,1.2-.35,1.83-.11,.72-.22,1.57-.32,2.51-.03,.32-.06,.71-.1,1.08-.05,.6-.11,1.16-.16,1.82v.27c0,.32-.04,.68-.06,1-.06,.8-.11,1.62-.16,2.52,0,.43-.04,.89-.07,1.33-.04,.85-.08,1.72-.12,2.61,0,.5-.04,.99-.06,1.5-.03,.96-.06,1.94-.1,2.94,0,.46-.03,.91-.05,1.37-.04,1.46-.08,2.95-.1,4.47v.82c0,1.27-.04,2.55-.06,3.84v11.28c0,1.33,0,2.64,.03,3.93v.63c0,1.5,.04,2.95,.06,4.37v1.14c0,1.02,.04,2.01,.08,2.98,0,.45,0,.89,.04,1.32,0,.85,.05,1.66,.09,2.45,0,.42,.03,.83,.05,1.22,.04,.83,.08,1.59,.12,2.33,0,.28,.03,.57,.04,.83,.06,.92,.12,1.78,.19,2.52v.05c.08,.85,.16,1.59,.25,2.16,.27,1.7,.71,3.36,1.3,4.97,.07,.19,.09,.43,.16,.62s.17,.28,.24,.44c.61,1.53,1.41,2.98,2.36,4.32,.04,.06,.06,.14,.1,.19,.56,.76,1.17,1.49,1.84,2.16l18.44,18.51c-3.44-.14-6.86-.55-10.23-1.23-1.66-.43-3.29-.95-4.89-1.57-4.39-1.63-8.39-4.18-11.73-7.47h0l25.06,25.2ZM128.97,40.05c0,.31,0,.6,.04,.93,0,.43,.03,.86,.05,1.31,.03,.94,.05,1.93,.08,2.95,0,.36,0,.7,.03,1.08,0,.92,.04,1.91,.06,2.88l-11.41-11.46c1.94,.14,3.63,.3,4.86,.5,2.18,.34,4.3,.94,6.32,1.81h-.03Zm-26.12-2.92c-.13,.07-.23,.19-.37,.25s-.25,.08-.37,.14c-.89,.35-1.83,.53-2.79,.54-1.27-.04-2.51-.4-3.61-1.04,2.46,.03,4.84,.07,7.17,.12h-.03Zm-12.51-.12h4.77l23.92,24.01c2.13,2.2,5.39,2.88,8.22,1.72,.12-.05,.25-.08,.37-.14,.61-.26,1.18-.59,1.71-1v5.59c0,1.66-.03,3.33-.05,4.98v.98c0,1.34-.05,2.7-.09,3.99,0,.54-.03,1.08-.04,1.62-.03,1.08-.07,2.16-.1,3.24,0,.54-.04,1.08-.06,1.62-.05,1.08-.1,2.16-.15,3.19,0,.44-.04,.89-.06,1.31-.08,1.43-.17,2.79-.27,4.08,0,.13,0,.24-.03,.36-.09,1.12-.19,2.16-.3,3.16,0,.28-.05,.54-.09,.81-.12,1.05-.25,2.03-.39,2.89,0,.09-.03,.16-.04,.25-.15,.89-.31,1.69-.48,2.34-.44,1.6-.97,3.18-1.59,4.73-.44,1.12-.96,2.16-1.48,3.19-.29,.58-.54,1.19-.85,1.74-.88,1.57-1.9,3.07-3.02,4.47-.16,.2-.36,.36-.54,.54-1.02,1.21-2.14,2.33-3.34,3.36-.45,.39-.95,.74-1.43,1.08-1,.77-2.05,1.47-3.14,2.11-.57,.33-1.15,.65-1.75,.96-1.2,.59-2.43,1.12-3.69,1.57-.58,.21-1.13,.45-1.73,.63-1.96,.62-3.97,1.1-6,1.44-11.86,1.14-23.77,1.63-35.68,1.44-8.32,0-16.57-.17-23.27-.54l-.03-.06c-.14-.35-.28-.7-.4-1.08-.59-1.61-1.03-3.28-1.3-4.97-.09-.58-.17-1.31-.25-2.16-.07-.76-.13-1.62-.19-2.57,0-.26-.03-.57-.05-.84-.04-.73-.08-1.48-.12-2.29,0-.41-.04-.84-.05-1.26-.03-.77-.06-1.57-.09-2.4,0-.46-.03-.92-.04-1.39,0-.9-.05-1.83-.07-2.79,0-.45,0-.88-.03-1.34-.03-1.39-.05-2.81-.06-4.27v-.95c0-1.21,0-2.43-.03-3.66v-11.24c0-1.33,.03-2.64,.06-3.95v-.77c.03-1.54,.06-3.04,.11-4.51,0-.41,0-.79,.04-1.19,.03-1.08,.06-2.12,.1-3.14,0-.47,.04-.93,.06-1.39,.04-.92,.08-1.82,.12-2.7,0-.44,.04-.89,.06-1.31,.05-.91,.1-1.76,.16-2.59,0-.3,.04-.63,.06-.92,.06-.78,.12-1.46,.19-2.16,.03-.33,.06-.7,.09-1.01,.1-.95,.2-1.79,.31-2.52,.18-1.02,.42-2.03,.71-3.02,.15-.54,.3-1.08,.47-1.57,.25-.71,.54-1.39,.84-2.06,.2-.43,.38-.88,.6-1.3,.3-.57,.66-1.08,1-1.62s.65-1.02,1.02-1.5c.29-.38,.63-.71,.94-1.08,.59-.66,1.22-1.29,1.88-1.87,.38-.32,.79-.63,1.2-.93,.7-.51,1.43-.98,2.19-1.41,.44-.25,.89-.5,1.35-.73,.88-.41,1.78-.77,2.7-1.08,.44-.15,.85-.32,1.31-.45,1.46-.41,2.94-.71,4.44-.89,5.68-.45,18.5-.8,31.37-.8h-.03Z"/>
      <g id="Group_63" data-name="Group 63">
        <path id="Path_881" data-name="Path 881" class="cls-1" d="M99.43,22.54h.09c4.25,0,7.69,3.46,7.68,7.71,0,.03,0,.05,0,.08-.06,4.29-3.55,7.74-7.85,7.74-4.29-.02-7.75-3.51-7.73-7.8s3.51-7.75,7.8-7.73h0Z"/>
      </g>
      <g id="Group_64" data-name="Group 64">
        <path id="Path_882" data-name="Path 882" class="cls-1" d="M128.58,32.51c.96,10.18,1.58,58.27-1.41,69.54-3,13.84-14.48,24.24-28.56,25.87-11.86,1.14-23.77,1.63-35.68,1.44-12.01,.35-24.03-.29-35.94-1.91-13.8-2.82-24.2-14.21-25.75-28.21C-.5,88.35-.68,37.65,2.47,26.64,5.66,13.18,16.91,3.15,30.65,1.51,41.41,.32,52.23-.16,63.05,.05c12.07,0,24.25,.32,31.58,.73,8.79,.2,17.2,3.64,23.61,9.66,6.05,5.83,9.74,13.69,10.34,22.07Zm-12.42,64.61c1.72-21.13,1.99-42.35,.8-63.52-.5-10.71-8.72-19.46-19.37-20.62-10.75-.99-21.54-1.4-32.34-1.22-12.88,0-25.7,.35-31.32,.96-10.69,.64-19.39,8.84-20.66,19.48-1.76,21.72-1.91,43.54-.45,65.28,.89,8.87,7.3,16.2,15.96,18.28,11.52,1.65,23.15,2.29,34.78,1.91,13.57,0,26.89-.43,31.89-.98,10.76-.6,19.51-8.87,20.72-19.58"/>
      </g>
      <g id="Group_65" data-name="Group 65">
        <path id="Path_883" data-name="Path 883" class="cls-1" d="M64.96,31.57c18.15,0,32.88,14.7,32.89,32.85,0,.11,0,.22,0,.34-.19,18.34-15.1,33.11-33.44,33.14-18.14,.03-32.86-14.65-32.89-32.79,0-.13,0-.26,0-.4,.15-18.36,15.08-33.15,33.44-33.14Zm-.49,54.58c11.79-.01,21.41-9.45,21.63-21.24,.23-11.72-9.08-21.42-20.81-21.65-.08,0-.17,0-.25,0h-.19c-11.78,.03-21.38,9.47-21.6,21.24-.22,11.74,9.12,21.43,20.86,21.65,.07,0,.13,0,.2,0h.19"/>
      </g>
    </g>
  </g>
</svg>