<?xml version="1.0" encoding="UTF-8"?>
<svg id="Layer_2" data-name="Layer 2" xmlns="http://www.w3.org/2000/svg" viewBox="0 0 143.13 143.42">
  <defs>
    <style>
      .cls-1 {
        fill: #fff;
      }
    </style>
  </defs>
  <g id="Layer_1-2" data-name="Layer 1">
    <g id="Group_70" data-name="Group 70">
      <path id="Path_884" data-name="Path 884" d="M91.37,99.67c.11-1.24,.29-2.47,.54-3.69,.12-.58,.25-1.16,.41-1.72,.11-.42,.23-.82,.36-1.22,.28-.9,.64-1.78,1.08-2.61l.03-.06c.46-.8,1-1.54,1.62-2.21,.23-.26,.5-.5,.76-.73,.49-.45,1.02-.85,1.58-1.2,.32-.21,.65-.4,.99-.57,.7-.33,1.42-.6,2.16-.8,.36-.1,.69-.24,1.08-.32,1.31-.28,2.65-.42,3.99-.42,1.72-.03,3.42,.25,5.04,.82,1.31,.48,2.5,1.24,3.49,2.22h0l-25.15-25.24c-1.08-1.06-2.4-1.85-3.84-2.32l-20.28-20.35-.08,10.8,9.77,9.81c-.45,.15-.89,.34-1.32,.54-.35,.17-.68,.37-1,.57-.56,.35-1.09,.76-1.58,1.2-.26,.24-.54,.48-.76,.74-.12,.13-.27,.23-.38,.37-.47,.57-.88,1.19-1.24,1.83h0l-.03,.08c-.36,.65-.67,1.31-.93,2-.07,.19-.11,.41-.17,.6-.14,.39-.25,.8-.36,1.22s-.23,.67-.3,1.03c-.05,.22-.05,.47-.1,.69-.25,1.22-.43,2.46-.54,3.7,0,.17-.06,.33-.08,.54v.2c-.1,1.31-.15,2.66-.16,4.01l-.3,39.06h-14.58l.42-53.75-10.86-10.91c.57-.04,1.14-.11,1.7-.21,.33-.07,.63-.2,.95-.3,.65-.18,1.28-.4,1.9-.67,.35-.16,.67-.36,1.01-.54,.53-.29,1.04-.61,1.53-.97,.32-.24,.62-.49,.91-.76,.44-.39,.86-.8,1.26-1.24,.14-.16,.32-.29,.46-.45s.24-.38,.38-.54c.23-.3,.43-.62,.64-.94,.12-.19,.27-.37,.38-.57,.17-.29,.29-.62,.43-.92,.1-.22,.22-.44,.31-.66,.04-.11,.1-.21,.15-.32,.24-.63,.43-1.27,.58-1.92v-.12c.03-.14,.04-.27,.06-.41,.11-.51,.18-1.02,.23-1.54,.03-.33,.04-.66,.05-1,0-.49,0-.97-.06-1.44,0-.18-.1-.34-.12-.54-.12-.97-.35-1.92-.67-2.84-.05-.15-.05-.31-.1-.45,0-.05-.05-.08-.06-.12-.42-1.03-.97-2.01-1.62-2.91-.05-.08-.08-.16-.13-.24-.41-.56-.86-1.08-1.35-1.57L24.32,4.14c.54,.56,1.04,1.16,1.48,1.8,.65,.91,1.2,1.88,1.62,2.92,.07,.18,.1,.38,.17,.54,.32,.92,.55,1.88,.67,2.85,.27,1.49,.24,3.02-.09,4.5,0,.14-.03,.26-.06,.39-.18,.81-.43,1.6-.75,2.36-.09,.23-.21,.44-.31,.66-.24,.51-.52,1.01-.82,1.49-.2,.32-.42,.63-.64,.93s-.54,.69-.84,1.02c-.39,.44-.81,.85-1.25,1.24-.3,.26-.6,.54-.92,.76-.49,.35-1,.68-1.53,.97-.33,.19-.66,.39-1.01,.54-.62,.27-1.25,.49-1.9,.67-.32,.1-.62,.22-.95,.3-1.01,.23-2.04,.35-3.08,.35-3.76,0-7.36-1.49-10.01-4.15l22.18,22.26-.54,71.64H1.18l25.14,25.24h24.59l.12-15.31,15.26,15.31h24.57l.3-39.05c0-1.35,.06-2.7,.16-4.01,0-.22,.04-.45,.06-.7Z"/>
      <path id="Path_885" data-name="Path 885" d="M142.8,90.13c0-.21-.07-.41-.09-.62-.18-1.75-.42-3.43-.73-5.04-.07-.39-.14-.79-.22-1.17-.37-1.72-.85-3.41-1.46-5.07-.05-.12-.06-.26-.11-.38-.19-.51-.44-.97-.66-1.45s-.37-.87-.58-1.29c-.35-.69-.76-1.33-1.17-1.97-.21-.32-.39-.67-.62-.98-.03-.05-.06-.1-.09-.16-.63-.87-1.33-1.69-2.09-2.46l-25.15-25.24c.79,.81,1.51,1.68,2.16,2.6,.23,.31,.41,.66,.62,.99,.41,.64,.82,1.28,1.17,1.97,.21,.42,.39,.86,.58,1.29,.27,.6,.54,1.2,.77,1.83,.61,1.65,1.1,3.34,1.46,5.07,.08,.38,.15,.78,.22,1.17,.31,1.62,.54,3.3,.73,5.05,.03,.29,.07,.58,.1,.87,.28,3.09,.38,6.35,.35,9.72l-.33,43.31h-24.51l25.14,25.24h24.52l.33-43.31c0-3.39-.08-6.65-.35-9.72,.02-.08,.02-.17,.02-.25Z"/>
      <g id="Group_67" data-name="Group 67">
        <path id="Path_886" data-name="Path 886" class="cls-1" d="M14.34,0c7.78-.02,14.1,6.27,14.12,14.06,0,.06,0,.12,0,.17-.07,7.87-6.46,14.22-14.34,14.23-7.8,0-14.12-6.32-14.12-14.12,0-.04,0-.07,0-.11C.08,6.36,6.47,.02,14.34,0Z"/>
      </g>
      <g id="Group_68" data-name="Group 68">
        <path id="Path_887" data-name="Path 887" class="cls-1" d="M26.35,39.21l-.6,78.99H1.18L1.79,39.21H26.35Z"/>
      </g>
      <g id="Group_69" data-name="Group 69">
        <path id="Path_888" data-name="Path 888" class="cls-1" d="M88.86,37.29c24.88,0,29.32,16.31,29.16,37.6l-.33,43.31h-24.51l.29-38.38c.07-9.18-.05-20.98-12.62-20.98s-14.77,9.97-14.85,20.3l-.3,39.06h-24.58l.6-78.99h23.53l-.08,10.8h.36c4.86-8.19,13.81-13.07,23.33-12.72Z"/>
      </g>
    </g>
  </g>
</svg>