<?xml version="1.0" encoding="UTF-8"?>
<svg id="Layer_2" data-name="Layer 2" xmlns="http://www.w3.org/2000/svg" viewBox="0 0 1134.54 536.7">
  <defs>
    <style>
      .cls-1 {
        fill: #fff;
      }
    </style>
  </defs>
  <g id="Layer_1-2" data-name="Layer 1">
    <g>
      <g>
        <polygon class="cls-1" points="466.07 225.77 515.59 259.14 464.85 293.32 415.29 260 466.07 225.77"/>
        <polygon class="cls-1" points="391.43 276.05 441.01 309.38 333.33 381.92 277.99 352.48 391.43 276.05"/>
        <polygon class="cls-1" points="333.33 381.92 333.33 .02 277.99 29.45 277.99 352.48 333.33 381.92"/>
        <polygon class="cls-1" points="856.55 352.5 333.33 .02 277.99 29.45 801.22 381.93 856.55 352.5"/>
        <polygon class="cls-1" points="801.22 0 801.22 381.93 856.55 352.5 856.55 29.44 801.22 0"/>
        <polygon class="cls-1" points="856.55 29.44 801.22 0 617.01 124.1 666.53 157.44 856.55 29.44"/>
      </g>
      <g>
        <path class="cls-1" d="M26.5,436.22v98.44H0v-98.44H26.5Z"/>
        <path class="cls-1" d="M175.47,515.58c0,14.85-8.88,21.11-18.49,21.11-8.3,0-14.56-2.33-19.22-7.72l-54.03-62.47c-.73-.87-1.46-1.31-2.33-1.31-1.31,0-2.48,1.02-2.48,2.77v66.69h-25.92v-77.62c0-16.75,9.61-23.01,22.86-23.01,9.32,0,15.14,2.48,21.26,9.76l48.05,57.52c.73,1.02,1.6,1.17,2.48,1.17,1.17,0,2.04-.87,2.04-2.62v-63.64h25.78v79.36Z"/>
        <path class="cls-1" d="M324.3,515.58c0,14.85-8.88,21.11-18.49,21.11-8.3,0-14.56-2.33-19.22-7.72l-54.03-62.47c-.73-.87-1.46-1.31-2.33-1.31-1.31,0-2.48,1.02-2.48,2.77v66.69h-25.92v-77.62c0-16.75,9.61-23.01,22.86-23.01,9.32,0,15.14,2.48,21.26,9.76l48.05,57.52c.73,1.02,1.6,1.17,2.48,1.17,1.17,0,2.04-.87,2.04-2.62v-63.64h25.78v79.36Z"/>
        <path class="cls-1" d="M401.04,534.66c-17.62,0-30.58-6.12-39.61-16.02-7.86-8.59-12.67-20.24-12.67-33.2,0-14.27,6.12-27.23,15.87-36.26,8.74-8.01,20.53-12.96,36.4-12.96h20.68c15.87,0,27.67,4.95,36.41,12.96,9.76,9.03,15.87,21.99,15.87,36.26,0,12.96-4.81,24.61-12.67,33.2-9.03,9.9-21.99,16.02-39.61,16.02h-20.68Zm0-72.37c-8.88,0-14.42,2.48-18.64,6.41-4.51,4.22-7.28,10.34-7.28,16.89,0,5.97,2.33,11.5,6.12,15.58,4.22,4.66,10.48,7.57,19.8,7.57h20.68c9.32,0,15.58-2.91,19.8-7.57,3.79-4.08,6.12-9.61,6.12-15.58,0-6.55-2.77-12.67-7.28-16.89-4.22-3.93-9.76-6.41-18.64-6.41h-20.68Z"/>
        <path class="cls-1" d="M483.47,440.59c-.73-1.6-1.17-2.91-1.6-4.37h31.16c.29,1.31,.58,2.33,1.02,3.49l29.41,68c.87,2.18,2.48,3.06,4.22,3.06s3.06-.73,4.08-3.06l29.12-68c.44-1.02,.87-2.33,1.16-3.49h30.73c-.44,1.46-.87,2.77-1.6,4.37l-35.24,78.05c-5.53,12.23-14.42,18.06-28.4,18.06s-23.01-5.82-28.54-18.06l-35.53-78.05Z"/>
        <path class="cls-1" d="M731.9,530.29c.73,1.6,1.16,2.91,1.6,4.37h-29.71c-.29-1.31-.73-2.33-1.16-3.35l-5.24-11.94h-58.25l-5.1,11.79c-.44,1.16-.87,2.33-1.02,3.49h-30.43c.44-1.46,.87-2.77,1.6-4.37l35.24-78.05c5.53-12.23,14.42-18.2,28.54-18.2s22.86,5.97,28.4,18.2l35.53,78.05Zm-44.12-32.62l-15.14-35.24c-.87-2.19-2.62-3.06-4.51-3.06-1.75,0-3.35,.73-4.37,3.06l-15,35.24h39.03Z"/>
        <path class="cls-1" d="M842.57,436.22v26.07h-43.1v72.37h-26.5v-72.37h-43.25v-26.07h112.86Z"/>
        <path class="cls-1" d="M891.65,436.22v98.44h-26.5v-98.44h26.5Z"/>
        <path class="cls-1" d="M949.9,534.66c-24.17,0-32.04-10.63-32.04-32.04v-66.4h26.5v63.93c0,7.14,1.89,9.32,8.74,9.32h68.29v25.19h-71.5Z"/>
        <path class="cls-1" d="M1014.41,439.57c-1.46-1.6-2.04-2.33-2.48-3.35h32.47c.29,.73,1.02,2.04,2.33,3.35l24.76,26.94c.58,.58,1.16,1.02,2.04,1.02s1.46-.44,2.04-1.02l24.61-26.94c1.31-1.31,2.19-2.62,2.48-3.35h31.89c-.58,1.02-1.17,1.75-2.62,3.35l-46.16,50.97v44.12h-26.65v-45.87l-44.7-49.22Z"/>
      </g>
    </g>
  </g>
</svg>