<?xml version="1.0" encoding="UTF-8"?>
<svg id="Layer_2" data-name="Layer 2" xmlns="http://www.w3.org/2000/svg" xmlns:xlink="http://www.w3.org/1999/xlink" viewBox="0 0 1751.23 237.41">
  <defs>
    <style>
      .cls-1 {
        fill: url(#linear-gradient-2);
      }

      .cls-2 {
        fill: #365dff;
      }

      .cls-3 {
        fill: url(#linear-gradient-3);
      }

      .cls-4 {
        fill: url(#linear-gradient);
      }

      .cls-5 {
        fill: #1e1e1e;
      }

      .cls-6 {
        fill: url(#linear-gradient-4);
      }
    </style>
    <linearGradient id="linear-gradient" x1="97.21" y1="168.87" x2="17.75" y2="231.76" gradientUnits="userSpaceOnUse">
      <stop offset=".51" stop-color="#365dff"/>
      <stop offset=".61" stop-color="#2d52eb"/>
      <stop offset=".8" stop-color="#1837b9"/>
      <stop offset="1" stop-color="#001982"/>
    </linearGradient>
    <linearGradient id="linear-gradient-2" x1="17.2" y1="232.27" x2="17.2" y2="-5.13" gradientUnits="userSpaceOnUse">
      <stop offset=".37" stop-color="#001fd3"/>
      <stop offset=".54" stop-color="#001ed0"/>
      <stop offset=".63" stop-color="#001ec8"/>
      <stop offset=".7" stop-color="#001dbb"/>
      <stop offset=".77" stop-color="#001ba8"/>
      <stop offset=".82" stop-color="#001a8f"/>
      <stop offset=".84" stop-color="#001982"/>
    </linearGradient>
    <linearGradient id="linear-gradient-3" x1="85.6" y1="52.61" x2="363.83" y2="247.82" gradientUnits="userSpaceOnUse">
      <stop offset=".72" stop-color="#365dff"/>
      <stop offset=".93" stop-color="#001982"/>
    </linearGradient>
    <linearGradient id="linear-gradient-4" x1="342.44" y1="237.41" x2="342.44" y2="0" gradientUnits="userSpaceOnUse">
      <stop offset=".37" stop-color="#001fd3"/>
      <stop offset=".55" stop-color="#001ed0"/>
      <stop offset=".65" stop-color="#001ec8"/>
      <stop offset=".73" stop-color="#001dba"/>
      <stop offset=".79" stop-color="#001ba7"/>
      <stop offset=".85" stop-color="#00198e"/>
      <stop offset=".88" stop-color="#001982"/>
    </linearGradient>
  </defs>
  <g id="Layer_1-2" data-name="Layer 1">
    <g>
      <g>
        <polygon class="cls-2" points="116.91 140.34 147.69 161.09 116.15 182.33 85.34 161.62 116.91 140.34"/>
        <polygon class="cls-4" points="70.51 171.6 101.33 192.32 34.4 237.4 0 219.11 70.51 171.6"/>
        <polygon class="cls-1" points="34.4 237.4 34.4 0 0 18.31 0 219.11 34.4 237.4"/>
        <polygon class="cls-3" points="359.64 219.12 34.4 0 0 18.31 325.24 237.41 359.64 219.12"/>
        <polygon class="cls-6" points="325.24 0 325.24 237.41 359.64 219.12 359.64 18.3 325.24 0"/>
        <polygon class="cls-2" points="359.64 18.3 325.24 0 210.74 77.14 241.52 97.87 359.64 18.3"/>
      </g>
      <g>
        <path class="cls-5" d="M431.36,60.16v117.26h-31.57V60.16h31.57Z"/>
        <path class="cls-5" d="M608.81,154.7c0,17.69-10.58,25.15-22.03,25.15-9.89,0-17.35-2.78-22.9-9.19l-64.35-74.41c-.87-1.04-1.73-1.56-2.77-1.56-1.56,0-2.95,1.21-2.95,3.3v79.44h-30.88V84.97c0-19.95,11.45-27.41,27.23-27.41,11.1,0,18.04,2.95,25.33,11.62l57.24,68.52c.87,1.21,1.91,1.39,2.95,1.39,1.39,0,2.43-1.04,2.43-3.12V60.16h30.7v94.54Z"/>
        <path class="cls-5" d="M786.09,154.7c0,17.69-10.58,25.15-22.03,25.15-9.89,0-17.35-2.78-22.9-9.19l-64.35-74.41c-.87-1.04-1.73-1.56-2.77-1.56-1.56,0-2.95,1.21-2.95,3.3v79.44h-30.88V84.97c0-19.95,11.45-27.41,27.23-27.41,11.1,0,18.04,2.95,25.33,11.62l57.24,68.52c.87,1.21,1.91,1.39,2.95,1.39,1.39,0,2.43-1.04,2.43-3.12V60.16h30.7v94.54Z"/>
        <path class="cls-5" d="M877.5,177.42c-20.99,0-36.43-7.29-47.18-19.08-9.37-10.23-15.09-24.11-15.09-39.55,0-17,7.28-32.44,18.91-43.19,10.41-9.54,24.46-15.44,43.36-15.44h24.63c18.91,0,32.96,5.9,43.37,15.44,11.62,10.76,18.91,26.19,18.91,43.19,0,15.44-5.72,29.32-15.09,39.55-10.75,11.79-26.19,19.08-47.18,19.08h-24.63Zm0-86.21c-10.58,0-17.17,2.95-22.2,7.63-5.38,5.03-8.67,12.32-8.67,20.12,0,7.11,2.78,13.7,7.29,18.56,5.03,5.55,12.49,9.02,23.59,9.02h24.63c11.1,0,18.56-3.47,23.59-9.02,4.51-4.86,7.29-11.45,7.29-18.56,0-7.81-3.3-15.09-8.67-20.12-5.03-4.68-11.62-7.63-22.2-7.63h-24.63Z"/>
        <path class="cls-5" d="M975.69,65.37c-.87-1.91-1.39-3.47-1.91-5.2h37.12c.35,1.56,.69,2.78,1.21,4.16l35.04,81.01c1.04,2.6,2.95,3.64,5.03,3.64s3.64-.87,4.86-3.64l34.69-81.01c.52-1.21,1.04-2.78,1.39-4.16h36.6c-.52,1.73-1.04,3.3-1.91,5.2l-41.98,92.98c-6.59,14.57-17.17,21.51-33.83,21.51s-27.41-6.94-34-21.51l-42.32-92.98Z"/>
        <path class="cls-5" d="M1271.61,172.22c.87,1.91,1.39,3.47,1.91,5.2h-35.39c-.35-1.56-.87-2.78-1.39-3.99l-6.24-14.22h-69.38l-6.07,14.05c-.52,1.39-1.04,2.78-1.21,4.16h-36.25c.52-1.73,1.04-3.3,1.91-5.2l41.98-92.97c6.59-14.57,17.17-21.68,34-21.68s27.23,7.11,33.83,21.68l42.32,92.97Zm-52.56-38.85l-18.04-41.98c-1.04-2.6-3.12-3.64-5.38-3.64-2.08,0-3.99,.87-5.2,3.64l-17.87,41.98h46.49Z"/>
        <path class="cls-5" d="M1403.44,60.16v31.05h-51.34v86.21h-31.57V91.21h-51.52v-31.05h134.43Z"/>
        <path class="cls-5" d="M1461.9,60.16v117.26h-31.57V60.16h31.57Z"/>
        <path class="cls-5" d="M1531.29,177.42c-28.79,0-38.16-12.66-38.16-38.16V60.16h31.57v76.15c0,8.5,2.26,11.1,10.41,11.1h81.35v30.01h-85.17Z"/>
        <path class="cls-5" d="M1608.13,64.15c-1.74-1.91-2.43-2.78-2.95-3.99h38.68c.35,.87,1.21,2.43,2.77,3.99l29.49,32.09c.69,.69,1.39,1.21,2.43,1.21s1.73-.52,2.43-1.21l29.31-32.09c1.56-1.56,2.6-3.12,2.95-3.99h37.99c-.69,1.21-1.39,2.08-3.12,3.99l-54.99,60.71v52.56h-31.74v-54.64l-53.25-58.63Z"/>
      </g>
    </g>
  </g>
</svg>