<?xml version="1.0" encoding="UTF-8"?>
<svg id="Layer_2" data-name="Layer 2" xmlns="http://www.w3.org/2000/svg" xmlns:xlink="http://www.w3.org/1999/xlink" viewBox="0 0 1922.35 333.18">
  <defs>
    <style>
      .cls-1 {
        fill: url(#linear-gradient);
      }
    </style>
    <linearGradient id="linear-gradient" x1="-852.75" y1="1939.84" x2="-852.75" y2="1942.8" gradientTransform="translate(1640236.2 485484.06) scale(1922.35 -249.91)" gradientUnits="userSpaceOnUse">
      <stop offset=".4" stop-color="#365dff"/>
      <stop offset=".52" stop-color="#375eff" stop-opacity=".99"/>
      <stop offset=".6" stop-color="#3e63ff" stop-opacity=".96"/>
      <stop offset=".65" stop-color="#496cff" stop-opacity=".9"/>
      <stop offset=".71" stop-color="#5979ff" stop-opacity=".82"/>
      <stop offset=".75" stop-color="#6d89ff" stop-opacity=".72"/>
      <stop offset=".8" stop-color="#869eff" stop-opacity=".6"/>
      <stop offset=".84" stop-color="#a4b6ff" stop-opacity=".45"/>
      <stop offset=".88" stop-color="#c7d1ff" stop-opacity=".28"/>
      <stop offset=".91" stop-color="#edf0ff" stop-opacity=".09"/>
      <stop offset=".93" stop-color="#fff" stop-opacity="0"/>
    </linearGradient>
  </defs>
  <g id="Layer_1-2" data-name="Layer 1">
    <path id="Path_1476" data-name="Path 1476" class="cls-1" d="M85.33,236.05h0l-5.83,3.79h0l-.16,.1-1.44-2.22,6-3.89,1.44,2.23ZM14.55,116.86l-1.44-2.22-10.46,6.79v-34.7l58.9,38.25,2.05-1.11v-39.59l-2.05-1.11-21.77,14.13,1.44,2.22,19.73-12.81v34.7L2.05,83.17l-2.05,1.11v39.58l2.05,1.11,12.51-8.12ZM21.94,25.72l-6,3.9,1.44,2.22,.16-.1h0l5.83-3.79h0s-1.44-2.24-1.44-2.24Zm0,166.35l-6,3.9,1.44,2.22,.16-.1h0l5.83-3.79h0l-1.44-2.24ZM14.55,33.68l-1.44-2.22-10.46,6.79V3.55L61.55,41.8l2.05-1.11V1.11L61.56,0h-.02l-21.76,14.13,1.44,2.22L60.95,3.55V38.25L2.05,0h-.02L0,1.11V40.69l2.05,1.11,12.51-8.12ZM63.6,167.46l-2.05-1.11-21.77,14.14,1.44,2.22,19.72-12.81v34.7L2.05,166.35l-2.05,1.11v39.58l2.05,1.11,12.51-8.12-1.44-2.22-10.46,6.8v-34.7l58.9,38.25,2.05-1.11v-39.59ZM21.94,108.9l-6,3.9,1.44,2.22,.16-.1h0l5.83-3.79h0l-1.44-2.23ZM145.83,25.72l-6,3.9,1.44,2.22,.16-.1h0l5.83-3.79h0s-1.44-2.24-1.44-2.24Zm41.66,98.15v-39.58l-2.05-1.11-21.77,14.13,1.44,2.22,19.73-12.81v34.7l-58.9-38.25-2.04,1.11v39.58l2.04,1.11,12.51-8.12-1.45-2.21-10.46,6.79v-34.7l58.91,38.25,2.05-1.12Zm0,43.59l-2.05-1.11-21.77,14.14,1.44,2.22,19.73-12.81v34.7l-58.9-38.25-2.04,1.11v39.58l2.04,1.11,12.51-8.12-1.45-2.22-10.46,6.8v-34.7l58.91,38.25,2.05-1.11v-39.59Zm-41.66,24.61l-6,3.9,1.44,2.22,.16-.1h0l5.83-3.79h0l-1.44-2.24Zm-7.39-158.39l-1.44-2.22-10.46,6.79V3.55l58.9,38.25,2.05-1.11V1.11L185.46,0h-.02l-21.76,14.13,1.44,2.22,19.73-12.81V38.25L125.94,0h-.02l-2.03,1.1V40.69l2.04,1.11,12.51-8.12Zm7.39,75.22l-6,3.9,1.44,2.22,.16-.1h0l5.83-3.79h0l-1.44-2.23Zm-61.94-41.42l-6,3.9,1.44,2.22,.16-.1h0l5.83-3.79h0l-1.44-2.24Zm0,83.18l-6,3.9,1.44,2.22,.16-.1h0l5.83-3.79h0l-1.44-2.24ZM63.99,41.75l-2.04,1.11v39.58l2.04,1.11,12.51-8.12-1.44-2.22-10.46,6.8V45.31l58.9,38.25,2.05-1.11V42.86l-2.05-1.11-21.77,14.14,1.44,2.22,19.72-12.81v34.7L63.99,41.75Zm37.74,180.49l1.44,2.22,19.72-12.81v34.7l-58.9-38.25-2.04,1.11v39.58l2.05,1.11,12.51-8.12-1.44-2.22-10.46,6.79v-34.7l58.9,38.25,2.05-1.11v-39.58l-2.05-1.11-21.77,14.14Zm23.82-56.62v-39.58l-2.05-1.11-21.77,14.14,1.44,2.22,19.72-12.81v34.7l-58.9-38.25-2.05,1.11v39.58l2.04,1.11,12.51-8.12-1.44-2.22-10.46,6.79v-34.7l58.9,38.25,2.04-1.11Zm82.38,68.21l-6,3.89,1.44,2.22,.16-.1h0l5.83-3.79h0l-1.44-2.23Zm0-166.35l-6,3.9,1.44,2.22,.16-.1h0l5.83-3.79h0l-1.44-2.24Zm0,83.18l-6,3.9,1.44,2.22,.16-.1h0l5.83-3.79h0l-1.44-2.24Zm-19.9-108.9l-2.05,1.11v39.58l2.05,1.11,12.51-8.12-1.43-2.23-10.47,6.8V45.31l58.9,38.25,2.04-1.11V42.86l-2.04-1.11-21.77,14.14,1.44,2.22,19.73-12.81v34.7l-58.91-38.25Zm37.74,180.49l1.44,2.22,19.73-12.81v34.7l-58.9-38.25-2.05,1.11v39.58l2.05,1.11,12.51-8.12-1.44-2.22-10.46,6.79v-34.7l58.9,38.25,2.04-1.11v-39.58l-2.04-1.11-21.78,14.14Zm23.82-56.62v-39.58l-2.04-1.11-21.77,14.14,1.44,2.22,19.73-12.81v34.7l-58.9-38.25-2.05,1.11v39.58l2.05,1.11,12.51-8.12-1.44-2.22-10.46,6.79v-34.7l58.9,38.25,2.04-1.11Zm82.14,68.21l-6,3.89,1.44,2.22,.16-.1h0l5.83-3.79h0l-1.44-2.23Zm-20.29-109.96v-39.58l-2.05-1.11-21.77,14.13,1.44,2.22,19.73-12.81v34.7l-58.9-38.25-2.04,1.11v39.58l2.04,1.11,12.51-8.12-1.44-2.22-10.46,6.79v-34.7l58.9,38.25,2.04-1.11Zm-41.66-98.15l-6,3.9,1.44,2.22,.16-.1h0l5.83-3.79h0s-1.44-2.24-1.44-2.24Zm0,166.35l-6,3.9,1.44,2.22,.16-.1h0l5.83-3.79h0l-1.44-2.24Zm-7.39-158.39l-1.44-2.22-10.46,6.79V3.55l58.9,38.25,2.05-1.11V1.11L309.39,0h-.02l-21.76,14.13,1.44,2.22,19.73-12.81V38.25L249.88,0h-.02l-2.03,1.1V40.69l2.04,1.11,12.52-8.12Zm49.05,133.78l-2.05-1.11-21.77,14.14,1.44,2.22,19.73-12.81v34.7l-58.9-38.25-2.04,1.11v39.58l2.04,1.11,12.51-8.12-1.44-2.22-10.46,6.79v-34.7l58.9,38.25,2.05-1.11v-39.58Zm-41.65-58.56l-6,3.9,1.44,2.22,.16-.1h0l5.83-3.79h0l-1.44-2.23ZM393.67,25.72l-6,3.9,1.44,2.22,.16-.1h0l5.83-3.79h0s-1.44-2.24-1.44-2.24Zm41.66,98.15v-39.58l-2.05-1.11-21.77,14.13,1.44,2.22,19.73-12.81v34.7l-58.9-38.25-2.05,1.11v39.58l2.05,1.11,12.51-8.12-1.44-2.22-10.46,6.79v-34.7l58.9,38.25,2.05-1.11Zm0,43.59l-2.05-1.11-21.77,14.14,1.44,2.22,19.73-12.81v34.7l-58.9-38.25-2.05,1.11v39.58l2.05,1.11,12.51-8.12-1.44-2.22-10.46,6.79v-34.7l58.9,38.25,2.05-1.11v-39.58Zm-41.65,24.61l-6,3.9,1.44,2.22,.16-.1h0l5.83-3.79h0l-1.44-2.24Zm-7.39-158.39l-1.44-2.22-10.46,6.79V3.55l58.9,38.25,2.05-1.11V1.11L433.29,0h-.02l-21.76,14.13,1.44,2.22,19.73-12.81V38.25L373.78,0h-.02l-2.03,1.1V40.69l2.05,1.11,12.51-8.12Zm7.39,75.22l-6,3.9,1.44,2.22,.16-.1h0l5.83-3.79h0l-1.44-2.23Zm-61.95-41.42l-6,3.9,1.44,2.22,.16-.1h0l5.83-3.79h0l-1.44-2.24Zm0,83.18l-6,3.9,1.44,2.22,.16-.1h0l5.83-3.79h0l-1.44-2.24Zm-19.9-108.9l-2.05,1.11v39.58l2.05,1.11,12.51-8.12-1.44-2.22-10.46,6.8V45.31l58.9,38.25,2.05-1.11V42.86l-2.05-1.11-21.77,14.14,1.44,2.22,19.73-12.81v34.7l-58.91-38.25Zm37.74,180.49l1.44,2.22,19.73-12.81v34.7l-58.9-38.25-2.05,1.11v39.58l2.05,1.11,12.51-8.12-1.44-2.22-10.46,6.79v-34.7l58.9,38.25,2.05-1.11v-39.58l-2.05-1.11-21.77,14.14Zm23.82-56.62v-39.58l-2.05-1.11-21.77,14.14,1.44,2.22,19.73-12.81v34.7l-58.9-38.25-2.05,1.11v39.58l2.05,1.11,12.51-8.12-1.44-2.22-10.46,6.79v-34.7l58.9,38.25,2.05-1.11Zm82.39,68.21l-6,3.89,1.44,2.22,.16-.1h0l5.83-3.79h0l-1.44-2.23Zm0-166.35l-6,3.9,1.44,2.22,.16-.1h0l5.83-3.79h0l-1.44-2.24Zm0,83.18l-6,3.9,1.44,2.22,.16-.1h0l5.83-3.79h0l-1.44-2.24Zm-19.9-108.9l-2.05,1.11v39.58l2.05,1.11,12.51-8.12-1.44-2.22-10.46,6.8V45.31l58.9,38.25,2.05-1.11V42.86l-2.05-1.11-21.77,14.14,1.44,2.22,19.73-12.81v34.7l-58.91-38.25Zm37.74,180.49l1.44,2.22,19.73-12.81v34.7l-58.9-38.25-2.05,1.11v39.58l2.05,1.11,12.51-8.12-1.44-2.22-10.46,6.79v-34.7l58.9,38.25,2.05-1.11v-39.58l-2.05-1.11-21.77,14.14Zm23.82-56.62v-39.58l-2.05-1.11-21.77,14.14,1.44,2.22,19.73-12.81v34.7l-58.9-38.25-2.05,1.11v39.58l2.05,1.11,12.51-8.12-1.44-2.22-10.46,6.79v-34.7l58.9,38.25,2.05-1.11Zm82.14,68.21l-6,3.89,1.44,2.22,.16-.1h0l5.83-3.79h0l-1.44-2.23Zm-20.29-109.96v-39.58l-2.04-1.11-21.77,14.13,1.44,2.22,19.73-12.81v34.7l-58.9-38.25-2.05,1.11v39.58l2.05,1.11,12.51-8.12-1.44-2.22-10.47,6.8v-34.7l58.9,38.25,2.04-1.11Zm-41.66-98.15l-6,3.9,1.44,2.22,.16-.1h0l5.83-3.79h0s-1.44-2.24-1.44-2.24Zm0,166.35l-6,3.9,1.44,2.22,.16-.1h0l5.83-3.79h0l-1.44-2.24Zm-7.39-158.39l-1.44-2.22-10.46,6.79V3.55l58.9,38.25,2.04-1.11V1.11L557.23,0h-.02l-21.76,14.13,1.44,2.22,19.73-12.81V38.25L497.71,0h-.01l-2.03,1.1V40.69l2.05,1.11,12.51-8.12Zm49.05,133.78l-2.04-1.11-21.77,14.14,1.44,2.22,19.73-12.81v34.7l-58.9-38.25-2.05,1.11v39.58l2.05,1.11,12.51-8.12-1.44-2.22-10.47,6.8v-34.7l58.9,38.25,2.04-1.11v-39.59Zm-41.65-58.56l-6,3.9,1.44,2.22,.16-.1h0l5.83-3.79h0l-1.44-2.23Zm123.89-83.18l-6,3.9,1.44,2.22,.16-.1h0l5.83-3.79h0s-1.44-2.24-1.44-2.24Zm41.66,98.15v-39.58l-2.05-1.11-21.77,14.13,1.44,2.22,19.72-12.81v34.7l-58.9-38.25-2.04,1.11v39.58l2.04,1.11,12.51-8.12-1.44-2.22-10.46,6.79v-34.7l58.9,38.25,2.05-1.11Zm0,43.59l-2.05-1.11-21.77,14.14,1.44,2.22,19.72-12.81v34.7l-58.91-38.25-2.04,1.11v39.58l2.04,1.11,12.51-8.12-1.44-2.22-10.46,6.79v-34.7l58.9,38.25,2.05-1.11v-39.58Zm-41.65,24.61l-6,3.9,1.44,2.22,.16-.1h0l5.83-3.79h0l-1.44-2.24Zm-7.39-158.39l-1.44-2.22-10.46,6.79V3.55l58.9,38.25,2.05-1.11V1.11L681.12,0h-.02l-21.76,14.13,1.44,2.22,19.72-12.81V38.25L621.61,0h0l-2.03,1.1V40.69l2.04,1.11,12.5-8.12Zm7.39,75.22l-6,3.9,1.44,2.22,.16-.1h0l5.83-3.79h0l-1.44-2.23Zm-61.95-41.42l-6,3.9,1.44,2.22,.16-.1h0l5.84-3.8h0l-1.45-2.23Zm0,83.18l-6,3.9,1.44,2.22,.16-.1h0l5.84-3.79h0l-1.45-2.23Zm-19.9-108.9l-2.05,1.11v39.58l2.05,1.11,12.51-8.12-1.44-2.22-10.46,6.8V45.31l58.91,38.25,2.04-1.11V42.86l-2.04-1.11-21.77,14.14,1.44,2.22,19.72-12.81v34.7l-58.91-38.25Zm37.74,180.49l1.44,2.22,19.72-12.81v34.7l-58.9-38.25-2.05,1.11v39.58l2.05,1.11,12.51-8.12-1.44-2.22-10.46,6.79v-34.7l58.9,38.25,2.04-1.11v-39.58l-2.04-1.11-21.77,14.14Zm23.82-56.62v-39.58l-2.04-1.11-21.77,14.14,1.44,2.22,19.72-12.81v34.7l-58.9-38.25-2.05,1.11v39.58l2.05,1.11,12.5-8.12-1.44-2.22-10.46,6.79v-34.7l58.91,38.25,2.04-1.11Zm82.39,68.21l-6,3.89,1.44,2.22,.16-.1h0l5.83-3.79h0l-1.44-2.23Zm0-166.35l-6,3.9,1.44,2.22,.16-.1h0l5.83-3.79h0l-1.44-2.24Zm0,83.18l-6,3.9,1.44,2.22,.16-.1h0l5.83-3.79h0l-1.44-2.24Zm-19.9-108.9l-2.04,1.11v39.58l2.04,1.11,12.51-8.12-1.44-2.22-10.46,6.8V45.31l58.9,38.25,2.05-1.11V42.86l-2.05-1.11-21.77,14.14,1.44,2.22,19.72-12.81v34.7l-58.91-38.25Zm37.74,180.49l1.44,2.22,19.72-12.81v34.7l-58.9-38.25-2.04,1.11v39.58l2.04,1.11,12.51-8.12-1.44-2.22-10.46,6.79v-34.7l58.9,38.25,2.05-1.11v-39.58l-2.05-1.11-21.77,14.14Zm23.82-56.62v-39.58l-2.05-1.11-21.77,14.14,1.44,2.22,19.72-12.81v34.7l-58.9-38.25-2.04,1.11v39.58l2.04,1.11,12.5-8.12-1.44-2.22-10.46,6.79v-34.7l58.9,38.25,2.05-1.11Zm82.14,68.21l-6,3.89,1.44,2.22,.16-.1h0l5.83-3.79h0l-1.44-2.23Zm-20.29-109.96v-39.58l-2.05-1.11-21.77,14.13,1.44,2.22,19.72-12.81v34.7l-58.9-38.25-2.05,1.11v39.58l2.05,1.11,12.51-8.12-1.44-2.22-10.46,6.79v-34.7l58.9,38.25,2.04-1.11Zm-41.65-98.15l-6,3.9,1.44,2.22,.16-.1h0l5.83-3.79h0s-1.44-2.24-1.44-2.24Zm0,166.35l-6,3.9,1.44,2.22,.16-.1h0l5.83-3.79h0l-1.44-2.24Zm-7.39-158.39l-1.44-2.22-10.46,6.79V3.55l58.9,38.25,2.05-1.11V1.11L805.07,0h-.02l-21.76,14.13,1.44,2.22,19.72-12.81V38.25L745.56,0h-.02l-2.03,1.1V40.69l2.05,1.11,12.51-8.12Zm49.05,133.78l-2.05-1.11-21.77,14.14,1.44,2.22,19.72-12.81v34.7l-58.9-38.25-2.05,1.11v39.58l2.05,1.11,12.51-8.12-1.44-2.22-10.46,6.79v-34.7l58.9,38.25,2.05-1.11v-39.58Zm-41.66-58.56l-6,3.9,1.44,2.22,.16-.1h0l5.83-3.79h0l-1.44-2.23Zm123.89-83.18l-6,3.9,1.44,2.22,.16-.1h0l5.83-3.79h0s-1.44-2.24-1.44-2.24Zm41.66,98.15v-39.58l-2.05-1.11-21.77,14.13,1.44,2.22,19.72-12.81v34.7l-58.91-38.25-2.04,1.11v39.58l2.04,1.11,12.51-8.12-1.44-2.22-10.46,6.79v-34.7l58.9,38.25,2.05-1.11Zm0,43.59l-2.05-1.11-21.77,14.14,1.44,2.22,19.72-12.81v34.7l-58.91-38.25-2.04,1.11v39.58l2.04,1.11,12.51-8.12-1.44-2.22-10.46,6.79v-34.7l58.9,38.25,2.05-1.11v-39.58Zm-41.65,24.61l-6,3.9,1.44,2.22,.16-.1h0l5.83-3.79h0l-1.44-2.24Zm-7.39-158.39l-1.44-2.22-10.46,6.79V3.55l58.9,38.25,2.05-1.11V1.11L928.97,0h-.02l-21.76,14.13,1.44,2.22,19.72-12.81V38.25L869.45,0h-.02l-2.03,1.11V40.69l2.04,1.11,12.51-8.12Zm7.39,75.22l-6,3.9,1.44,2.22,.16-.1h0l5.83-3.79h0l-1.44-2.23Zm-61.94-41.42l-6,3.9,1.44,2.22,.16-.1h0l5.83-3.79h0l-1.44-2.24Zm0,83.18l-6,3.9,1.44,2.22,.16-.1h0l5.83-3.79h0l-1.44-2.24Zm-19.9-108.9l-2.04,1.11v39.58l2.04,1.11,12.51-8.12-1.44-2.22-10.47,6.8V45.31l58.9,38.25,2.05-1.11V42.86l-2.05-1.11-21.77,14.14,1.44,2.22,19.72-12.81v34.7l-58.9-38.25Zm37.74,180.49l1.44,2.22,19.72-12.81v34.7l-58.9-38.25-2.04,1.11v39.58l2.04,1.11,12.51-8.12-1.44-2.22-10.46,6.79v-34.7l58.9,38.25,2.05-1.11v-39.58l-2.05-1.11-21.77,14.14Zm23.82-56.62v-39.58l-2.05-1.11-21.77,14.14,1.44,2.22,19.72-12.81v34.7l-58.9-38.25-2.04,1.11v39.58l2.04,1.11,12.51-8.12-1.44-2.22-10.47,6.79v-34.7l58.9,38.25,2.05-1.11Zm82.38,68.21l-6,3.89,1.44,2.22,.16-.1h0l5.83-3.79h0l-1.44-2.23Zm0-166.35l-6,3.9,1.44,2.22,.16-.1h0l5.83-3.79h0l-1.44-2.24Zm0,83.18l-6,3.9,1.44,2.22,.16-.1h0l5.83-3.79h0l-1.44-2.24Zm-19.9-108.9l-2.04,1.11v39.58l2.04,1.11,12.51-8.12-1.45-2.23-10.46,6.8V45.31l58.9,38.25,2.04-1.11V42.86l-2.04-1.11-21.77,14.14,1.44,2.22,19.73-12.81v34.7l-58.91-38.25Zm37.74,180.49l1.44,2.22,19.73-12.81v34.7l-58.9-38.25-2.04,1.11v39.58l2.04,1.11,12.51-8.12-1.44-2.22-10.46,6.79v-34.7l58.9,38.25,2.04-1.11v-39.58l-2.04-1.11-21.77,14.14Zm23.82-56.62v-39.58l-2.04-1.11-21.77,14.14,1.44,2.22,19.73-12.81v34.7l-58.9-38.25-2.04,1.11v39.58l2.04,1.11,12.51-8.12-1.44-2.22-10.46,6.79v-34.7l58.9,38.25,2.04-1.11Zm82.14,68.21l-6,3.89,1.44,2.22,.16-.1h0l5.83-3.79h0l-1.44-2.23Zm-20.29-109.96v-39.58l-2.05-1.11-21.77,14.13,1.44,2.22,19.73-12.81v34.7l-58.9-38.25-2.04,1.11v39.58l2.04,1.11,12.51-8.12-1.44-2.22-10.46,6.79v-34.7l58.9,38.25,2.04-1.11Zm-41.66-98.15l-6,3.9,1.44,2.22,.16-.1h0l5.83-3.79h0s-1.44-2.24-1.44-2.24Zm0,166.35l-6,3.9,1.44,2.22,.16-.1h0l5.83-3.79h0l-1.44-2.24Zm-7.39-158.4l-1.44-2.22-10.46,6.79V3.55l58.9,38.25,2.05-1.11V1.11L1052.91,0h-.02l-21.76,14.13,1.44,2.22,19.73-12.81V38.25L993.4,0h-.02l-2.03,1.1V40.69l2.04,1.11,12.51-8.12Zm49.05,133.78l-2.05-1.11-21.77,14.14,1.44,2.22,19.73-12.81v34.7l-58.9-38.25-2.04,1.11v39.58l2.04,1.11,12.51-8.12-1.44-2.22-10.46,6.79v-34.7l58.9,38.25,2.05-1.11v-39.58Zm-41.66-58.56l-6,3.9,1.44,2.22,.16-.1h0l5.83-3.79h0l-1.44-2.23Zm123.89-83.18l-6,3.9,1.44,2.22,.16-.1h0l5.83-3.79h0s-1.44-2.24-1.44-2.24Zm41.66,98.15v-39.58l-2.05-1.11-21.78,14.13,1.44,2.22,19.72-12.81v34.7l-58.9-38.25-2.05,1.11v39.58l2.05,1.11,12.51-8.12-1.44-2.22-10.46,6.79v-34.7l58.9,38.25,2.05-1.11Zm0,43.59l-2.05-1.11-21.77,14.14,1.44,2.22,19.72-12.81v34.7l-58.9-38.25-2.05,1.11v39.58l2.05,1.11,12.51-8.12-1.44-2.22-10.46,6.79v-34.7l58.9,38.25,2.05-1.11v-39.58Zm-41.65,24.61l-6,3.9,1.44,2.22,.16-.1h0l5.83-3.79h0l-1.44-2.24Zm-7.39-158.39l-1.44-2.22-10.46,6.79V3.55l58.9,38.25,2.05-1.11V1.11L1176.8,0h-.02l-21.76,14.13,1.44,2.22,19.72-12.81V38.25L1117.29,0h-.02l-2.03,1.1V40.69l2.05,1.11,12.51-8.12Zm7.39,75.22l-6,3.9,1.44,2.22,.16-.1h0l5.83-3.79h0l-1.44-2.23Zm-61.95-41.42l-6,3.9,1.44,2.22,.16-.1h0l5.83-3.79h0l-1.44-2.24Zm0,83.18l-6,3.9,1.44,2.22,.16-.1h0l5.83-3.79h0l-1.44-2.24Zm-19.9-108.9l-2.05,1.11v39.58l2.05,1.11,12.51-8.12-1.44-2.22-10.46,6.79V45.3l58.91,38.25,2.05-1.11V42.86l-2.05-1.11-21.77,14.14,1.44,2.22,19.73-12.81v34.7l-58.9-38.25Zm37.74,180.49l1.44,2.22,19.73-12.81v34.7l-58.91-38.25-2.05,1.11v39.58l2.05,1.11,12.51-8.12-1.44-2.22-10.46,6.79v-34.7l58.9,38.25,2.05-1.11v-39.58l-2.05-1.11-21.77,14.14Zm23.82-56.62v-39.58l-2.05-1.11-21.77,14.14,1.44,2.22,19.73-12.81v34.7l-58.91-38.25-2.05,1.11v39.58l2.05,1.11,12.51-8.12-1.44-2.22-10.46,6.79v-34.7l58.91,38.25,2.05-1.11Zm82.39,68.21l-6,3.89,1.44,2.22,.16-.1h0l5.83-3.79h0l-1.44-2.23Zm0-166.35l-6,3.9,1.44,2.22,.16-.1h0l5.83-3.79h0l-1.44-2.24Zm0,83.18l-6,3.9,1.44,2.22,.16-.1h0l5.83-3.79h0l-1.44-2.24Zm-19.9-108.9l-2.05,1.11v39.58l2.05,1.11,12.51-8.12-1.44-2.22-10.46,6.79V45.31l58.91,38.25,2.05-1.11V42.86l-2.05-1.11-21.77,14.14,1.44,2.22,19.72-12.81v34.7l-58.9-38.25Zm37.74,180.49l1.44,2.22,19.72-12.81v34.7l-58.9-38.25-2.05,1.11v39.58l2.05,1.11,12.51-8.12-1.44-2.22-10.46,6.79v-34.7l58.9,38.25,2.05-1.11v-39.58l-2.05-1.11-21.77,14.14Zm23.82-56.62v-39.58l-2.05-1.11-21.77,14.14,1.44,2.22,19.72-12.81v34.7l-58.9-38.25-2.05,1.11v39.58l2.05,1.11,12.51-8.12-1.44-2.22-10.46,6.79v-34.7l58.91,38.25,2.04-1.11Zm82.14,68.21l-6,3.89,1.44,2.22,.16-.1h0l5.83-3.79h0l-1.44-2.23Zm-20.29-109.96v-39.58l-2.05-1.11-21.77,14.13,1.44,2.22,19.73-12.81v34.7l-58.91-38.25-2.05,1.11v39.58l2.05,1.11,12.51-8.12-1.44-2.22-10.46,6.79v-34.7l58.91,38.25,2.04-1.11Zm-41.66-98.15l-6,3.9,1.44,2.22,.16-.1h0l5.83-3.79h0s-1.44-2.24-1.44-2.24Zm0,166.35l-6,3.9,1.44,2.22,.16-.1h0l5.83-3.79h0l-1.44-2.24Zm-7.39-158.39l-1.44-2.22-10.46,6.79V3.55l58.91,38.25,2.05-1.11V1.11L1300.74,0h-.02l-21.76,14.13,1.44,2.22,19.73-12.81V38.25L1241.23,0h-.02l-2.03,1.1V40.69l2.05,1.11,12.51-8.12Zm49.05,133.78l-2.05-1.11-21.77,14.14,1.44,2.22,19.73-12.81v34.7l-58.91-38.25-2.05,1.11v39.58l2.05,1.11,12.51-8.12-1.44-2.22-10.46,6.79v-34.7l58.91,38.25,2.05-1.11v-39.58Zm-41.66-58.56l-6,3.9,1.44,2.22,.16-.1h0l5.83-3.79h0l-1.44-2.23Zm123.89-83.18l-6,3.9,1.44,2.22,.16-.1h0l5.83-3.79h0s-1.44-2.24-1.44-2.24Zm41.66,98.15v-39.58l-2.05-1.11-21.77,14.14,1.44,2.22,19.72-12.81v34.7l-58.9-38.25-2.05,1.11v39.58l2.05,1.11,12.51-8.12-1.44-2.22-10.46,6.79v-34.7l58.9,38.25,2.05-1.11Zm0,43.59l-2.05-1.11-21.77,14.14,1.44,2.22,19.72-12.81v34.7l-58.9-38.25-2.05,1.11v39.58l2.05,1.11,12.51-8.12-1.44-2.22-10.46,6.79v-34.7l58.9,38.25,2.05-1.11v-39.58Zm-41.66,24.61l-6,3.9,1.44,2.22,.16-.1h0l5.83-3.79h0l-1.44-2.24Zm-7.39-158.39l-1.44-2.22-10.46,6.79V3.55l58.9,38.25,2.05-1.11V1.11L1424.63,0h-.02l-21.76,14.13,1.44,2.22,19.72-12.81V38.25L1365.11,0h-.02l-2.03,1.1V40.69l2.05,1.11,12.52-8.12Zm7.39,75.22l-6,3.9,1.44,2.22,.16-.1h0l5.83-3.79h0l-1.44-2.23Zm-61.95-41.42l-6,3.9,1.44,2.22,.16-.1h0l5.83-3.79h0l-1.44-2.24Zm0,83.18l-6,3.9,1.44,2.22,.16-.1h0l5.83-3.79h0l-1.44-2.24Zm-19.9-108.9l-2.05,1.11v39.58l2.05,1.11,12.51-8.12-1.44-2.22-10.46,6.79V45.31l58.91,38.25,2.05-1.11V42.86l-2.05-1.11-21.77,14.14,1.44,2.22,19.72-12.81v34.7l-58.9-38.25Zm37.74,180.49l1.44,2.22,19.72-12.81v34.7l-58.9-38.25-2.05,1.11v39.58l2.05,1.11,12.51-8.12-1.44-2.22-10.46,6.79v-34.7l58.91,38.25,2.05-1.11v-39.58l-2.05-1.11-21.77,14.14Zm23.82-56.62v-39.59l-2.05-1.11-21.77,14.14,1.44,2.22,19.72-12.81v34.7l-58.9-38.25-2.05,1.11v39.58l2.05,1.11,12.51-8.12-1.44-2.22-10.46,6.79v-34.7l58.91,38.25,2.04-1.11Zm82.39,68.21l-6,3.89,1.44,2.22,.16-.1h0l5.83-3.79h0l-1.44-2.23Zm0-166.35l-6,3.9,1.44,2.22,.16-.1h0l5.83-3.79h0l-1.44-2.24Zm0,83.18l-6,3.9,1.44,2.22,.16-.1h0l5.83-3.79h0l-1.44-2.24Zm-19.9-108.9l-2.05,1.11v39.58l2.05,1.11,12.51-8.12-1.44-2.22-10.46,6.79V45.31l58.9,38.25,2.05-1.11V42.86l-2.05-1.11-21.77,14.14,1.44,2.22,19.72-12.81v34.7l-58.9-38.25Zm37.74,180.49l1.44,2.22,19.72-12.81v34.7l-58.91-38.25-2.05,1.11v39.58l2.05,1.11,12.51-8.12-1.44-2.22-10.46,6.79v-34.7l58.9,38.25,2.05-1.11v-39.58l-2.05-1.11-21.77,14.14Zm23.82-56.62v-39.59l-2.05-1.11-21.77,14.14,1.44,2.22,19.72-12.81v34.7l-58.91-38.25-2.05,1.11v39.58l2.05,1.11,12.51-8.12-1.44-2.22-10.46,6.79v-34.7l58.9,38.25,2.05-1.11Zm82.14,68.21l-6,3.89,1.44,2.22,.16-.1h0l5.83-3.79h0l-1.44-2.23Zm-20.29-109.96v-39.59l-2.05-1.11-21.76,14.13,1.44,2.22,19.72-12.81v34.7l-58.9-38.25-2.05,1.11v39.58l2.05,1.11,12.51-8.12-1.44-2.22-10.46,6.79v-34.7l58.9,38.25,2.04-1.1Zm-41.66-98.15l-6,3.9,1.44,2.22,.16-.1h0l5.83-3.79h0s-1.44-2.24-1.44-2.24Zm0,166.35l-6,3.9,1.44,2.22,.16-.1h0l5.83-3.79h0l-1.44-2.24Zm-7.39-158.39l-1.44-2.22-10.46,6.79V3.55l58.9,38.25,2.05-1.11V1.11L1548.57,0h-.02l-21.75,14.13,1.44,2.22,19.72-12.81V38.25L1489.07,0h-.02l-2.03,1.1V40.69l2.05,1.11,12.5-8.12Zm49.05,133.78l-2.05-1.11-21.77,14.14,1.44,2.22,19.72-12.81v34.7l-58.9-38.25-2.05,1.11v39.58l2.05,1.11,12.51-8.12-1.44-2.22-10.46,6.79v-34.7l58.9,38.25,2.05-1.11v-39.58Zm-41.66-58.56l-6,3.9,1.44,2.22,.16-.1h0l5.83-3.79h0l-1.44-2.23Zm123.89-83.18l-6,3.9,1.44,2.22,.16-.1h0l5.83-3.79h0s-1.44-2.24-1.44-2.24Zm41.66,98.15v-39.59l-2.05-1.11-21.77,14.14,1.44,2.22,19.72-12.81v34.7l-58.9-38.25-2.05,1.11v39.58l2.05,1.11,12.51-8.12-1.44-2.22-10.46,6.79v-34.7l58.9,38.25,2.05-1.11Zm0,43.59l-2.05-1.11-21.77,14.14,1.44,2.22,19.72-12.81v34.7l-58.9-38.25-2.05,1.11v39.58l2.05,1.11,12.51-8.12-1.44-2.22-10.46,6.79v-34.7l58.9,38.25,2.05-1.11v-39.58Zm-41.66,24.61l-6,3.9,1.44,2.22,.16-.1h0l5.83-3.79h0l-1.44-2.24Zm-7.39-158.39l-1.44-2.22-10.46,6.79V3.55l58.9,38.25,2.05-1.11V1.11L1672.46,0h-.02l-21.76,14.13,1.44,2.22,19.72-12.81V38.25L1612.95,0h-.02l-2.03,1.1V40.69l2.05,1.11,12.51-8.12Zm7.39,75.22l-6,3.9,1.44,2.22,.16-.1h0l5.83-3.79h0l-1.44-2.23Zm-61.94-41.43l-6,3.9,1.44,2.22,.16-.1h0l5.83-3.79h0l-1.44-2.24Zm0,83.18l-6,3.9,1.44,2.22,.16-.1h0l5.83-3.79h0l-1.44-2.24Zm-19.9-108.9l-2.05,1.11v39.58l2.05,1.11,12.51-8.12-1.44-2.22-10.46,6.79V45.3l58.9,38.25,2.05-1.11V42.86l-2.05-1.11-21.77,14.14,1.44,2.22,19.72-12.81v34.7l-58.9-38.25Zm37.74,180.49l1.44,2.22,19.72-12.81v34.7l-58.91-38.25-2.05,1.11v39.58l2.05,1.11,12.51-8.12-1.44-2.22-10.46,6.79v-34.7l58.9,38.25,2.05-1.11v-39.58l-2.05-1.11-21.77,14.14Zm23.82-56.62v-39.58l-2.05-1.11-21.77,14.14,1.44,2.22,19.72-12.81v34.7l-58.91-38.25-2.05,1.11v39.58l2.05,1.11,12.51-8.12-1.44-2.22-10.46,6.79v-34.7l58.9,38.25,2.05-1.11Zm82.39,68.21l-6,3.89,1.44,2.22,.16-.1h0l5.83-3.79h0l-1.44-2.23Zm0-166.35l-6,3.9,1.44,2.22,.16-.1h0l5.83-3.79h0l-1.44-2.24Zm0,83.18l-6,3.9,1.44,2.22,.16-.1h0l5.83-3.79h0l-1.44-2.24Zm-19.9-108.9l-2.04,1.11v39.58l2.05,1.11,12.51-8.12-1.44-2.22-10.46,6.8V45.31l58.9,38.25,2.05-1.11V42.86l-2.05-1.11-21.77,14.14,1.44,2.22,19.72-12.81v34.7l-58.91-38.25Zm37.74,180.49l1.44,2.22,19.72-12.81v34.7l-58.91-38.25-2.05,1.11v39.58l2.05,1.11,12.51-8.12-1.44-2.22-10.46,6.79v-34.7l58.9,38.25,2.05-1.11v-39.58l-2.05-1.11-21.77,14.14Zm23.82-56.62v-39.58l-2.05-1.11-21.77,14.14,1.44,2.22,19.72-12.81v34.7l-58.91-38.25-2.04,1.11v39.58l2.05,1.11,12.51-8.12-1.44-2.22-10.46,6.79v-34.7l58.9,38.25,2.04-1.11Zm82.14,68.21l-6,3.89,1.44,2.22,.16-.1h0l5.83-3.79h0l-1.44-2.23Zm-20.29-109.96v-39.58l-2.05-1.11-21.76,14.13,1.44,2.22,19.72-12.81v34.7l-58.9-38.25-2.05,1.11v39.58l2.05,1.11,12.51-8.12-1.44-2.22-10.46,6.79v-34.7l58.9,38.25,2.04-1.11Zm-41.66-98.15l-6,3.9,1.44,2.22,.16-.1h0l5.83-3.79h0s-1.44-2.24-1.44-2.24Zm0,166.35l-6,3.9,1.44,2.22,.16-.1h0l5.83-3.79h0l-1.44-2.24Zm-7.39-158.4l-1.44-2.22-10.46,6.79V3.55l58.9,38.25,2.05-1.11V1.11L1796.41,0h-.02l-21.76,14.13,1.44,2.22,19.72-12.81V38.25L1736.89,0h-.02l-2.03,1.1V40.69l2.05,1.11,12.52-8.12Zm49.05,133.78l-2.05-1.11-21.77,14.14,1.44,2.22,19.72-12.81v34.7l-58.9-38.25-2.05,1.11v39.58l2.05,1.11,12.51-8.12-1.44-2.22-10.46,6.8v-34.7l58.9,38.25,2.05-1.11v-39.59Zm-41.66-58.56l-6,3.9,1.44,2.22,.16-.1h0l5.83-3.79h0l-1.44-2.23Zm123.89-83.18l-6,3.9,1.44,2.22,.16-.1h0l5.83-3.79h0s-1.44-2.24-1.44-2.24Zm17.84,71.59l1.44,2.22,19.73-12.81v34.7l-58.91-38.25-2.05,1.11v39.58l2.05,1.11,12.51-8.12-1.44-2.22-10.46,6.79v-34.7l58.91,38.25,2.05-1.11v-39.58l-2.05-1.11-21.78,14.14Zm0,83.18l1.44,2.22,19.73-12.81v34.7l-58.91-38.25-2.05,1.11v39.58l2.05,1.11,12.51-8.12-1.44-2.22-10.46,6.79v-34.7l58.91,38.25,2.05-1.11v-39.58l-2.05-1.11-21.77,14.14Zm-17.84,11.59l-6,3.9,1.44,2.22,.16-.1h0l5.83-3.79h0l-1.44-2.24ZM1920.3,0h-.02l-21.76,14.13,1.44,2.22,19.73-12.81V38.25L1860.79,0h-.02l-2.03,1.1V40.69l2.05,1.11,12.51-8.12-1.44-2.22-10.46,6.79V3.55l58.91,38.25,2.05-1.11V1.11L1920.3,0Zm-39.62,108.89l-6,3.9,1.44,2.22,.16-.1h0l5.83-3.79h0l-1.44-2.23Zm-61.94-41.42l-6,3.9,1.44,2.22,.16-.1h0l5.83-3.79h0l-1.44-2.24Zm0,83.18l-6,3.9,1.44,2.22,.16-.1h0l5.83-3.79h0l-1.44-2.24Zm-19.9-108.9l-2.05,1.11v39.58l2.05,1.11,12.51-8.12-1.44-2.22-10.46,6.79V45.3l58.9,38.25,2.05-1.11V42.86l-2.05-1.11-21.77,14.14,1.44,2.22,19.72-12.81v34.7l-58.9-38.25Zm37.74,180.49l1.44,2.22,19.72-12.81v34.7l-58.91-38.25-2.05,1.11v39.58l2.05,1.11,12.51-8.12-1.44-2.22-10.46,6.79v-34.7l58.9,38.25,2.05-1.11v-39.58l-2.05-1.11-21.77,14.14ZM85.33,319.31h0l-5.83,3.79h0l-.16,.1-1.44-2.22,6-3.89,1.44,2.23Zm-63.39-43.98l-6,3.9,1.44,2.22,.16-.1h0l5.83-3.79h0l-1.44-2.24Zm41.66-24.61l-2.05-1.11-21.77,14.14,1.44,2.22,19.72-12.81v34.7L2.05,249.61l-2.05,1.11v39.58l2.05,1.11,12.51-8.12-1.44-2.22-10.46,6.8v-34.7l58.9,38.25,2.05-1.11v-39.59Zm123.9,0l-2.05-1.11-21.77,14.14,1.44,2.22,19.73-12.81v34.7l-58.9-38.25-2.04,1.11v39.58l2.04,1.11,12.51-8.12-1.45-2.22-10.46,6.8v-34.7l58.91,38.25,2.05-1.11v-39.59Zm-41.66,24.61l-6,3.9,1.44,2.22,.16-.1h0l5.83-3.79h0l-1.44-2.24Zm-44.11,30.17l1.44,2.22,19.72-12.81v34.7l-58.9-38.25-2.04,1.11v39.58l2.05,1.11,12.51-8.12-1.44-2.22-10.46,6.79v-34.7l58.9,38.25,2.05-1.11v-39.58l-2.05-1.11-21.77,14.14Zm106.2,11.58l-6,3.89,1.44,2.22,.16-.1h0l5.83-3.79h0l-1.44-2.23Zm17.84-11.58l1.44,2.22,19.73-12.81v34.7l-58.9-38.25-2.05,1.11v39.58l2.05,1.11,12.51-8.12-1.44-2.22-10.46,6.79v-34.7l58.9,38.25,2.04-1.11v-39.58l-2.04-1.11-21.78,14.14Zm105.95,11.58l-6,3.89,1.44,2.22,.16-.1h0l5.83-3.79h0l-1.44-2.23Zm-61.95-41.75l-6,3.9,1.44,2.22,.16-.1h0l5.83-3.79h0l-1.44-2.24Zm41.66-24.61l-2.05-1.11-21.77,14.14,1.44,2.22,19.73-12.81v34.7l-58.9-38.25-2.04,1.11v39.58l2.04,1.11,12.51-8.12-1.44-2.22-10.46,6.79v-34.7l58.9,38.25,2.05-1.11v-39.58Zm123.9,0l-2.05-1.11-21.77,14.14,1.44,2.22,19.73-12.81v34.7l-58.9-38.25-2.05,1.11v39.58l2.05,1.11,12.51-8.12-1.44-2.22-10.46,6.79v-34.7l58.9,38.25,2.05-1.11v-39.58Zm-41.65,24.61l-6,3.9,1.44,2.22,.16-.1h0l5.83-3.79h0l-1.44-2.24Zm-44.11,30.17l1.44,2.22,19.73-12.81v34.7l-58.9-38.25-2.05,1.11v39.58l2.05,1.11,12.51-8.12-1.44-2.22-10.46,6.79v-34.7l58.9,38.25,2.05-1.11v-39.58l-2.05-1.11-21.77,14.14Zm106.2,11.58l-6,3.89,1.44,2.22,.16-.1h0l5.83-3.79h0l-1.44-2.23Zm17.84-11.58l1.44,2.22,19.73-12.81v34.7l-58.9-38.25-2.05,1.11v39.58l2.05,1.11,12.51-8.12-1.44-2.22-10.46,6.79v-34.7l58.9,38.25,2.05-1.11v-39.58l-2.05-1.11-21.77,14.14Zm105.95,11.58l-6,3.89,1.44,2.22,.16-.1h0l5.83-3.79h0l-1.44-2.23Zm-61.95-41.75l-6,3.9,1.44,2.22,.16-.1h0l5.83-3.79h0l-1.44-2.24Zm41.66-24.61l-2.04-1.11-21.77,14.14,1.44,2.22,19.73-12.81v34.7l-58.9-38.25-2.05,1.11v39.58l2.05,1.11,12.51-8.12-1.44-2.22-10.47,6.8v-34.7l58.9,38.25,2.04-1.11v-39.59Zm123.9,0l-2.05-1.11-21.77,14.14,1.44,2.22,19.72-12.81v34.7l-58.91-38.25-2.04,1.11v39.58l2.04,1.11,12.51-8.12-1.44-2.22-10.46,6.79v-34.7l58.9,38.25,2.05-1.11v-39.58Zm-41.65,24.61l-6,3.9,1.44,2.22,.16-.1h0l5.83-3.79h0l-1.44-2.24Zm-44.11,30.17l1.44,2.22,19.72-12.81v34.7l-58.9-38.25-2.05,1.11v39.58l2.05,1.11,12.51-8.12-1.44-2.22-10.46,6.79v-34.7l58.9,38.25,2.04-1.11v-39.58l-2.04-1.11-21.77,14.14Zm106.2,11.58l-6,3.89,1.44,2.22,.16-.1h0l5.83-3.79h0l-1.44-2.23Zm17.84-11.58l1.44,2.22,19.72-12.81v34.7l-58.9-38.25-2.04,1.11v39.58l2.04,1.11,12.51-8.12-1.44-2.22-10.46,6.79v-34.7l58.9,38.25,2.05-1.11v-39.58l-2.05-1.11-21.77,14.14Zm105.96,11.58l-6,3.89,1.44,2.22,.16-.1h0l5.83-3.79h0l-1.44-2.23Zm-61.94-41.75l-6,3.9,1.44,2.22,.16-.1h0l5.83-3.79h0l-1.44-2.24Zm41.66-24.61l-2.05-1.11-21.77,14.14,1.44,2.22,19.72-12.81v34.7l-58.9-38.25-2.05,1.11v39.58l2.05,1.11,12.51-8.12-1.44-2.22-10.46,6.79v-34.7l58.9,38.25,2.05-1.11v-39.58Zm123.89,0l-2.05-1.11-21.77,14.14,1.44,2.22,19.72-12.81v34.7l-58.91-38.25-2.04,1.11v39.58l2.04,1.11,12.51-8.12-1.44-2.22-10.46,6.79v-34.7l58.9,38.25,2.05-1.11v-39.58Zm-41.65,24.61l-6,3.9,1.44,2.22,.16-.1h0l5.83-3.79h0l-1.44-2.24Zm-44.11,30.17l1.44,2.22,19.72-12.81v34.7l-58.9-38.25-2.04,1.11v39.58l2.04,1.11,12.51-8.12-1.44-2.22-10.46,6.79v-34.7l58.9,38.25,2.05-1.11v-39.58l-2.05-1.11-21.77,14.14Zm106.2,11.58l-6,3.89,1.44,2.22,.16-.1h0l5.83-3.79h0l-1.44-2.23Zm17.84-11.58l1.44,2.22,19.73-12.81v34.7l-58.9-38.25-2.04,1.11v39.58l2.04,1.11,12.51-8.12-1.44-2.22-10.46,6.79v-34.7l58.9,38.25,2.04-1.11v-39.58l-2.04-1.11-21.77,14.14Zm105.96,11.58l-6,3.89,1.44,2.22,.16-.1h0l5.83-3.79h0l-1.44-2.23Zm-61.94-41.75l-6,3.9,1.44,2.22,.16-.1h0l5.83-3.79h0l-1.44-2.24Zm41.66-24.61l-2.05-1.11-21.77,14.14,1.44,2.22,19.73-12.81v34.7l-58.9-38.25-2.04,1.11v39.58l2.04,1.11,12.51-8.12-1.44-2.22-10.46,6.79v-34.7l58.9,38.25,2.05-1.11v-39.58Zm123.89,0l-2.05-1.11-21.77,14.14,1.44,2.22,19.72-12.81v34.7l-58.9-38.25-2.05,1.11v39.58l2.05,1.11,12.51-8.12-1.44-2.22-10.46,6.79v-34.7l58.9,38.25,2.05-1.11v-39.58Zm-41.65,24.61l-6,3.9,1.44,2.22,.16-.1h0l5.83-3.79h0l-1.44-2.24Zm-44.11,30.17l1.44,2.22,19.73-12.81v34.7l-58.91-38.25-2.05,1.11v39.58l2.05,1.11,12.51-8.12-1.44-2.22-10.46,6.79v-34.7l58.9,38.25,2.05-1.11v-39.58l-2.05-1.11-21.77,14.14Zm106.2,11.58l-6,3.89,1.44,2.22,.16-.1h0l5.83-3.79h0l-1.44-2.23Zm17.84-11.58l1.44,2.22,19.72-12.81v34.7l-58.9-38.25-2.05,1.11v39.58l2.05,1.11,12.51-8.12-1.44-2.22-10.46,6.79v-34.7l58.9,38.25,2.05-1.11v-39.58l-2.05-1.11-21.77,14.14Zm105.96,11.58l-6,3.89,1.44,2.22,.16-.1h0l5.83-3.79h0l-1.44-2.23Zm-61.95-41.75l-6,3.9,1.44,2.22,.16-.1h0l5.83-3.79h0l-1.44-2.24Zm41.66-24.61l-2.05-1.11-21.77,14.14,1.44,2.22,19.73-12.81v34.7l-58.91-38.25-2.05,1.11v39.58l2.05,1.11,12.51-8.12-1.44-2.22-10.46,6.79v-34.7l58.91,38.25,2.05-1.11v-39.58Zm123.89,0l-2.05-1.11-21.77,14.14,1.44,2.22,19.72-12.81v34.7l-58.9-38.25-2.05,1.11v39.58l2.05,1.11,12.51-8.12-1.44-2.22-10.46,6.79v-34.7l58.9,38.25,2.05-1.11v-39.58Zm-41.66,24.61l-6,3.9,1.44,2.22,.16-.1h0l5.83-3.79h0l-1.44-2.24Zm-44.11,30.17l1.44,2.22,19.72-12.81v34.7l-58.9-38.25-2.05,1.11v39.58l2.05,1.11,12.51-8.12-1.44-2.22-10.46,6.79v-34.7l58.91,38.25,2.05-1.11v-39.58l-2.05-1.11-21.77,14.14Zm106.2,11.58l-6,3.89,1.44,2.22,.16-.1h0l5.83-3.79h0l-1.44-2.23Zm17.84-11.58l1.44,2.22,19.72-12.81v34.7l-58.91-38.25-2.05,1.11v39.58l2.05,1.11,12.51-8.12-1.44-2.22-10.46,6.79v-34.7l58.9,38.25,2.05-1.11v-39.58l-2.05-1.11-21.77,14.14Zm105.96,11.58l-6,3.89,1.44,2.22,.16-.1h0l5.83-3.79h0l-1.44-2.23Zm-61.95-41.75l-6,3.9,1.44,2.22,.16-.1h0l5.83-3.79h0l-1.44-2.24Zm41.66-24.61l-2.05-1.11-21.77,14.14,1.44,2.22,19.72-12.81v34.7l-58.9-38.25-2.05,1.11v39.58l2.05,1.11,12.51-8.12-1.44-2.22-10.46,6.79v-34.7l58.9,38.25,2.05-1.11v-39.58Zm123.89,0l-2.05-1.11-21.77,14.14,1.44,2.22,19.72-12.81v34.7l-58.9-38.25-2.05,1.11v39.58l2.05,1.11,12.51-8.12-1.44-2.22-10.46,6.79v-34.7l58.9,38.25,2.05-1.11v-39.58Zm-41.66,24.61l-6,3.9,1.44,2.22,.16-.1h0l5.83-3.79h0l-1.44-2.24Zm-44.11,30.17l1.44,2.22,19.72-12.81v34.7l-58.91-38.25-2.05,1.11v39.58l2.05,1.11,12.51-8.12-1.44-2.22-10.46,6.79v-34.7l58.9,38.25,2.05-1.11v-39.58l-2.05-1.11-21.77,14.14Zm106.2,11.58l-6,3.89,1.44,2.22,.16-.1h0l5.83-3.79h0l-1.44-2.23Zm17.84-11.58l1.44,2.22,19.72-12.81v34.7l-58.91-38.25-2.05,1.11v39.58l2.05,1.11,12.51-8.12-1.44-2.22-10.46,6.79v-34.7l58.9,38.25,2.05-1.11v-39.58l-2.05-1.11-21.77,14.14Zm105.96,11.58l-6,3.89,1.44,2.22,.16-.1h0l5.83-3.79h0l-1.44-2.23Zm-61.95-41.75l-6,3.9,1.44,2.22,.16-.1h0l5.83-3.79h0l-1.44-2.24Zm41.66-24.61l-2.05-1.11-21.77,14.14,1.44,2.22,19.72-12.81v34.7l-58.9-38.25-2.05,1.11v39.58l2.05,1.11,12.51-8.12-1.44-2.22-10.46,6.8v-34.7l58.9,38.25,2.05-1.11v-39.59Zm100.08,13.03l1.44,2.22,19.73-12.81v34.7l-58.91-38.25-2.05,1.11v39.58l2.05,1.11,12.51-8.12-1.44-2.22-10.46,6.79v-34.7l58.91,38.25,2.05-1.11v-39.58l-2.05-1.11-21.77,14.14Zm-17.84,11.59l-6,3.9,1.44,2.22,.16-.1h0l5.83-3.79h0l-1.44-2.24Zm-44.11,30.17l1.44,2.22,19.72-12.81v34.7l-58.91-38.25-2.05,1.11v39.58l2.05,1.11,12.51-8.12-1.44-2.22-10.46,6.79v-34.7l58.9,38.25,2.05-1.11v-39.58l-2.05-1.11-21.77,14.14Zm23.82-139.89v-39.58l-2.05-1.11-21.77,14.14,1.44,2.22,19.72-12.81v34.7l-58.91-38.25-2.05,1.11v39.58l2.05,1.11,12.51-8.12-1.44-2.22-10.46,6.79v-34.7l58.9,38.25,2.05-1.11Z"/>
  </g>
</svg>