<?xml version="1.0" encoding="UTF-8"?>
<svg xmlns="http://www.w3.org/2000/svg" viewBox="0 0 1582.58 1283.55">
  <defs>
    <style>
      .cls-1, .cls-2 {
        fill: #fff;
      }

      .cls-3 {
        fill: #fafafa;
      }

      .cls-3, .cls-4 {
        opacity: .2;
      }

      .cls-5 {
        opacity: .8;
      }

      .cls-5, .cls-6, .cls-7 {
        fill: #1a2e35;
      }

      .cls-8 {
        fill: #f5f5f5;
      }

      .cls-9 {
        isolation: isolate;
      }

      .cls-2 {
        opacity: .1;
      }

      .cls-10 {
        fill: #ff847f;
      }

      .cls-11 {
        fill: #007cff;
      }

      .cls-12, .cls-13 {
        opacity: .3;
      }

      .cls-13 {
        mix-blend-mode: multiply;
      }

      .cls-14 {
        fill: #ffc3bd;
      }

      .cls-6 {
        opacity: .4;
      }
    </style>
  </defs>
  <g class="cls-9">
    <g id="Layer_2" data-name="Layer 2">
      <g id="Layer_1-2" data-name="Layer 1">
        <g>
          <ellipse id="_Path_" data-name="&amp;lt;Path&amp;gt;" class="cls-8" cx="791.29" cy="1237.34" rx="791.29" ry="46.21"/>
          <g>
            <g>
              <path class="cls-7" d="M1337.33,659.27H455.41c-9.51,0-16.86-7.78-16.34-17.29l29.7-540.69c.52-9.51,8.73-17.29,18.24-17.29h881.92c9.51,0,16.86,7.78,16.34,17.29l-29.7,540.69c-.52,9.51-8.73,17.29-18.24,17.29Z"/>
              <path class="cls-7" d="M966.35,175.96h-85.25c-28.43,0-50.41-23.22-48.85-51.61l.87-15.77c1.51-27.5,25.28-50,52.82-50h85.2c28.46,0,50.46,23.25,48.9,51.66l-.86,15.72c-1.51,27.5-25.28,50-52.83,50Z"/>
              <polygon class="cls-7" points="1043.95 1220.3 1016.64 1220.3 941.44 70.62 968.76 70.62 1043.95 1220.3"/>
              <polygon class="cls-7" points="838.93 1220.3 866.25 1220.3 941.44 70.62 914.13 70.62 838.93 1220.3"/>
              <path class="cls-11" d="M1332.63,659.27H450.71c-9.51,0-16.86-7.78-16.34-17.29l29.7-540.69c.52-9.51,8.73-17.29,18.24-17.29h881.92c9.51,0,16.86,7.78,16.34,17.29l-29.7,540.69c-.52,9.51-8.73,17.29-18.24,17.29Z"/>
              <path class="cls-6" d="M464.71,642.7c-7.61,0-13.47-6.19-13.05-13.81l28.26-514.52c.42-7.61,6.95-13.81,14.56-13.81h855.75c7.61,0,13.46,6.19,13.05,13.81l-28.26,514.52c-.42,7.61-6.95,13.81-14.56,13.81H464.71Z"/>
              <path class="cls-2" d="M1325.77,369.98h-257.59c-6.48,0-11.44-5.25-11.08-11.73l12.86-234.2c.05-.91-.65-1.66-1.57-1.66s-1.7,.74-1.75,1.66l-12.86,234.2c-.36,6.48-5.9,11.73-12.37,11.73h-267.69c-6.48,0-11.44-5.25-11.08-11.73l12.86-234.2c.05-.91-.65-1.66-1.57-1.66s-1.7,.74-1.75,1.66l-12.86,234.2c-.36,6.48-5.9,11.73-12.37,11.73H489.36c-.92,0-1.7,.74-1.75,1.66-.05,.92,.65,1.66,1.57,1.66h257.59c6.48,0,11.44,5.25,11.08,11.73l-12.87,234.2c-.05,.92,.65,1.66,1.57,1.66s1.7-.74,1.75-1.66l12.86-234.2c.36-6.48,5.9-11.73,12.37-11.73h267.69c6.48,0,11.44,5.25,11.08,11.73l-12.86,234.2c-.05,.92,.65,1.66,1.57,1.66s1.7-.74,1.75-1.66l12.86-234.2c.36-6.48,5.9-11.73,12.37-11.73h257.59c.92,0,1.7-.74,1.75-1.66,.05-.91-.65-1.66-1.57-1.66Z"/>
            </g>
            <g>
              <polygon class="cls-6" points="905.78 164.85 802.31 164.85 796.53 270.07 899.85 272.84 905.78 164.85"/>
              <path class="cls-1" d="M894.56,268.31c-34.61-1.69-69.23-3.37-103.85-5.06,5.75-35.77,9.35-71.62,10.8-107.38,34.82,1.69,69.64,3.37,104.46,5.06-1.65,35.76-5.46,71.62-11.41,107.38Z"/>
            </g>
            <g>
              <polygon class="cls-6" points="1030.51 235.14 926.91 243.04 929.18 347.96 1032.84 342.82 1030.51 235.14"/>
              <path class="cls-11" d="M1027.2,338.73c-34.79,.97-69.57,1.93-104.37,2.9,3.02-35.95,3.88-71.83,2.59-107.44,35-.99,69.99-1.97,104.98-2.95,1.08,35.64,.02,71.53-3.2,107.49Z"/>
            </g>
            <g>
              <polygon class="cls-6" points="727.94 426.52 536.93 419.22 519.79 589.14 710.35 600.9 727.94 426.52"/>
              <path class="cls-1" d="M700.86,593.2c-63.79-5.17-127.59-10.34-191.4-15.52,12.81-57.49,21.67-115.27,26.54-173.04,64.18,5.18,128.36,10.37,192.52,15.55-5.25,57.77-14.48,115.55-27.67,173Z"/>
            </g>
            <g class="cls-13">
              <path class="cls-7" d="M531.35,188.62h0c-5.92,0-10.5-4.85-10.18-10.77h0c.33-5.92,5.44-10.77,11.36-10.77h0c5.92,0,10.5,4.85,10.18,10.77h0c-.33,5.92-5.44,10.77-11.36,10.77Z"/>
              <path class="cls-5" d="M700.13,188.62h-132.53c-5.92,0-10.5-4.85-10.18-10.77h0c.33-5.92,5.44-10.77,11.36-10.77h132.53c5.92,0,10.5,4.85,10.18,10.77h0c-.33,5.92-5.44,10.77-11.36,10.77Z"/>
              <path class="cls-7" d="M528.77,235.58h0c-5.92,0-10.5-4.85-10.18-10.77h0c.33-5.92,5.44-10.77,11.36-10.77h0c5.92,0,10.5,4.85,10.18,10.77h0c-.33,5.92-5.44,10.77-11.36,10.77Z"/>
              <path class="cls-5" d="M721.02,235.58h-156c-5.92,0-10.5-4.85-10.18-10.77h0c.33-5.92,5.44-10.77,11.36-10.77h156c5.92,0,10.5,4.85,10.18,10.77h0c-.33,5.92-5.44,10.77-11.36,10.77Z"/>
              <path class="cls-7" d="M526.19,282.54h0c-5.92,0-10.5-4.85-10.18-10.77h0c.33-5.92,5.44-10.77,11.36-10.77h0c5.92,0,10.5,4.85,10.18,10.77h0c-.33,5.92-5.44,10.77-11.36,10.77Z"/>
              <path class="cls-5" d="M638.37,282.54h-75.93c-5.92,0-10.5-4.85-10.18-10.77h0c.33-5.92,5.44-10.77,11.36-10.77h75.93c5.92,0,10.5,4.85,10.18,10.77h0c-.33,5.92-5.44,10.77-11.36,10.77Z"/>
              <path class="cls-5" d="M708.68,329.5h-75.93c-5.92,0-10.5-4.85-10.18-10.77h0c.33-5.92,5.44-10.77,11.36-10.77h75.93c5.92,0,10.5,4.85,10.18,10.77h0c-.33,5.92-5.44,10.77-11.36,10.77Z"/>
              <path class="cls-7" d="M523.61,329.5h0c-5.92,0-10.5-4.85-10.18-10.77h0c.33-5.92,5.44-10.77,11.36-10.77h0c5.92,0,10.5,4.85,10.18,10.77h0c-.33,5.92-5.44,10.77-11.36,10.77Z"/>
              <path class="cls-5" d="M594.92,329.5h-35.07c-5.92,0-10.5-4.85-10.18-10.77h0c.33-5.92,5.44-10.77,11.36-10.77h35.07c5.92,0,10.5,4.85,10.18,10.77h0c-.33,5.92-5.44,10.77-11.36,10.77Z"/>
            </g>
            <g>
              <polygon class="cls-11" points="853.1 469.24 801.7 469.24 794.64 597.83 846.03 597.83 853.1 469.24"/>
              <polygon class="cls-11" points="931.05 495.75 879.65 495.75 874.05 597.83 925.44 597.83 931.05 495.75"/>
              <polygon class="cls-11" points="1014.22 427.27 962.82 427.27 953.45 597.83 1004.85 597.83 1014.22 427.27"/>
              <g>
                <path class="cls-1" d="M813.14,541.8c-5.09,0-10.22-.13-15.41-.4-8.98-.46-20.62-1.6-31.09-6.3-1.67-.75-2.41-2.71-1.66-4.38,.75-1.67,2.71-2.41,4.38-1.66,9.47,4.26,20.32,5.3,28.71,5.73,61.66,3.17,115.66-12.89,170-50.54,12.96-8.98,32.3-25.58,44.19-42.84,1.04-1.51,3.1-1.88,4.61-.85,1.51,1.04,1.89,3.1,.85,4.61-12.38,17.98-31.81,34.79-45.87,44.53-51.04,35.36-101.85,52.11-158.71,52.11Z"/>
                <path class="cls-1" d="M1025.37,466.79c-.42,0-.85-.08-1.26-.25-1.69-.7-2.49-2.64-1.8-4.33,4.69-11.36,5.68-24.14,2.85-35.69-12.92,8.69-26.71,16.01-41.05,21.8-1.7,.68-3.63-.14-4.31-1.83-.68-1.7,.14-3.63,1.83-4.31,15.29-6.17,29.94-14.14,43.53-23.69,.85-.6,1.94-.76,2.94-.44,.99,.32,1.78,1.1,2.11,2.09,4.76,14.11,4.12,30.37-1.77,44.61-.53,1.28-1.76,2.05-3.06,2.05Z"/>
              </g>
            </g>
            <g>
              <path class="cls-11" d="M1296,340.02h-191.18c-3.24,0-6.23-1.27-8.41-3.57-2.18-2.31-3.29-5.37-3.11-8.62l8.88-161.62c.36-6.62,6.05-12,12.67-12h191.18c3.24,0,6.23,1.27,8.41,3.57,2.18,2.31,3.29,5.37,3.11,8.62l-8.88,161.62c-.36,6.62-6.05,12-12.67,12Zm-181.15-182.49c-4.89,0-9.09,3.98-9.36,8.87l-8.88,161.62c-.13,2.33,.66,4.52,2.21,6.16,1.55,1.63,3.68,2.53,6,2.53h191.18c4.89,0,9.09-3.98,9.36-8.87l8.88-161.62c.13-2.33-.66-4.52-2.21-6.16-1.55-1.63-3.68-2.53-6-2.53h-191.18Z"/>
              <path class="cls-11" d="M1314.1,200.59h-212.05c-.91,0-1.66-.74-1.66-1.66s.74-1.66,1.66-1.66h212.05c.91,0,1.66,.74,1.66,1.66s-.74,1.66-1.66,1.66Z"/>
              <path class="cls-11" d="M1144.45,340.02s-.06,0-.09,0c-.91-.05-1.61-.83-1.56-1.74l7.66-139.43c.05-.92,.82-1.63,1.75-1.56,.91,.05,1.61,.83,1.56,1.74l-7.66,139.43c-.05,.88-.78,1.57-1.65,1.57Z"/>
              <g>
                <path class="cls-11" d="M1289.81,217.15h-115.13c-.91,0-1.66-.74-1.66-1.66s.74-1.66,1.66-1.66h115.13c.91,0,1.66,.74,1.66,1.66s-.74,1.66-1.66,1.66Z"/>
                <path class="cls-11" d="M1272.46,237.48h-98.9c-.91,0-1.66-.74-1.66-1.66s.74-1.66,1.66-1.66h98.9c.91,0,1.66,.74,1.66,1.66s-.74,1.66-1.66,1.66Z"/>
                <path class="cls-11" d="M1229.98,258.46h-57.56c-.91,0-1.66-.74-1.66-1.66s.74-1.66,1.66-1.66h57.56c.91,0,1.66,.74,1.66,1.66s-.74,1.66-1.66,1.66Z"/>
                <path class="cls-11" d="M1240.43,299.41h-70.27c-.91,0-1.66-.74-1.66-1.66s.74-1.66,1.66-1.66h70.27c.91,0,1.66,.74,1.66,1.66s-.74,1.66-1.66,1.66Z"/>
                <path class="cls-11" d="M1226.58,320.39h-57.56c-.91,0-1.66-.74-1.66-1.66s.74-1.66,1.66-1.66h57.56c.91,0,1.66,.74,1.66,1.66s-.74,1.66-1.66,1.66Z"/>
                <path class="cls-11" d="M1260.27,320.39h-18.44c-.91,0-1.66-.74-1.66-1.66s.74-1.66,1.66-1.66h18.44c.91,0,1.66,.74,1.66,1.66s-.74,1.66-1.66,1.66Z"/>
                <path class="cls-11" d="M1279.1,278.79h-107.8c-.91,0-1.66-.74-1.66-1.66s.74-1.66,1.66-1.66h107.8c.91,0,1.66,.74,1.66,1.66s-.74,1.66-1.66,1.66Z"/>
              </g>
            </g>
            <path class="cls-1" d="M1178.61,575.14c-24.97,0-45.44-7.38-58.15-21.11-13.57-14.65-19.2-37.7-15.45-63.24,2.3-15.64,7.41-28.76,15.19-39,7.81-10.28,19.11-18.75,33.58-25.19,31.93-14.2,68.89-13.71,98.87,1.33,13.43,6.74,21.85,15.26,25.02,25.34,.55,1.74-.42,3.61-2.17,4.15-1.75,.55-3.6-.42-4.16-2.17-2.61-8.3-9.9-15.5-21.67-21.4-28.22-14.16-63.07-14.6-93.2-1.2-13.44,5.98-23.87,13.76-31,23.14-7.1,9.34-11.78,21.44-13.91,35.96-3.46,23.54,1.55,44.6,13.75,57.77,16.96,18.32,45.03,19.63,60.26,18.79,28.31-1.57,52.66-11.46,68.57-27.84,18.61-19.16,23.83-47.83,12.14-66.68-2.27-3.65-7.14-9.88-14.3-10.6-1.82-.18-3.15-1.81-2.97-3.63,.18-1.82,1.82-3.14,3.62-2.97,7.41,.74,14.25,5.6,19.27,13.7,13.25,21.36,7.65,53.51-13.01,74.79-17.08,17.58-42.99,28.18-72.96,29.84-2.48,.14-4.93,.21-7.34,.21Z"/>
          </g>
          <g>
            <path class="cls-14" d="M331.42,229.69l-11.77,20.51-11.53,20.95c-7.6,13.99-14.85,28.1-21.48,42.28-3.3,7.11-6.44,14.18-9.3,21.3l-.53,1.29c-.05,.1-.1,.21-.17,.3-.18,.21-.25,.39-.35,.56-.22,.36-.36,.71-.55,1.17-.3,.92-.19,2.49,.49,4.57,1.3,4.23,5.13,9.76,9.83,14.9,4.61,5.17,10.57,10.46,15.94,15.1l-9.56,20.38c-4.86-1.39-8.9-2.79-13.19-4.66-4.24-1.79-8.35-3.95-12.46-6.39-8.11-5.01-16.26-11.2-23-21.33-3.28-5.07-6.09-11.35-7.2-18.62-.5-3.62-.68-7.4-.22-11.09,.21-1.85,.48-3.69,.94-5.44l.67-2.65,.5-1.61c2.62-8.35,5.34-16.6,8.52-24.56,6.2-16.02,13.19-31.5,20.82-46.57,3.81-7.54,7.76-14.99,11.92-22.32,4.18-7.4,8.26-14.53,13.04-21.99l38.65,23.91Z"/>
            <path class="cls-14" d="M291.75,370.33l21.45-5.57,1.23,34.62s-16.77,2.49-27.05-7.77l4.37-21.28Z"/>
            <polygon class="cls-14" points="343.58 358.92 338.75 389.32 314.42 399.38 313.2 364.76 343.58 358.92"/>
            <path class="cls-7" d="M432.28,66.54c.48,2.37,2.13,4.04,3.68,3.72,1.55-.31,2.41-2.49,1.93-4.86-.48-2.37-2.13-4.04-3.68-3.72-1.55,.31-2.41,2.49-1.93,4.86Z"/>
            <path class="cls-10" d="M434.19,70.62s8.17,12.58,15.44,17.97c-3.4,4.77-10.89,4.43-10.89,4.43l-4.55-22.39Z"/>
            <path class="cls-7" d="M420.93,55.14c-.34,0-.69-.12-.96-.38-.58-.53-.61-1.43-.08-2.01,5.33-5.77,11.8-4.75,12.08-4.7,.77,.13,1.29,.86,1.16,1.64-.13,.77-.87,1.29-1.63,1.16h0c-.21-.03-5.27-.78-9.53,3.83-.28,.3-.66,.46-1.04,.46Z"/>
            <path class="cls-14" d="M364.78,99.87c4.3,21.93,8.59,62.12-6.75,76.76,0,0,6,22.25,46.75,22.25,44.81,0,21.42-22.25,21.42-22.25-24.46-5.84-23.83-23.99-19.57-41.03l-41.85-35.73Z"/>
            <path class="cls-7" d="M349.18,180.7c-3.28-6.09-6.88-13.07,.58-15.25,8.21-2.4,60.95-6.86,76.45-2.35-4.76,8.47,3.3,18.88,3.3,18.88l-80.33-1.28Z"/>
            <path class="cls-11" d="M216.41,1203.24c3.01,.65,6.02,.82,7.46-.41,.61-.52,1.22-1.51,.69-3.3-.28-.94-.89-1.64-1.83-2.09-4.05-1.93-13.35,1.86-13.75,2.02-.26,.11-.43,.36-.44,.64,0,.28,.15,.54,.4,.66,1.42,.69,4.44,1.83,7.46,2.48Zm4.88-4.79c.31,.07,.59,.16,.83,.28,.56,.27,.92,.67,1.08,1.21,.38,1.28-.09,1.68-.25,1.81-1.61,1.37-7.6,.11-11.82-1.58,2.86-1.01,7.49-2.3,10.15-1.72Z"/>
            <path class="cls-11" d="M209.11,1200.81c.11,.02,.23,.02,.35-.01,3.39-.99,10.64-6.14,10.73-9.54,.02-.62-.2-1.73-1.82-2.3-1.05-.37-2.1-.28-3.15,.25-4.01,2.05-6.54,10.35-6.64,10.7-.07,.25,0,.52,.18,.7,.1,.1,.22,.17,.35,.19Zm8.49-10.6c.1,.02,.21,.05,.31,.09,.88,.31,.87,.74,.86,.92-.05,2.01-4.84,6.05-8.35,7.69,.88-2.4,2.88-7.12,5.45-8.43,.59-.3,1.15-.39,1.73-.26Z"/>
            <path class="cls-11" d="M437.77,1208.27c3.85,0,7.56-.53,8.81-2.26,.44-.6,.78-1.63-.06-3.1-.47-.82-1.23-1.38-2.25-1.66-4.99-1.36-15.47,4.61-15.91,4.87-.26,.15-.39,.44-.35,.73,.05,.29,.27,.52,.56,.58,1.91,.38,5.61,.84,9.2,.84Zm4.75-5.81c.5,0,.96,.05,1.37,.16,.66,.18,1.11,.5,1.39,.99,.5,.88,.32,1.32,.14,1.57-1.39,1.94-8.97,1.98-14.55,1.19,2.78-1.43,8.14-3.92,11.65-3.92Z"/>
            <path class="cls-11" d="M428.71,1207.44c.1,0,.2-.02,.29-.06,3.62-1.62,10.79-8.11,10.24-11.5-.13-.8-.69-1.79-2.64-1.98-1.46-.15-2.77,.26-3.94,1.22-3.81,3.13-4.62,11.21-4.65,11.55-.02,.25,.09,.5,.29,.64,.12,.09,.27,.13,.41,.13Zm7.32-12.15c.14,0,.28,0,.43,.02,1.28,.13,1.36,.63,1.38,.8,.33,2.03-4.54,7.13-8.23,9.35,.38-2.36,1.45-7.19,3.96-9.25,.75-.62,1.56-.92,2.47-.92Z"/>
            <polygon class="cls-14" points="395.74 1206.73 425.72 1206.73 428.71 1137.3 398.73 1137.3 395.74 1206.73"/>
            <polygon class="cls-14" points="175.69 1192.85 204.99 1199.19 234.41 1134.52 205.11 1128.18 175.69 1192.85"/>
            <path class="cls-7" d="M207.81,1196.25l-32.92-7.13c-1.2-.26-2.42,.35-2.93,1.46l-11.43,24.79c-1.19,2.57,.38,5.59,3.16,6.14,11.54,2.29,17.26,2.83,31.74,5.96,8.91,1.93,29.01,6.83,41.31,9.49,12.03,2.6,16.54-9.15,11.74-11.34-21.51-9.83-30.5-18.48-36.32-26.54-1.05-1.45-2.61-2.45-4.37-2.83Z"/>
            <path class="cls-7" d="M425.53,1203.26h-32.74c-1.23,0-2.29,.85-2.55,2.05l-5.92,26.65c-.61,2.76,1.48,5.38,4.31,5.33,11.81-.2,28.88-.89,43.72-.89,17.36,0,32.35,.95,52.7,.95,12.31,0,15.72-12.44,10.57-13.57-23.45-5.13-42.61-5.68-62.87-18.18-2.2-1.36-4.63-2.34-7.22-2.34Z"/>
            <g>
              <path class="cls-11" d="M304.34,183.41c-28.1,6.44-51.27,78.18-51.27,78.18l56.43,43.01s20.71-19.53,29.93-55.41c9.66-37.6-6.36-72.36-35.09-65.78Z"/>
              <path class="cls-3" d="M304.34,183.41c-28.1,6.44-51.27,78.18-51.27,78.18l56.43,43.01s20.71-19.53,29.93-55.41c9.66-37.6-6.36-72.36-35.09-65.78Z"/>
            </g>
            <path class="cls-4" d="M328.42,236.16c-15.26,15.1-20.24,42.61-21.43,66.52l2.49,1.92s20.73-19.55,29.96-55.42c.57-2.24,1.06-4.49,1.47-6.69l-12.49-6.32Z"/>
            <g>
              <path class="cls-11" d="M472.31,184.95s31.91,36.04,1.77,259.14h-160.36c-1.1-24.62,14.36-144.7-9.38-260.69,0,0,27.49-5.52,53.68-6.78,20.49-.99,50.16-1.64,68.17,0,23.75,2.17,46.12,8.32,46.12,8.32Z"/>
              <path class="cls-3" d="M472.31,184.95s31.91,36.04,1.77,259.14h-160.36c-1.1-24.62,14.36-144.7-9.38-260.69,0,0,27.49-5.52,53.68-6.78,20.49-.99,50.16-1.64,68.17,0,23.75,2.17,46.12,8.32,46.12,8.32Z"/>
            </g>
            <path class="cls-4" d="M486.32,253.14l-.61-.53-36.44,8.73c-2.08,24.65,23.26,54.12,36.32,67.58,1.8-31.47,1.75-56.28,.73-75.79Z"/>
            <g>
              <polygon class="cls-4" points="428.7 1137.32 427.17 1173.1 397.17 1173.1 398.71 1137.32 428.7 1137.32"/>
              <polygon class="cls-4" points="205.09 1128.19 234.41 1134.54 219.23 1167.87 189.91 1161.52 205.09 1128.19"/>
            </g>
            <path class="cls-14" d="M352.22,77.58c7.7,28.74,10.75,45.95,28.49,57.91,26.68,17.98,59.89-2.65,60.93-33.12,.94-27.42-11.82-69.81-42.66-75.61-30.39-5.71-54.46,22.08-46.76,50.82Z"/>
            <path class="cls-7" d="M365.42,124.45c12.22,6.99,56.77-16.38,47.62-51.8,0,0,16.97-20.41,15.05-42.93-1.92-22.52-17.38-31.11-33.82-26.28-14.5,4.26-14.08,12.2-14.08,12.2,0,0-68.51,8.07-53.89,35.92-27.89,30.4,23.86,64.17,39.11,72.89Z"/>
            <path class="cls-7" d="M328.23,53.87s-8.16-14.12-20.07-6.22c5.61,.08,14.79,1.04,20.07,6.22Z"/>
            <path class="cls-7" d="M425.91,44.56s14.93-33.71-8.35-44.56c7.85,10.92,12.12,28.55,8.35,44.56Z"/>
            <path class="cls-14" d="M401.12,78.79c1.96,7.54,6.91,14.03,12.1,17.89,7.8,5.81,13.63,.09,13.08-8.74-.5-7.95-5.16-20.54-13.77-22.9-8.48-2.32-13.64,5.12-11.41,13.75Z"/>
            <path class="cls-7" d="M417.2,444.1s-34.03,229.12-52.7,314.96c-20.46,94-130.14,405-130.14,405l-53.67-11.62s76.7-253.44,93.86-384.86c13.19-100.94,39.17-323.48,39.17-323.48h103.48Z"/>
            <path class="cls-11" d="M247.2,1146.14c.23,.05-10,19.41-10,19.41l-60.38-13.07,5.09-18.15,65.3,11.82Z"/>
            <path class="cls-12" d="M395.69,525.73c-39.34,7.71-35.18,154.43-30.45,229.89,11.35-53.34,27.96-155.98,39.3-228.83-2.61-1.31-5.55-1.71-8.86-1.06Z"/>
            <path class="cls-7" d="M474.08,444.1s4.13,224.16,.87,315.59c-3.39,95.1-36.61,406.48-36.61,406.48h-50.79s-1.86-305.83-4.12-399.23c-2.46-101.82-14.76-322.85-14.76-322.85h105.41Z"/>
            <polygon class="cls-6" points="756.04 286.06 652.57 286.06 646.79 391.29 750.11 394.05 756.04 286.06"/>
            <path class="cls-11" d="M701.66,353.76c-34.54-4.26-69.08-8.52-103.62-12.79,8.37-35.09,14.61-70.43,18.68-105.83,34.75,4.28,69.49,8.55,104.23,12.83-4.27,35.39-10.71,70.72-19.29,105.79Z"/>
            <path class="cls-11" d="M448.11,1145.94c.23,0-2.87,21.09-2.87,21.09h-61.78l-1.67-18.82,66.32-2.27Z"/>
            <path class="cls-14" d="M487.09,212.3c4.61,7.18,9.86,15.24,15.11,22.69,5.35,7.51,10.69,15.03,16.32,22.25,11.15,14.46,22.98,28.34,35.72,39.87,3.16,2.92,6.38,5.62,9.64,8.11l2.45,1.84c-.22-.13-1-.39-1.44-.49-1.06-.2-1.58-.02-1.3,.13,.62,.32,3.6-.19,6.72-1.54,3.16-1.34,6.76-3.16,10.32-5.36,14.35-8.9,29.18-21.33,43.11-33.41l17.51,14.14c-10.87,17.5-22.82,33.33-39.25,47.88-4.18,3.59-8.64,7.15-14.03,10.32-5.41,3.12-11.56,6.32-20.59,7.65-4.51,.59-9.97,.47-15.61-1.32-2.75-.82-5.66-2.27-7.93-3.66l-3.54-2.24c-4.67-3.02-9.12-6.21-13.34-9.54-16.88-13.37-30.96-28.45-43.96-44.13-6.4-7.91-12.6-15.91-18.34-24.22-5.82-8.4-11.28-16.43-16.69-25.79l39.09-23.18Z"/>
            <g>
              <path class="cls-11" d="M428.2,230.3c-9.59,40.2,63.14,79.56,63.14,79.56l47.24-55.35s-21.51-32.59-48.26-58.27c-33.05-31.72-54.82,3.46-62.12,34.06Z"/>
              <path class="cls-3" d="M428.2,230.3c-9.59,40.2,63.14,79.56,63.14,79.56l47.24-55.35s-21.51-32.59-48.26-58.27c-33.05-31.72-54.82,3.46-62.12,34.06Z"/>
            </g>
            <path class="cls-14" d="M619,274.75l11.15-35.8,29.34,14.62s-4.28,26.12-25.63,30.65l-14.86-9.47Z"/>
            <polygon class="cls-14" points="641.91 229.02 668.38 236.31 659.49 253.57 630.15 238.95 641.91 229.02"/>
          </g>
        </g>
      </g>
    </g>
  </g>
</svg>