<?xml version="1.0" encoding="UTF-8"?>
<svg id="Layer_2" data-name="Layer 2" xmlns="http://www.w3.org/2000/svg" viewBox="0 0 1545.21 1229.31">
  <defs>
    <style>
      .cls-1 {
        fill: #a36d4f;
      }

      .cls-2 {
        fill: #fff;
      }

      .cls-3, .cls-4 {
        fill: #184785;
      }

      .cls-5 {
        fill: none;
        stroke: #2b11d1;
        stroke-miterlimit: 10;
        stroke-width: 4.16px;
      }

      .cls-6 {
        fill: #5c93bc;
      }

      .cls-6, .cls-7, .cls-8, .cls-9, .cls-10, .cls-11 {
        fill-rule: evenodd;
      }

      .cls-7 {
        fill: #03f;
      }

      .cls-12 {
        fill: #f5f5f5;
      }

      .cls-13 {
        fill: #1363f8;
      }

      .cls-8, .cls-14 {
        fill: #236cd8;
      }

      .cls-9 {
        fill: #000c94;
      }

      .cls-15 {
        fill: #363435;
      }

      .cls-16 {
        fill: #93bbe5;
      }

      .cls-17 {
        fill: #a66534;
      }

      .cls-18 {
        fill: #965b2f;
      }

      .cls-19 {
        fill: #703123;
      }

      .cls-20 {
        fill: #77aad8;
      }

      .cls-21 {
        fill: #754725;
      }

      .cls-10, .cls-22 {
        fill: #357ded;
      }

      .cls-23 {
        fill: #296ed3;
      }

      .cls-24 {
        fill: #2b11d1;
      }

      .cls-11 {
        fill: #71a3d1;
      }

      .cls-25 {
        fill: #153d68;
      }

      .cls-26 {
        fill: #aacaf9;
      }

      .cls-4 {
        font-family: Montserrat-Bold, Montserrat;
        font-size: 91.43px;
      }
    </style>
  </defs>
  <g id="Layer_1-2" data-name="Layer 1">
    <g>
      <g id="Shadow--inject-214">
        <ellipse id="path--inject-214" class="cls-12" cx="810.22" cy="1186.4" rx="734.99" ry="42.91"/>
      </g>
      <g>
        <g>
          <g>
            <g>
              <g>
                <path class="cls-2" d="M48.32,833.14h501.47c6.45,0,11.68,5.23,11.68,11.68v297.31c0,6.45-5.23,11.68-11.68,11.68H48.32c-6.44,0-11.68-5.23-11.68-11.68v-297.31c0-6.45,5.23-11.68,11.68-11.68Z"/>
                <path d="M549.79,1154.26H48.32c-6.69,0-12.13-5.45-12.13-12.13v-297.31c0-6.69,5.44-12.13,12.13-12.13h501.47c6.69,0,12.13,5.45,12.13,12.13v297.31c0,6.69-5.44,12.13-12.13,12.13ZM48.32,833.6c-6.19,0-11.22,5.03-11.22,11.22v297.31c0,6.19,5.03,11.22,11.22,11.22h501.47c6.19,0,11.22-5.03,11.22-11.22v-297.31c0-6.19-5.03-11.22-11.22-11.22H48.32Z"/>
              </g>
              <path class="cls-22" d="M48.32,833.14h501.47c6.44,0,11.68,5.23,11.68,11.68v21.28H36.64v-21.28c0-6.45,5.23-11.68,11.68-11.68Z"/>
            </g>
            <g>
              <path class="cls-22" d="M255.23,945.01l.02,3.45,.05,58.36c0,.8,.65,1.45,1.45,1.45l68.67-.28v-57.36c0-1.34-1.09-2.43-2.44-2.43l-23.65,.1-26.95,.11-1.02-1.89-1.31-2.42c-.29-.55-.88-.9-1.52-.9l-11.55,.04c-.98,0-1.76,.8-1.76,1.78Z"/>
              <polygon class="cls-2" points="334.73 956.76 261.8 956.76 256.75 1006.08 329.67 1006.08 334.73 956.76"/>
              <path class="cls-22" d="M257.71,1009.11l73.97,.3c.99,0,1.79-.63,1.98-1.56l7.24-35.53,1.68-8.26c.31-1.48-1-3.02-2.56-3.03h-1.78s-72.19-.3-72.19-.3c-.99,0-1.79,.63-1.98,1.57l-8.43,41.38-.22,1.06-.28,1.36c-.3,1.48,1,3.02,2.57,3.03Z"/>
            </g>
            <g>
              <path class="cls-16" d="M400.36,945.01l.02,3.45,.05,58.36c0,.8,.65,1.45,1.45,1.45l68.67-.28v-57.36c0-1.34-1.09-2.43-2.44-2.43l-23.65,.1-26.95,.11-1.02-1.89-1.31-2.42c-.29-.55-.88-.9-1.52-.9l-11.55,.04c-.98,0-1.76,.8-1.76,1.78Z"/>
              <polygon class="cls-2" points="479.86 956.76 406.93 956.76 401.88 1006.08 474.81 1006.08 479.86 956.76"/>
              <path class="cls-16" d="M402.84,1009.11l73.97,.3c.99,0,1.79-.63,1.98-1.56l7.24-35.53,1.68-8.26c.31-1.48-1-3.02-2.56-3.03h-1.78s-72.19-.3-72.19-.3c-.99,0-1.79,.63-1.98,1.57l-8.43,41.38-.22,1.06-.28,1.36c-.3,1.48,1,3.02,2.57,3.03Z"/>
            </g>
            <g>
              <path class="cls-13" d="M255.23,1045.33l.02,3.45,.05,58.36c0,.8,.65,1.45,1.45,1.45l68.67-.28v-57.36c0-1.34-1.09-2.43-2.44-2.43l-23.65,.1-26.95,.11-1.02-1.89-1.31-2.42c-.29-.55-.88-.9-1.52-.9l-11.55,.04c-.98,0-1.76,.8-1.76,1.78Z"/>
              <polygon class="cls-2" points="334.73 1057.08 261.8 1057.08 256.75 1106.41 329.67 1106.41 334.73 1057.08"/>
              <path class="cls-13" d="M257.71,1109.43l73.97,.3c.99,0,1.79-.63,1.98-1.56l7.24-35.53,1.68-8.26c.31-1.48-1-3.02-2.56-3.03h-1.78s-72.19-.3-72.19-.3c-.99,0-1.79,.63-1.98,1.57l-8.43,41.38-.22,1.06-.28,1.36c-.3,1.48,1,3.02,2.57,3.03Z"/>
            </g>
            <g>
              <path class="cls-16" d="M400.36,1045.33l.02,3.45,.05,58.36c0,.8,.65,1.45,1.45,1.45l68.67-.28v-57.36c0-1.34-1.09-2.43-2.44-2.43l-23.65,.1-26.95,.11-1.02-1.89-1.31-2.42c-.29-.55-.88-.9-1.52-.9l-11.55,.04c-.98,0-1.76,.8-1.76,1.78Z"/>
              <polygon class="cls-2" points="479.86 1057.08 406.93 1057.08 401.88 1106.41 474.81 1106.41 479.86 1057.08"/>
              <path class="cls-16" d="M402.84,1109.43l73.97,.3c.99,0,1.79-.63,1.98-1.56l7.24-35.53,1.68-8.26c.31-1.48-1-3.02-2.56-3.03h-1.78s-72.19-.3-72.19-.3c-.99,0-1.79,.63-1.98,1.57l-8.43,41.38-.22,1.06-.28,1.36c-.3,1.48,1,3.02,2.57,3.03Z"/>
            </g>
            <g>
              <path class="cls-16" d="M175.87,910.54H75.23c-3.64,0-6.59-2.95-6.59-6.59h0c0-3.64,2.95-6.59,6.59-6.59h100.64c3.64,0,6.59,2.95,6.59,6.59h0c0,3.64-2.95,6.59-6.59,6.59Z"/>
              <path class="cls-16" d="M175.87,957.73H75.23c-3.64,0-6.59-2.95-6.59-6.59h0c0-3.64,2.95-6.59,6.59-6.59h100.64c3.64,0,6.59,2.95,6.59,6.59h0c0,3.64-2.95,6.59-6.59,6.59Z"/>
              <path class="cls-16" d="M175.87,1004.93H75.23c-3.64,0-6.59-2.95-6.59-6.59h0c0-3.64,2.95-6.59,6.59-6.59h100.64c3.64,0,6.59,2.95,6.59,6.59h0c0,3.64-2.95,6.59-6.59,6.59Z"/>
              <path class="cls-16" d="M175.87,1052.12H75.23c-3.64,0-6.59-2.95-6.59-6.59h0c0-3.64,2.95-6.59,6.59-6.59h100.64c3.64,0,6.59,2.95,6.59,6.59h0c0,3.64-2.95,6.59-6.59,6.59Z"/>
              <path class="cls-16" d="M175.87,1099.32H75.23c-3.64,0-6.59-2.95-6.59-6.59h0c0-3.64,2.95-6.59,6.59-6.59h100.64c3.64,0,6.59,2.95,6.59,6.59h0c0,3.64-2.95,6.59-6.59,6.59Z"/>
            </g>
            <path class="cls-16" d="M495.11,910.54H231.32c-3.64,0-6.59-2.95-6.59-6.59h0c0-3.64,2.95-6.59,6.59-6.59H495.11c3.64,0,6.59,2.95,6.59,6.59h0c0,3.64-2.95,6.59-6.59,6.59Z"/>
          </g>
          <g>
            <g>
              <path class="cls-16" d="M81.96,820.22l-27.48-27.64-54.13-.15-.35,117.82,81.71,.2,.25-90.22Z"/>
              <polygon class="cls-2" points="54.39 820.13 81.97 820.21 54.47 792.56 54.39 820.13"/>
            </g>
            <g>
              <circle class="cls-13" cx="40.84" cy="855.4" r="21.21" transform="translate(-803.74 713.74) rotate(-77.75)"/>
              <path class="cls-2" d="M35.06,863.91l-3.6-8.32c-.31-.71,.02-1.54,.73-1.85,.71-.31,1.54,.02,1.85,.73l2.28,5.27,16.23-10.42c.65-.42,1.53-.23,1.95,.42,.42,.65,.23,1.53-.42,1.95l-19.02,12.21Z"/>
            </g>
          </g>
        </g>
        <g>
          <path class="cls-6" d="M256.4,460.78l13.54-12.32,3.19-11.06c11.29-34.83,33.55-65.63,63.1-87.27l7.23-5.02-13.54,12.32-7.23,5.02c-33.39,24.45-55.84,58.5-66.3,98.33m307.03-69.62l13.54-12.32,1.32-75.96-13.54,12.32-1.32,75.96Zm81.1-102.33c-7.33-6.96-13.91-13.26-21.81-19.7-97.68-79.56-240.07-87.75-341.98-12.3,8.5-4.73,16.17-9.02,25.07-13.13,104.3-48.2,229.07-29.82,314.46,47.27l10.71,10.18,7.34,7.34,13.54-12.32-7.34-7.34Z"/>
          <path class="cls-9" d="M544.35,637.17l13.54-12.32c-18.09,15.76-37.66,27.24-60.44,34.86l-2.43,.79-13.54,12.32c24.12-7.87,43.73-18.98,62.87-35.65m431.7-271.74l13.54-12.32,8.89-67.74-78.66-19.15-13.54,12.32,78.66,19.15-8.89,67.74Z"/>
          <polygon class="cls-6" points="906.28 278.54 919.82 266.22 918.99 266.87 918.17 267.53 917.35 268.19 916.53 268.85 915.71 269.52 914.9 270.19 914.08 270.86 913.27 271.54 912.46 272.22 911.65 272.9 910.84 273.59 897.3 285.91 898.11 285.22 898.92 284.54 899.73 283.86 900.54 283.18 901.35 282.5 902.17 281.83 902.99 281.17 903.81 280.5 904.63 279.84 905.45 279.19 906.28 278.54"/>
          <path class="cls-6" d="M975.78,620.04l-68.58,6.26-13.54,12.32,68.58-6.26c9.43,8.6,16.69,14.72,27.6,21.61,76.36,48.28,178.94,31.07,234.59-41.15l1.92-2.54,13.54-12.32c-28.32,37.46-68.37,61.89-114.98,68.93-50.99,7.7-103.53-7.03-142.56-40.86l-6.57-5.99Zm347.3,46.42c26.68-24.26,40.68-57.78,50.99-91.85l-66.48,26.28-37.15-70.53-13.54,12.32,37.15,70.53,66.49-26.28-3.98,12.48c-8.44,24.5-19.14,45.51-33.47,67.06Z"/>
          <path class="cls-8" d="M1365.54,567.42l13.54-12.32,3.29-17.52c18.45-118.04-37.09-235.78-141.29-295.12-90.69-51.66-204.35-49.99-293.43,4.41l-10.61,6.81-13.54,12.32c11.38-7.3,20.28-12.82,32.51-18.89,105.97-52.57,235.26-35.03,322.87,45.04,73.84,67.48,106.89,168.37,88.45,266.54l-1.78,8.74Z"/>
          <path class="cls-6" d="M947.23,617.4l13.54-12.31-113.2-113.11-12.87,12.87,112.53,112.55Zm-70.96,86.61l13.54-12.32,1.4-80.26-13.54,12.32-1.4,80.26Zm-209.45-392.89l-72.53,6.62-13.54,12.32,72.54-6.62,102.64,102.64,12.93-12.93-102.02-102.02Z"/>
          <path class="cls-8" d="M532.38,772.97l13.54-12.32,11.11-65.66-96.09-27.22c-31.76,3.15-61.59-.75-91.01-13.5-71.34-30.93-113.02-104.79-104.37-181.79l.63-5-62.26,24.61-40.47-76.82-13.54,12.32,40.47,76.82,62.26-24.61c-.56,1.08-1.62,17.52-1.69,20.07-2.94,106.04,86.02,189.71,191.57,180.71l4.86-.48,96.1,27.22-11.11,65.66Z"/>
          <path class="cls-11" d="M302.32,379.93c68.56-68.56,181.31-68.56,249.87,0l11.23,11.23,1.32-75.96,73.57-6.71-7.34-7.34c-112.05-112.05-295.4-112.05-407.45,0-30.55,30.55-52.78,66.41-66.67,104.68l41.11,78.05,58.42-23.09c7.54-29.71,22.85-57.78,45.92-80.85"/>
          <path class="cls-10" d="M302.32,629.8c-40.62-40.62-57.17-96.75-49.66-150.01l-62.26,24.61-40.47-76.82c-26.7,96.88-2.16,205.24,73.6,281,83.12,83.12,205.47,104.58,308.85,64.39l11.11-65.66-96.1-27.23c-51.77,5.84-105.71-10.92-145.08-50.29"/>
          <polygon class="cls-11" points="755.91 583.66 876.27 704.01 877.67 623.75 947.23 617.4 834.7 504.86 755.91 583.66"/>
          <polygon class="cls-11" points="755.91 426.07 653.27 323.43 580.74 330.05 579.4 407.13 677.12 504.87 755.91 426.07"/>
          <path class="cls-10" d="M994.06,353.17c67.75-40.18,157.42-31.26,215.44,26.76,36.81,36.81,53.85,86.35,51.14,134.95l40.98,77.8,63.91-25.26c20.45-92.99-5.3-194.33-77.25-266.28-98.75-98.75-252.9-110.47-364.79-35.15l79.46,19.35-8.9,67.83Z"/>
          <path class="cls-11" d="M1209.5,629.8c-67.7,67.7-178.48,68.55-247.26,2.56l-68.58,6.26-1.41,80.78c112.75,101.11,287.71,97.51,396.03-10.81,35.04-35.03,59.12-77.04,72.24-121.66l-66.49,26.28-37.15-70.53c-6.91,32.02-22.71,62.43-47.39,87.12"/>
          <path class="cls-7" d="M630.98,708.59l124.93-124.93,78.79-78.8,124.93-124.93c5.23-5.23,10.72-10.06,16.42-14.49l8.89-67.74-78.66-19.15c-8.82,6.95-17.32,14.48-25.44,22.6l-124.93,124.93-78.79,78.8-124.93,124.93c-20.43,20.43-44.77,34.77-70.71,43.02l80.5,22.8-11.8,69.72c29.28-13.73,56.69-32.65,80.8-56.76"/>
        </g>
        <g>
          <path class="cls-2" d="M775.8,1036.9l42.22,38.19,34.33-24.59,20.79,24.59c42.5-10.8,72.75-24.32,97.34-39.11l-26.85-16.52-88.79-9.85-79.04,27.29Z"/>
          <polygon class="cls-13" points="970.47 959.84 863.83 971.02 833.03 987.16 971.8 984.08 970.47 959.84"/>
          <g>
            <path class="cls-13" d="M718.13,896.1c17.22,1.61,34.45,3.22,51.67,4.83l14.31-53.03,2.57,90.17-8.69,95.36c4.44,33.1,190.26,21.15,192.48,2.54,4.26-35.7-.13-64.7,0-76.13,12.24-1.19,43.46-10.71,42.53-35.76-2.01-53.97-16.05-162.02-52.5-183.9-17.96-10.33-58.1-19.48-58.1-19.48l-65.38-.44c-17.79,2.51-45.68,9.53-64.22,32.2-9.68,11.85-13.17,23.52-15.49,31.09-8.1,26.45-20.12,62.38-39.19,112.55Z"/>
            <path class="cls-2" d="M861.81,756.89l-15,18.82c-14.51-17.72-15.06-37.26-15-53.17l6.44-10.69,1.3,8.76c3.87,15.47,22.27,36.28,22.27,36.28Z"/>
            <path class="cls-1" d="M815.5,931.12c6.93-2.27,11.75,4.7,17.53,3.21,5.78-1.5,15.13-4.75,18.44-3.21,5.86,2.74,10.01,32.15,0,36.03-10.01,3.87-38.2,4.52-38.2,4.52,0,0-15.76-10.4-14.8-11.82s17.02-28.72,17.02-28.72Z"/>
            <path class="cls-2" d="M867.83,755.95l15,18.82c14.51-17.72,15.06-37.26,15-53.17l-6.44-10.69-1.3,8.76c-3.87,15.47-22.27,36.28-22.27,36.28Z"/>
            <path class="cls-5" d="M933.29,799.46v94.11l-81.82,37.55s18.5,49.41,3.37,78.49"/>
          </g>
          <g>
            <path class="cls-15" d="M815.65,627.86s-14.42-12.93-8.73-20.88c41.82-58.4,151.59-14.16,89.31,78.66-22.67,25.2-64.93-50.36-80.58-57.78Z"/>
            <path class="cls-17" d="M815.24,614.63s-4.11,46.39,.24,65.35c4.03,17.63,16.61,27.57,21.06,28.17l-2.16,15.94s21.8,31.34,29.4,32.79,30.8-35.42,30.8-35.42l-1.07-47.61c2.88-1.98,23.36-6.09,20.25-21.66-2.08-10.41-15.32-7.88-21.81-3.44,.4-5.29-6.51-8.18-9.54-25.4-3.03-17.22-40.01-8.71-67.17-8.73Z"/>
            <path class="cls-18" d="M836.54,708.15s34.97,13.45,53.86-21.3c0,0-4.25,42.68-56.02,33.24l2.16-11.94Z"/>
            <path class="cls-21" d="M895.27,662.2c-.47,0-.91-.28-1.09-.73-.25-.6,.04-1.29,.65-1.54l13.29-5.44c.6-.25,1.29,.04,1.54,.65,.25,.6-.04,1.29-.65,1.54l-13.29,5.44c-.15,.06-.3,.09-.45,.09Z"/>
            <path class="cls-21" d="M844.28,668.92c-3.32,0-9.52-.48-10.04-4.06-.55-3.72,6.06-18.54,7.39-21.47,.27-.59,.97-.86,1.57-.59,.59,.27,.86,.97,.59,1.57-2.97,6.54-7.55,17.8-7.21,20.15,.22,1.47,5.09,2.23,9.31,2,.66-.04,1.21,.46,1.25,1.11,.04,.65-.46,1.21-1.11,1.25-.35,.02-.97,.05-1.74,.05Z"/>
            <path class="cls-15" d="M824.38,648.13c-.08,2.12,1.41,3.89,3.33,3.96,1.92,.07,3.54-1.59,3.62-3.7,.08-2.12-1.41-3.89-3.33-3.96-1.92-.07-3.54,1.59-3.62,3.7Z"/>
            <path class="cls-21" d="M867.29,636.64c-.4,0-.79-.2-1.01-.57-.94-1.54-2.15-2.47-3.73-2.84-3.86-.9-8.35,1.93-8.4,1.96-.55,.35-1.28,.19-1.63-.36-.35-.55-.19-1.28,.36-1.63,.22-.14,5.4-3.39,10.21-2.27,2.19,.51,3.95,1.83,5.21,3.92,.34,.56,.16,1.29-.4,1.62-.19,.12-.4,.17-.61,.17Z"/>
            <path class="cls-21" d="M832.31,634.17c-.28,0-.56-.1-.78-.3h0s-2.58-2.26-5.04-2c-1.03,.11-1.89,.66-2.64,1.67-.39,.52-1.13,.64-1.65,.25-.53-.39-.64-1.13-.25-1.65,1.15-1.56,2.6-2.44,4.31-2.62,3.49-.37,6.71,2.46,6.85,2.58,.49,.43,.53,1.18,.1,1.67-.23,.26-.56,.4-.88,.4Z"/>
            <path class="cls-19" d="M857.24,675.87c-17.45,4.16-25.91,.76-25.91,.76,0,0,1.23,11.7,12,12.76,15.41,1.51,13.91-13.51,13.91-13.51Z"/>
            <path class="cls-2" d="M832,676.85s.81,2.17,1.06,2.6c.26,.42,2.22,1.69,9.71,2.17,6.33,.4,12.55-1.44,14.3-2.02,.33-2.11,.17-3.73,.17-3.73-1.02,.25-2.01,.46-2.97,.65-12.76,2.58-20.09,.96-22.25,.33h-.01Z"/>
            <path class="cls-15" d="M853.47,650.34c-.08,2.18,1.46,4.01,3.43,4.08,1.98,.07,3.65-1.63,3.73-3.81,.08-2.18-1.46-4.01-3.43-4.08-1.98-.07-3.65,1.63-3.73,3.81Z"/>
          </g>
          <g>
            <path class="cls-16" d="M660.13,1033.14l-56.66-145.69c-5.02-12.53,3.98-26.27,17.2-26.27h176.53c7.97,0,15.05,5.2,17.61,12.92l48.68,146.95,56.84,.28c4.62,.02,8.35,6.94,8.35,11.67h0l-62.57-.74-205.98,.87Z"/>
            <path class="cls-2" d="M743.87,944.83c1.03,10.61-7.64,19.12-19.45,19.43-11.94,.31-23.3-7.86-25.34-18.66-2.14-11.31,6.69-20.94,19.68-21.04,12.83-.1,24.04,9.19,25.11,20.28Z"/>
          </g>
          <g>
            <polygon class="cls-25" points="789.95 1130.31 825.67 1160.66 787.6 1166.04 748.46 1146.83 789.95 1130.31"/>
            <g>
              <path class="cls-25" d="M560.55,969.01s-27.07,9.67-27.19,40.03c-.22,58.15,117.49,122.25,117.49,122.25l156.64-103.79,9.82-3.97s-211.45-79.43-256.77-54.51Z"/>
              <path class="cls-22" d="M679.39,1139.57s-73.77-15.74-97.31-4.34c-23.54,11.39-58.11,24.63-46.44,33.13,11.67,8.5,54.72,20.01,79.59,17.76,8.88-.8,21.36-2.15,33.78-4.08,.72,.09,1.38,.13,1.97,.14,.51,0,.96-.23,1.34-.67,21.2-3.5,41.23-8.74,41.56-16.01,.54-11.89-14.48-25.92-14.48-25.92Z"/>
              <path class="cls-3" d="M636.02,1138.34s221.32-145.17,230.38-148.19c9.06-3.02,30.96-17.37,52.86-11.33,21.9,6.04,41.54,25.68,51.35,54.37,5.61,16.39,8.26,44.37,9.5,65.35,1.49,25.08-6.28,50.09-22.69,69.12-7.47,8.66-16.67,16.19-27.6,19.59-2.3,.72-4.7,1.34-7.15,1.87-41.84,9.07-84.85-9.71-108.36-45.5l-5.16-7.86s-144.78,53.19-147.04,52.43l-26.1-49.86Z"/>
            </g>
            <g>
              <path class="cls-22" d="M801.95,1147.76s-65.71-22.68-82.06-17.42c-16.35,5.26,11.26,44.36,60.46,47.5,49.2,3.14,74.54-8.45,71.14-23.72-3.4-15.27-49.53-6.36-49.53-6.36Z"/>
              <path class="cls-14" d="M801.17,1156.09s-65.71-22.68-82.06-17.42c-16.35,5.26,11.26,44.36,60.46,47.5,49.2,3.14,74.54-8.45,71.14-23.72-3.4-15.27-49.53-6.36-49.53-6.36Z"/>
            </g>
          </g>
        </g>
        <g>
          <g>
            <path class="cls-20" d="M812.87,181.67l2.1-6.33-14.68-9.87-10.9,7.05c-4.73-3.92-10.02-6.89-15.64-8.9l.5-12.98-18.24-8.89-2.1,6.33-2.72,12.7c-5.95,.56-11.81,2.12-17.36,4.75l-8.82-9.53-14.1,6.26-2.1,6.33,7.05,10.9c-3.9,4.71-6.89,10.02-8.9,15.64l-10.88-6.83-2.1,6.33-2.55,20.34,12.7,2.72c.56,5.94,2.12,11.81,4.76,17.36l-7.43,2.49-2.1,6.33,12.58,16.2,10.91-7.05c4.71,3.91,10.02,6.89,15.64,8.9l-.5,12.97,20.34,2.55,2.1-6.33,.62-6.36c5.94-.56,11.82-2.14,17.36-4.76l8.82,9.53,16.2-12.58,2.1-6.33-9.15-4.57c3.92-4.73,6.89-10.02,8.9-15.64l12.97,.5,2.1-6.33,.46-14.01-12.7-2.72c-.56-5.94-2.14-11.82-4.75-17.35l9.53-8.83Zm-36.9,56.67c-14.12,10.97-34.46,8.41-45.42-5.7-10.97-14.12-8.41-34.46,5.7-45.43,14.12-10.97,34.46-8.41,45.43,5.71,10.97,14.12,8.41,34.46-5.71,45.42Z"/>
            <path class="cls-16" d="M814.97,175.33l-12.58-16.2-10.9,7.05c-4.73-3.92-10.02-6.89-15.64-8.9l.5-12.98-20.34-2.56-2.72,12.7c-5.95,.56-11.81,2.12-17.36,4.75l-8.82-9.53-16.2,12.59,7.05,10.9c-3.9,4.71-6.89,10.02-8.9,15.64l-12.98-.5-2.55,20.34,12.7,2.72c.56,5.94,2.12,11.81,4.76,17.36l-9.53,8.82,12.58,16.2,10.91-7.05c4.71,3.91,10.02,6.89,15.64,8.9l-.5,12.97,20.34,2.55,2.72-12.7c5.94-.56,11.82-2.14,17.36-4.76l8.82,9.53,16.2-12.59-7.05-10.9c3.92-4.73,6.89-10.02,8.9-15.64l12.97,.5,2.56-20.34-12.7-2.72c-.56-5.94-2.14-11.82-4.75-17.35l9.53-8.83Zm-36.9,56.67c-14.12,10.97-34.46,8.41-45.42-5.7-10.97-14.12-8.41-34.46,5.7-45.43,14.12-10.97,34.46-8.41,45.43,5.71,10.97,14.12,8.41,34.46-5.71,45.42Z"/>
          </g>
          <g>
            <path class="cls-24" d="M815.31,51.51l1.58-6.51-10.66-11.98-12.15,4.71c-3.85-4.82-8.45-8.81-13.56-11.93l3.13-12.65-19.47-6.65-5.26,11.93c-5.96-.66-12.04-.32-18.03,1.14l-6.74-11.16-16.9,2.57-1.58,6.51,4.71,12.15c-4.8,3.84-8.81,8.45-11.93,13.56l-12.65-3.13-5.07,12.96-1.58,6.51,11.93,5.26c-.66,5.96-.31,12.04,1.15,18.03l-9.58,.23-1.58,6.51,9.07,18.48,12.16-4.71c3.84,4.8,8.45,8.81,13.57,11.93l-3.13,12.65,19.47,6.65,5.26-11.92c5.96,.66,12.06,.3,18.03-1.15l6.73,11.16,18.49-9.08,1.58-6.51-6.29-5.65c4.82-3.85,8.81-8.45,11.93-13.57l12.65,3.13,6.65-19.47,1.58-6.51-13.51,1.25c.66-5.95,.31-12.05-1.14-18.02l11.16-6.74Zm-47.81,48.19c-16.1,7.91-35.57,1.26-43.48-14.84-7.91-16.1-1.26-35.57,14.84-43.48,16.11-7.91,35.57-1.26,43.48,14.85,7.91,16.1,1.26,35.57-14.85,43.48Z"/>
            <path class="cls-13" d="M816.89,45l-9.08-18.48-12.15,4.71c-3.85-4.82-8.45-8.81-13.56-11.93l3.13-12.65-19.47-6.65-5.26,11.93c-5.96-.66-12.04-.32-18.03,1.14l-6.74-11.16-18.48,9.08,4.71,12.15c-4.8,3.84-8.81,8.45-11.93,13.56l-12.65-3.13-6.65,19.47,11.93,5.26c-.66,5.96-.31,12.04,1.14,18.03l-11.16,6.73,9.07,18.48,12.16-4.71c3.84,4.8,8.45,8.81,13.57,11.93l-3.13,12.65,19.47,6.65,5.26-11.92c5.96,.66,12.06,.3,18.03-1.15l6.73,11.16,18.49-9.07-4.71-12.15c4.82-3.85,8.81-8.45,11.93-13.57l12.65,3.13,6.65-19.47-11.93-5.26c.66-5.95,.3-12.05-1.14-18.02l11.16-6.74Zm-47.8,48.19c-16.1,7.91-35.57,1.26-43.48-14.84-7.91-16.1-1.26-35.57,14.84-43.48,16.11-7.91,35.57-1.26,43.48,14.85,7.91,16.1,1.26,35.57-14.85,43.48Z"/>
          </g>
          <g>
            <path class="cls-23" d="M948.84,82.92l2.54-7.67-22.46-7.2-10.47,11.74c-6.79-3.06-13.92-4.82-21.13-5.36l-3.59-15.32-22.04-4.11-2.54,7.67,.91,15.71c-6.77,2.57-13.11,6.28-18.74,11.14l-13.37-8.29-12.33,12.25-2.54,7.67,11.74,10.47c-3.04,6.76-4.82,13.92-5.36,21.13l-12.77-4.08-2.54,7.67,3.56,24.57,15.71-.91c2.57,6.76,6.28,13.11,11.14,18.74l-5.75,5.7-2.54,7.67,19.91,14.87,10.47-11.75c6.76,3.05,13.92,4.82,21.14,5.36l3.59,15.31,24.57-3.56,2.54-7.67-3.45-8.03c6.76-2.57,13.12-6.3,18.74-11.14l13.37,8.29,14.87-19.91,2.54-7.67-14.29-2.8c3.06-6.79,4.82-13.92,5.36-21.14l15.31-3.59,2.54-7.67-6.1-16.91-15.71,.91c-2.56-6.76-6.3-13.12-11.14-18.74l8.29-13.38Zm-24.87,78.07c-12.95,17.35-37.53,20.91-54.88,7.95-17.35-12.96-20.91-37.53-7.96-54.88,12.96-17.35,37.53-20.91,54.88-7.95,17.35,12.96,20.91,37.53,7.95,54.88Z"/>
            <path class="cls-22" d="M951.38,75.25l-19.91-14.87-10.47,11.74c-6.79-3.06-13.92-4.82-21.13-5.36l-3.59-15.32-24.58,3.56,.91,15.71c-6.77,2.57-13.11,6.28-18.74,11.14l-13.37-8.29-14.87,19.92,11.74,10.47c-3.04,6.76-4.82,13.92-5.36,21.13l-15.32,3.59,3.56,24.57,15.71-.9c2.57,6.76,6.28,13.11,11.14,18.74l-8.29,13.37,19.91,14.87,10.47-11.75c6.76,3.05,13.92,4.82,21.14,5.36l3.59,15.32,24.57-3.56-.91-15.7c6.76-2.57,13.12-6.3,18.74-11.14l13.37,8.29,14.87-19.91-11.74-10.47c3.06-6.79,4.82-13.92,5.36-21.14l15.31-3.59-3.56-24.58-15.71,.91c-2.56-6.76-6.3-13.12-11.14-18.74l8.29-13.38Zm-24.87,78.07c-12.95,17.35-37.53,20.91-54.88,7.95-17.35-12.96-20.91-37.53-7.96-54.88,12.96-17.35,37.53-20.91,54.88-7.95,17.35,12.96,20.91,37.53,7.95,54.88Z"/>
          </g>
        </g>
        <g>
          <g>
            <path class="cls-22" d="M196.51,131.13H454.34c6.58,0,11.92,5.35,11.92,11.93v124.92c0,6.58-5.34,11.93-11.92,11.93H196.51c-6.59,0-11.92-5.34-11.92-11.93v-124.92c0-6.58,5.34-11.93,11.92-11.93Z"/>
            <path class="cls-26" d="M184.58,166.23v122.56c0,6.58,5.34,11.93,11.92,11.93H454.34c6.58,0,11.92-5.35,11.92-11.93v-122.56H184.58Z"/>
          </g>
          <path class="cls-3" d="M228.12,149.34c0,5.05-4.1,9.15-9.15,9.15s-9.15-4.09-9.15-9.15,4.1-9.15,9.15-9.15,9.15,4.09,9.15,9.15Z"/>
          <path class="cls-3" d="M262.95,149.34c0,5.05-4.1,9.15-9.15,9.15s-9.15-4.09-9.15-9.15,4.1-9.15,9.15-9.15,9.15,4.09,9.15,9.15Z"/>
        </g>
        <text class="cls-4" transform="translate(253.8 256.88)"><tspan x="0" y="0">{...}</tspan></text>
      </g>
    </g>
  </g>
</svg>