<?xml version="1.0" encoding="UTF-8"?>
<svg id="Layer_2" data-name="Layer 2" xmlns="http://www.w3.org/2000/svg" viewBox="0 0 272 272">
  <defs>
    <style>
      .cls-1 {
        fill: #fff;
      }

      .cls-2 {
        fill: #23219b;
      }

      .cls-3 {
        fill: #a8542a;
      }

      .cls-4 {
        fill: #458dc9;
      }

      .cls-5 {
        fill: #113772;
      }

      .cls-6 {
        fill: #234a99;
      }

      .cls-7 {
        fill: #fc7272;
      }

      .cls-8 {
        fill: #102c56;
      }

      .cls-9 {
        fill: #a76400;
      }
    </style>
  </defs>
  <g id="Layer_1-2" data-name="Layer 1">
    <g id="Group_2312" data-name="Group 2312">
      <rect id="Rectangle_325-2" data-name="Rectangle 325-2" class="cls-1" width="272" height="272"/>
      <g id="business_presentation_graph_chart_project_analytics_statistics_woman_people" data-name="business presentation graph chart project analytics statistics woman people">
        <g id="Group-4">
          <path id="Path-333" d="M189.2,46.46V218.63c0,.54,.01,1.09,0,1.64-.13,3.05-1.69,5.85-4.21,7.57-1.5,1.07-3,2.13-4.51,3.19l-3.42,2.43c-.44,.31-.02,1.04,.43,.73,2.68-1.9,5.36-3.79,8.04-5.7,2.85-1.99,4.55-5.26,4.52-8.74,0-2.48,0-4.97,0-7.45V54.68c0-2.63,.04-5.26,0-7.89v-.34c-.01-.23-.21-.41-.44-.4-.22,.01-.39,.18-.4,.4h0Z"/>
          <rect id="Rectangle" class="cls-1" x="131.55" y="55.41" width="107.36" height="93.64"/>
          <path id="Path-334" d="M131.55,149.47h103c1.39,0,2.78,.03,4.17,0h.18c.23,0,.42-.19,.42-.42V59.22c0-1.22,.03-2.44,0-3.66v-.15c0-.23-.19-.42-.42-.42h-103c-1.39,0-2.78-.03-4.17,0h-.18c-.23,0-.42,.19-.42,.42v89.82c0,1.22-.03,2.44,0,3.66v.15c.01,.23,.21,.41,.44,.4,.22-.01,.39-.18,.4-.4V56.82c.02-.42,.02-.84,0-1.26,0-.05,0-.1,0-.15l-.42,.42h103c1.38,0,2.8,.11,4.17,0,.06,0,.12,0,.18,0l-.42-.42v92.22c-.02,.42-.02,.84,0,1.26v.15l.42-.42h-103c-1.39,0-2.79-.03-4.18,0h-.18c-.23,0-.42,.19-.42,.42s.19,.42,.42,.42h0Z"/>
          <rect id="Rectangle-2" x="131.55" y="147.06" width="107.36" height="1.99"/>
          <path id="Path-335" d="M131.54,149.47h103c1.39,0,2.78,.03,4.18,0h.18c.23,0,.42-.19,.42-.42v-1.98c0-.23-.19-.42-.42-.42h-103c-1.39,0-2.79-.03-4.17,0h-.18c-.23,0-.42,.19-.42,.42v1.98c.01,.23,.21,.41,.44,.4,.22-.01,.39-.18,.4-.4v-1.98l-.42,.42h103c1.38,0,2.8,.11,4.18,0,.06,0,.12,0,.18,0l-.42-.42v1.98l.42-.42h-103c-1.39,0-2.79-.03-4.17,0h-.19c-.22,.07-.35,.31-.28,.54,.04,.14,.15,.25,.28,.3Z"/>
          <path id="Rectangle-3" class="cls-1" d="M220.76,75.6h0c6.44,0,11.67,5.22,11.67,11.67v21.97c0,6.44-5.22,11.67-11.67,11.67h0c-6.44,0-11.67-5.22-11.67-11.67v-21.97c0-6.44,5.22-11.67,11.67-11.67Z"/>
          <path id="Path-336" d="M213.96,121.32h12.49c.68,.03,1.36,0,2.03-.08,1.89-.34,3.45-1.68,4.08-3.5,.28-1.13,.38-2.29,.28-3.45v-33.83c-.01-1.88-1.02-3.62-2.65-4.57-.95-.51-2.01-.76-3.09-.71h-12.97c-1.37-.03-2.69,.46-3.72,1.35-1.12,1.01-1.76,2.45-1.76,3.96v35.37c-.02,.99,.23,1.96,.71,2.82,.96,1.62,2.7,2.62,4.59,2.64,.23-.01,.41-.21,.4-.44-.01-.22-.18-.39-.4-.4-1.82-.01-3.45-1.11-4.14-2.79-.23-.62-.33-1.28-.32-1.94v-35.25c0-1.37,.62-2.67,1.7-3.53,.88-.66,1.97-.99,3.07-.95h13.38c2.42,.06,4.35,2.04,4.34,4.47v35.22c.02,.61-.07,1.22-.25,1.81-.61,1.69-2.18,2.86-3.97,2.96-.52,.02-1.05,0-1.57,0h-12.24c-.23,.01-.41,.21-.4,.44,.01,.22,.18,.39,.4,.4h0Z"/>
          <path id="Path-338" d="M228.56,81.43h-15.85c-.23,.01-.41,.21-.4,.44,.01,.22,.18,.39,.4,.4h15.85c.23-.01,.41-.21,.4-.44-.01-.22-.18-.39-.4-.4h0Z"/>
          <path id="Path-340" d="M228.56,87.19h-15.85c-.23,0-.42,.19-.42,.42s.19,.42,.42,.42h15.85c.23,0,.42-.19,.42-.42s-.19-.42-.42-.42h0Z"/>
          <path id="Path-342" d="M228.56,92.95h-15.85c-.23,0-.42,.19-.42,.42s.19,.42,.42,.42h15.85c.23,0,.42-.19,.42-.42s-.19-.42-.42-.42h0Z"/>
          <path id="Path-344" d="M228.56,98.71h-15.85c-.23,.01-.41,.21-.4,.44,.01,.22,.18,.39,.4,.4h15.85c.23-.01,.41-.21,.4-.44-.01-.22-.18-.39-.4-.4h0Z"/>
          <path id="Path-346" d="M228.56,104.46h-15.85c-.23,0-.42,.19-.42,.42s.19,.42,.42,.42h15.85c.23,0,.42-.19,.42-.42s-.19-.42-.42-.42h0Z"/>
          <path id="Path-348" d="M228.56,110.22h-15.85c-.23,0-.42,.19-.42,.42s.19,.42,.42,.42h15.85c.23,0,.42-.19,.42-.42s-.19-.42-.42-.42h0Z"/>
          <path id="Path-350" d="M228.56,115.97h-15.85c-.23,.01-.41,.21-.4,.44,.01,.22,.18,.39,.4,.4h15.85c.23-.01,.41-.21,.4-.44-.01-.22-.18-.39-.4-.4h0Z"/>
          <path id="Rectangle-4" class="cls-1" d="M188.08,73.43h11.13c2.11,0,3.82,1.71,3.82,3.82h0c0,2.11-1.71,3.82-3.82,3.82h-11.13c-2.11,0-3.82-1.71-3.82-3.82h0c0-2.11,1.71-3.82,3.82-3.82Z"/>
          <path id="Path-351" d="M186.93,81.49h12.98c.52,.03,1.04-.04,1.53-.2,1.21-.47,2.01-1.63,2.01-2.93,0-.75,0-1.49,0-2.24,0-1.32-.83-2.49-2.07-2.94-.48-.14-.98-.2-1.48-.17h-12.19c-.28,0-.57,0-.85,0-1.43,.05-2.64,1.05-2.95,2.45-.06,.37-.08,.75-.07,1.13v1.38c-.02,.39,.01,.79,.09,1.17,.16,.66,.54,1.25,1.08,1.67,.55,.43,1.22,.66,1.92,.67,.23-.01,.41-.21,.4-.44-.01-.22-.18-.39-.4-.4-1.23-.01-2.23-1.01-2.24-2.24,0-.71,0-1.42,0-2.12-.02-.4,.06-.81,.23-1.18,.26-.52,.71-.93,1.26-1.12,.4-.11,.82-.16,1.23-.13h12.91c.94-.01,1.78,.55,2.14,1.42,.12,.35,.17,.73,.15,1.1v1.3c0,.3,.01,.59,0,.89-.04,.59-.31,1.14-.76,1.53-.48,.4-1.1,.6-1.72,.56h-13.2c-.23,.01-.41,.21-.4,.44,.01,.22,.18,.39,.4,.4h0Z"/>
          <path id="Rectangle-5" class="cls-1" d="M187.89,126.78h7.64c1.45,0,2.63,1.18,2.63,2.63h0c0,1.45-1.18,2.63-2.63,2.63h-7.64c-1.45,0-2.63-1.18-2.63-2.63h0c0-1.45,1.18-2.63,2.63-2.63Z"/>
          <path id="Path-352" d="M187.09,132.46h8.98c.43,.02,.85-.06,1.24-.23,.79-.39,1.28-1.2,1.26-2.07,0-.51,0-1.03,0-1.54,0-.98-.64-1.84-1.56-2.15-.33-.09-.68-.13-1.02-.11h-8.43c-.25,0-.5,0-.76,.02-1,.13-1.79,.9-1.95,1.89-.05,.56-.06,1.13-.03,1.69-.05,.79,.28,1.55,.9,2.04,.39,.29,.87,.45,1.35,.45,.23-.01,.41-.21,.4-.44-.01-.22-.18-.39-.4-.4-.78,0-1.4-.64-1.41-1.41,0-.49,0-.99,0-1.48-.04-.69,.42-1.3,1.08-1.48,.23-.04,.47-.05,.7-.04h8.83c.61,0,1.16,.37,1.37,.94,.11,.53,.14,1.07,.08,1.6,.09,.58-.11,1.17-.54,1.57-.31,.22-.69,.33-1.07,.3h-9.04c-.23,.01-.41,.21-.4,.44,.01,.22,.18,.39,.4,.4h0Z"/>
          <path id="Path-353" class="cls-1" d="M127.72,51.44h-.07c-2.23-.02-4.05,1.78-4.07,4.01-.01,2.21,1.75,4.02,3.96,4.07h107.54v-8.08H127.72Z"/>
          <path id="Path-354" d="M127.3,51.44h0l.42-.42c-2.46,0-4.46,1.98-4.47,4.45s1.98,4.46,4.45,4.47h.02l-.42-.42h0c0,.23,.19,.42,.42,.42h103c1.4,0,2.8,.03,4.19,0h.18c.23,0,.42-.19,.42-.42v-8.08c0-.23-.19-.42-.42-.42h-103c-1.4,0-2.8-.03-4.19,0h-.18c-.23,0-.42,.19-.42,.42s.19,.42,.42,.42h105.75c.47,0,.97,.04,1.44,0h.18l-.42-.42v8.08l.42-.42h-105.75c-.47,0-.97-.04-1.44,0h-.18l.42,.42h0c0-.23-.19-.42-.42-.42-2,0-3.62-1.61-3.63-3.6,0-1.97,1.56-3.58,3.53-3.63h.1c.23,0,.42-.19,.42-.42h0c-.01-.23-.21-.41-.44-.4-.22,.01-.39,.18-.4,.4h0Z"/>
          <ellipse id="Oval-31" cx="234.88" cy="55.48" rx="4.03" ry="4.04"/>
          <path id="Path-355" d="M238.49,55.48c-.01,1.99-1.63,3.59-3.62,3.58-1.99-.01-3.59-1.63-3.58-3.62,.01-1.99,1.63-3.59,3.62-3.58,.23,0,.46,.02,.68,.07,1.68,.35,2.89,1.83,2.9,3.55,.01,.23,.21,.41,.44,.4,.22-.01,.39-.18,.4-.4-.02-1.87-1.18-3.54-2.94-4.2-2.32-.84-4.88,.35-5.72,2.67-.84,2.32,.35,4.88,2.67,5.72,2.32,.84,4.88-.35,5.72-2.67,.18-.49,.27-1.01,.27-1.53-.01-.23-.21-.41-.44-.4-.22,.01-.39,.18-.4,.4h0Z"/>
          <ellipse id="Oval-32" cx="181.93" cy="150.84" rx="2.84" ry="2.85"/>
          <path id="Path-356" d="M178.67,150.83c.01,1.37,.86,2.59,2.14,3.07,1.7,.62,3.57-.25,4.2-1.94,.62-1.7-.25-3.57-1.94-4.2-1.7-.62-3.57,.25-4.2,1.94-.13,.36-.2,.74-.2,1.13,.01,.23,.21,.41,.44,.4,.22-.01,.39-.18,.4-.4,0-1.33,1.1-2.41,2.43-2.4,1.33,0,2.41,1.1,2.4,2.43,0,1.33-1.1,2.41-2.43,2.4-.16,0-.31-.02-.46-.05-1.13-.24-1.93-1.23-1.94-2.38-.01-.23-.21-.41-.44-.4-.22,.01-.39,.18-.4,.4Z"/>
          <path id="Path-357" d="M189.2,216.87c0,1.09-.03,2.19,0,3.28,.09,2.34,.84,4.6,2.16,6.53,.9,1.25,1.99,2.34,3.24,3.24l3.12,2.35,2.53,1.91c.2,.12,.46,.05,.58-.15,.11-.18,.06-.42-.11-.55-.01,0-.03-.02-.04-.02l-5.3-4c-1.02-.72-1.94-1.56-2.76-2.5-1.42-1.74-2.3-3.86-2.53-6.1-.13-1.32-.06-2.67-.06-3.99-.01-.23-.21-.41-.44-.4-.22,.01-.39,.18-.4,.4h0Z"/>
          <ellipse id="Oval-33" cx="189.75" cy="46.42" rx="2" ry="2"/>
          <path id="Path-358" d="M187.33,46.42c.01,1.01,.64,1.92,1.59,2.27,1.26,.46,2.65-.19,3.11-1.44,.46-1.26-.19-2.65-1.44-3.11s-2.65,.19-3.11,1.44c-.1,.27-.15,.55-.15,.83,.01,.23,.21,.41,.44,.4,.22-.01,.39-.18,.4-.4,0-.87,.71-1.57,1.58-1.56,.87,0,1.57,.71,1.56,1.58,0,.87-.71,1.57-1.58,1.56h0c-.09,0-.17,0-.26-.02-.75-.14-1.3-.79-1.31-1.56-.01-.23-.21-.41-.44-.4-.22,.01-.39,.18-.4,.4h0Z"/>
          <path id="Path-359" class="cls-5" d="M164.73,109.5l8.28-18.44c-9.7-4.58-21.27-.44-25.86,9.26s-.44,21.27,9.26,25.86,21.27,.44,25.86-9.26c1.1-2.33,1.73-4.85,1.84-7.42h-19.38Z"/>
          <path id="Path-360" d="M165.09,109.71l.83-1.84,1.97-4.39,2.4-5.34,2.07-4.59c.34-.75,.68-1.5,1.01-2.25l.02-.03c.11-.2,.05-.46-.15-.58-3.63-1.7-7.68-2.27-11.64-1.64-3.16,.51-6.15,1.79-8.71,3.73-8.77,6.55-10.57,18.96-4.02,27.73s18.96,10.57,27.73,4.02c4.09-3.05,6.84-7.57,7.69-12.6,.13-.81,.22-1.62,.26-2.44,0-.23-.19-.42-.42-.42h-17c-.78,0-1.57-.03-2.35,0h-.03c-.23,.01-.41,.21-.4,.44,.01,.22,.18,.39,.4,.4h18.59c.25,.01,.51,.01,.76,0h.03l-.42-.42c-.51,10.44-9.39,18.49-19.83,17.98-10.44-.51-18.49-9.39-17.98-19.83,.51-10.44,9.39-18.49,19.83-17.98,2.45,.12,4.86,.72,7.08,1.76l-.15-.58-.83,1.84-1.97,4.39-2.4,5.34-2.06,4.59c-.34,.75-.68,1.5-1.01,2.25v.03c-.12,.2-.06,.45,.14,.58,.2,.11,.46,.04,.57-.15Z"/>
          <path id="Path-361" d="M192.3,109.5c.02-.41,.03-.82,.03-1.23,.01-10.69-6.15-20.43-15.82-25l-11.78,26.23h27.57Z"/>
          <path id="Path-362" d="M192.72,109.5c.51-11.28-5.8-21.76-16-26.59-.2-.12-.46-.05-.58,.15l-1.17,2.61-2.82,6.27-3.4,7.56-2.95,6.56c-.48,1.06-.96,2.12-1.43,3.19l-.02,.04c-.11,.21-.04,.47,.17,.58,.06,.03,.13,.05,.2,.05h24.18c1.11,0,2.23,.04,3.35,0h.05c.23-.01,.41-.21,.4-.44-.01-.22-.18-.39-.4-.4h-26.44c-.36-.02-.73-.02-1.09,0h-.05l.36,.63,1.17-2.61,2.82-6.27,3.4-7.56,2.95-6.56,.97-2.16c.17-.33,.33-.68,.47-1.03,0-.02,.01-.03,.02-.04l-.58,.15c9.94,4.68,16.09,14.89,15.58,25.87-.03,.54,.82,.54,.84,0Z"/>
          <path id="Path-363" class="cls-8" d="M174.48,125.43c5.71-3.33,9.34-9.33,9.63-15.93h-19.38l9.75,15.93Z"/>
          <path id="Path-364" d="M174.7,125.79c5.85-3.4,9.55-9.54,9.84-16.29,0-.23-.19-.42-.42-.42h-17c-.78,0-1.57-.03-2.35,0h-.03c-.23,0-.42,.2-.42,.43,0,.07,.02,.14,.05,.2l.97,1.59,2.33,3.81,2.81,4.58,2.44,3.99c.4,.65,.77,1.31,1.19,1.94,0,0,.01,.02,.02,.03,.28,.46,1.02,.04,.73-.43l-.97-1.59-2.34-3.81-2.81-4.58-2.44-3.99-.8-1.31c-.12-.22-.25-.42-.39-.62,0,0,0-.02-.01-.03l-.36,.63h18.59c.25,.01,.51,.01,.76,0h.03l-.42-.42c-.29,6.45-3.84,12.32-9.42,15.57-.19,.13-.25,.39-.12,.58,.12,.18,.35,.24,.54,.14h0Z"/>
          <path id="Path-365" d="M166.66,85.58l2.1-2.83,2.75-3.7c.04-.06,.08-.11,.12-.16,.06-.07,.04-.03,.14-.11,.58-.47,1.27-.79,2-.95,.52-.09,1.06-.12,1.59-.1h4.88c1.3,0,2.61,.04,3.91,0h.07c.23-.01,.41-.21,.4-.44-.01-.22-.18-.39-.4-.4h-8.54c-.38,0-.76-.01-1.14,0-.79,.03-1.57,.23-2.28,.58-.51,.22-.97,.55-1.34,.96-.81,1.07-1.6,2.16-2.4,3.23l-1.61,2.16c-.31,.42-.64,.82-.93,1.25-.01,.02-.03,.04-.04,.06-.12,.2-.05,.46,.15,.58,.2,.11,.46,.05,.58-.15h0Z"/>
          <path id="Path-366" d="M191.28,126.64l-.56-1.55c-.19-.6-.42-1.19-.69-1.77-.93-1.76-2.76-2.86-4.75-2.86h-10.13c-.23,.01-.41,.21-.4,.44,.01,.22,.18,.39,.4,.4h9.89c.45-.01,.89,.03,1.33,.12,1.01,.24,1.9,.83,2.53,1.66,.41,.62,.72,1.29,.93,2l.64,1.77c.18,.51,1,.29,.82-.22h0Z"/>
          <path id="Path-368" d="M176.03,134.12h-36.63c-.5,0-.99-.01-1.49,0h-.06c-.23,0-.42,.19-.42,.42s.19,.42,.42,.42h36.63c.5,0,.99,.01,1.49,0h.06c.23,0,.42-.19,.42-.42s-.19-.42-.42-.42h0Z"/>
          <path id="Path-370" d="M181.89,138h-42.26c-.57,0-1.14-.01-1.71,0h-.07c-.23,.01-.41,.21-.4,.44,.01,.22,.18,.39,.4,.4h42.25c.57,0,1.14,.01,1.71,0h.07c.23-.01,.41-.21,.4-.44-.01-.22-.18-.39-.4-.4h0Z"/>
          <path id="Path-372" d="M181.89,141.87h-32.17c-1.48,0-2.97-.05-4.45,0h-.06c-.23,0-.42,.19-.42,.42s.19,.42,.42,.42h32.17c1.48,0,2.97,.05,4.45,0h.06c.23,0,.42-.19,.42-.42s-.19-.42-.42-.42Z"/>
          <ellipse id="Oval-34" class="cls-4" cx="141.59" cy="67.72" rx="3.74" ry="3.75"/>
          <path id="Path-373" d="M137.43,67.72c.02,1.75,1.11,3.31,2.75,3.93,2.17,.79,4.56-.33,5.35-2.49s-.33-4.56-2.49-5.35c-2.17-.79-4.56,.33-5.35,2.49-.17,.46-.25,.94-.25,1.43,.01,.23,.21,.41,.44,.4,.22-.01,.39-.18,.4-.4,.01-1.83,1.5-3.31,3.33-3.3,1.83,.01,3.31,1.5,3.3,3.33-.01,1.83-1.5,3.31-3.33,3.3-.21,0-.41-.02-.61-.06-1.55-.32-2.67-1.69-2.68-3.27-.01-.23-.21-.41-.44-.4-.22,.01-.39,.18-.4,.4Z"/>
          <path id="Path-375" d="M198.11,64.67h-31.3c-1.44,0-2.89-.04-4.33,0h-.06c-.23,0-.42,.19-.42,.42s.19,.42,.42,.42h31.3c1.44,0,2.89,.04,4.32,0h.06c.23,0,.42-.19,.42-.42s-.19-.42-.42-.42h0Z"/>
          <path id="Path-377" d="M198.11,68.3h-24.28c-1.12,0-2.25-.04-3.37,0h-.05c-.23,.01-.41,.21-.4,.44,.01,.22,.18,.39,.4,.4h24.28c1.12,0,2.25,.04,3.37,0h.05c.23-.01,.41-.21,.4-.44-.01-.22-.18-.39-.4-.4h0Z"/>
          <path id="Path-378" class="cls-3" d="M58.92,114.26c.47,1.59,.86,3.21,1.17,4.84l-6.68,1.79-1.9,.51,7.64,29.62-11.72,2.84-10.05-28.8c-1.46-6.27,1.72-12.71,7.59-15.35l3.88-1.46,6.92-1.91c1.31,2.53,2.37,5.19,3.15,7.93h0Z"/>
          <path id="Path-379" d="M58.51,114.37c.47,1.59,.86,3.21,1.17,4.84l.3-.52-6.68,1.79-1.9,.51c-.22,.06-.36,.29-.3,.52l.76,2.97,1.82,7.07,2.2,8.54,1.9,7.39,.63,2.45c.1,.38,.17,.79,.3,1.16,0,.02,0,.03,.01,.05l.3-.52-3.96,.96-6.31,1.53-1.44,.35,.52,.29-.7-2-1.76-5.03-2.32-6.65-2.37-6.78-1.91-5.49c-.32-.92-.65-1.83-.96-2.75-.3-1.01-.44-2.07-.41-3.12,0-1.71,.36-3.4,1.04-4.97,.69-1.59,1.68-3.04,2.92-4.26,.62-.61,1.3-1.16,2.02-1.64,.37-.24,.76-.47,1.15-.68,.19-.1,.38-.19,.57-.28-.06,.03,.02,0,.04-.02,.93-.37,1.88-.71,2.82-1.06,.47-.18,.93-.36,1.41-.49l5.99-1.65,.51-.14-.48-.19c1.3,2.5,2.34,5.12,3.11,7.83,.07,.22,.31,.34,.53,.27,.21-.07,.33-.28,.28-.5-.79-2.78-1.87-5.47-3.2-8.03-.1-.16-.29-.24-.48-.19l-5.34,1.47c-.54,.15-1.09,.27-1.62,.45-.94,.32-1.87,.71-2.8,1.06-.34,.13-.68,.25-1.02,.38-.72,.3-1.4,.68-2.04,1.13-1.49,1-2.78,2.28-3.8,3.75-2.04,2.93-2.85,6.55-2.26,10.07,.19,.9,.46,1.79,.8,2.65l1.71,4.89,2.32,6.64,2.4,6.86,1.96,5.63,1.02,2.93,.05,.13c.07,.22,.3,.35,.52,.29l3.96-.96,6.31-1.53,1.44-.35c.22-.07,.35-.3,.29-.52l-.76-2.97-1.82-7.07-2.2-8.54-1.9-7.39-.63-2.45c-.1-.38-.17-.79-.3-1.16,0-.02,0-.03-.01-.05l-.3,.52,7.28-1.95,1.3-.35c.22-.06,.36-.29,.3-.52-.31-1.63-.7-3.24-1.17-4.84-.08-.22-.32-.34-.54-.26-.2,.07-.32,.28-.28,.49h0Z"/>
          <path id="Path-380" class="cls-7" d="M57.92,146.3l.6,2.37c.41,1.6,1,3.16,1.75,4.63,.45,.94,.95,1.84,1.52,2.71,2.58,4.18,1.46,6.2-7.31,8.58l-.86,.22c-2.5,.63-5.05-.89-5.68-3.39-.06-.25-.11-.51-.13-.77l-.63-7.61-1.34-5.97"/>
          <path id="Path-381" d="M57.51,146.41c.35,1.55,.79,3.09,1.3,4.59,.44,1.13,.94,2.24,1.51,3.32,.4,.78,.89,1.51,1.33,2.26,.35,.56,.62,1.17,.81,1.81,.08,.25,.12,.5,.12,.76,0,.13,0,.25-.01,.38,0,.02-.02,.13,0,.02,0,.02,0,.04-.01,.07-.02,.08-.03,.15-.05,.23-.06,.23-.16,.46-.3,.65-.14,.22-.31,.42-.51,.59-.57,.5-1.21,.91-1.91,1.22-.99,.46-2.01,.85-3.05,1.17-.66,.21-1.32,.4-1.99,.59-.64,.21-1.29,.36-1.96,.44-2.21,.14-4.17-1.41-4.53-3.6-.05-.34-.07-.7-.1-1.05l-.17-2.02-.35-4.29c-.08-.73-.22-1.46-.4-2.18l-.93-4.15-.06-.27c-.12-.53-.93-.31-.82,.22l.78,3.45,.46,2.05c.02,.15,.06,.3,.1,.44,.03,.08,0-.15,0-.07,0,.05,0,.09,.01,.14,.2,2.48,.39,4.96,.61,7.43,.17,2.22,1.75,4.08,3.92,4.62,1.28,.2,2.59,.07,3.81-.39,1.26-.34,2.51-.75,3.73-1.21,1.48-.58,3.19-1.31,4.09-2.7,.6-1.07,.64-2.37,.09-3.47-.38-.84-.83-1.65-1.33-2.43-.4-.66-.75-1.35-1.1-2.04-.69-1.36-1.23-2.78-1.62-4.25-.17-.64-.33-1.29-.49-1.93l-.16-.63c-.07-.22-.31-.34-.53-.27-.21,.07-.33,.28-.28,.5h0Z"/>
          <path id="Path-382" class="cls-1" d="M58.08,145.51l.85,4.62-11.73,2.8-1.2-3.99"/>
          <path id="Path-383" d="M57.67,145.62l.74,4.04,.11,.58,.3-.52-3.97,.94-6.32,1.51-1.44,.34,.52,.29-1.2-3.99c-.07-.22-.31-.34-.53-.27-.21,.07-.33,.28-.28,.5l1.2,3.99c.07,.22,.3,.35,.52,.29l3.97-.94,6.32-1.51,1.44-.34c.22-.06,.36-.29,.3-.52l-.74-4.04-.1-.58c-.11-.53-.93-.3-.83,.22Z"/>
          <path id="Path-384" class="cls-1" d="M86.94,111.94l-26.85,7.16-8.62,2.27,4.66,10.93c1.98,4.64,2.74,9.71,2.2,14.73l-.08,.72-12.06,2.61-5.51-3.72c-1.79-1.21-3.04-3.05-3.51-5.15l-4.53-20.39c-1.28-7.11,2.92-14.06,9.8-16.24l9.08-2.87,18.91-5.6c1.96-.58,4-.88,6.05-.88h10.94"/>
          <path id="Path-385" d="M86.83,111.53l-4.46,1.19-9.6,2.56-9.27,2.47c-1.25,.33-2.5,.67-3.76,1l-8.15,2.15-.24,.06c-.23,.07-.36,.3-.29,.53,0,.03,.02,.06,.04,.09l2.96,6.94,1.54,3.6c.85,1.95,1.49,3.99,1.92,6.07,.36,1.78,.54,3.59,.56,5.4,0,1.39-.08,2.78-.24,4.16l.31-.41-4.07,.89-6.49,1.41-1.49,.32,.33,.04-3.61-2.43-1.76-1.19c-1.78-1.16-3.03-2.98-3.47-5.06-.07-.29-.13-.58-.19-.87l-.9-4.03-1.25-5.62-1.23-5.5-.82-3.68c-1.59-7.05,2.48-14.15,9.38-16.33,1.24-.39,2.48-.79,3.72-1.18l4.89-1.55c.48-.15,.96-.29,1.44-.44l4.12-1.22,5.65-1.67,5.19-1.54,2.86-.85c2.05-.6,4.17-.91,6.3-.9h10.7c.23-.02,.41-.22,.39-.45-.01-.21-.18-.38-.39-.39h-10.29c-2.34-.03-4.67,.28-6.92,.92l-3.49,1.04-6.31,1.87-6.11,1.81c-.96,.28-1.93,.56-2.89,.86-1.36,.42-2.72,.86-4.08,1.29l-4.96,1.57c-6.16,1.93-10.37,7.62-10.38,14.08,.03,1.4,.22,2.78,.56,4.14l1.18,5.31,1.49,6.7,1.2,5.37c.22,1.38,.65,2.72,1.28,3.97,.71,1.23,1.69,2.28,2.88,3.06l2.09,1.41,2.64,1.78c.22,.15,.43,.31,.65,.44,.15,.08,.33,.09,.49,.03l4.8-1.04,6.07-1.31,1.06-.23c.18-.05,.31-.22,.31-.41,.13-1.21,.24-2.43,.24-3.65,.02-4.18-.83-8.33-2.49-12.16l-3.38-7.91-1.22-2.86-.25,.62,7.77-2.04c1.17-.31,2.34-.62,3.51-.93l8.85-2.36,9.9-2.64c1.78-.47,3.58-.91,5.35-1.43l.08-.02c.22-.07,.34-.31,.26-.54-.07-.2-.28-.32-.49-.28h0Z"/>
          <path id="Path-386" d="M57.95,119.22l-3.9,.95-6.21,1.52-1.42,.35c-.53,.13-.3,.94,.23,.81l3.9-.95,6.21-1.52,1.42-.35c.53-.13,.3-.95-.22-.81Z"/>
          <path id="Path-387" d="M104.6,135.87s1.05,6.16-6.04,5.55c-7.83-.61-29.49-.59-29.49-.59,0,0-2.6,1.68-1.3-5.55s13.79-7.72,13.79-7.72"/>
          <path id="Path-388" d="M104.19,135.99c.02,.11,0-.09,0-.02s.02,.16,.02,.24c.02,.27,.02,.54,.01,.81,0,.08-.01,.16-.02,.25,0,.04,0,.09-.01,.14,0,.02,0,.04,0,.06-.01,.11,.02-.09,0,.01-.03,.19-.06,.38-.11,.57-.05,.2-.11,.4-.19,.59l-.03,.07c-.04,.11,.02-.05,0,.02s-.05,.1-.07,.15c-.05,.1-.1,.2-.16,.3-.22,.38-.51,.71-.86,.98-.46,.34-.98,.58-1.53,.71-1.32,.23-2.67,.25-3.99,.06-2.68-.16-5.36-.24-8.04-.3-3.08-.07-6.16-.12-9.24-.15-2.56-.03-5.11-.04-7.67-.05h-2.34c-.29,0-.59-.02-.88,0-.09,0-.17,.03-.24,.08-.06,.03-.2,.06-.03,.02-.06,.02-.13,.04-.19,.06-.09,.03-.07,0,0,0-.04,0-.09,0-.13,0-.12,0,.06,.03-.02,0-.04-.01-.09-.03-.13-.04,.15,.04,0,0-.04-.04-.08-.04,.05,.05,.02,.01-.02-.02-.05-.05-.07-.07-.02-.02-.04-.04-.05-.06,.09,.1,.01,.02,0-.01-.04-.06-.07-.13-.11-.2s.04,.1,0,.01c0-.02-.02-.04-.02-.05-.01-.04-.03-.08-.04-.12-.03-.1-.05-.2-.07-.3-.02-.1-.04-.2-.05-.29-.02-.15-.03-.29-.03-.44-.01-.36,0-.72,.02-1.08,.05-.94,.18-1.87,.38-2.78,.27-1.16,.86-2.22,1.7-3.06,1.81-1.64,4.03-2.77,6.42-3.27,1.01-.26,2.04-.46,3.08-.61l.17-.02s.08-.01,0,0h.07s.3-.05,.3-.05c.18-.02,.36-.04,.54-.06,.25-.03,.51-.05,.76-.06,.09,0,.18-.01,.27-.01,.54-.02,.55-.86,0-.84-.97,.05-1.94,.16-2.9,.32-2.01,.3-3.97,.87-5.84,1.68-2.01,.8-3.7,2.24-4.8,4.11-.58,1.27-.9,2.64-.97,4.04-.18,1.04-.12,2.11,.17,3.13,.16,.53,.61,.93,1.17,1,.3,.02,.59-.05,.85-.2l.04-.02-.21,.06c1.46,0,2.92,0,4.38,.01,3.31,.01,6.63,.04,9.94,.09,3.57,.05,7.15,.12,10.72,.25,1.39,.05,2.79,.12,4.18,.22,1.66,.27,3.36-.04,4.82-.89,1.5-1.18,2.25-3.08,1.94-4.96,0-.07-.02-.15-.03-.22-.09-.53-.9-.31-.82,.22h0Z"/>
          <path id="Path-389" class="cls-7" d="M98.92,211.24v11.16l-12.97,2.58-.37-16.93"/>
          <path id="Path-390" d="M98.5,211.24v11.17l.31-.41-4.39,.87-6.97,1.39-1.61,.32,.54,.41-.13-5.72-.2-9.12-.05-2.09c-.01-.23-.21-.41-.44-.4-.22,.01-.39,.18-.4,.4l.12,5.72,.2,9.12,.05,2.09c0,.24,.2,.42,.44,.42h0s.07,0,.1-.01l4.39-.87,6.97-1.39,1.61-.32c.18-.05,.31-.22,.31-.41v-11.17c-.01-.23-.21-.41-.44-.4-.22,.01-.39,.18-.4,.4h0Z"/>
          <path id="Path-391" class="cls-7" d="M83.83,95.54l.23-11.24,9.51,3.67,.3,7.38"/>
          <path id="Path-392" d="M84.25,95.54l.08-3.81,.12-6.04,.03-1.39-.54,.41,3.21,1.24,5.12,1.98,1.18,.45-.31-.41,.26,6.47,.04,.91c.02,.54,.87,.54,.85,0l-.26-6.47-.04-.91c0-.19-.13-.35-.31-.41l-3.21-1.24-5.12-1.98-1.18-.46c-.23-.06-.46,.07-.52,.3,0,.03-.01,.07-.01,.1l-.08,3.81-.12,6.04-.03,1.39c.01,.23,.21,.41,.44,.4,.22-.01,.39-.18,.4-.4h0Z"/>
          <path id="Path-393" class="cls-7" d="M91.98,89.46c.84,.18,1.69,.3,2.55,.36,.26,.02,.53,0,.78-.07,3.63-.94,5.09-4.36,5.56-7.99h.35c1.14,.16,1.58-.12,1.45-.84-.79-.67-1.35-1.58-1.59-2.59l-.03-.53c-.06-2.13-.3-4.24-.73-6.33l-18.25-.65s-2.37,3.92-2.2,5.72c.3,3.11,3.32,5.33,4.15,9.34"/>
          <path id="Path-394" d="M91.87,89.87c.58,.12,1.16,.22,1.74,.29,.6,.11,1.21,.11,1.81,0,.86-.22,1.67-.6,2.38-1.14,1.35-1.09,2.34-2.56,2.83-4.22,.32-.99,.54-2.01,.66-3.04l-.42,.42c.7,0,1.73,.25,2.13-.53,.08-.18,.12-.37,.11-.56,0-.13-.02-.26-.08-.38-.12-.17-.25-.32-.4-.46-.35-.37-.65-.78-.9-1.23-.08-.15-.14-.3-.18-.47-.03-.09-.04-.18-.06-.28,.02,.12,0-.11,0-.13-.03-.51-.04-1.02-.07-1.54-.07-1.19-.21-2.38-.39-3.56-.09-.56-.18-1.13-.3-1.69-.05-.18-.22-.31-.41-.31l-6.17-.22-9.83-.35-2.26-.08c-.15,0-.29,.08-.36,.21-.31,.51-.6,1.05-.87,1.58-.53,.98-.94,2.01-1.24,3.09-.13,.46-.17,.93-.13,1.4,.07,.6,.23,1.18,.46,1.74,.52,1.14,1.13,2.23,1.83,3.27,.86,1.32,1.49,2.77,1.86,4.3,.11,.53,.93,.31,.82-.22-.32-1.37-.85-2.68-1.58-3.89-.61-1.06-1.32-2.07-1.87-3.17-.51-.87-.73-1.87-.64-2.87,.23-1.02,.59-2,1.08-2.92,.31-.64,.65-1.27,1.02-1.88l-.36,.21,6.17,.22,9.83,.35,2.26,.08-.41-.31c.2,.92,.34,1.86,.45,2.79,.12,.98,.2,1.96,.24,2.95-.02,.56,.04,1.13,.19,1.67,.37,.84,.9,1.59,1.56,2.22l-.11-.19c0,.07,0,.13,0,.2,0-.01-.02,.05-.03,.06,.04-.07-.05,.03,.01,0-.02,.02-.05,.03-.07,.04,.05-.02-.08,.02-.08,.02-.04,0-.07,.02-.11,.02-.37,.01-.74,0-1.11-.04-.23,0-.41,.19-.42,.42-.4,3.05-1.66,6.45-4.88,7.48-.24,.09-.49,.14-.75,.17-.3,0-.61-.02-.91-.06-.61-.06-1.21-.16-1.81-.29-.53-.11-.76,.7-.23,.81h0Z"/>
          <path id="Path-395" class="cls-9" d="M90.02,81.92c-1.24-1.28-2.03-2.93-2.25-4.7-.07-2.25,1.12-2.81,2.68-2.86s3.38,2.87,3.45,5.06l.11-4.75c.03-1.37,1.16-2.46,2.53-2.43h0c.08,0,.16,0,.24,.02l3.39,.06c1.07,.01,1.95-.84,1.97-1.91,0-.31-.06-.61-.2-.89l-.28-.56c-1.07-2.16-3.24-3.57-5.65-3.66l-9.16-.32c-2.66-.09-5.18,1.19-6.68,3.39l-2.18,3.22s-4.61,7.73,6.02,17.11c.81-.04,4.86-.33,6.16-2.01s-.16-4.76-.16-4.76Z"/>
          <path id="Path-396" d="M90.23,81.55c-.12-.11-.23-.22-.34-.35-.15-.18-.29-.38-.42-.58-.3-.47-.56-.97-.77-1.48-.48-.95-.62-2.04-.39-3.08,.23-.73,.9-1.23,1.66-1.25,.36-.08,.74-.04,1.07,.12,.42,.24,.78,.57,1.07,.97,.8,1.01,1.28,2.23,1.36,3.52,.01,.23,.21,.41,.44,.4,.22-.01,.39-.18,.4-.4l.07-2.88,.04-1.6c-.02-.52,.13-1.04,.43-1.47,.25-.32,.58-.57,.97-.7,.32-.09,.66-.12,.99-.09,.47,.02,.93,.02,1.4,.02l1.76,.03c.66,.04,1.31-.17,1.81-.6,.66-.6,.93-1.53,.69-2.4-.11-.31-.24-.61-.4-.89-.18-.37-.39-.73-.63-1.06-1.19-1.64-3.03-2.69-5.04-2.89-.71-.07-1.43-.06-2.15-.09l-3.85-.14-3.15-.11c-1.33-.08-2.65,.14-3.89,.64-1.53,.68-2.82,1.78-3.73,3.19l-1.91,2.82c-.51,.84-.84,1.78-.98,2.76-.41,2.6-.02,5.26,1.13,7.62,.86,1.8,1.98,3.46,3.33,4.93,.41,.46,.83,.9,1.27,1.33,.22,.22,.44,.43,.67,.64,.22,.21,.53,.61,.85,.62,2.11-.08,4.16-.66,6.01-1.68,1.37-1.1,1.26-3.02,.8-4.54-.12-.4-.26-.8-.44-1.18-.23-.49-.96-.06-.73,.43,.02,.03,.03,.06,.04,.1,.04,.1-.03-.08,.02,.04,.03,.07,.05,.13,.08,.2,.12,.32,.22,.65,.31,.98,.27,.83,.26,1.72,0,2.54-.36,.66-.95,1.17-1.67,1.4-.8,.32-1.63,.54-2.48,.67-.64,.11-1.28,.18-1.93,.21l.3,.12c-2.68-2.2-4.78-5.03-6.11-8.23-.4-1.07-.65-2.19-.75-3.32-.04-.48-.04-.95-.02-1.43,.01-.21,.03-.42,.05-.63,0-.04,.01-.09,.02-.14,0-.03,0-.05,.01-.08-.01,.08,0,.01,0,0,.01-.1,.03-.2,.05-.29,.1-.61,.26-1.21,.48-1.79,.02-.05,.04-.1,.06-.15l.03-.06s-.04,.1,0,0c.03-.07,.07-.15,.1-.23,.04-.08,.08-.16,.12-.24,.32-.53,.7-1.04,1.05-1.56,.48-.71,.93-1.46,1.47-2.12,1.07-1.32,2.56-2.23,4.22-2.59,.79-.14,1.6-.18,2.4-.12l5.98,.21,2.29,.08c1.06,.02,2.1,.29,3.03,.8,.69,.39,1.3,.92,1.8,1.54,.38,.51,.7,1.05,.96,1.62,.39,.74,.11,1.66-.63,2.05-.25,.13-.54,.19-.82,.17-.93-.01-1.87-.03-2.81-.05-.38-.03-.76-.03-1.14,0-.79,.09-1.51,.51-1.99,1.15-.49,.8-.7,1.73-.6,2.66l-.08,3.13-.02,.64h.86c-.08-1.34-.54-2.64-1.32-3.74-.55-1.01-1.58-1.67-2.73-1.74-1.03-.04-2,.47-2.56,1.34-.49,1.14-.5,2.44-.02,3.58,.25,.71,.57,1.38,.96,2.02,.29,.53,.68,.99,1.15,1.38,.2,.13,.46,.07,.59-.12s.07-.46-.12-.59c-.01,0-.02-.01-.04-.02h0Z"/>
          <path id="Path-397" d="M92.67,79.56c-.12-.38-.26-.76-.42-1.13-.22-.61-.59-1.15-1.06-1.59-.3-.27-.71-.38-1.1-.29-.23,.06-.36,.29-.3,.52,.07,.22,.3,.35,.52,.29,.01,0,.03,0,.04,0,.06-.02-.05,.01-.05,0,.03,0,.05,0,.08,0h.04c.06,0-.05,0-.05,0,.03,.01,.06,.02,.09,.02,.01,0,.02,.01,.04,.01,.06,.01-.04-.01-.05-.02,.01,.01,.05,.03,.07,.03l.07,.04,.04,.02c.05,.03,.01,.04-.02-.01,.02,.04,.1,.09,.14,.12s.09,.1,.14,.15c0,.01,.04,.03,.04,.05s-.06-.08-.02-.03l.06,.08c.04,.06,.08,.12,.12,.19,.16,.25,.29,.52,.41,.79,.02,.03,.03,.06,.04,.09-.03-.11,0-.02,0,.01,.03,.07,.05,.13,.08,.2,.04,.11,.08,.21,.12,.32,.04,.11,.08,.23,.11,.35,.07,.22,.31,.35,.53,.28,.21-.07,.34-.29,.28-.5h0Z"/>
          <path id="Path-398" d="M99.71,75.54c-.37-.24-.77-.4-1.2-.49-.95-.2-1.93-.05-2.77,.43-.48,.26-.05,.99,.43,.73,.67-.38,1.46-.5,2.21-.33,.14,.03,.27,.07,.41,.12l.1,.04c.08,.03-.04-.02,0,0s.09,.04,.14,.06c.1,.05,.19,.1,.28,.16,.2,.12,.46,.05,.58-.15,.12-.2,.05-.46-.15-.58,0,0,0,0,0,0h-.01Z"/>
          <circle id="Oval-35" cx="98.26" cy="78.05" r=".64"/>
          <path id="Path-399" d="M97.41,78.04c0,.36,.22,.68,.56,.81,.44,.16,.93-.06,1.09-.5,.16-.44-.06-.93-.5-1.09-.44-.16-.93,.06-1.09,.5-.03,.09-.05,.19-.05,.29,0,.12,.1,.21,.21,.21,.11,0,.21-.1,.21-.21v-.05s.01-.06,.02-.08c0,0,.02-.06,0-.01,0,0,.01-.02,.02-.03,.02-.03,.03-.06,.05-.08-.03,.04,0,0,0,0l.03-.03s.08-.06,.03-.03c.02-.02,.05-.03,.07-.04h.03s-.03,0,.02-.02c.03,0,.05-.02,.08-.02s.05,0,0,0h.09s.06,0,.02,0,.02,0,.02,0h.05s.05,.03,.05,.03c0,0-.04-.02,0,0s.05,.03,.07,.04c0,0,.05,.03,.02,.01s.02,.01,.02,.01c.02,.02,.05,.05,.07,.07-.03-.03,0-.01,0,0,0,.01,.02,.03,.03,.04v.02s.04,.06,.02,.01c0,.03,.02,.05,.02,.08,0,.01,0,.02,0,.03,0,.04,0-.03,0,.02v.08c0,.06,.01-.04,0,.01,0,.01,0,.02,0,.03,0,.03-.02,.06-.03,.08,.02-.05,0,0,0,.01s-.02,.03-.02,.04-.02,.02-.02,.03,.03-.03,0,0-.04,.04-.06,.06c0,0-.04,.03-.02,.02s-.02,.01-.02,.01c-.03,.02-.06,.03-.09,.05,0,0,.04-.01,0,0h-.05s-.03,.02-.03,.02c0,0-.06,0-.02,0s-.02,0-.02,0h-.1s-.07-.02-.1-.03c.04,.02,0,0,0,0-.02-.01-.04-.02-.05-.04l-.03-.02h0l-.02-.02s-.04-.04-.05-.06c-.04-.04,.02,.04,0-.01,0-.01-.02-.03-.03-.04s-.02-.03-.02-.04c-.02-.04,0,.03,0-.01s-.02-.06-.03-.1v-.07c0-.12-.09-.21-.21-.21-.12,0-.21,.09-.21,.21h0s0,.01,0,.01Z"/>
          <path id="Path-400" class="cls-9" d="M86.88,64.97l16.63,.29s3.82,7.59-6.77,8.77c-2.23,.25-4.45-.58-5.97-2.23l-.86-.93"/>
          <path id="Path-401" d="M86.88,65.39l5.64,.1,8.93,.15,2.05,.04-.36-.21s.03,.06,.04,.09,.03,.07,.05,.1-.05-.12-.01-.03c.01,.03,.02,.05,.03,.08,.12,.29,.21,.59,.29,.9,.05,.2,.09,.4,.13,.6,0,.05,.02,.1,.02,.15,0,.03,0,.06,.01,.09-.02-.12,0-.02,0,0,.01,.12,.03,.23,.03,.35,.02,.24,.02,.48,0,.73,0,.12-.02,.25-.03,.37s0-.06,0,0c0,.03,0,.06-.01,.08-.01,.07-.02,.15-.04,.22-.09,.52-.29,1.02-.59,1.47-.34,.52-.79,.97-1.3,1.33-.71,.48-1.5,.84-2.32,1.07-1.13,.36-2.31,.56-3.5,.58-1.42,0-2.8-.46-3.94-1.3-.66-.54-1.26-1.14-1.8-1.79-.37-.4-.96,.2-.6,.6,.5,.59,1.04,1.14,1.62,1.65,1.06,.86,2.32,1.42,3.67,1.61,1.32,.14,2.66,.03,3.95-.31,.99-.21,1.94-.57,2.82-1.05,1.26-.67,2.22-1.79,2.68-3.14,.3-1.03,.33-2.13,.08-3.18-.12-.59-.31-1.15-.57-1.69-.08-.13-.21-.21-.36-.21l-5.64-.1-8.93-.16-2.05-.04c-.23,.01-.41,.21-.4,.44,.01,.22,.18,.39,.4,.4h0Z"/>
          <path id="Path-402" d="M88.93,81.32c.74,1.2,2.13,1.83,3.52,1.6,.23-.06,.36-.29,.3-.52,0,0,0,0,0,0-.07-.22-.3-.35-.52-.29,.05,0-.1,0-.11,0-.06,0-.12,0-.18,0-.11,0-.22,0-.33-.01h-.08s.05,0,0,0-.1-.02-.15-.03c-.08-.02-.17-.04-.25-.07-.05-.01-.09-.03-.14-.05l-.07-.03s.05,.02,0,0c-.08-.04-.16-.08-.24-.12s-.14-.08-.22-.13c-.03-.02-.07-.05-.1-.07,0,0-.11-.08-.05-.04s-.04-.03-.05-.04c-.03-.02-.06-.05-.08-.07-.05-.04-.1-.09-.15-.14-.08-.08-.15-.16-.23-.25l-.04-.05c-.06-.07,.05,.07,.02,.02-.02-.03-.04-.05-.06-.08-.02-.02-.03-.05-.05-.07-.12-.2-.38-.27-.58-.15-.2,.12-.27,.38-.15,.58h0Z"/>
          <path id="Path-403" class="cls-2" d="M85.21,221.33l.05,12.37h27.37s.47-7.79-9.75-8.62c-1.91-.16-3.37-1.78-3.34-3.69,0-.54,.01-.98,.02-1.34,.02-.78-.61-1.43-1.39-1.45h-1.2l-3.12,1.93c-1.61,1-3.65,.99-5.25-.03l-.89-.56c-.76-.48-1.77-.26-2.25,.5-.17,.26-.26,.57-.25,.89h0Z"/>
          <path id="Path-404" d="M84.79,221.33l.02,4.19,.03,6.64v1.53c.01,.23,.2,.42,.43,.42h23.99c1.11,0,2.23,.04,3.33,0h.05c.23,0,.42-.19,.42-.42,.03-1.08-.18-2.16-.6-3.16-.97-2.29-2.84-4.08-5.18-4.93-.81-.31-1.65-.55-2.51-.7-.51-.09-1.03-.16-1.55-.21-.46-.02-.91-.12-1.34-.29-.8-.36-1.42-1.02-1.72-1.84-.15-.44-.22-.9-.2-1.37,.04-.51,.04-1.03-.02-1.54-.19-.87-.98-1.49-1.88-1.47h-.89c-.16-.02-.33,.01-.48,.09-.95,.54-1.86,1.15-2.78,1.72-.54,.36-1.14,.62-1.78,.77-1.06,.22-2.16,.04-3.1-.48-.47-.32-.96-.61-1.47-.87-.85-.32-1.8-.05-2.35,.67-.27,.36-.42,.8-.43,1.25,.01,.23,.21,.41,.44,.4,.22-.01,.39-.18,.4-.4,0-.67,.55-1.21,1.22-1.21,.24,0,.47,.07,.66,.2,.76,.55,1.61,.97,2.51,1.23,1.38,.31,2.83,.07,4.03-.66,.48-.29,.94-.58,1.42-.88l1.7-1.05-.21,.06c.67,0,1.63-.19,2.03,.49,.12,.23,.16,.49,.14,.74,0,.34-.01,.68-.01,1.03-.01,.65,.12,1.3,.39,1.9,.53,1.12,1.53,1.94,2.74,2.22,.65,.15,1.33,.15,1.99,.26,.6,.1,1.2,.23,1.79,.4,1.71,.46,3.25,1.4,4.43,2.72,.77,.91,1.31,2,1.57,3.17,.06,.25,.1,.5,.14,.75,.01,.09-.01-.11,0-.02,0,.03,0,.06,.01,.09,0,.04,0,.09,.01,.13,0,.09,.02,.18,.02,.27,.01,.17,.02,.35,0,.52l.42-.42h-26.26c-.36-.02-.71-.02-1.07,0h-.05l.42,.42-.02-4.19-.03-6.65v-1.53c0-.23-.2-.42-.43-.42s-.42,.19-.42,.42h0Z"/>
          <path id="Path-405" d="M75.96,129.84s-5.91,1.14-6.59,4.56,7.96,4.22,7.96,4.22"/>
          <path id="Path-406" d="M75.85,129.44c-.98,.2-1.93,.51-2.85,.91-1.61,.55-2.96,1.68-3.79,3.17-.32,.63-.38,1.35-.17,2.02,.26,.61,.7,1.12,1.26,1.47,1.25,.77,2.64,1.3,4.08,1.55,.97,.22,1.95,.38,2.93,.48,.23,0,.42-.19,.42-.42,0-.23-.19-.42-.42-.42-.22-.02-.43-.05-.64-.07h-.06s-.16-.03-.16-.03c-.13-.02-.26-.04-.39-.06-.29-.05-.58-.1-.86-.15-1.35-.22-2.66-.64-3.89-1.24-.13-.07-.27-.15-.39-.23s-.29-.19-.34-.23c-.11-.08-.21-.18-.3-.27-.05-.05-.09-.1-.13-.15-.02-.03-.05-.06-.07-.09,.05,.07-.02-.02-.02-.04-.07-.11-.14-.22-.19-.33-.03-.06,.03,.09,0-.02-.01-.03-.02-.07-.03-.1-.02-.06-.03-.13-.05-.19,0-.02-.01-.1,0-.01,0-.04,0-.07,0-.11,0-.06,0-.13,0-.19,0-.02,0-.05,0-.08,.01-.13-.02,.08,0-.04,.02-.1,.04-.21,.07-.31,.42-1.46,1.89-2.39,3.19-3,.97-.45,1.99-.79,3.04-1,.53-.1,.31-.92-.23-.81h0Z"/>
          <path id="Path-407" class="cls-7" d="M63.88,205.09l-5.96,9.43-12.33-4.79,8.74-14.5"/>
          <path id="Path-408" d="M63.51,204.88l-2.02,3.18-3.21,5.08-.74,1.17,.48-.19-4.18-1.62-6.62-2.58-1.52-.59,.25,.62,2.95-4.9,4.7-7.81,1.08-1.79c.12-.2,.05-.46-.15-.58-.2-.12-.46-.05-.58,.15h0l-2.95,4.9-4.7,7.8-1.08,1.79c-.12,.21-.04,.47,.16,.58,.03,.02,.06,.03,.09,.04l4.17,1.62,6.62,2.58,1.52,.59c.18,.05,.38-.03,.48-.19l2.01-3.18,3.21-5.08,.74-1.17c.29-.46-.44-.88-.73-.43h0Z"/>
          <path id="Path-409" class="cls-2" d="M46.91,206.25l-6.56,10.47,23.11,14.71s4.56-6.33-3.63-12.52c-1.53-1.16-1.9-3.31-.85-4.92l.73-1.12c.43-.66,.25-1.54-.41-1.97,0,0,0,0,0,0h-.01s-.99-.64-.99-.64l-3.66-.05c-1.89-.03-3.61-1.13-4.42-2.84l-.45-.95c-.38-.81-1.35-1.16-2.16-.78-.28,.13-.52,.34-.69,.61h0Z"/>
          <path id="Path-410" d="M46.55,206.03l-2.22,3.54-3.53,5.64-.81,1.29c-.11,.2-.05,.46,.15,.58l2.3,1.47,5.53,3.52,6.64,4.23,5.78,3.68c.93,.59,1.85,1.24,2.81,1.79,.01,0,.02,.02,.04,.02,.2,.11,.46,.05,.58-.15,.75-1.15,1.2-2.47,1.29-3.84,.28-3.23-1.47-6.13-3.81-8.22-.83-.56-1.56-1.27-2.14-2.09-.38-.73-.46-1.58-.24-2.37,.15-.45,.36-.87,.64-1.26,.29-.37,.52-.78,.71-1.21,.25-.82-.09-1.7-.82-2.15-.22-.14-.43-.28-.65-.42-.15-.13-.33-.21-.52-.25-.38-.03-.76-.01-1.13-.01-.96-.01-1.95,.04-2.91-.05-.87-.09-1.7-.43-2.39-.98-.57-.49-1.03-1.09-1.34-1.78-.19-.54-.48-1.04-.88-1.45-.86-.74-2.15-.64-2.89,.22h0c-.07,.08-.13,.17-.19,.26-.3,.46,.43,.88,.73,.43,.37-.56,1.13-.71,1.69-.34,.19,.13,.35,.31,.44,.52,.35,.86,.84,1.67,1.45,2.37,.92,.93,2.15,1.5,3.46,1.6,.62,.05,1.26,.03,1.88,.03l2.1,.03-.21-.06,.71,.45c.28,.14,.51,.36,.65,.64,.21,.52-.09,.92-.36,1.33-.36,.49-.66,1.03-.89,1.59-.36,1.03-.29,2.16,.18,3.14,.54,1.14,1.66,1.76,2.55,2.59,1.57,1.35,2.69,3.15,3.21,5.15,.28,1.3,.21,2.65-.2,3.91-.13,.45-.31,.88-.54,1.28-.09,.17-.19,.34-.3,.5l.58-.15-2.3-1.47-5.53-3.52-6.64-4.23-5.78-3.68-1.91-1.21c-.29-.21-.59-.4-.9-.57-.01,0-.03-.02-.04-.02l.15,.58,2.22-3.54,3.53-5.64,.81-1.29c.29-.46-.44-.88-.73-.42Z"/>
          <path id="Path-411" d="M58.48,216.36c-.21,0-.41,0-.62,.05-.41,.07-.8,.24-1.13,.49-.27,.2-.5,.46-.69,.74-.12,.2-.05,.46,.15,.58,.2,.11,.46,.05,.58-.15,.02-.04,.05-.07,.07-.11l.04-.05s-.04,.05-.01,.01c.05-.06,.1-.12,.16-.17,.05-.05,.11-.1,.16-.15,.04-.03,.03-.02-.02,.02l.04-.03,.06-.04c.11-.07,.22-.13,.34-.19,.07-.03-.1,.04,0,0l.08-.03s.1-.03,.15-.05c.09-.03,.19-.04,.28-.06s-.1,.01-.03,0h.05s.1-.02,.1-.02c.07,0,.14,0,.21,0,.23,0,.42-.19,.42-.42,0-.23-.19-.41-.42-.42Z"/>
          <path id="Path-412" d="M59.49,218.16c-.21,0-.41,0-.61,.05-.41,.07-.8,.24-1.13,.49-.27,.2-.5,.46-.69,.74-.12,.2-.05,.46,.15,.58,.2,.11,.46,.05,.58-.15,.02-.04,.05-.07,.07-.11l.04-.05s-.04,.05-.01,.01c.05-.06,.1-.12,.16-.17s.11-.1,.16-.15c.04-.03,.03-.02-.02,.02l.04-.03,.06-.04c.11-.07,.22-.13,.34-.19,.07-.03-.1,.04,0,0l.08-.03s.1-.03,.15-.05c.09-.02,.19-.04,.28-.06,.1-.02-.1,.01-.03,0h.05s.1-.02,.1-.02c.07,0,.14,0,.21,0,.23,0,.42-.19,.42-.42,0-.23-.19-.41-.42-.42Z"/>
          <path id="Path-413" d="M61.02,219.63c-.21,0-.41,0-.61,.05-.41,.07-.8,.24-1.13,.49-.27,.2-.5,.46-.69,.74-.12,.2-.05,.46,.15,.58,.2,.11,.46,.05,.58-.15,.02-.03,.05-.07,.07-.11l.04-.05s-.04,.05-.01,.01c.05-.06,.1-.12,.16-.17,.05-.05,.11-.1,.16-.15,.04-.03,.03-.02-.02,.02l.04-.03,.06-.04c.11-.07,.22-.13,.34-.19,.07-.03-.1,.04,0,0l.08-.03s.1-.03,.15-.05c.09-.03,.19-.05,.28-.06,.1-.02-.1,.01-.03,0h.05s.1-.02,.1-.02c.07,0,.14,0,.21,0,.23,0,.42-.19,.42-.42,0-.23-.19-.41-.42-.42Z"/>
          <path id="Path-414" class="cls-1" d="M64.57,228.66c-.19,.98-.56,1.92-1.11,2.76l-23.11-14.71,1.02-1.68h0s1.83-2.9,1.83-2.9c0,0,3.76,.94,5.81,5.73,1.89,2.51,4.12,.59,6.51,2.54s.98,2.26,2.56,3.25c1.11,.75,2.45,1.08,3.77,.93,1.96-.35,3.2,1.21,2.73,4.09Z"/>
          <path id="Path-415" d="M64.17,228.55c-.17,.95-.53,1.86-1.07,2.66l.58-.15-2.3-1.47-5.53-3.52-6.65-4.23-5.78-3.68-1.91-1.21c-.29-.21-.59-.4-.9-.57-.01,0-.02-.02-.04-.02l.15,.58,1.02-1.68c.11-.2,.05-.46-.15-.58h-.01s.15,.57,.15,.57l1.83-2.9-.48,.19c.08,.02,.15,.04,.23,.07,.08,.03,.17,.06,.25,.09l.07,.03c.09,.04-.09-.04,0,0,.07,.03,.14,.06,.21,.09,.69,.32,1.32,.74,1.9,1.23,.89,.76,1.63,1.67,2.21,2.69,.17,.3,.33,.6,.48,.92,.07,.17,.15,.34,.24,.49,.11,.15,.23,.3,.36,.43,.45,.46,1.01,.8,1.63,.98,1.13,.32,2.34,.13,3.45,.53,.64,.26,1.22,.67,1.7,1.17,.18,.17,.35,.36,.5,.57,.06,.08,.11,.16,.16,.25,.02,.04,.04,.07,.06,.11,0,.01,.07,.16,.04,.08,.11,.27,.17,.56,.3,.82,.18,.32,.44,.59,.75,.79,.71,.5,1.51,.86,2.36,1.05,.4,.09,.8,.13,1.21,.13,.33,0,.65-.08,.98-.1,.43-.04,.86,.07,1.22,.32,.94,.73,.91,2.22,.75,3.28-.05,.22,.08,.45,.3,.52,.22,.06,.46-.07,.52-.29,.29-1.19,.12-2.45-.47-3.53-.56-.82-1.54-1.26-2.52-1.11-.67,.11-1.36,.08-2.02-.09-.5-.14-.97-.34-1.42-.6-.23-.13-.45-.28-.66-.45-.05-.04-.15-.16-.15-.16,.03,.03-.03-.04-.04-.05-.02-.03-.04-.06-.06-.1s-.03-.05-.04-.08c.03,.06,.01,.03,0-.01-.02-.06-.04-.12-.06-.19-.35-.96-.98-1.78-1.81-2.37-.56-.45-1.21-.77-1.91-.93-.6-.11-1.21-.18-1.83-.21-.54-.01-1.07-.13-1.56-.35-.29-.15-.55-.34-.78-.58-.13-.12-.24-.26-.33-.42-.09-.18-.16-.36-.24-.53-.56-1.16-1.31-2.21-2.23-3.11-.65-.64-1.38-1.18-2.18-1.62-.41-.24-.85-.42-1.31-.56l-.06-.02c-.18-.05-.38,.03-.48,.19l-1.84,2.9c-.11,.2-.05,.46,.15,.58h.01s-.15-.57-.15-.57l-1.02,1.68c-.11,.2-.05,.46,.15,.58l2.3,1.47,5.53,3.52,6.64,4.23,5.78,3.68c.93,.59,1.85,1.24,2.81,1.79,.01,0,.03,.02,.04,.02,.2,.11,.46,.05,.58-.15,.57-.87,.97-1.84,1.15-2.86,.1-.53-.71-.75-.82-.22Z"/>
          <path id="Path-416" class="cls-6" d="M83.39,127.56l17.25,2.33,6.35,80.09c.19,2.37-1.57,4.44-3.94,4.64-.53,.04-1.06-.01-1.57-.16l-2.78-.83-1.94,.95c-2.23,1.09-4.87,.89-6.91-.51l-1.02-.71-2.29,.93c-2.05,.83-4.38,.62-6.26-.57l-.78-.5-.07,.03c-2.76,1.27-6.03,.56-8.03-1.73l-1.36-1.56-3.48-.13c-2.38-.09-4.54-1.4-5.71-3.47l-1.35-2.37h-4.15c-2.38,0-4.66-.89-6.41-2.5h0c-.31-.28-.38-.74-.17-1.1l18.58-33s-4.52-26.16,8.62-37.55"/>
          <path id="Path-417" d="M83.28,127.97l5.83,.79,9.29,1.26,2.14,.29-.31-.41,.34,4.27,.87,10.99,1.2,15.19,1.32,16.62,1.24,15.6,.94,11.8c.14,1.83,.3,3.66,.43,5.5,.08,.75-.05,1.52-.39,2.2-.86,1.67-2.78,2.5-4.58,1.98-.49-.14-.98-.29-1.47-.44-.43-.16-.86-.29-1.31-.39-.19-.01-.39,.04-.55,.15l-.9,.44c-.57,.3-1.16,.56-1.77,.77-2,.56-4.14,.17-5.8-1.07-.38-.26-.76-.69-1.23-.49l-1.69,.69c-.69,.31-1.41,.52-2.15,.62-1.17,.13-2.36-.06-3.44-.55-.35-.17-.69-.37-1.02-.58-.2-.13-.49-.4-.75-.4-.19,.04-.38,.1-.55,.2-.24,.1-.49,.18-.74,.24-.54,.14-1.09,.22-1.65,.21-1.9-.02-3.7-.86-4.93-2.31-.39-.44-.77-.88-1.15-1.32-.26-.3-.54-.28-.91-.29-1.13-.04-2.27-.03-3.39-.14-2.08-.22-3.92-1.43-4.96-3.24-.46-.78-.9-1.58-1.35-2.37-.08-.13-.21-.21-.36-.21h-3.98c-1.1,.01-2.2-.17-3.24-.53-.69-.25-1.35-.58-1.96-.99-.42-.28-1.45-.82-1.19-1.44,.15-.3,.31-.58,.49-.86l1.31-2.33,4.31-7.66,5.26-9.34,4.66-8.28,2.46-4.37c.13-.25,.16-.53,.08-.8-.02-.12-.04-.24-.05-.36-.03-.22-.04-.28-.06-.43-.06-.45-.11-.89-.16-1.34-.32-3-.46-6.02-.4-9.04,.04-4.08,.55-8.15,1.53-12.11,.96-4.14,2.85-8.01,5.52-11.32,.67-.79,1.41-1.54,2.19-2.22,.41-.36-.19-.95-.6-.6-5.17,4.5-7.66,11.24-8.74,17.83-.86,5.51-1,11.11-.42,16.66,.11,1.16,.24,2.32,.43,3.47l.04-.32-2.64,4.7-5.95,10.56-6.26,11.12-3.6,6.39c-.19,.27-.3,.59-.31,.93,.01,.8,.8,1.3,1.38,1.72,.74,.53,1.54,.95,2.39,1.25,2.16,.79,4.53,.59,6.79,.59h.71l-.36-.21c.7,1.52,1.63,2.91,2.77,4.14,.99,.9,2.21,1.52,3.53,1.77,.77,.12,1.54,.17,2.32,.17l2.3,.08-.3-.12c.92,1.24,2.05,2.31,3.35,3.15,2.06,1.1,4.51,1.16,6.63,.17h-.43c.68,.47,1.42,.87,2.19,1.19,1.18,.43,2.46,.54,3.7,.33,1.3-.31,2.56-.76,3.77-1.34l-.33-.04c.6,.45,1.22,.85,1.88,1.21,1.19,.59,2.52,.85,3.85,.74,1.62-.27,3.17-.84,4.57-1.68l-.33,.04c1.77,.53,3.7,1.41,5.56,.8,2.08-.69,3.42-2.71,3.26-4.89-.07-1.06-.17-2.11-.25-3.17l-.58-7.3-.82-10.27-.96-12.13-1.02-12.79-.97-12.27-.84-10.54-.61-7.71c-.1-1.23-.19-2.47-.29-3.7,0-.05,0-.11-.01-.16,0-.19-.13-.35-.31-.41l-5.83-.79-9.29-1.26-2.14-.29c-.53-.07-.76,.74-.23,.81h0Z"/>
          <path id="Path-418" class="cls-1" d="M74.82,104.94c-2.29,8.33-6.58,24.65-7.32,32.69,3.41-3.69,28.38-2.25,37.01-.05,1.04-3.43-5.25-33.42-5.25-33.42l-.94-8.63h-19.21"/>
          <path id="Path-419" d="M74.41,104.83c-1.14,4.14-2.23,8.3-3.27,12.47-1.15,4.62-2.24,9.27-3.11,13.96-.39,2.11-.75,4.24-.95,6.38,0,.24,.2,.42,.44,.42,.11,0,.21-.04,.28-.12,.04-.04,.08-.08,.13-.12s.2-.16,.1-.08c.12-.09,.24-.17,.36-.24,.14-.08,.29-.16,.43-.22l.11-.05c.09-.04,0,0,.04-.02,.09-.04,.18-.07,.28-.11,.85-.3,1.72-.52,2.6-.66,2.42-.38,4.87-.59,7.33-.6,2.98-.07,5.96,0,8.93,.16,2.92,.15,5.84,.39,8.75,.74,2.31,.25,4.6,.62,6.87,1.12,.22,.05,.44,.1,.66,.16,.22,.06,.45-.07,.52-.29,.17-.83,.2-1.68,.09-2.51-.09-1.42-.27-2.84-.45-4.26-.25-1.83-.53-3.66-.83-5.49-.33-1.98-.67-3.96-1.03-5.93-.35-1.93-.71-3.85-1.08-5.77-.32-1.65-.64-3.3-.97-4.95-.23-1.15-.46-2.3-.7-3.45-.07-.32-.13-.63-.2-.95-.02-.08-.03-.17-.05-.25-.04-.15,.02,.01,0,.03,0-.11,0-.22-.04-.33l-.09-.81-.28-2.53-.51-4.68-.03-.28c0-.23-.19-.41-.42-.42h-16.83c-.77,0-1.56-.03-2.33,0h-.03c-.23,0-.42,.19-.42,.42s.19,.42,.42,.42h18.43c.25,.01,.5,.01,.75,0h.03l-.42-.42,.39,3.57,.52,4.73c.04,.39,.12,.76,.2,1.14,.2,.97,.4,1.94,.6,2.92,.31,1.53,.61,3.07,.91,4.6,.36,1.87,.72,3.74,1.07,5.61,.37,1.97,.72,3.95,1.06,5.93,.32,1.87,.62,3.75,.9,5.63,.22,1.5,.42,2.99,.56,4.54,.12,.98,.14,1.97,.08,2.96-.01,.12,.02-.08,0,.02,0,.03-.01,.07-.02,.1-.01,.06-.02,.12-.04,.18l.52-.29c-2.22-.53-4.48-.93-6.75-1.19-2.9-.37-5.82-.63-8.75-.8-3.02-.18-6.04-.27-9.06-.23-2.6,0-5.19,.19-7.77,.54-.96,.13-1.91,.34-2.84,.62-.71,.2-1.38,.52-1.97,.95-.1,.08-.2,.17-.29,.26l.72,.3c.47-4.1,1.19-8.17,2.16-12.18,1.04-4.67,2.2-9.31,3.41-13.94,.57-2.15,1.14-4.3,1.73-6.45,.05-.23-.09-.45-.32-.51-.21-.05-.43,.07-.5,.28h-.01Z"/>
          <path id="Path-420" d="M100.4,223.65c-.18,.1-.34,.22-.49,.36-.33,.3-.58,.67-.73,1.09-.11,.3-.16,.61-.16,.92,0,.23,.19,.42,.42,.42s.42-.19,.42-.42h0c0-.06,0-.12,0-.18,0-.03,0-.07,.01-.1s0,.04,0,.04c0-.02,0-.04,0-.05,.02-.11,.05-.22,.08-.32,0-.03,.02-.06,.03-.08,0-.01,0-.02,.01-.03,.02-.04-.02,.05-.02,.04,.03-.04,.04-.1,.07-.14,.05-.09,.1-.17,.15-.25l.04-.05c.05-.06-.03,.04-.02,.02s.05-.07,.08-.1c.05-.06,.11-.12,.17-.17,.05-.05,.1-.09,.16-.14s-.09,.07-.01,0l.06-.04s.1-.06,.14-.09c.2-.12,.26-.38,.14-.58-.12-.2-.38-.26-.58-.15h0Z"/>
          <path id="Path-421" d="M102.21,224.63c-.18,.1-.34,.22-.49,.36-.33,.3-.58,.67-.73,1.09-.11,.3-.16,.61-.16,.93,0,.23,.19,.42,.42,.42s.42-.19,.42-.42h0c0-.06,0-.12,0-.18,0-.03,0-.07,0-.1s0,.04,0,.04c0-.02,0-.04,0-.05,.02-.11,.05-.22,.08-.32,0-.03,.02-.06,.03-.08v-.03s0,.05,0,.04c.03-.04,.04-.1,.07-.14,.04-.09,.1-.17,.15-.25l.04-.05c.05-.06-.03,.04-.02,.02l.08-.1c.05-.06,.11-.12,.17-.17s.1-.09,.15-.14-.09,.07-.01,0l.06-.04s.1-.06,.14-.09c.2-.12,.26-.38,.14-.58-.12-.2-.38-.26-.58-.15h0Z"/>
          <path id="Path-422" d="M104.29,225.04c-.18,.1-.34,.22-.49,.36-.33,.3-.58,.67-.73,1.09-.11,.3-.16,.61-.16,.93,0,.23,.19,.42,.42,.42s.42-.19,.42-.42h0c0-.06,0-.12,0-.18,0-.03,0-.07,0-.1s0,.04,0,.04c0-.02,0-.04,0-.06,.02-.11,.05-.22,.08-.32,0-.03,.02-.06,.03-.08v-.03s0,.05,0,.04c.03-.04,.04-.1,.07-.14,.05-.09,.1-.17,.15-.25l.04-.05c.05-.06-.03,.04-.02,.02s.05-.07,.08-.1c.05-.06,.11-.12,.17-.17s.1-.09,.15-.14-.09,.07-.01,0l.06-.04s.09-.06,.14-.09c.2-.12,.26-.38,.14-.58-.12-.2-.38-.26-.58-.15h0Z"/>
          <path id="Path-423" class="cls-3" d="M120.28,109.29c.74-1.48,1.56-2.93,2.45-4.32l6.08,3.29,1.73,.94,14.71-26.8,10.47,6-12.4,27.87c-3.22,5.57-9.95,8.07-16.02,5.95l-3.82-1.6-6.34-3.37c.78-2.75,1.83-5.41,3.14-7.95Z"/>
          <path id="Path-424" d="M120.64,109.5c.75-1.48,1.57-2.93,2.46-4.32l-.58,.15,6.08,3.3,1.73,.94c.2,.11,.46,.05,.58-.15l1.46-2.66,3.52-6.41,4.25-7.74,3.68-6.7,1.2-2.19c.19-.34,.42-.69,.58-1.05,0-.01,.02-.03,.02-.04l-.58,.15,3.55,2.03,5.63,3.22,1.3,.74-.15-.58-.87,1.95-2.18,4.9-2.87,6.44-2.93,6.58-2.36,5.3c-.39,.87-.77,1.75-1.16,2.62-.49,.98-1.15,1.87-1.93,2.64-1.19,1.22-2.61,2.19-4.18,2.86-1.55,.65-3.2,1.01-4.88,1.04-1.58,.06-3.16-.19-4.64-.73-.91-.36-1.81-.76-2.72-1.14l-1.04-.44c-.07-.03,.15,.08,0,0-.1-.05-.2-.11-.3-.16l-5.5-2.93-.46-.25,.19,.48c.76-2.71,1.8-5.34,3.09-7.84,.24-.48-.49-.91-.73-.43-1.33,2.57-2.39,5.26-3.18,8.04-.05,.18,.03,.38,.19,.48l4.91,2.62c.51,.27,1.02,.59,1.56,.81l2.74,1.15c.34,.15,.68,.3,1.02,.43,.71,.26,1.45,.44,2.2,.55,1.75,.29,3.53,.25,5.26-.1,3.46-.71,6.51-2.74,8.5-5.65,.5-.8,.93-1.65,1.28-2.53l2.1-4.73,2.86-6.42,2.96-6.67,2.44-5.49,1.26-2.83,.06-.13c.11-.2,.04-.46-.15-.58l-3.55-2.03-5.62-3.22-1.3-.74c-.2-.12-.46-.05-.58,.15l-1.46,2.66-3.52,6.41-4.24,7.74-3.68,6.7-1.2,2.19c-.19,.34-.42,.69-.58,1.05,0,.02-.02,.03-.02,.04l.58-.15-6.63-3.59-1.18-.64c-.2-.11-.46-.05-.58,.15-.89,1.4-1.71,2.84-2.46,4.32-.25,.49,.48,.92,.72,.43Z"/>
          <path id="Path-425" class="cls-7" d="M142.93,86.67l1.18-2.14c.8-1.46,1.44-3,1.9-4.6,.36-1.24,.78-2.88,1.18-4.84,.98-4.81,2.74-3.67,10.74,.64-2.86,2.49-2.79,3.8-2.79,3.8l-.23,8.73-2.68,6.16"/>
          <path id="Path-426" d="M143.29,86.88c.64-1.16,1.32-2.31,1.88-3.52,1.02-2.36,1.77-4.82,2.25-7.34,.14-.81,.34-1.61,.61-2.4,.13-.4,.37-.75,.68-1.03-.1,.08,.03-.02,.05-.03,.04-.02,.08-.05,.12-.07,.02-.01,.04-.02,.06-.03,.05-.03-.1,.04-.01,0,.05-.02,.11-.04,.16-.05s.09-.02,.14-.03c.12-.03-.06,0,.07,0,.12,0,.24,0,.36,0,.06,0,.12,0,.17,.01,.02,0,.08,.01,0,0l.11,.02c.14,.02,.27,.06,.41,.09,.31,.08,.61,.18,.91,.3,.92,.37,1.81,.8,2.68,1.27,1.27,.65,2.52,1.34,3.77,2.01l-.08-.66c-1.19,.91-2.15,2.1-2.78,3.46-.1,.31-.15,.64-.14,.97l-.17,6.31-.06,2.09,.06-.21-2.35,5.39-.33,.77c-.11,.2-.04,.45,.15,.58,.2,.12,.46,.05,.58-.15l1.58-3.62,.91-2.09c.14-.25,.23-.53,.26-.82l.11-4.34c.04-1.38,.08-2.76,.11-4.14v-.14c0-.09,0,0,0,.03,0-.03,.01-.07,.02-.1,.02-.1,.05-.2,.09-.29,.01-.03,.02-.05,.03-.08,.02-.06-.03,.06,.02-.03,.04-.07,.07-.15,.11-.22,.1-.18,.2-.36,.32-.53,.34-.49,.73-.95,1.16-1.37,.3-.3,.61-.59,.93-.87,.17-.17,.17-.43,0-.6,0,0,0,0,0,0-.02-.02-.05-.04-.08-.06-2.01-1.08-4-2.25-6.11-3.14-1.05-.45-2.38-1-3.5-.49-1.04,.47-1.42,1.75-1.66,2.76-.48,2.48-1.13,4.92-1.96,7.3-.69,1.6-1.48,3.16-2.36,4.65-.26,.48,.47,.9,.73,.43h0Z"/>
          <path id="Path-427" class="cls-7" d="M152.83,76.08c-.1-1.34,.06-2.68,.46-3.96,1.11-3.27,2.69-3.34,5.54-3.27s3.6-3.02,1.15-2.94c0,0-7.5-2.18-10.35,3.29-.28,.53-.52,.97-.73,1.34-.83,1.47-1.43,3.06-1.77,4.71l-.32,1.59"/>
          <path id="Path-428" d="M153.25,76.08c-.09-1.3,.06-2.6,.45-3.84,.27-1.23,1.11-2.26,2.26-2.76,.59-.16,1.19-.23,1.8-.22,.77,.06,1.54,.01,2.29-.16,1.03-.33,2.14-1.38,1.76-2.57-.18-.52-.64-.91-1.18-1-.17-.04-.34-.06-.52-.06-.12,.01,.03,.02-.03,.01s-.12-.03-.17-.04c-.72-.17-1.45-.29-2.19-.35-2.5-.34-5.04,.37-7,1.96-.55,.51-1.01,1.11-1.37,1.76-.49,.89-1.02,1.78-1.44,2.71-.47,1-.83,2.05-1.09,3.13-.12,.52-.22,1.05-.33,1.58l-.1,.48c-.11,.53,.71,.75,.82,.22,.21-1.17,.48-2.33,.83-3.46,.34-1,.78-1.96,1.3-2.87,.37-.76,.8-1.5,1.28-2.2,1.52-1.98,4.03-2.6,6.41-2.52,.79,.02,1.58,.12,2.35,.29,.16,.03,.31,.08,.47,.11s.37,.01,.53,.04c.1,.02,.2,.05,.3,.09,.09,.03,.16,.09,.22,.16,.04,.05,.07,.1,.1,.15,.02,.06,.04,.12,.04,.19,0,.17-.03,.33-.11,.48-.24,.43-.65,.75-1.13,.89-.69,.14-1.4,.18-2.1,.12-.64,0-1.27,.07-1.89,.22-2.45,.7-3.23,3.67-3.38,5.92-.03,.51-.04,1.02-.02,1.52,.02,.54,.87,.54,.85,0h0Z"/>
          <path id="Path-429" class="cls-7" d="M148.3,92.96l5.12,.04s2.59-4.53,4.18-7.42c.5-.92,.69-1.98,.53-3.01-.21-1.3-.06-2.63,.43-3.85,0,0,2.72,2.49,4.7-.3l.05-.08c.91-1.5,1.69-3.99-.37-4.51l-.31-.48c-.54-.83-1.46-1.33-2.45-1.33h-1.2l-.16-.31c-.56-.96-1.64-1.48-2.74-1.32h0c-1.51-1.63-3.94-.51-4.85,1.19"/>
          <path id="Path-430" d="M148.3,93.38l4.48,.03h.64c.15,0,.29-.08,.36-.21,.78-1.36,1.56-2.73,2.33-4.1,.6-1.07,1.2-2.13,1.79-3.2,.37-.65,.6-1.38,.68-2.12,0-.73-.03-1.46-.11-2.19-.02-.66,.06-1.33,.23-1.97,.05-.19,.11-.38,.18-.56l.03-.08c.04-.11-.01-.02,0,0,0,0,.02-.04,.02-.05l-.66,.08c.91,.88,2.18,1.27,3.42,1.06,1.01-.31,1.83-1.05,2.25-2.01,.44-.78,.69-1.64,.73-2.53,.04-1-.64-1.89-1.62-2.12l.25,.19c-.19-.32-.41-.63-.65-.92-.42-.46-.96-.8-1.56-.97-.7-.14-1.41-.18-2.12-.13l.36,.21c-.25-.55-.64-1.01-1.14-1.36-.64-.38-1.39-.54-2.13-.48l.3,.12c-1.71-1.8-4.46-.64-5.51,1.27-.26,.48,.47,.9,.73,.43,.64-1.15,2.18-2.23,3.53-1.6,.16,.07,.3,.17,.43,.28,.21,.18,.31,.33,.6,.34,.39-.01,.79,.04,1.17,.15,.59,.23,1.05,.69,1.29,1.27,.08,.13,.21,.21,.36,.21,.87-.12,1.76,.02,2.55,.4,.42,.31,.76,.7,1.02,1.16,.17,.24,.42,.25,.67,.38,.19,.1,.34,.24,.45,.42,.46,.81-.03,2.03-.41,2.8-.38,1.07-1.42,1.77-2.55,1.71-.47-.08-.92-.25-1.32-.51-.08-.05-.16-.1-.24-.16l-.09-.07c-.08-.06,0,.01-.02-.02-.05-.04-.1-.08-.15-.12-.17-.16-.44-.16-.61,.01-.02,.02-.04,.05-.06,.07-.31,.71-.5,1.46-.55,2.23-.03,.73,0,1.47,.1,2.2,.06,.71-.06,1.43-.34,2.08-.24,.56-.58,1.08-.88,1.61-.31,.55-.61,1.09-.92,1.64-.55,.98-1.11,1.96-1.67,2.94-.3,.52-.6,1.04-.89,1.56l.36-.21-4.47-.03h-.64c-.23,.01-.41,.21-.4,.44,.01,.22,.18,.39,.4,.4h0Z"/>
          <path id="Path-431" class="cls-1" d="M142.27,87.14l2.55-3.94,10.45,6.04-1.86,3.72"/>
          <path id="Path-432" d="M142.64,87.35l2.22-3.44,.32-.5-.58,.15,3.54,2.05,5.61,3.24,1.3,.75-.15-.58-1.86,3.72c-.24,.48,.49,.91,.73,.43l1.86-3.72c.11-.2,.05-.46-.15-.58l-3.54-2.04-5.61-3.24-1.3-.75c-.2-.11-.46-.05-.58,.15l-2.22,3.44-.32,.5c-.3,.46,.43,.88,.73,.43h0Z"/>
          <path id="Path-433" class="cls-1" d="M91.38,95.32l9.68-.03c1.84,0,3.66,.43,5.3,1.27l16.37,8.4,7.82,4.28,4.08-11.16c1.73-4.73,4.65-8.94,8.48-12.22l.55-.47,10.56,6.4,1.46,6.5c.47,2.1,.13,4.31-.97,6.17l-10.65,17.95c-3.93,6.05-11.75,8.22-18.24,5.07l-8.57-4.16-20.34-10.34"/>
          <path id="Path-434" d="M91.38,95.74l8.56-.02h1.12c1.58,0,3.13,.32,4.57,.97,.73,.33,1.44,.72,2.15,1.09l9.2,4.72c1.86,.96,3.74,1.88,5.59,2.87,2.52,1.35,5.02,2.75,7.53,4.13l.24,.13c.21,.11,.47,.04,.58-.17,0,0,0,0,0,0,.01-.03,.02-.05,.03-.08l2.71-7.42,1.29-3.53c.77-2.12,1.77-4.15,2.99-6.04,1.67-2.51,3.69-4.76,6-6.69l-.51,.07,3.58,2.17,5.67,3.44,1.31,.79-.19-.25,.79,3.5,.51,2.25c.14,.53,.24,1.07,.31,1.62,.17,1.83-.26,3.67-1.23,5.23l-1.39,2.34-4.98,8.4-3.89,6.56c-3.31,5.47-9.93,7.97-16.02,6.05-1.17-.41-2.3-.91-3.4-1.48-2.35-1.14-4.71-2.26-7.04-3.42-1.55-.77-3.09-1.57-4.64-2.36l-9.04-4.6-6.33-3.22-.33-.17c-.48-.25-.91,.48-.43,.73l6.18,3.14,10.52,5.35c1.58,.81,3.16,1.62,4.75,2.4l5.16,2.51c1.33,.71,2.71,1.33,4.12,1.86,5.68,1.85,11.92,.12,15.83-4.4,.7-.86,1.33-1.77,1.87-2.74l2.37-4,5.94-10.02,1.57-2.64c1.21-2.02,1.59-4.43,1.07-6.72-.38-1.68-.75-3.35-1.13-5.03l-.23-1.01c-.01-.19-.08-.38-.19-.54-.27-.21-.56-.39-.86-.54l-9.03-5.48-.74-.45c-.17-.09-.37-.07-.51,.07-2.04,1.71-3.86,3.66-5.42,5.82-1.55,2.19-2.81,4.58-3.72,7.1-.98,2.67-1.96,5.34-2.93,8.02l-1.14,3.1,.62-.25-7.38-4.04c-1.63-.89-3.3-1.71-4.95-2.55l-9.49-4.87-2.32-1.19c-1.83-.92-3.85-1.39-5.9-1.35l-9.09,.03h-.26c-.23,0-.42,.19-.42,.42s.19,.42,.42,.42h0Z"/>
          <path id="Path-435" class="cls-1" d="M112.1,230.76c.37,.93,.55,1.93,.54,2.93h-27.37l-.03-1.97h-.02v-3.43s3.68-1.23,7.96,1.72c2.94,1.1,3.79-1.72,6.85-1.35s2.04,1.39,3.89,1.37c1.34,.03,2.64-.41,3.69-1.25,1.47-1.35,3.35-.7,4.49,1.98Z"/>
          <path id="Path-436" d="M111.69,230.88c.36,.89,.54,1.85,.52,2.81l.42-.42h-26.25c-.36-.02-.71-.02-1.07,0h-.05l.42,.42-.03-1.97c0-.23-.19-.42-.42-.42h-.01l.42,.42v-3.43l-.31,.41c.37-.12,.75-.19,1.13-.21,1.04-.09,2.08,0,3.08,.28,.67,.18,1.31,.42,1.93,.73,.66,.44,1.36,.8,2.1,1.08,1.03,.22,2.1,.04,3-.49,.8-.52,1.7-.87,2.64-1.02,.65-.03,1.3,.05,1.92,.24,.19,.05,.38,.12,.56,.21,.07,.04,.15,.08,.22,.12,.04,.02,.22,.16,.14,.1,.19,.18,.4,.34,.62,.48,.35,.17,.73,.26,1.12,.25,.76,.02,1.52-.09,2.24-.31,.69-.22,1.32-.58,1.86-1.05,.35-.34,.81-.54,1.3-.56,1.27,.01,2.08,1.43,2.52,2.46,.12,.2,.38,.27,.58,.15,.19-.12,.26-.37,.15-.58-.42-1.21-1.32-2.2-2.49-2.74-.47-.17-.99-.18-1.47-.04-.52,.19-.99,.49-1.39,.87-.85,.62-1.87,.95-2.92,.96h-.49c-.1,0-.21-.01-.25-.02-.08-.01-.15-.03-.23-.05-.03,0-.07-.02-.1-.03,.08,.03,0,0-.03-.02-.05-.03-.1-.06-.15-.09-.01,0-.09-.06-.04-.03s-.03-.03-.05-.04c-.24-.22-.5-.4-.78-.56-1.13-.49-2.38-.65-3.59-.46-.51,.12-1,.31-1.46,.55-.77,.53-1.65,.87-2.58,.98-.26,0-.52-.04-.78-.11-.36-.13-.7-.32-1.01-.54-.68-.41-1.41-.75-2.16-1.01-1.12-.39-2.31-.59-3.5-.57-.62,0-1.23,.08-1.83,.24l-.08,.02c-.18,.05-.31,.22-.31,.41v3.43c0,.23,.19,.42,.42,.42h.01l-.42-.42,.03,1.97c0,.23,.19,.42,.42,.42h23.98c1.11,0,2.23,.04,3.33,0h.05c.23,0,.42-.19,.42-.42,.02-1.04-.17-2.07-.55-3.04-.18-.5-1-.28-.81,.23Z"/>
          <path id="Path-437" class="cls-7" d="M158.31,79.49s.9-2.94,2.18-3.4"/>
          <path id="Path-438" d="M158.72,79.6c.1-.33,.23-.66,.36-.98-.03,.07,0,0,.01-.02l.04-.1c.03-.08,.07-.15,.1-.23,.07-.15,.15-.3,.23-.45,.08-.15,.17-.3,.26-.45,.04-.07,.09-.14,.14-.2l.07-.09s.05-.07,.02-.03,.02-.02,.02-.03c.11-.13,.23-.26,.36-.37,.07-.06-.03,.01,.03-.02,.03-.02,.07-.05,.1-.07s.07-.04,.1-.06l.04-.02c.05-.02-.1,.04,0,0,.22-.07,.35-.29,.3-.51-.06-.22-.3-.35-.52-.29-.66,.31-1.2,.84-1.52,1.5-.33,.57-.6,1.18-.82,1.8-.05,.13-.09,.26-.14,.4-.15,.52,.66,.74,.82,.23Z"/>
          <path id="Path-439" class="cls-1" d="M96.65,95.53h-16.79c.33-2.25,2.27-3.92,4.54-3.93h3.39c.72,0,1.43,.17,2.07,.49l6.78,3.43Z"/>
          <path id="Path-440" d="M96.65,95.11h-16.79l.41,.53c.28-1.92,1.83-3.4,3.76-3.6,.48-.04,.96-.02,1.44-.02h1.97c.76-.03,1.52,.12,2.22,.44,.22,.11,.45,.23,.67,.34l3.47,1.75,2.65,1.34c.48,.25,.91-.48,.43-.73l-5.99-3.03c-.26-.13-.52-.27-.79-.4-.77-.38-1.61-.57-2.47-.55-1.12,0-2.25-.04-3.37,0-2.4,.09-4.41,1.86-4.8,4.24-.06,.23,.08,.46,.31,.52,.03,0,.06,.01,.1,.01h16.79c.23-.02,.41-.22,.39-.45-.01-.21-.18-.38-.39-.39h0Z"/>
          <path id="Path-441" d="M98.07,83.54c.33,.54,.85,.94,1.46,1.11,.31,.07,.62,.08,.93,.01,.23-.06,.36-.29,.3-.52,0,0,0,0,0,0-.07-.22-.3-.35-.52-.29h-.05s-.04,.02,.03,.01c-.03,0-.07,0-.1,0-.07,0-.13,0-.2,0-.04,0-.13-.03,0,0-.03,0-.06-.01-.09-.02-.06-.01-.12-.03-.18-.05-.02-.01-.05-.02-.08-.04-.07-.03,.1,.05,0,0-.05-.02-.1-.05-.15-.08s-.09-.06-.14-.09l-.06-.05c.12,.08,.04,.03,.01,0-.13-.11-.25-.23-.35-.36-.04-.05,.08,.1,.03,.04l-.02-.03-.04-.05-.03-.05c-.11-.2-.37-.27-.58-.16-.2,.11-.27,.36-.17,.56v.03Z"/>
          <path id="Path-442" d="M124.37,106.34l3.5,1.99,5.55,3.16,1.28,.73c.21,.11,.46,.02,.57-.19,.1-.19,.04-.42-.14-.54l-3.49-2-5.55-3.16-1.28-.73c-.2-.11-.46-.04-.57,.17-.11,.19-.04,.44,.14,.56h0Z"/>
          <path id="Path-443" class="cls-9" d="M79.77,72.79h0c.41-2.14-.58-4.31-2.46-5.41l-20.83-12.12-1.69,5.92,2.53,2.54-2.53,1.35-1.18,4.06,5.23,1.52-5.9,1.86-2.36,7.78,24.87-3.38c2.18-.31,3.92-1.97,4.33-4.13h0Z"/>
          <path id="Path-444" d="M80.18,72.91c.38-1.96-.31-3.97-1.81-5.28-.42-.34-.86-.63-1.33-.89l-4.33-2.52-6.6-3.84-6.21-3.61c-1.05-.61-2.09-1.26-3.16-1.84l-.04-.03c-.21-.12-.47-.04-.58,.16-.02,.03-.03,.06-.04,.09l-1.47,5.17-.21,.75c-.04,.15,0,.3,.11,.41l2.53,2.54,.09-.66-1.22,.65c-.43,.23-.9,.44-1.31,.7-.14,.11-.23,.26-.25,.44l-.2,.65-.57,1.95-.37,1.27c-.06,.23,.08,.46,.3,.52l4.57,1.33,.66,.19v-.81l-5.79,1.82c-.18,.03-.34,.16-.41,.33-.02,.06-.04,.13-.06,.19l-.35,1.17-1.16,3.81-.8,2.62c-.1,.34,.22,.56,.52,.52l3.1-.42,7.14-.97,7.99-1.09,5.67-.77c.32-.04,.65-.08,.97-.13,1.79-.27,3.34-1.4,4.15-3.02,.22-.44,.38-.91,.47-1.4,.1-.53-.71-.76-.82-.22-.36,1.87-1.79,3.35-3.65,3.76-.36,.08-.73,.11-1.09,.16l-5.26,.72-7.83,1.07-7.31,.99-2.51,.34c-.39,.05-.8,.08-1.19,.16-.02,0-.04,0-.05,0l.52,.52,2.07-6.81,.29-.97-.29,.29,5.16-1.63,.74-.24c.22-.07,.35-.3,.28-.53-.04-.14-.15-.24-.28-.28l-4.57-1.33-.66-.19,.3,.52,1.18-4.06-.19,.25,2.53-1.35c.2-.12,.27-.38,.15-.58,0,0,0,0,0,0-.02-.03-.04-.06-.06-.08l-2.53-2.54,.11,.41,1.47-5.17,.21-.75-.62,.25,2.53,1.47,5.88,3.42,6.62,3.85,4.82,2.81,.94,.55c1.74,1,2.66,2.98,2.29,4.95-.1,.53,.72,.76,.82,.23Z"/>
          <path id="Path-445" d="M76.94,138.54c-.46,2.08-.74,4.2-.84,6.33-.34,4.44,.15,8.91,1.45,13.17,.86,2.7,2.23,5.22,4.03,7.41l-.12-.3c.06,3.27,.09,6.54,.1,9.81,.02,3.49,.02,6.98,.02,10.47,0,3.2-.02,6.39-.04,9.59-.01,2.39-.03,4.77-.05,7.16,0,1.06-.07,2.13-.03,3.19v.04c.01,.23,.21,.41,.44,.4,.22-.01,.39-.18,.4-.4,.03-2.44,.05-4.87,.06-7.31,.04-5.46,.06-10.92,.06-16.38,0-3.02-.01-6.05-.03-9.07-.01-1.45-.02-2.9-.04-4.36,0-.66-.02-1.32-.03-1.98,0-.33-.01-.67-.02-1,.01-.2-.06-.39-.19-.53-.12-.15-.24-.29-.36-.44-3.43-4.43-4.72-10.14-4.88-15.64-.12-3.29,.16-6.57,.84-9.79,.01-.05,.02-.1,.03-.15,.12-.53-.69-.75-.81-.23h0Z"/>
          <path id="Path-446" class="cls-7" d="M47.2,153.02l11.76-2.85s3.11,4.34,2.84,5.83-2.3,1.9-2.3,1.9l-2.57-1.08s-2.43-.14-3.11-3.39"/>
          <path id="Path-447" d="M47.31,153.43l3.99-.97,6.32-1.53,1.45-.35-.48-.19c.64,.9,1.24,1.83,1.77,2.8,.38,.64,.69,1.32,.92,2.03,.04,.13,.07,.26,.09,.4-.01-.08,0,.08,0,.12,0,.07,0,.13,0,.2,.01-.12,0,.01-.01,.04-.01,.05-.02,.1-.04,.15-.03,.08-.06,.16-.11,.23-.1,.16-.22,.31-.36,.43-.42,.36-.93,.6-1.47,.7l.33,.04-2.55-1.08c-.08-.03-.16-.06-.24-.07-.07,0-.05-.01,.03,0-.13-.03-.26-.05-.39-.09-.09-.02-.17-.05-.25-.09s0,0,0,0l-.08-.04c-.06-.03-.12-.06-.17-.09-.23-.12-.45-.27-.64-.45-.63-.64-1.04-1.45-1.19-2.34-.11-.53-.93-.3-.82,.22,.21,1.27,.93,2.41,1.98,3.16,.46,.31,.98,.49,1.53,.54l-.21-.06,2.23,.94c.23,.14,.49,.2,.76,.16,.42-.1,.83-.27,1.2-.49,.55-.31,.99-.79,1.22-1.38,.15-.45,.15-.93,0-1.38-.35-1.09-.85-2.12-1.48-3.08-.41-.68-.85-1.35-1.31-2-.1-.16-.29-.24-.48-.19l-3.99,.97-6.32,1.53-1.46,.36c-.53,.13-.3,.94,.23,.81h0Z"/>
          <path id="Path-448" class="cls-7" d="M54.82,164.49l4.11-1.17c5.04-1.76,4.9-4.34,4.9-4.34,0,0-.14-3.93-1.49-4.47s-2.3,1.76-2.3,1.76c0,0-2.16-2.17-3.11,.54-.94-1.36-2.3-1.22-3.24,.68-1.08-.88-1.86-.78-2.37-.46-.49,.33-.74,.92-.63,1.51l.4,2.26c.09,.53-.17,1.06-.65,1.3h0"/>
          <path id="Path-449" d="M54.93,164.9l3.67-1.04c1.79-.43,3.42-1.37,4.69-2.71,.56-.59,.9-1.36,.96-2.17-.02-.54-.07-1.08-.16-1.61-.09-.85-.33-1.67-.73-2.43-.21-.39-.55-.7-.96-.86-.49-.15-1.03-.06-1.44,.26-.6,.47-1.06,1.1-1.32,1.82l.71-.19c-.41-.41-.91-.72-1.47-.88-.44-.12-.91-.07-1.31,.15-.51,.35-.87,.87-1.04,1.46l.77-.1c-.41-.72-1.19-1.14-2.02-1.09-.9,.24-1.62,.9-1.96,1.76l.66-.08c-.57-.54-1.34-.83-2.12-.79-.7,.09-1.29,.58-1.52,1.25-.12,.46-.12,.94,0,1.4l.26,1.45c.09,.48,.15,.97-.38,1.24-.49,.24-.06,.97,.43,.73,.64-.34,.98-1.07,.85-1.78-.05-.32-.12-.65-.17-.97-.14-.76-.57-1.93,.33-2.39,.55-.29,1.25,.08,1.73,.46,.17,.16,.44,.16,.61-.01,0,0,0,0,0,0,.02-.02,.04-.05,.06-.07,.27-.53,.68-1.23,1.32-1.35,.5-.02,.96,.24,1.2,.68,.13,.2,.39,.26,.59,.13,.09-.05,.15-.14,.18-.23,.1-.42,.37-.78,.73-1,.11-.04,.23-.06,.35-.06,.13,0,.27,.04,.39,.09,.25,.1,.48,.24,.69,.4-.08-.06,.03,.02,.06,.04l.1,.08s.06,.05,.09,.08c.17,.16,.44,.16,.61-.02,.05-.05,.08-.11,.1-.17-.07,.18,0,0,.03-.06,.06-.12,.12-.24,.19-.35,.17-.31,.39-.59,.64-.84,.2-.23,.51-.33,.81-.26,.24,.09,.42,.28,.52,.51,.34,.69,.55,1.44,.63,2.21,.07,.46,.12,.92,.13,1.38v.11s0,.04,0,.06c0,.07,.03-.13,0-.01-.02,.07-.03,.14-.05,.21-.02,.09-.05,.17-.08,.26-.01,.03-.07,.17-.02,.06-.02,.06-.05,.11-.08,.17-.12,.23-.26,.45-.42,.65-1.13,1.24-2.61,2.12-4.24,2.52l-3.81,1.08c-.22,.07-.34,.31-.26,.54,.07,.2,.28,.32,.49,.28h0Z"/>
        </g>
      </g>
    </g>
  </g>
</svg>