<?xml version="1.0" encoding="UTF-8"?>
<svg id="Layer_2" data-name="Layer 2" xmlns="http://www.w3.org/2000/svg" viewBox="0 0 51.08 52.91">
  <g id="Layer_1-2" data-name="Layer 1">
    <g id="adcb09789e1e8d19b9d6c8efd2ec5b93">
      <path id="Path_1506" data-name="Path 1506" d="M49.25,5.48H25.99v-1.89c.98-.25,1.56-1.25,1.31-2.22S26.06-.19,25.08,.06c-.98,.25-1.56,1.25-1.31,2.22,.17,.64,.67,1.14,1.31,1.31v1.89H1.82c-1.01,0-1.82,.82-1.82,1.82s.82,1.82,1.82,1.82h.91v31.47c0,.25,.2,.46,.46,.46H14.48l-2.61,11.3c-.06,.25,.1,.49,.35,.55,.03,0,.07,.01,.1,.01h3.65c.21,0,.4-.15,.44-.35l.97-4.21h16.32l.97,4.21c.05,.21,.23,.35,.44,.35h3.65c.25,0,.46-.21,.46-.46,0-.03,0-.07-.01-.1l-2.61-11.3h11.29c.25,0,.46-.2,.46-.46h0V9.13h.91c1.01,0,1.82-.82,1.82-1.82s-.82-1.82-1.82-1.82h0ZM24.63,1.83c0-.5,.41-.91,.91-.91,.5,0,.91,.41,.91,.91,0,.5-.41,.91-.91,.91h0c-.5,0-.91-.41-.91-.91ZM15.6,52h-2.71l2.53-10.94h2.71l-2.53,10.94Zm16.42-10.94l.84,3.65h-14.64l.84-3.65h12.95Zm-14.43,6.38l.42-1.82h15.06l.42,1.82h-15.9Zm20.6,4.56h-2.71l-2.53-10.94h2.71l2.52,10.94Zm9.24-11.86H3.65V9.13H47.43v31.01Zm1.82-31.92H1.82c-.5-.02-.89-.45-.87-.95,.02-.47,.4-.85,.87-.87H49.25c.5,.02,.89,.45,.87,.95-.02,.47-.4,.85-.87,.87h0Z"/>
      <path id="Path_1507" data-name="Path 1507" d="M7.75,38.31h5.47c1.08,0,2.02-.76,2.23-1.82h7.59l2.61,2.61c.18,.18,.46,.18,.64,0,0,0,0,0,0,0l2.61-2.61h6.71c.22,1.06,1.15,1.82,2.23,1.82h5.47c1.26,0,2.28-1.02,2.28-2.28s-1.02-2.28-2.28-2.28h-5.47c-1.08,0-2.02,.76-2.23,1.82h-6.7l-2.44-2.44-.02-4.86h1.82v1.37c0,.25,.2,.46,.46,.46h7.3c.25,0,.46-.2,.46-.46h0v-3.65c0-.25-.2-.46-.46-.46h-3.19v-2.74h4.1c.25,0,.46-.2,.46-.46h0v-3.65c0-.25-.2-.46-.46-.46h-4.1v-1.37c0-.25-.2-.46-.46-.46h-6.38v-.91h3.65c1.26,0,2.28-1.02,2.28-2.28,0-1.26-1.02-2.28-2.28-2.28h-8.21c-1.26,0-2.28,1.02-2.28,2.28s1.02,2.28,2.28,2.28h3.65v.91h-6.39c-.25,0-.46,.2-.46,.46h0v1.37h-4.1c-.25,0-.46,.2-.46,.46h0v1.37h-3.2c-.25,0-.46,.2-.46,.46h0v4.35l-2.63,2.63c-.18,.18-.18,.47,0,.64,0,0,0,0,0,0l2.63,2.63v2.97h-2.28c-1.26,0-2.28,1.02-2.28,2.28s1.02,2.28,2.28,2.28h0ZM20.07,13.23c0-.76,.61-1.37,1.37-1.37h8.21c.76,0,1.37,.61,1.37,1.37s-.61,1.37-1.37,1.37h-8.21c-.76,0-1.37-.61-1.37-1.37Zm17.78,21.43h5.47c.76,0,1.37,.61,1.37,1.37s-.61,1.37-1.37,1.37h-5.47c-.76,0-1.37-.61-1.37-1.37s.61-1.37,1.37-1.37Zm-11.88,3.47l-2.1-2.1,2.1-2.1,2.1,2.1-2.1,2.1Zm9.6-8.94h-6.39v-2.74h6.39v2.74Zm.91-7.3h-8.21v-2.73h8.21v2.73Zm-21.89-2.74h8.21v2.74H14.59v-2.74Zm-.91,1.82v1.37c0,.25,.2,.46,.46,.46h9.12c.25,0,.46-.2,.46-.46h0v-3.65c0-.25-.2-.46-.46-.46h-4.1v-.91h12.76v.92h-4.1c-.25,0-.46,.2-.46,.46h0v3.64c0,.25,.2,.46,.46,.46h4.1v2.74h-3.19c-.25,0-.46,.2-.46,.46h0v1.37h-4.56v-1.37c0-.25-.2-.46-.46-.46h-7.3c-.25,0-.46,.2-.46,.46h0v1.37h-2.1l-2.46-2.46v-3.93h2.74Zm2.74,5.47h6.39v2.74h-6.39v-2.74Zm-5.94-.73l2.1,2.1-2.1,2.1-2.1-2.1,2.1-2.1Zm.47,5.01l2.46-2.46h2.1v1.37c0,.25,.2,.46,.46,.46h7.3c.25,0,.46-.2,.46-.46h0v-1.37h1.82l-.02,4.82-2.48,2.48h-7.59c-.22-1.06-1.15-1.82-2.23-1.83h-2.28v-3.01Zm-3.2,3.93h5.48c.74,0,1.35,.6,1.37,1.34,0,0,0,.02,0,.03s0,.02,0,.03c-.01,.74-.62,1.34-1.37,1.34H7.75c-.76,0-1.37-.61-1.37-1.37s.61-1.37,1.37-1.37h0Z"/>
    </g>
  </g>
</svg>