<?xml version="1.0" encoding="UTF-8"?>
<svg id="Layer_2" data-name="Layer 2" xmlns="http://www.w3.org/2000/svg" viewBox="0 0 160.82 135.19">
  <defs>
    <style>
      .cls-1 {
        fill: #fff;
      }

      .cls-2 {
        fill: #ccc;
      }
    </style>
  </defs>
  <g id="Layer_1-2" data-name="Layer 1">
    <g id="Group_62" data-name="Group 62">
      <path id="Path_874" data-name="Path 874" class="cls-2" d="M40.45,36.19c-1.8-1.83-3.56-3.75-5.29-5.78L10.02,5.16c1.71,2.04,3.47,3.97,5.29,5.79l25.15,25.24Z"/>
      <path id="Path_875" data-name="Path 875" class="cls-2" d="M14.2,38.74l25.15,25.24c1.22,1.22,2.54,2.34,3.95,3.35l-25.15-25.24c-1.4-1.01-2.72-2.13-3.95-3.35Z"/>
      <path id="Path_876" data-name="Path 876" class="cls-2" d="M13.94,58.83l25.15,25.25c3.79,3.73,8.57,6.3,13.78,7.4l-25.14-25.26c-5.21-1.1-9.99-3.66-13.79-7.39Z"/>
      <path id="Path_877" data-name="Path 877" d="M155.08,32.26c.19-.37,.35-.76,.54-1.14,.33-.69,.7-1.36,.98-2.09,.19-.54,.38-1.04,.54-1.57L131.99,2.2c-.41,1.26-.92,2.48-1.52,3.67-.18,.38-.33,.78-.54,1.14-.5,.85-1.04,1.67-1.62,2.46-.34,.49-.63,1.02-1,1.48-.68,.81-1.4,1.57-2.16,2.3-.37,.37-.69,.78-1.08,1.13-1.22,1.08-2.52,2.07-3.89,2.95l6.3,6.32c-1.31,1.2-2.67,2.33-4.09,3.39l-.48,.89c.08,2.47,0,4.94-.17,7.4-.11,1.62-.23,3.27-.45,4.9-.3,2.36-.73,4.68-1.24,6.98-.32,1.43-.69,2.84-1.08,4.24-.15,.54-.26,1.08-.43,1.62-.59,1.95-1.24,3.88-1.97,5.79-.78,2.06-1.65,4.09-2.59,6.09-.87,1.83-1.83,3.59-2.82,5.34-.69,1.22-1.45,2.39-2.2,3.56-.49,.76-.94,1.54-1.45,2.29-.89,1.3-1.86,2.55-2.82,3.78-.44,.57-.84,1.17-1.3,1.72-1.45,1.78-2.98,3.49-4.59,5.15-9.87,10.24-22.46,17.44-36.28,20.77l-21.47-21.55c-7.15-.17-13.95-3.09-18.99-8.17l25.15,25.24c2.44,2.44,5.31,4.4,8.47,5.78-3.55,.56-7.12,.91-10.71,1.04-.84,.03-1.67,.04-2.51,.04-14.79,.06-29.3-4.09-41.81-11.98l-.67-.42,25.15,25.24,.67,.42c12.51,7.89,27.02,12.05,41.81,11.98,.83,0,1.66,0,2.5-.04,5.21-.13,10.39-.74,15.49-1.81,14.62-3.11,27.97-10.53,38.34-21.29,1.62-1.66,3.15-3.38,4.59-5.15,.04-.05,.08-.09,.12-.14,.42-.54,.77-1.08,1.18-1.59,.97-1.25,1.93-2.5,2.82-3.78,.51-.75,.97-1.53,1.45-2.29,.75-1.18,1.5-2.35,2.2-3.56,.1-.17,.22-.34,.32-.54,.88-1.57,1.72-3.18,2.51-4.82,.94-2,1.81-4.03,2.59-6.09l.05-.12c.71-1.87,1.34-3.78,1.92-5.67,.16-.54,.28-1.08,.43-1.62,.35-1.25,.71-2.49,1-3.78,.03-.16,.05-.33,.08-.49,.51-2.31,.93-4.62,1.24-6.98,.18-1.34,.32-2.7,.43-4.03v-.86c.16-2.47,.24-4.94,.17-7.41l.48-.88c1.88-1.36,3.68-2.85,5.37-4.44,.54-.54,1.02-1.12,1.54-1.66,1.08-1.08,2.16-2.16,3.12-3.35l.12-.15c.17-.19,.33-.39,.49-.58,.95-1.17,1.81-2.39,2.66-3.68l-5.88-5.9c.06-.06,.1-.15,.14-.23Z"/>
      <g id="Group_61" data-name="Group 61">
        <path id="Path_878" data-name="Path 878" class="cls-1" d="M135.7,13.15c-.96,1.48-2.01,2.91-3.15,4.26-2.94,3.64-6.35,6.87-10.15,9.61l-.48,.89c.13,4.11-.07,8.23-.62,12.31-2.3,17.54-10.18,33.87-22.48,46.59-10.37,10.77-23.72,18.18-38.34,21.29-5.1,1.08-10.28,1.69-15.49,1.82-.84,.03-1.67,.04-2.51,.04-14.79,.06-29.3-4.09-41.81-11.98l-.67-.42c2.17,.23,4.34,.35,6.52,.35,7.3,0,14.53-1.4,21.29-4.15,4.76-1.95,9.22-4.55,13.25-7.73-11.8-.26-22.12-8.01-25.67-19.27,1.7,.33,3.43,.5,5.16,.5,2.27,0,4.53-.28,6.74-.81l.42-.21c-12.94-2.73-22.13-14.25-21.91-27.48,3.79,2.07,8.02,3.21,12.33,3.33C6.19,33.8,2.64,17.7,10.01,5.16c14.03,17.32,34.75,27.87,57.02,29.03-.15-1.14-.3-2.07-.45-3.06-1.6-14.73,8.53-28.17,23.14-30.69,1.67-.28,3.36-.43,5.05-.43,7.24,.02,14.17,2.96,19.2,8.17,.26,.29,.63,.46,1.02,.48,.15,0,.29-.03,.43-.06,5.69-1.19,11.16-3.27,16.2-6.18l.37-.21c-1.98,6.3-6.17,11.67-11.8,15.12,5.35-.6,10.58-2,15.52-4.16Z"/>
      </g>
    </g>
  </g>
</svg>